%TF.GenerationSoftware,KiCad,Pcbnew,9.0.4*%
%TF.CreationDate,2026-06-04T22:37:21-04:00*%
%TF.ProjectId,wrist_board,77726973-745f-4626-9f61-72642e6b6963,rev?*%
%TF.SameCoordinates,Original*%
%TF.FileFunction,Copper,L3,Inr*%
%TF.FilePolarity,Positive*%
%FSLAX46Y46*%
G04 Gerber Fmt 4.6, Leading zero omitted, Abs format (unit mm)*
G04 Created by KiCad (PCBNEW 9.0.4) date 2026-06-04 22:37:21*
%MOMM*%
%LPD*%
G01*
G04 APERTURE LIST*
%TA.AperFunction,ComponentPad*%
%ADD10R,1.900000X1.900000*%
%TD*%
%TA.AperFunction,ComponentPad*%
%ADD11C,1.900000*%
%TD*%
%TA.AperFunction,ComponentPad*%
%ADD12C,1.800000*%
%TD*%
%TA.AperFunction,ComponentPad*%
%ADD13R,1.700000X1.700000*%
%TD*%
%TA.AperFunction,ComponentPad*%
%ADD14C,1.700000*%
%TD*%
%TA.AperFunction,HeatsinkPad*%
%ADD15O,1.000000X2.100000*%
%TD*%
%TA.AperFunction,HeatsinkPad*%
%ADD16O,1.000000X1.800000*%
%TD*%
%TA.AperFunction,ComponentPad*%
%ADD17R,1.308000X1.308000*%
%TD*%
%TA.AperFunction,ComponentPad*%
%ADD18C,1.308000*%
%TD*%
%TA.AperFunction,ViaPad*%
%ADD19C,0.600000*%
%TD*%
G04 APERTURE END LIST*
D10*
%TO.N,/FS_5*%
%TO.C,J7*%
X76920000Y-88900000D03*
D11*
%TO.N,GND*%
X73420000Y-88900000D03*
%TD*%
%TO.N,GND*%
%TO.C,J6*%
X84017500Y-88900000D03*
D10*
%TO.N,/FS_4*%
X87517500Y-88900000D03*
%TD*%
%TO.N,/FS_3*%
%TO.C,J5*%
X98115000Y-88900000D03*
D11*
%TO.N,GND*%
X94615000Y-88900000D03*
%TD*%
D10*
%TO.N,/FS_2*%
%TO.C,J4*%
X108712500Y-88900000D03*
D11*
%TO.N,GND*%
X105212500Y-88900000D03*
%TD*%
D10*
%TO.N,/FS_1*%
%TO.C,J3*%
X119310000Y-88900000D03*
D11*
%TO.N,GND*%
X115810000Y-88900000D03*
%TD*%
D12*
%TO.N,+5V*%
%TO.C,TP5*%
X83312000Y-116840000D03*
%TD*%
%TO.N,/INT*%
%TO.C,TP1*%
X87249000Y-106426000D03*
%TD*%
D13*
%TO.N,/IO11*%
%TO.C,J8*%
X109982000Y-121412000D03*
D14*
%TO.N,/IO12*%
X109982000Y-123952000D03*
%TO.N,/IO14*%
X107442000Y-121412000D03*
%TO.N,/IO13*%
X107442000Y-123952000D03*
%TD*%
D12*
%TO.N,/SCL*%
%TO.C,TP2*%
X100203000Y-99695000D03*
%TD*%
D15*
%TO.N,GND*%
%TO.C,J2*%
X92200000Y-121355000D03*
D16*
X92200000Y-125535000D03*
D15*
X100840000Y-121355000D03*
D16*
X100840000Y-125535000D03*
%TD*%
D12*
%TO.N,/SDA*%
%TO.C,TP3*%
X95123000Y-99695000D03*
%TD*%
%TO.N,+3V3*%
%TO.C,TP6*%
X86360000Y-97536000D03*
%TD*%
%TO.N,GND*%
%TO.C,TP4*%
X80391000Y-123571000D03*
%TD*%
D17*
%TO.N,/<NO NET>*%
%TO.C,J1*%
X72914000Y-120723500D03*
D18*
%TO.N,GND*%
X74914000Y-120723500D03*
%TD*%
D19*
%TO.N,GND*%
X113792000Y-92964000D03*
%TO.N,+3V3*%
X112268000Y-85344000D03*
%TO.N,GND*%
X101600000Y-93472000D03*
%TO.N,+3V3*%
X101600000Y-85344000D03*
X80772000Y-85852000D03*
%TO.N,GND*%
X91440000Y-93472000D03*
%TO.N,+3V3*%
X91440000Y-85852000D03*
%TO.N,GND*%
X80772000Y-93472000D03*
X73660000Y-87376000D03*
X67056000Y-92456000D03*
%TO.N,+3V3*%
X67056000Y-89916000D03*
%TO.N,GND*%
X83820000Y-90932000D03*
X94488000Y-90932000D03*
X105156000Y-90932000D03*
X115824000Y-90932000D03*
%TO.N,+3V3*%
X122428000Y-88900000D03*
%TO.N,GND*%
X84582000Y-99568000D03*
X120015000Y-106680000D03*
X69088000Y-116652000D03*
X69088000Y-124780000D03*
X89408000Y-110236000D03*
X99568000Y-115316000D03*
X74676000Y-99060000D03*
X88392000Y-114808000D03*
X92964000Y-106172000D03*
X74168000Y-112776000D03*
X123444000Y-125730000D03*
X78232000Y-113284000D03*
X78232000Y-103020500D03*
X92710000Y-112395000D03*
X74930000Y-118364000D03*
X117983000Y-125857000D03*
X76200000Y-117348000D03*
X90805000Y-121412000D03*
X114935000Y-106680000D03*
X82672000Y-95758000D03*
X120015000Y-103505000D03*
X125148000Y-95303000D03*
X94742000Y-115316000D03*
X88900000Y-103505000D03*
X125095000Y-93787000D03*
X72644000Y-106172000D03*
X73274000Y-96012000D03*
X83820000Y-109220000D03*
X85344000Y-118618000D03*
X99695000Y-106045000D03*
X102362000Y-121412000D03*
X114935000Y-103505000D03*
X76708000Y-107950000D03*
X75184000Y-103020500D03*
X125095000Y-118110000D03*
X97647880Y-111902120D03*
X95885000Y-110490000D03*
%TO.N,+3V3*%
X104140000Y-119380000D03*
X104140000Y-105410000D03*
X102870000Y-112395000D03*
X123825000Y-95250000D03*
X95084997Y-110490000D03*
X125095000Y-89342000D03*
X99695000Y-108585000D03*
X112141000Y-119380000D03*
X79375000Y-96901000D03*
X79502000Y-99060000D03*
%TO.N,/INT*%
X99187000Y-110363000D03*
X90170000Y-106426000D03*
%TO.N,Net-(U3-CPOUT)*%
X93345000Y-103505000D03*
X97155000Y-104140000D03*
%TO.N,/SCL*%
X100330000Y-102235000D03*
X98806000Y-103886000D03*
%TO.N,/IO13*%
X109827882Y-112272520D03*
%TO.N,/IO12*%
X110617000Y-112141000D03*
%TO.N,/D+*%
X97345000Y-119696632D03*
X96095000Y-118999000D03*
X108794994Y-100330000D03*
%TO.N,/IO14*%
X108839000Y-112268000D03*
%TO.N,/D-*%
X96945000Y-118999000D03*
X109644994Y-100330000D03*
%TO.N,/IO11*%
X111506000Y-112141000D03*
%TO.N,/EN*%
X123444000Y-100838000D03*
X123444000Y-119507000D03*
%TO.N,/BOOT*%
X117983000Y-119507000D03*
X113411000Y-113792000D03*
%TO.N,/SYS*%
X79632135Y-111375865D03*
X70612000Y-104648000D03*
X75184000Y-113284000D03*
%TO.N,Net-(U1-ILIM)*%
X79756000Y-108712000D03*
X79329755Y-110154245D03*
%TD*%
%TA.AperFunction,Conductor*%
%TO.N,+3V3*%
G36*
X123876736Y-83368226D02*
G01*
X124166796Y-83385771D01*
X124181659Y-83387576D01*
X124463798Y-83439280D01*
X124478335Y-83442863D01*
X124752172Y-83528195D01*
X124766163Y-83533500D01*
X125027743Y-83651227D01*
X125040989Y-83658180D01*
X125286465Y-83806575D01*
X125298776Y-83815073D01*
X125524573Y-83991973D01*
X125535781Y-84001903D01*
X125738596Y-84204718D01*
X125748526Y-84215926D01*
X125868481Y-84369038D01*
X125925422Y-84441717D01*
X125933926Y-84454037D01*
X125982721Y-84534753D01*
X126082316Y-84699504D01*
X126089275Y-84712763D01*
X126206997Y-84974331D01*
X126212306Y-84988332D01*
X126297635Y-85262163D01*
X126301219Y-85276701D01*
X126352923Y-85558840D01*
X126354728Y-85573705D01*
X126372274Y-85863763D01*
X126372500Y-85871250D01*
X126372500Y-124948749D01*
X126372274Y-124956236D01*
X126354728Y-125246294D01*
X126352923Y-125261159D01*
X126301219Y-125543298D01*
X126297635Y-125557836D01*
X126212306Y-125831667D01*
X126206997Y-125845668D01*
X126089275Y-126107236D01*
X126082316Y-126120495D01*
X125933928Y-126365959D01*
X125925422Y-126378282D01*
X125748526Y-126604073D01*
X125738596Y-126615281D01*
X125535781Y-126818096D01*
X125524573Y-126828026D01*
X125298782Y-127004922D01*
X125286459Y-127013428D01*
X125040995Y-127161816D01*
X125027736Y-127168775D01*
X124766168Y-127286497D01*
X124752167Y-127291806D01*
X124478336Y-127377135D01*
X124463798Y-127380719D01*
X124181659Y-127432423D01*
X124166794Y-127434228D01*
X123876736Y-127451774D01*
X123869249Y-127452000D01*
X69170751Y-127452000D01*
X69163264Y-127451774D01*
X68873205Y-127434228D01*
X68858340Y-127432423D01*
X68576201Y-127380719D01*
X68561663Y-127377135D01*
X68287832Y-127291806D01*
X68273831Y-127286497D01*
X68012263Y-127168775D01*
X67999004Y-127161816D01*
X67753540Y-127013428D01*
X67741217Y-127004922D01*
X67652606Y-126935500D01*
X67515426Y-126828026D01*
X67504218Y-126818096D01*
X67301403Y-126615281D01*
X67291473Y-126604073D01*
X67114573Y-126378276D01*
X67106075Y-126365965D01*
X66957680Y-126120489D01*
X66950727Y-126107243D01*
X66917557Y-126033543D01*
X91199499Y-126033543D01*
X91237947Y-126226829D01*
X91237950Y-126226839D01*
X91313364Y-126408907D01*
X91313371Y-126408920D01*
X91422860Y-126572781D01*
X91422863Y-126572785D01*
X91562214Y-126712136D01*
X91562218Y-126712139D01*
X91726079Y-126821628D01*
X91726092Y-126821635D01*
X91908160Y-126897049D01*
X91908165Y-126897051D01*
X91908169Y-126897051D01*
X91908170Y-126897052D01*
X92101456Y-126935500D01*
X92101459Y-126935500D01*
X92298543Y-126935500D01*
X92428582Y-126909632D01*
X92491835Y-126897051D01*
X92632655Y-126838721D01*
X92673907Y-126821635D01*
X92673907Y-126821634D01*
X92673914Y-126821632D01*
X92837782Y-126712139D01*
X92977139Y-126572782D01*
X93086632Y-126408914D01*
X93162051Y-126226835D01*
X93183204Y-126120495D01*
X93200500Y-126033543D01*
X99839499Y-126033543D01*
X99877947Y-126226829D01*
X99877950Y-126226839D01*
X99953364Y-126408907D01*
X99953371Y-126408920D01*
X100062860Y-126572781D01*
X100062863Y-126572785D01*
X100202214Y-126712136D01*
X100202218Y-126712139D01*
X100366079Y-126821628D01*
X100366092Y-126821635D01*
X100548160Y-126897049D01*
X100548165Y-126897051D01*
X100548169Y-126897051D01*
X100548170Y-126897052D01*
X100741456Y-126935500D01*
X100741459Y-126935500D01*
X100938543Y-126935500D01*
X101068582Y-126909632D01*
X101131835Y-126897051D01*
X101272655Y-126838721D01*
X101313907Y-126821635D01*
X101313907Y-126821634D01*
X101313914Y-126821632D01*
X101477782Y-126712139D01*
X101617139Y-126572782D01*
X101726632Y-126408914D01*
X101802051Y-126226835D01*
X101823204Y-126120495D01*
X101840500Y-126033543D01*
X101840500Y-125778153D01*
X117182500Y-125778153D01*
X117182500Y-125935846D01*
X117213261Y-126090489D01*
X117213264Y-126090501D01*
X117273602Y-126236172D01*
X117273609Y-126236185D01*
X117361210Y-126367288D01*
X117361213Y-126367292D01*
X117472707Y-126478786D01*
X117472711Y-126478789D01*
X117603814Y-126566390D01*
X117603827Y-126566397D01*
X117749498Y-126626735D01*
X117749503Y-126626737D01*
X117904153Y-126657499D01*
X117904156Y-126657500D01*
X117904158Y-126657500D01*
X118061844Y-126657500D01*
X118061845Y-126657499D01*
X118216497Y-126626737D01*
X118362179Y-126566394D01*
X118493289Y-126478789D01*
X118604789Y-126367289D01*
X118692394Y-126236179D01*
X118752737Y-126090497D01*
X118783500Y-125935842D01*
X118783500Y-125778158D01*
X118783500Y-125778155D01*
X118783499Y-125778153D01*
X118761839Y-125669257D01*
X118758238Y-125651153D01*
X122643500Y-125651153D01*
X122643500Y-125808846D01*
X122674261Y-125963489D01*
X122674264Y-125963501D01*
X122734602Y-126109172D01*
X122734609Y-126109185D01*
X122822210Y-126240288D01*
X122822213Y-126240292D01*
X122933707Y-126351786D01*
X122933711Y-126351789D01*
X123064814Y-126439390D01*
X123064827Y-126439397D01*
X123210498Y-126499735D01*
X123210503Y-126499737D01*
X123365153Y-126530499D01*
X123365156Y-126530500D01*
X123365158Y-126530500D01*
X123522844Y-126530500D01*
X123522845Y-126530499D01*
X123677497Y-126499737D01*
X123823179Y-126439394D01*
X123954289Y-126351789D01*
X124065789Y-126240289D01*
X124153394Y-126109179D01*
X124213737Y-125963497D01*
X124244500Y-125808842D01*
X124244500Y-125651158D01*
X124244500Y-125651155D01*
X124244499Y-125651153D01*
X124225937Y-125557836D01*
X124213737Y-125496503D01*
X124201413Y-125466750D01*
X124153397Y-125350827D01*
X124153390Y-125350814D01*
X124065789Y-125219711D01*
X124065786Y-125219707D01*
X123954292Y-125108213D01*
X123954288Y-125108210D01*
X123823185Y-125020609D01*
X123823172Y-125020602D01*
X123677501Y-124960264D01*
X123677489Y-124960261D01*
X123522845Y-124929500D01*
X123522842Y-124929500D01*
X123365158Y-124929500D01*
X123365155Y-124929500D01*
X123210510Y-124960261D01*
X123210498Y-124960264D01*
X123064827Y-125020602D01*
X123064814Y-125020609D01*
X122933711Y-125108210D01*
X122933707Y-125108213D01*
X122822213Y-125219707D01*
X122822210Y-125219711D01*
X122734609Y-125350814D01*
X122734602Y-125350827D01*
X122674264Y-125496498D01*
X122674261Y-125496510D01*
X122643500Y-125651153D01*
X118758238Y-125651153D01*
X118752738Y-125623508D01*
X118752737Y-125623507D01*
X118752737Y-125623503D01*
X118722183Y-125549738D01*
X118692397Y-125477827D01*
X118692390Y-125477814D01*
X118604789Y-125346711D01*
X118604786Y-125346707D01*
X118493292Y-125235213D01*
X118493288Y-125235210D01*
X118362185Y-125147609D01*
X118362172Y-125147602D01*
X118216501Y-125087264D01*
X118216489Y-125087261D01*
X118061845Y-125056500D01*
X118061842Y-125056500D01*
X117904158Y-125056500D01*
X117904155Y-125056500D01*
X117749510Y-125087261D01*
X117749498Y-125087264D01*
X117603827Y-125147602D01*
X117603814Y-125147609D01*
X117472711Y-125235210D01*
X117472707Y-125235213D01*
X117361213Y-125346707D01*
X117361210Y-125346711D01*
X117273609Y-125477814D01*
X117273602Y-125477827D01*
X117213264Y-125623498D01*
X117213261Y-125623510D01*
X117182500Y-125778153D01*
X101840500Y-125778153D01*
X101840500Y-125036456D01*
X101802052Y-124843170D01*
X101802051Y-124843169D01*
X101802051Y-124843165D01*
X101797338Y-124831786D01*
X101726635Y-124661092D01*
X101726628Y-124661079D01*
X101617139Y-124497218D01*
X101617136Y-124497214D01*
X101477785Y-124357863D01*
X101477781Y-124357860D01*
X101313920Y-124248371D01*
X101313907Y-124248364D01*
X101131839Y-124172950D01*
X101131829Y-124172947D01*
X100938543Y-124134500D01*
X100938541Y-124134500D01*
X100741459Y-124134500D01*
X100741457Y-124134500D01*
X100548170Y-124172947D01*
X100548160Y-124172950D01*
X100366092Y-124248364D01*
X100366079Y-124248371D01*
X100202218Y-124357860D01*
X100202214Y-124357863D01*
X100062863Y-124497214D01*
X100062860Y-124497218D01*
X99953371Y-124661079D01*
X99953364Y-124661092D01*
X99877950Y-124843160D01*
X99877947Y-124843170D01*
X99839500Y-125036456D01*
X99839500Y-125036459D01*
X99839500Y-126033541D01*
X99839500Y-126033543D01*
X99839499Y-126033543D01*
X93200500Y-126033543D01*
X93200500Y-125036456D01*
X93162052Y-124843170D01*
X93162051Y-124843169D01*
X93162051Y-124843165D01*
X93157338Y-124831786D01*
X93086635Y-124661092D01*
X93086628Y-124661079D01*
X92977139Y-124497218D01*
X92977136Y-124497214D01*
X92837785Y-124357863D01*
X92837781Y-124357860D01*
X92673920Y-124248371D01*
X92673907Y-124248364D01*
X92491839Y-124172950D01*
X92491829Y-124172947D01*
X92298543Y-124134500D01*
X92298541Y-124134500D01*
X92101459Y-124134500D01*
X92101457Y-124134500D01*
X91908170Y-124172947D01*
X91908160Y-124172950D01*
X91726092Y-124248364D01*
X91726079Y-124248371D01*
X91562218Y-124357860D01*
X91562214Y-124357863D01*
X91422863Y-124497214D01*
X91422860Y-124497218D01*
X91313371Y-124661079D01*
X91313364Y-124661092D01*
X91237950Y-124843160D01*
X91237947Y-124843170D01*
X91199500Y-125036456D01*
X91199500Y-125036459D01*
X91199500Y-126033541D01*
X91199500Y-126033543D01*
X91199499Y-126033543D01*
X66917557Y-126033543D01*
X66833000Y-125845663D01*
X66827693Y-125831667D01*
X66820580Y-125808842D01*
X66742363Y-125557835D01*
X66738780Y-125543298D01*
X66730206Y-125496510D01*
X66687075Y-125261157D01*
X66685271Y-125246294D01*
X66676848Y-125107051D01*
X66667726Y-124956236D01*
X66667500Y-124948749D01*
X66667500Y-124701153D01*
X68287500Y-124701153D01*
X68287500Y-124858846D01*
X68318261Y-125013489D01*
X68318264Y-125013501D01*
X68378602Y-125159172D01*
X68378609Y-125159185D01*
X68466210Y-125290288D01*
X68466213Y-125290292D01*
X68577707Y-125401786D01*
X68577711Y-125401789D01*
X68708814Y-125489390D01*
X68708827Y-125489397D01*
X68854498Y-125549735D01*
X68854503Y-125549737D01*
X69009153Y-125580499D01*
X69009156Y-125580500D01*
X69009158Y-125580500D01*
X69166844Y-125580500D01*
X69166845Y-125580499D01*
X69321497Y-125549737D01*
X69467179Y-125489394D01*
X69598289Y-125401789D01*
X69709789Y-125290289D01*
X69797394Y-125159179D01*
X69857737Y-125013497D01*
X69888500Y-124858842D01*
X69888500Y-124701158D01*
X69888500Y-124701155D01*
X69888499Y-124701153D01*
X69880277Y-124659820D01*
X69857737Y-124546503D01*
X69826220Y-124470414D01*
X69797397Y-124400827D01*
X69797390Y-124400814D01*
X69709789Y-124269711D01*
X69709786Y-124269707D01*
X69598292Y-124158213D01*
X69598288Y-124158210D01*
X69467185Y-124070609D01*
X69467172Y-124070602D01*
X69321501Y-124010264D01*
X69321489Y-124010261D01*
X69166845Y-123979500D01*
X69166842Y-123979500D01*
X69009158Y-123979500D01*
X69009155Y-123979500D01*
X68854510Y-124010261D01*
X68854498Y-124010264D01*
X68708827Y-124070602D01*
X68708814Y-124070609D01*
X68577711Y-124158210D01*
X68577707Y-124158213D01*
X68466213Y-124269707D01*
X68466210Y-124269711D01*
X68378609Y-124400814D01*
X68378602Y-124400827D01*
X68318264Y-124546498D01*
X68318261Y-124546510D01*
X68287500Y-124701153D01*
X66667500Y-124701153D01*
X66667500Y-123460778D01*
X78990500Y-123460778D01*
X78990500Y-123681221D01*
X79024985Y-123898952D01*
X79093103Y-124108603D01*
X79093104Y-124108606D01*
X79193187Y-124305025D01*
X79322752Y-124483358D01*
X79322756Y-124483363D01*
X79478636Y-124639243D01*
X79478641Y-124639247D01*
X79634192Y-124752260D01*
X79656978Y-124768815D01*
X79780564Y-124831786D01*
X79853393Y-124868895D01*
X79853396Y-124868896D01*
X79958221Y-124902955D01*
X80063049Y-124937015D01*
X80280778Y-124971500D01*
X80280779Y-124971500D01*
X80501221Y-124971500D01*
X80501222Y-124971500D01*
X80718951Y-124937015D01*
X80794599Y-124912436D01*
X80794600Y-124912436D01*
X80928603Y-124868896D01*
X80928606Y-124868895D01*
X80948336Y-124858842D01*
X81125022Y-124768815D01*
X81303365Y-124639242D01*
X81459242Y-124483365D01*
X81588815Y-124305022D01*
X81688895Y-124108606D01*
X81757015Y-123898951D01*
X81791500Y-123681222D01*
X81791500Y-123460778D01*
X81757015Y-123243049D01*
X81688895Y-123033394D01*
X81688895Y-123033393D01*
X81650822Y-122958673D01*
X81588815Y-122836978D01*
X81555869Y-122791632D01*
X81459247Y-122658641D01*
X81459243Y-122658636D01*
X81303363Y-122502756D01*
X81303358Y-122502752D01*
X81125025Y-122373187D01*
X81125024Y-122373186D01*
X81125022Y-122373185D01*
X81037459Y-122328569D01*
X80928606Y-122273104D01*
X80928603Y-122273103D01*
X80718952Y-122204985D01*
X80590814Y-122184690D01*
X80501222Y-122170500D01*
X80280778Y-122170500D01*
X80209843Y-122181735D01*
X80063047Y-122204985D01*
X79853396Y-122273103D01*
X79853393Y-122273104D01*
X79656974Y-122373187D01*
X79478641Y-122502752D01*
X79478636Y-122502756D01*
X79322756Y-122658636D01*
X79322752Y-122658641D01*
X79193187Y-122836974D01*
X79093104Y-123033393D01*
X79093103Y-123033396D01*
X79024985Y-123243047D01*
X78990500Y-123460778D01*
X66667500Y-123460778D01*
X66667500Y-120021635D01*
X71759500Y-120021635D01*
X71759500Y-121425370D01*
X71759501Y-121425376D01*
X71765908Y-121484983D01*
X71816202Y-121619828D01*
X71816206Y-121619835D01*
X71902452Y-121735044D01*
X71902455Y-121735047D01*
X72017664Y-121821293D01*
X72017671Y-121821297D01*
X72152517Y-121871591D01*
X72152516Y-121871591D01*
X72159444Y-121872335D01*
X72212127Y-121878000D01*
X73615872Y-121877999D01*
X73675483Y-121871591D01*
X73810331Y-121821296D01*
X73925546Y-121735046D01*
X73999043Y-121636865D01*
X74054976Y-121594996D01*
X74124668Y-121590012D01*
X74171192Y-121610859D01*
X74308910Y-121710917D01*
X74470826Y-121793417D01*
X74470828Y-121793418D01*
X74556629Y-121821296D01*
X74643654Y-121849572D01*
X74823139Y-121878000D01*
X74823140Y-121878000D01*
X75004860Y-121878000D01*
X75004861Y-121878000D01*
X75184346Y-121849572D01*
X75184349Y-121849571D01*
X75184350Y-121849571D01*
X75357171Y-121793418D01*
X75357171Y-121793417D01*
X75357174Y-121793417D01*
X75519090Y-121710917D01*
X75666106Y-121604103D01*
X75794603Y-121475606D01*
X75898102Y-121333153D01*
X90004500Y-121333153D01*
X90004500Y-121490846D01*
X90035261Y-121645489D01*
X90035264Y-121645501D01*
X90095602Y-121791172D01*
X90095609Y-121791185D01*
X90183210Y-121922288D01*
X90183213Y-121922292D01*
X90294707Y-122033786D01*
X90294711Y-122033789D01*
X90425814Y-122121390D01*
X90425827Y-122121397D01*
X90544374Y-122170500D01*
X90571503Y-122181737D01*
X90688378Y-122204985D01*
X90726153Y-122212499D01*
X90726156Y-122212500D01*
X90726158Y-122212500D01*
X90883844Y-122212500D01*
X90883845Y-122212499D01*
X91038497Y-122181737D01*
X91088841Y-122160883D01*
X91158309Y-122153415D01*
X91220789Y-122184690D01*
X91250854Y-122227992D01*
X91313366Y-122378911D01*
X91313371Y-122378920D01*
X91422860Y-122542781D01*
X91422863Y-122542785D01*
X91562214Y-122682136D01*
X91562218Y-122682139D01*
X91726079Y-122791628D01*
X91726092Y-122791635D01*
X91896321Y-122862145D01*
X91908165Y-122867051D01*
X91908169Y-122867051D01*
X91908170Y-122867052D01*
X92101456Y-122905500D01*
X92101459Y-122905500D01*
X92298543Y-122905500D01*
X92428582Y-122879632D01*
X92491835Y-122867051D01*
X92673914Y-122791632D01*
X92837782Y-122682139D01*
X92977139Y-122542782D01*
X93086632Y-122378914D01*
X93090540Y-122369478D01*
X93134376Y-122315074D01*
X93200669Y-122293004D01*
X93268369Y-122310279D01*
X93273028Y-122313432D01*
X93276633Y-122315513D01*
X93276635Y-122315515D01*
X93407865Y-122391281D01*
X93554234Y-122430500D01*
X93554236Y-122430500D01*
X93705764Y-122430500D01*
X93705766Y-122430500D01*
X93852135Y-122391281D01*
X93983365Y-122315515D01*
X94090515Y-122208365D01*
X94166281Y-122077135D01*
X94205500Y-121930766D01*
X94205500Y-121779234D01*
X98834500Y-121779234D01*
X98834500Y-121930765D01*
X98873719Y-122077136D01*
X98899274Y-122121397D01*
X98949485Y-122208365D01*
X99056635Y-122315515D01*
X99187865Y-122391281D01*
X99334234Y-122430500D01*
X99334236Y-122430500D01*
X99485764Y-122430500D01*
X99485766Y-122430500D01*
X99632135Y-122391281D01*
X99763365Y-122315515D01*
X99763366Y-122315513D01*
X99770403Y-122311451D01*
X99771749Y-122313783D01*
X99824553Y-122293357D01*
X99893001Y-122307381D01*
X99943001Y-122356185D01*
X99949458Y-122369474D01*
X99953367Y-122378913D01*
X99953371Y-122378920D01*
X100062860Y-122542781D01*
X100062863Y-122542785D01*
X100202214Y-122682136D01*
X100202218Y-122682139D01*
X100366079Y-122791628D01*
X100366092Y-122791635D01*
X100536321Y-122862145D01*
X100548165Y-122867051D01*
X100548169Y-122867051D01*
X100548170Y-122867052D01*
X100741456Y-122905500D01*
X100741459Y-122905500D01*
X100938543Y-122905500D01*
X101068582Y-122879632D01*
X101131835Y-122867051D01*
X101313914Y-122791632D01*
X101477782Y-122682139D01*
X101617139Y-122542782D01*
X101726632Y-122378914D01*
X101802051Y-122196835D01*
X101802055Y-122196812D01*
X101803099Y-122193374D01*
X101804146Y-122191775D01*
X101804382Y-122191207D01*
X101804489Y-122191251D01*
X101841392Y-122134933D01*
X101905202Y-122106471D01*
X101974270Y-122117026D01*
X101980218Y-122120003D01*
X101982822Y-122121395D01*
X102101374Y-122170500D01*
X102128503Y-122181737D01*
X102245378Y-122204985D01*
X102283153Y-122212499D01*
X102283156Y-122212500D01*
X102283158Y-122212500D01*
X102440844Y-122212500D01*
X102440845Y-122212499D01*
X102595497Y-122181737D01*
X102741179Y-122121394D01*
X102872289Y-122033789D01*
X102983789Y-121922289D01*
X103071394Y-121791179D01*
X103131737Y-121645497D01*
X103162500Y-121490842D01*
X103162500Y-121333158D01*
X103160812Y-121324673D01*
X103157040Y-121305713D01*
X106091500Y-121305713D01*
X106091500Y-121518286D01*
X106122009Y-121710917D01*
X106124754Y-121728243D01*
X106187803Y-121922288D01*
X106190444Y-121930414D01*
X106286951Y-122119820D01*
X106411890Y-122291786D01*
X106562213Y-122442109D01*
X106734182Y-122567050D01*
X106742946Y-122571516D01*
X106793742Y-122619491D01*
X106810536Y-122687312D01*
X106787998Y-122753447D01*
X106742946Y-122792484D01*
X106734182Y-122796949D01*
X106562213Y-122921890D01*
X106411890Y-123072213D01*
X106286951Y-123244179D01*
X106190444Y-123433585D01*
X106124753Y-123635760D01*
X106091500Y-123845713D01*
X106091500Y-124058286D01*
X106121606Y-124248371D01*
X106124754Y-124268243D01*
X106167833Y-124400827D01*
X106190444Y-124470414D01*
X106286951Y-124659820D01*
X106411890Y-124831786D01*
X106562213Y-124982109D01*
X106734179Y-125107048D01*
X106734181Y-125107049D01*
X106734184Y-125107051D01*
X106923588Y-125203557D01*
X107125757Y-125269246D01*
X107335713Y-125302500D01*
X107335714Y-125302500D01*
X107548286Y-125302500D01*
X107548287Y-125302500D01*
X107758243Y-125269246D01*
X107960412Y-125203557D01*
X108149816Y-125107051D01*
X108219394Y-125056500D01*
X108321786Y-124982109D01*
X108321788Y-124982106D01*
X108321792Y-124982104D01*
X108472104Y-124831792D01*
X108472106Y-124831788D01*
X108472109Y-124831786D01*
X108597048Y-124659820D01*
X108597047Y-124659820D01*
X108597051Y-124659816D01*
X108601514Y-124651054D01*
X108649488Y-124600259D01*
X108717308Y-124583463D01*
X108783444Y-124605999D01*
X108822486Y-124651056D01*
X108826951Y-124659820D01*
X108951890Y-124831786D01*
X109102213Y-124982109D01*
X109274179Y-125107048D01*
X109274181Y-125107049D01*
X109274184Y-125107051D01*
X109463588Y-125203557D01*
X109665757Y-125269246D01*
X109875713Y-125302500D01*
X109875714Y-125302500D01*
X110088286Y-125302500D01*
X110088287Y-125302500D01*
X110298243Y-125269246D01*
X110500412Y-125203557D01*
X110689816Y-125107051D01*
X110759394Y-125056500D01*
X110861786Y-124982109D01*
X110861788Y-124982106D01*
X110861792Y-124982104D01*
X111012104Y-124831792D01*
X111012106Y-124831788D01*
X111012109Y-124831786D01*
X111137048Y-124659820D01*
X111137047Y-124659820D01*
X111137051Y-124659816D01*
X111233557Y-124470412D01*
X111299246Y-124268243D01*
X111332500Y-124058287D01*
X111332500Y-123845713D01*
X111299246Y-123635757D01*
X111233557Y-123433588D01*
X111137051Y-123244184D01*
X111137049Y-123244181D01*
X111137048Y-123244179D01*
X111012109Y-123072213D01*
X110898569Y-122958673D01*
X110865084Y-122897350D01*
X110870068Y-122827658D01*
X110911940Y-122771725D01*
X110942915Y-122754810D01*
X111074331Y-122705796D01*
X111189546Y-122619546D01*
X111275796Y-122504331D01*
X111326091Y-122369483D01*
X111326091Y-122369482D01*
X111326092Y-122369480D01*
X111329052Y-122341939D01*
X111332500Y-122309873D01*
X111332499Y-120514128D01*
X111326091Y-120454517D01*
X111324810Y-120451083D01*
X111275797Y-120319671D01*
X111275793Y-120319664D01*
X111189547Y-120204455D01*
X111189544Y-120204452D01*
X111074335Y-120118206D01*
X111074328Y-120118202D01*
X110939482Y-120067908D01*
X110939483Y-120067908D01*
X110879883Y-120061501D01*
X110879881Y-120061500D01*
X110879873Y-120061500D01*
X110879864Y-120061500D01*
X109084129Y-120061500D01*
X109084123Y-120061501D01*
X109024516Y-120067908D01*
X108889671Y-120118202D01*
X108889664Y-120118206D01*
X108774455Y-120204452D01*
X108774452Y-120204455D01*
X108688206Y-120319664D01*
X108688203Y-120319669D01*
X108639189Y-120451083D01*
X108597317Y-120507016D01*
X108531853Y-120531433D01*
X108463580Y-120516581D01*
X108435326Y-120495430D01*
X108321786Y-120381890D01*
X108149820Y-120256951D01*
X107960414Y-120160444D01*
X107960413Y-120160443D01*
X107960412Y-120160443D01*
X107758243Y-120094754D01*
X107758241Y-120094753D01*
X107758240Y-120094753D01*
X107596957Y-120069208D01*
X107548287Y-120061500D01*
X107335713Y-120061500D01*
X107287042Y-120069208D01*
X107125760Y-120094753D01*
X106923585Y-120160444D01*
X106734179Y-120256951D01*
X106562213Y-120381890D01*
X106411890Y-120532213D01*
X106286951Y-120704179D01*
X106190444Y-120893585D01*
X106124753Y-121095760D01*
X106091500Y-121305713D01*
X103157040Y-121305713D01*
X103146683Y-121253645D01*
X103131737Y-121178503D01*
X103097463Y-121095757D01*
X103071397Y-121032827D01*
X103071390Y-121032814D01*
X102983789Y-120901711D01*
X102983786Y-120901707D01*
X102872292Y-120790213D01*
X102872288Y-120790210D01*
X102741185Y-120702609D01*
X102741172Y-120702602D01*
X102595501Y-120642264D01*
X102595489Y-120642261D01*
X102440845Y-120611500D01*
X102440842Y-120611500D01*
X102283158Y-120611500D01*
X102283155Y-120611500D01*
X102128510Y-120642261D01*
X102128507Y-120642262D01*
X102128506Y-120642262D01*
X102128503Y-120642263D01*
X102049977Y-120674788D01*
X101990217Y-120699542D01*
X101920747Y-120707010D01*
X101858268Y-120675734D01*
X101822616Y-120615645D01*
X101821148Y-120609171D01*
X101805839Y-120532208D01*
X101802051Y-120513165D01*
X101782667Y-120466367D01*
X101726635Y-120331092D01*
X101726628Y-120331079D01*
X101617139Y-120167218D01*
X101617136Y-120167214D01*
X101477785Y-120027863D01*
X101477781Y-120027860D01*
X101313920Y-119918371D01*
X101313907Y-119918364D01*
X101131839Y-119842950D01*
X101131829Y-119842947D01*
X100938543Y-119804500D01*
X100938541Y-119804500D01*
X100741459Y-119804500D01*
X100741457Y-119804500D01*
X100548170Y-119842947D01*
X100548160Y-119842950D01*
X100366092Y-119918364D01*
X100366079Y-119918371D01*
X100202218Y-120027860D01*
X100202214Y-120027863D01*
X100062863Y-120167214D01*
X100062860Y-120167218D01*
X99953371Y-120331079D01*
X99953364Y-120331092D01*
X99877950Y-120513160D01*
X99877947Y-120513170D01*
X99839500Y-120706456D01*
X99839500Y-121223666D01*
X99819815Y-121290705D01*
X99767011Y-121336460D01*
X99697853Y-121346404D01*
X99653501Y-121331054D01*
X99632137Y-121318719D01*
X99527584Y-121290705D01*
X99485766Y-121279500D01*
X99334234Y-121279500D01*
X99187863Y-121318719D01*
X99056635Y-121394485D01*
X99056632Y-121394487D01*
X98949487Y-121501632D01*
X98949485Y-121501635D01*
X98873719Y-121632863D01*
X98834500Y-121779234D01*
X94205500Y-121779234D01*
X94166281Y-121632865D01*
X94090515Y-121501635D01*
X93983365Y-121394485D01*
X93900087Y-121346404D01*
X93852136Y-121318719D01*
X93747584Y-121290705D01*
X93705766Y-121279500D01*
X93554234Y-121279500D01*
X93407862Y-121318719D01*
X93386499Y-121331054D01*
X93318598Y-121347525D01*
X93252572Y-121324673D01*
X93209382Y-121269751D01*
X93200500Y-121223666D01*
X93200500Y-120706456D01*
X93162052Y-120513170D01*
X93162051Y-120513169D01*
X93162051Y-120513165D01*
X93142667Y-120466367D01*
X93086635Y-120331092D01*
X93086628Y-120331079D01*
X92977139Y-120167218D01*
X92977136Y-120167214D01*
X92837785Y-120027863D01*
X92837781Y-120027860D01*
X92673920Y-119918371D01*
X92673907Y-119918364D01*
X92491839Y-119842950D01*
X92491829Y-119842947D01*
X92298543Y-119804500D01*
X92298541Y-119804500D01*
X92101459Y-119804500D01*
X92101457Y-119804500D01*
X91908170Y-119842947D01*
X91908160Y-119842950D01*
X91726092Y-119918364D01*
X91726079Y-119918371D01*
X91562218Y-120027860D01*
X91562214Y-120027863D01*
X91422863Y-120167214D01*
X91422860Y-120167218D01*
X91313371Y-120331079D01*
X91313364Y-120331092D01*
X91237950Y-120513160D01*
X91237947Y-120513169D01*
X91228518Y-120560573D01*
X91196132Y-120622484D01*
X91135416Y-120657057D01*
X91065646Y-120653316D01*
X91059450Y-120650942D01*
X91038497Y-120642263D01*
X91038493Y-120642262D01*
X91038489Y-120642261D01*
X90883845Y-120611500D01*
X90883842Y-120611500D01*
X90726158Y-120611500D01*
X90726155Y-120611500D01*
X90571510Y-120642261D01*
X90571498Y-120642264D01*
X90425827Y-120702602D01*
X90425814Y-120702609D01*
X90294711Y-120790210D01*
X90294707Y-120790213D01*
X90183213Y-120901707D01*
X90183210Y-120901711D01*
X90095609Y-121032814D01*
X90095602Y-121032827D01*
X90035264Y-121178498D01*
X90035261Y-121178510D01*
X90004500Y-121333153D01*
X75898102Y-121333153D01*
X75901417Y-121328590D01*
X75983917Y-121166674D01*
X76006959Y-121095757D01*
X76040071Y-120993850D01*
X76040071Y-120993849D01*
X76040072Y-120993846D01*
X76068500Y-120814361D01*
X76068500Y-120632639D01*
X76040072Y-120453154D01*
X76040071Y-120453150D01*
X76040071Y-120453149D01*
X75983918Y-120280328D01*
X75983916Y-120280325D01*
X75982089Y-120276738D01*
X75901417Y-120118410D01*
X75794603Y-119971394D01*
X75666106Y-119842897D01*
X75519090Y-119736083D01*
X75357174Y-119653583D01*
X75357171Y-119653581D01*
X75184348Y-119597428D01*
X75045319Y-119575408D01*
X75004861Y-119569000D01*
X74823139Y-119569000D01*
X74782681Y-119575408D01*
X74643652Y-119597428D01*
X74643649Y-119597428D01*
X74470828Y-119653581D01*
X74470825Y-119653583D01*
X74308906Y-119736085D01*
X74171194Y-119836139D01*
X74105388Y-119859619D01*
X74037334Y-119843794D01*
X73999043Y-119810132D01*
X73925547Y-119711955D01*
X73925544Y-119711952D01*
X73810335Y-119625706D01*
X73810328Y-119625702D01*
X73675482Y-119575408D01*
X73675483Y-119575408D01*
X73615883Y-119569001D01*
X73615881Y-119569000D01*
X73615873Y-119569000D01*
X73615864Y-119569000D01*
X72212129Y-119569000D01*
X72212123Y-119569001D01*
X72152516Y-119575408D01*
X72017671Y-119625702D01*
X72017664Y-119625706D01*
X71902455Y-119711952D01*
X71902452Y-119711955D01*
X71816206Y-119827164D01*
X71816202Y-119827171D01*
X71765908Y-119962017D01*
X71759501Y-120021616D01*
X71759500Y-120021635D01*
X66667500Y-120021635D01*
X66667500Y-118285153D01*
X74129500Y-118285153D01*
X74129500Y-118442846D01*
X74160261Y-118597489D01*
X74160264Y-118597501D01*
X74220602Y-118743172D01*
X74220609Y-118743185D01*
X74308210Y-118874288D01*
X74308213Y-118874292D01*
X74419707Y-118985786D01*
X74419711Y-118985789D01*
X74550814Y-119073390D01*
X74550827Y-119073397D01*
X74696498Y-119133735D01*
X74696503Y-119133737D01*
X74851153Y-119164499D01*
X74851156Y-119164500D01*
X74851158Y-119164500D01*
X75008844Y-119164500D01*
X75008845Y-119164499D01*
X75163497Y-119133737D01*
X75298431Y-119077846D01*
X75309172Y-119073397D01*
X75309172Y-119073396D01*
X75309179Y-119073394D01*
X75440289Y-118985789D01*
X75551789Y-118874289D01*
X75639394Y-118743179D01*
X75641845Y-118737263D01*
X75690296Y-118620289D01*
X75699737Y-118597497D01*
X75703687Y-118577638D01*
X75711343Y-118539153D01*
X84543500Y-118539153D01*
X84543500Y-118696846D01*
X84574261Y-118851489D01*
X84574264Y-118851501D01*
X84634602Y-118997172D01*
X84634609Y-118997185D01*
X84722210Y-119128288D01*
X84722213Y-119128292D01*
X84833707Y-119239786D01*
X84833711Y-119239789D01*
X84964814Y-119327390D01*
X84964827Y-119327397D01*
X85087442Y-119378185D01*
X85110503Y-119387737D01*
X85265153Y-119418499D01*
X85265156Y-119418500D01*
X85265158Y-119418500D01*
X85422844Y-119418500D01*
X85422845Y-119418499D01*
X85577497Y-119387737D01*
X85723179Y-119327394D01*
X85854289Y-119239789D01*
X85965789Y-119128289D01*
X86053394Y-118997179D01*
X86085299Y-118920153D01*
X95294500Y-118920153D01*
X95294500Y-119077846D01*
X95325261Y-119232489D01*
X95325264Y-119232501D01*
X95385602Y-119378172D01*
X95385609Y-119378185D01*
X95473210Y-119509288D01*
X95473213Y-119509292D01*
X95584707Y-119620786D01*
X95584711Y-119620789D01*
X95715814Y-119708390D01*
X95715827Y-119708397D01*
X95860245Y-119768216D01*
X95861503Y-119768737D01*
X96016153Y-119799499D01*
X96016156Y-119799500D01*
X96016158Y-119799500D01*
X96173844Y-119799500D01*
X96173845Y-119799499D01*
X96328497Y-119768737D01*
X96387228Y-119744409D01*
X96456695Y-119736941D01*
X96519174Y-119768216D01*
X96554827Y-119828304D01*
X96556296Y-119834779D01*
X96575261Y-119930123D01*
X96575264Y-119930133D01*
X96635602Y-120075804D01*
X96635609Y-120075817D01*
X96723210Y-120206920D01*
X96723213Y-120206924D01*
X96834707Y-120318418D01*
X96834711Y-120318421D01*
X96965814Y-120406022D01*
X96965827Y-120406029D01*
X97111498Y-120466367D01*
X97111503Y-120466369D01*
X97257602Y-120495430D01*
X97266153Y-120497131D01*
X97266156Y-120497132D01*
X97266158Y-120497132D01*
X97423844Y-120497132D01*
X97423845Y-120497131D01*
X97578497Y-120466369D01*
X97724179Y-120406026D01*
X97855289Y-120318421D01*
X97966789Y-120206921D01*
X98054394Y-120075811D01*
X98114737Y-119930129D01*
X98145500Y-119775474D01*
X98145500Y-119617790D01*
X98145500Y-119617787D01*
X98145499Y-119617785D01*
X98114739Y-119463143D01*
X98114738Y-119463140D01*
X98114737Y-119463135D01*
X98100247Y-119428153D01*
X117182500Y-119428153D01*
X117182500Y-119585846D01*
X117213261Y-119740489D01*
X117213264Y-119740501D01*
X117273602Y-119886172D01*
X117273609Y-119886185D01*
X117361210Y-120017288D01*
X117361213Y-120017292D01*
X117472707Y-120128786D01*
X117472711Y-120128789D01*
X117603814Y-120216390D01*
X117603827Y-120216397D01*
X117749498Y-120276735D01*
X117749503Y-120276737D01*
X117904153Y-120307499D01*
X117904156Y-120307500D01*
X117904158Y-120307500D01*
X118061844Y-120307500D01*
X118061845Y-120307499D01*
X118216497Y-120276737D01*
X118362179Y-120216394D01*
X118493289Y-120128789D01*
X118604789Y-120017289D01*
X118692394Y-119886179D01*
X118752737Y-119740497D01*
X118783500Y-119585842D01*
X118783500Y-119428158D01*
X118783500Y-119428155D01*
X118783499Y-119428153D01*
X122643500Y-119428153D01*
X122643500Y-119585846D01*
X122674261Y-119740489D01*
X122674264Y-119740501D01*
X122734602Y-119886172D01*
X122734609Y-119886185D01*
X122822210Y-120017288D01*
X122822213Y-120017292D01*
X122933707Y-120128786D01*
X122933711Y-120128789D01*
X123064814Y-120216390D01*
X123064827Y-120216397D01*
X123210498Y-120276735D01*
X123210503Y-120276737D01*
X123365153Y-120307499D01*
X123365156Y-120307500D01*
X123365158Y-120307500D01*
X123522844Y-120307500D01*
X123522845Y-120307499D01*
X123677497Y-120276737D01*
X123823179Y-120216394D01*
X123954289Y-120128789D01*
X124065789Y-120017289D01*
X124153394Y-119886179D01*
X124213737Y-119740497D01*
X124244500Y-119585842D01*
X124244500Y-119428158D01*
X124244500Y-119428155D01*
X124244499Y-119428153D01*
X124224457Y-119327397D01*
X124213737Y-119273503D01*
X124196749Y-119232489D01*
X124153397Y-119127827D01*
X124153390Y-119127814D01*
X124065789Y-118996711D01*
X124065786Y-118996707D01*
X123954292Y-118885213D01*
X123954288Y-118885210D01*
X123823185Y-118797609D01*
X123823172Y-118797602D01*
X123677501Y-118737264D01*
X123677489Y-118737261D01*
X123522845Y-118706500D01*
X123522842Y-118706500D01*
X123365158Y-118706500D01*
X123365155Y-118706500D01*
X123210510Y-118737261D01*
X123210498Y-118737264D01*
X123064827Y-118797602D01*
X123064814Y-118797609D01*
X122933711Y-118885210D01*
X122933707Y-118885213D01*
X122822213Y-118996707D01*
X122822210Y-118996711D01*
X122734609Y-119127814D01*
X122734602Y-119127827D01*
X122674264Y-119273498D01*
X122674261Y-119273510D01*
X122643500Y-119428153D01*
X118783499Y-119428153D01*
X118763457Y-119327397D01*
X118752737Y-119273503D01*
X118735749Y-119232489D01*
X118692397Y-119127827D01*
X118692390Y-119127814D01*
X118604789Y-118996711D01*
X118604786Y-118996707D01*
X118493292Y-118885213D01*
X118493288Y-118885210D01*
X118362185Y-118797609D01*
X118362172Y-118797602D01*
X118216501Y-118737264D01*
X118216489Y-118737261D01*
X118061845Y-118706500D01*
X118061842Y-118706500D01*
X117904158Y-118706500D01*
X117904155Y-118706500D01*
X117749510Y-118737261D01*
X117749498Y-118737264D01*
X117603827Y-118797602D01*
X117603814Y-118797609D01*
X117472711Y-118885210D01*
X117472707Y-118885213D01*
X117361213Y-118996707D01*
X117361210Y-118996711D01*
X117273609Y-119127814D01*
X117273602Y-119127827D01*
X117213264Y-119273498D01*
X117213261Y-119273510D01*
X117182500Y-119428153D01*
X98100247Y-119428153D01*
X98079547Y-119378179D01*
X98054397Y-119317459D01*
X98054390Y-119317446D01*
X97966789Y-119186343D01*
X97966786Y-119186339D01*
X97855292Y-119074845D01*
X97800608Y-119038306D01*
X97755804Y-118984693D01*
X97745500Y-118935204D01*
X97745500Y-118920155D01*
X97745499Y-118920153D01*
X97738549Y-118885213D01*
X97714737Y-118765503D01*
X97700771Y-118731786D01*
X97654397Y-118619827D01*
X97654390Y-118619814D01*
X97566789Y-118488711D01*
X97566786Y-118488707D01*
X97455292Y-118377213D01*
X97455288Y-118377210D01*
X97324185Y-118289609D01*
X97324172Y-118289602D01*
X97178501Y-118229264D01*
X97178489Y-118229261D01*
X97023845Y-118198500D01*
X97023842Y-118198500D01*
X96866158Y-118198500D01*
X96866155Y-118198500D01*
X96711510Y-118229261D01*
X96711498Y-118229264D01*
X96567452Y-118288930D01*
X96497983Y-118296399D01*
X96472548Y-118288930D01*
X96328501Y-118229264D01*
X96328489Y-118229261D01*
X96173845Y-118198500D01*
X96173842Y-118198500D01*
X96016158Y-118198500D01*
X96016155Y-118198500D01*
X95861510Y-118229261D01*
X95861498Y-118229264D01*
X95715827Y-118289602D01*
X95715814Y-118289609D01*
X95584711Y-118377210D01*
X95584707Y-118377213D01*
X95473213Y-118488707D01*
X95473210Y-118488711D01*
X95385609Y-118619814D01*
X95385602Y-118619827D01*
X95325264Y-118765498D01*
X95325261Y-118765510D01*
X95294500Y-118920153D01*
X86085299Y-118920153D01*
X86113737Y-118851497D01*
X86144500Y-118696842D01*
X86144500Y-118539158D01*
X86144500Y-118539155D01*
X86144499Y-118539153D01*
X86134465Y-118488711D01*
X86113737Y-118384503D01*
X86087111Y-118320222D01*
X86053397Y-118238827D01*
X86053390Y-118238814D01*
X85965792Y-118107716D01*
X85965789Y-118107711D01*
X85965784Y-118107706D01*
X85965781Y-118107702D01*
X85889232Y-118031153D01*
X124294500Y-118031153D01*
X124294500Y-118188846D01*
X124325261Y-118343489D01*
X124325264Y-118343501D01*
X124385602Y-118489172D01*
X124385609Y-118489185D01*
X124473210Y-118620288D01*
X124473213Y-118620292D01*
X124584707Y-118731786D01*
X124584711Y-118731789D01*
X124715814Y-118819390D01*
X124715827Y-118819397D01*
X124861498Y-118879735D01*
X124861503Y-118879737D01*
X125016153Y-118910499D01*
X125016156Y-118910500D01*
X125016158Y-118910500D01*
X125173844Y-118910500D01*
X125173845Y-118910499D01*
X125328497Y-118879737D01*
X125474179Y-118819394D01*
X125605289Y-118731789D01*
X125716789Y-118620289D01*
X125804394Y-118489179D01*
X125864737Y-118343497D01*
X125895500Y-118188842D01*
X125895500Y-118031158D01*
X125895500Y-118031155D01*
X125895499Y-118031153D01*
X125888549Y-117996213D01*
X125864737Y-117876503D01*
X125853039Y-117848261D01*
X125804397Y-117730827D01*
X125804390Y-117730814D01*
X125716789Y-117599711D01*
X125716786Y-117599707D01*
X125605292Y-117488213D01*
X125605288Y-117488210D01*
X125474185Y-117400609D01*
X125474172Y-117400602D01*
X125328501Y-117340264D01*
X125328489Y-117340261D01*
X125173845Y-117309500D01*
X125173842Y-117309500D01*
X125016158Y-117309500D01*
X125016155Y-117309500D01*
X124861510Y-117340261D01*
X124861498Y-117340264D01*
X124715827Y-117400602D01*
X124715814Y-117400609D01*
X124584711Y-117488210D01*
X124584707Y-117488213D01*
X124473213Y-117599707D01*
X124473210Y-117599711D01*
X124385609Y-117730814D01*
X124385602Y-117730827D01*
X124325264Y-117876498D01*
X124325261Y-117876510D01*
X124294500Y-118031153D01*
X85889232Y-118031153D01*
X85854292Y-117996213D01*
X85854288Y-117996210D01*
X85723185Y-117908609D01*
X85723172Y-117908602D01*
X85577501Y-117848264D01*
X85577489Y-117848261D01*
X85422845Y-117817500D01*
X85422842Y-117817500D01*
X85265158Y-117817500D01*
X85265155Y-117817500D01*
X85110510Y-117848261D01*
X85110498Y-117848264D01*
X84964827Y-117908602D01*
X84964814Y-117908609D01*
X84833711Y-117996210D01*
X84833707Y-117996213D01*
X84722213Y-118107707D01*
X84722210Y-118107711D01*
X84634609Y-118238814D01*
X84634602Y-118238827D01*
X84574264Y-118384498D01*
X84574261Y-118384510D01*
X84543500Y-118539153D01*
X75711343Y-118539153D01*
X75717366Y-118508874D01*
X75717366Y-118508873D01*
X75730499Y-118442846D01*
X75730500Y-118442844D01*
X75730500Y-118285155D01*
X75730499Y-118285153D01*
X75718276Y-118223701D01*
X75724503Y-118154110D01*
X75767366Y-118098932D01*
X75833256Y-118075688D01*
X75887344Y-118084948D01*
X75966503Y-118117737D01*
X76121153Y-118148499D01*
X76121156Y-118148500D01*
X76121158Y-118148500D01*
X76278844Y-118148500D01*
X76278845Y-118148499D01*
X76433497Y-118117737D01*
X76579179Y-118057394D01*
X76710289Y-117969789D01*
X76821789Y-117858289D01*
X76909394Y-117727179D01*
X76969737Y-117581497D01*
X77000500Y-117426842D01*
X77000500Y-117269158D01*
X77000500Y-117269155D01*
X77000499Y-117269153D01*
X76969737Y-117114503D01*
X76935226Y-117031185D01*
X76909397Y-116968827D01*
X76909390Y-116968814D01*
X76821789Y-116837711D01*
X76821786Y-116837707D01*
X76713857Y-116729778D01*
X81911500Y-116729778D01*
X81911500Y-116950221D01*
X81945985Y-117167952D01*
X82014103Y-117377603D01*
X82014104Y-117377606D01*
X82070463Y-117488213D01*
X82105965Y-117557890D01*
X82114187Y-117574025D01*
X82243752Y-117752358D01*
X82243756Y-117752363D01*
X82399636Y-117908243D01*
X82399641Y-117908247D01*
X82520717Y-117996213D01*
X82577978Y-118037815D01*
X82670483Y-118084949D01*
X82774393Y-118137895D01*
X82774396Y-118137896D01*
X82807030Y-118148499D01*
X82984049Y-118206015D01*
X83201778Y-118240500D01*
X83201779Y-118240500D01*
X83422221Y-118240500D01*
X83422222Y-118240500D01*
X83639951Y-118206015D01*
X83849606Y-118137895D01*
X84046022Y-118037815D01*
X84224365Y-117908242D01*
X84380242Y-117752365D01*
X84509815Y-117574022D01*
X84609895Y-117377606D01*
X84678015Y-117167951D01*
X84712500Y-116950222D01*
X84712500Y-116729778D01*
X84678015Y-116512049D01*
X84609895Y-116302394D01*
X84609895Y-116302393D01*
X84575237Y-116234375D01*
X84509815Y-116105978D01*
X84454769Y-116030213D01*
X84380247Y-115927641D01*
X84380243Y-115927636D01*
X84224363Y-115771756D01*
X84224358Y-115771752D01*
X84046025Y-115642187D01*
X84046024Y-115642186D01*
X84046022Y-115642185D01*
X83979910Y-115608499D01*
X83849606Y-115542104D01*
X83849603Y-115542103D01*
X83639952Y-115473985D01*
X83531086Y-115456742D01*
X83422222Y-115439500D01*
X83201778Y-115439500D01*
X83129201Y-115450995D01*
X82984047Y-115473985D01*
X82774396Y-115542103D01*
X82774393Y-115542104D01*
X82577974Y-115642187D01*
X82399641Y-115771752D01*
X82399636Y-115771756D01*
X82243756Y-115927636D01*
X82243752Y-115927641D01*
X82114187Y-116105974D01*
X82014104Y-116302393D01*
X82014103Y-116302396D01*
X81945985Y-116512047D01*
X81911500Y-116729778D01*
X76713857Y-116729778D01*
X76710292Y-116726213D01*
X76710288Y-116726210D01*
X76579185Y-116638609D01*
X76579172Y-116638602D01*
X76433501Y-116578264D01*
X76433489Y-116578261D01*
X76278845Y-116547500D01*
X76278842Y-116547500D01*
X76121158Y-116547500D01*
X76121155Y-116547500D01*
X75966510Y-116578261D01*
X75966498Y-116578264D01*
X75820827Y-116638602D01*
X75820814Y-116638609D01*
X75689711Y-116726210D01*
X75689707Y-116726213D01*
X75578213Y-116837707D01*
X75578210Y-116837711D01*
X75490609Y-116968814D01*
X75490602Y-116968827D01*
X75430264Y-117114498D01*
X75430261Y-117114510D01*
X75399500Y-117269153D01*
X75399500Y-117269158D01*
X75399500Y-117426842D01*
X75399501Y-117426846D01*
X75411724Y-117488299D01*
X75405495Y-117557890D01*
X75362632Y-117613067D01*
X75296742Y-117636311D01*
X75242654Y-117627050D01*
X75163501Y-117594264D01*
X75163489Y-117594261D01*
X75008845Y-117563500D01*
X75008842Y-117563500D01*
X74851158Y-117563500D01*
X74851155Y-117563500D01*
X74696510Y-117594261D01*
X74696498Y-117594264D01*
X74550827Y-117654602D01*
X74550814Y-117654609D01*
X74419711Y-117742210D01*
X74419707Y-117742213D01*
X74308213Y-117853707D01*
X74308210Y-117853711D01*
X74220609Y-117984814D01*
X74220602Y-117984827D01*
X74160264Y-118130498D01*
X74160261Y-118130510D01*
X74129500Y-118285153D01*
X66667500Y-118285153D01*
X66667500Y-116573153D01*
X68287500Y-116573153D01*
X68287500Y-116730846D01*
X68318261Y-116885489D01*
X68318264Y-116885501D01*
X68378602Y-117031172D01*
X68378609Y-117031185D01*
X68466210Y-117162288D01*
X68466213Y-117162292D01*
X68577707Y-117273786D01*
X68577711Y-117273789D01*
X68708814Y-117361390D01*
X68708827Y-117361397D01*
X68803495Y-117400609D01*
X68854503Y-117421737D01*
X69009153Y-117452499D01*
X69009156Y-117452500D01*
X69009158Y-117452500D01*
X69166844Y-117452500D01*
X69166845Y-117452499D01*
X69321497Y-117421737D01*
X69467179Y-117361394D01*
X69598289Y-117273789D01*
X69709789Y-117162289D01*
X69797394Y-117031179D01*
X69857737Y-116885497D01*
X69888500Y-116730842D01*
X69888500Y-116573158D01*
X69888500Y-116573155D01*
X69888499Y-116573153D01*
X69883396Y-116547500D01*
X69857737Y-116418503D01*
X69857735Y-116418498D01*
X69797397Y-116272827D01*
X69797390Y-116272814D01*
X69709789Y-116141711D01*
X69709786Y-116141707D01*
X69598292Y-116030213D01*
X69598288Y-116030210D01*
X69467185Y-115942609D01*
X69467172Y-115942602D01*
X69321501Y-115882264D01*
X69321489Y-115882261D01*
X69166845Y-115851500D01*
X69166842Y-115851500D01*
X69009158Y-115851500D01*
X69009155Y-115851500D01*
X68854510Y-115882261D01*
X68854498Y-115882264D01*
X68708827Y-115942602D01*
X68708814Y-115942609D01*
X68577711Y-116030210D01*
X68577707Y-116030213D01*
X68466213Y-116141707D01*
X68466210Y-116141711D01*
X68378609Y-116272814D01*
X68378602Y-116272827D01*
X68318264Y-116418498D01*
X68318261Y-116418510D01*
X68287500Y-116573153D01*
X66667500Y-116573153D01*
X66667500Y-114729153D01*
X87591500Y-114729153D01*
X87591500Y-114886846D01*
X87622261Y-115041489D01*
X87622264Y-115041501D01*
X87682602Y-115187172D01*
X87682609Y-115187185D01*
X87770210Y-115318288D01*
X87770213Y-115318292D01*
X87881707Y-115429786D01*
X87881711Y-115429789D01*
X88012814Y-115517390D01*
X88012827Y-115517397D01*
X88158498Y-115577735D01*
X88158503Y-115577737D01*
X88313153Y-115608499D01*
X88313156Y-115608500D01*
X88313158Y-115608500D01*
X88470844Y-115608500D01*
X88470845Y-115608499D01*
X88625497Y-115577737D01*
X88771179Y-115517394D01*
X88902289Y-115429789D01*
X89013789Y-115318289D01*
X89068002Y-115237153D01*
X93941500Y-115237153D01*
X93941500Y-115394846D01*
X93972261Y-115549489D01*
X93972264Y-115549501D01*
X94032602Y-115695172D01*
X94032609Y-115695185D01*
X94120210Y-115826288D01*
X94120213Y-115826292D01*
X94231707Y-115937786D01*
X94231711Y-115937789D01*
X94362814Y-116025390D01*
X94362827Y-116025397D01*
X94508498Y-116085735D01*
X94508503Y-116085737D01*
X94610241Y-116105974D01*
X94663153Y-116116499D01*
X94663156Y-116116500D01*
X94663158Y-116116500D01*
X94820844Y-116116500D01*
X94820845Y-116116499D01*
X94975497Y-116085737D01*
X95121179Y-116025394D01*
X95252289Y-115937789D01*
X95363789Y-115826289D01*
X95451394Y-115695179D01*
X95511737Y-115549497D01*
X95542500Y-115394842D01*
X95542500Y-115237158D01*
X95542500Y-115237155D01*
X95542499Y-115237153D01*
X98767500Y-115237153D01*
X98767500Y-115394846D01*
X98798261Y-115549489D01*
X98798264Y-115549501D01*
X98858602Y-115695172D01*
X98858609Y-115695185D01*
X98946210Y-115826288D01*
X98946213Y-115826292D01*
X99057707Y-115937786D01*
X99057711Y-115937789D01*
X99188814Y-116025390D01*
X99188827Y-116025397D01*
X99334498Y-116085735D01*
X99334503Y-116085737D01*
X99436241Y-116105974D01*
X99489153Y-116116499D01*
X99489156Y-116116500D01*
X99489158Y-116116500D01*
X99646844Y-116116500D01*
X99646845Y-116116499D01*
X99801497Y-116085737D01*
X99947179Y-116025394D01*
X100078289Y-115937789D01*
X100189789Y-115826289D01*
X100277394Y-115695179D01*
X100337737Y-115549497D01*
X100368500Y-115394842D01*
X100368500Y-115237158D01*
X100368500Y-115237155D01*
X100368499Y-115237153D01*
X100357850Y-115183616D01*
X100337737Y-115082503D01*
X100320749Y-115041489D01*
X100277397Y-114936827D01*
X100277390Y-114936814D01*
X100189789Y-114805711D01*
X100189786Y-114805707D01*
X100078292Y-114694213D01*
X100078288Y-114694210D01*
X99947185Y-114606609D01*
X99947172Y-114606602D01*
X99801501Y-114546264D01*
X99801489Y-114546261D01*
X99646845Y-114515500D01*
X99646842Y-114515500D01*
X99489158Y-114515500D01*
X99489155Y-114515500D01*
X99334510Y-114546261D01*
X99334498Y-114546264D01*
X99188827Y-114606602D01*
X99188814Y-114606609D01*
X99057711Y-114694210D01*
X99057707Y-114694213D01*
X98946213Y-114805707D01*
X98946210Y-114805711D01*
X98858609Y-114936814D01*
X98858602Y-114936827D01*
X98798264Y-115082498D01*
X98798261Y-115082510D01*
X98767500Y-115237153D01*
X95542499Y-115237153D01*
X95531850Y-115183616D01*
X95511737Y-115082503D01*
X95494749Y-115041489D01*
X95451397Y-114936827D01*
X95451390Y-114936814D01*
X95363789Y-114805711D01*
X95363786Y-114805707D01*
X95252292Y-114694213D01*
X95252288Y-114694210D01*
X95121185Y-114606609D01*
X95121172Y-114606602D01*
X94975501Y-114546264D01*
X94975489Y-114546261D01*
X94820845Y-114515500D01*
X94820842Y-114515500D01*
X94663158Y-114515500D01*
X94663155Y-114515500D01*
X94508510Y-114546261D01*
X94508498Y-114546264D01*
X94362827Y-114606602D01*
X94362814Y-114606609D01*
X94231711Y-114694210D01*
X94231707Y-114694213D01*
X94120213Y-114805707D01*
X94120210Y-114805711D01*
X94032609Y-114936814D01*
X94032602Y-114936827D01*
X93972264Y-115082498D01*
X93972261Y-115082510D01*
X93941500Y-115237153D01*
X89068002Y-115237153D01*
X89101394Y-115187179D01*
X89161737Y-115041497D01*
X89192500Y-114886842D01*
X89192500Y-114729158D01*
X89192500Y-114729155D01*
X89192499Y-114729153D01*
X89185549Y-114694213D01*
X89161737Y-114574503D01*
X89150039Y-114546261D01*
X89101397Y-114428827D01*
X89101390Y-114428814D01*
X89013789Y-114297711D01*
X89013786Y-114297707D01*
X88902292Y-114186213D01*
X88902288Y-114186210D01*
X88771185Y-114098609D01*
X88771172Y-114098602D01*
X88625501Y-114038264D01*
X88625489Y-114038261D01*
X88470845Y-114007500D01*
X88470842Y-114007500D01*
X88313158Y-114007500D01*
X88313155Y-114007500D01*
X88158510Y-114038261D01*
X88158498Y-114038264D01*
X88012827Y-114098602D01*
X88012814Y-114098609D01*
X87881711Y-114186210D01*
X87881707Y-114186213D01*
X87770213Y-114297707D01*
X87770210Y-114297711D01*
X87682609Y-114428814D01*
X87682602Y-114428827D01*
X87622264Y-114574498D01*
X87622261Y-114574510D01*
X87591500Y-114729153D01*
X66667500Y-114729153D01*
X66667500Y-112697153D01*
X73367500Y-112697153D01*
X73367500Y-112854846D01*
X73398261Y-113009489D01*
X73398264Y-113009501D01*
X73458602Y-113155172D01*
X73458609Y-113155185D01*
X73546210Y-113286288D01*
X73546213Y-113286292D01*
X73657707Y-113397786D01*
X73657711Y-113397789D01*
X73788814Y-113485390D01*
X73788827Y-113485397D01*
X73871298Y-113519557D01*
X73934503Y-113545737D01*
X74089153Y-113576499D01*
X74089156Y-113576500D01*
X74089158Y-113576500D01*
X74246844Y-113576500D01*
X74324288Y-113561095D01*
X74393880Y-113567322D01*
X74449057Y-113610185D01*
X74463041Y-113635259D01*
X74474604Y-113663176D01*
X74474609Y-113663185D01*
X74562210Y-113794288D01*
X74562213Y-113794292D01*
X74673707Y-113905786D01*
X74673711Y-113905789D01*
X74804814Y-113993390D01*
X74804827Y-113993397D01*
X74950498Y-114053735D01*
X74950503Y-114053737D01*
X75105153Y-114084499D01*
X75105156Y-114084500D01*
X75105158Y-114084500D01*
X75262844Y-114084500D01*
X75262845Y-114084499D01*
X75417497Y-114053737D01*
X75563179Y-113993394D01*
X75694289Y-113905789D01*
X75805789Y-113794289D01*
X75893394Y-113663179D01*
X75953737Y-113517497D01*
X75984500Y-113362842D01*
X75984500Y-113205158D01*
X75984500Y-113205155D01*
X75984499Y-113205153D01*
X77431500Y-113205153D01*
X77431500Y-113362846D01*
X77462261Y-113517489D01*
X77462264Y-113517501D01*
X77522602Y-113663172D01*
X77522609Y-113663185D01*
X77610210Y-113794288D01*
X77610213Y-113794292D01*
X77721707Y-113905786D01*
X77721711Y-113905789D01*
X77852814Y-113993390D01*
X77852827Y-113993397D01*
X77998498Y-114053735D01*
X77998503Y-114053737D01*
X78153153Y-114084499D01*
X78153156Y-114084500D01*
X78153158Y-114084500D01*
X78310844Y-114084500D01*
X78310845Y-114084499D01*
X78465497Y-114053737D01*
X78611179Y-113993394D01*
X78742289Y-113905789D01*
X78853789Y-113794289D01*
X78908002Y-113713153D01*
X112610500Y-113713153D01*
X112610500Y-113870846D01*
X112641261Y-114025489D01*
X112641264Y-114025501D01*
X112701602Y-114171172D01*
X112701609Y-114171185D01*
X112789210Y-114302288D01*
X112789213Y-114302292D01*
X112900707Y-114413786D01*
X112900711Y-114413789D01*
X113031814Y-114501390D01*
X113031827Y-114501397D01*
X113177498Y-114561735D01*
X113177503Y-114561737D01*
X113332153Y-114592499D01*
X113332156Y-114592500D01*
X113332158Y-114592500D01*
X113489844Y-114592500D01*
X113489845Y-114592499D01*
X113644497Y-114561737D01*
X113790179Y-114501394D01*
X113921289Y-114413789D01*
X114032789Y-114302289D01*
X114120394Y-114171179D01*
X114180737Y-114025497D01*
X114211500Y-113870842D01*
X114211500Y-113713158D01*
X114211500Y-113713155D01*
X114211499Y-113713153D01*
X114191017Y-113610185D01*
X114180737Y-113558503D01*
X114164605Y-113519557D01*
X114120397Y-113412827D01*
X114120390Y-113412814D01*
X114032789Y-113281711D01*
X114032786Y-113281707D01*
X113921292Y-113170213D01*
X113921288Y-113170210D01*
X113790185Y-113082609D01*
X113790172Y-113082602D01*
X113644501Y-113022264D01*
X113644489Y-113022261D01*
X113489845Y-112991500D01*
X113489842Y-112991500D01*
X113332158Y-112991500D01*
X113332155Y-112991500D01*
X113177510Y-113022261D01*
X113177498Y-113022264D01*
X113031827Y-113082602D01*
X113031814Y-113082609D01*
X112900711Y-113170210D01*
X112900707Y-113170213D01*
X112789213Y-113281707D01*
X112789210Y-113281711D01*
X112701609Y-113412814D01*
X112701602Y-113412827D01*
X112641264Y-113558498D01*
X112641261Y-113558510D01*
X112610500Y-113713153D01*
X78908002Y-113713153D01*
X78941394Y-113663179D01*
X79001737Y-113517497D01*
X79032500Y-113362842D01*
X79032500Y-113205158D01*
X79032500Y-113205155D01*
X79032499Y-113205153D01*
X79025549Y-113170213D01*
X79001737Y-113050503D01*
X78998322Y-113042258D01*
X78941397Y-112904827D01*
X78941390Y-112904814D01*
X78853789Y-112773711D01*
X78853786Y-112773707D01*
X78742292Y-112662213D01*
X78742288Y-112662210D01*
X78611185Y-112574609D01*
X78611172Y-112574602D01*
X78465501Y-112514264D01*
X78465489Y-112514261D01*
X78310845Y-112483500D01*
X78310842Y-112483500D01*
X78153158Y-112483500D01*
X78153155Y-112483500D01*
X77998510Y-112514261D01*
X77998498Y-112514264D01*
X77852827Y-112574602D01*
X77852814Y-112574609D01*
X77721711Y-112662210D01*
X77721707Y-112662213D01*
X77610213Y-112773707D01*
X77610210Y-112773711D01*
X77522609Y-112904814D01*
X77522602Y-112904827D01*
X77462264Y-113050498D01*
X77462261Y-113050510D01*
X77431500Y-113205153D01*
X75984499Y-113205153D01*
X75977549Y-113170213D01*
X75953737Y-113050503D01*
X75950322Y-113042258D01*
X75893397Y-112904827D01*
X75893390Y-112904814D01*
X75805789Y-112773711D01*
X75805786Y-112773707D01*
X75694292Y-112662213D01*
X75694288Y-112662210D01*
X75563185Y-112574609D01*
X75563172Y-112574602D01*
X75417501Y-112514264D01*
X75417489Y-112514261D01*
X75262845Y-112483500D01*
X75262842Y-112483500D01*
X75105158Y-112483500D01*
X75027709Y-112498905D01*
X74958118Y-112492676D01*
X74902941Y-112449813D01*
X74888958Y-112424739D01*
X74883852Y-112412412D01*
X74877394Y-112396821D01*
X74877392Y-112396819D01*
X74877392Y-112396817D01*
X74789789Y-112265711D01*
X74789786Y-112265707D01*
X74678292Y-112154213D01*
X74678288Y-112154210D01*
X74547185Y-112066609D01*
X74547172Y-112066602D01*
X74401501Y-112006264D01*
X74401489Y-112006261D01*
X74246845Y-111975500D01*
X74246842Y-111975500D01*
X74089158Y-111975500D01*
X74089155Y-111975500D01*
X73934510Y-112006261D01*
X73934498Y-112006264D01*
X73788827Y-112066602D01*
X73788814Y-112066609D01*
X73657711Y-112154210D01*
X73657707Y-112154213D01*
X73546213Y-112265707D01*
X73546210Y-112265711D01*
X73458609Y-112396814D01*
X73458602Y-112396827D01*
X73398264Y-112542498D01*
X73398261Y-112542510D01*
X73367500Y-112697153D01*
X66667500Y-112697153D01*
X66667500Y-110075398D01*
X78529255Y-110075398D01*
X78529255Y-110233091D01*
X78560016Y-110387734D01*
X78560019Y-110387746D01*
X78620357Y-110533417D01*
X78620364Y-110533430D01*
X78707965Y-110664533D01*
X78707968Y-110664537D01*
X78819463Y-110776032D01*
X78819466Y-110776034D01*
X78889690Y-110822956D01*
X78934495Y-110876567D01*
X78943202Y-110945892D01*
X78925382Y-110991188D01*
X78925614Y-110991312D01*
X78924553Y-110993296D01*
X78923906Y-110994942D01*
X78922745Y-110996679D01*
X78922737Y-110996693D01*
X78862399Y-111142363D01*
X78862396Y-111142375D01*
X78831635Y-111297018D01*
X78831635Y-111454711D01*
X78862396Y-111609354D01*
X78862399Y-111609366D01*
X78922737Y-111755037D01*
X78922744Y-111755050D01*
X79010345Y-111886153D01*
X79010348Y-111886157D01*
X79121842Y-111997651D01*
X79121846Y-111997654D01*
X79252949Y-112085255D01*
X79252962Y-112085262D01*
X79374532Y-112135617D01*
X79398638Y-112145602D01*
X79553288Y-112176364D01*
X79553291Y-112176365D01*
X79553293Y-112176365D01*
X79710979Y-112176365D01*
X79710980Y-112176364D01*
X79784636Y-112161713D01*
X84501500Y-112161713D01*
X84501500Y-112374287D01*
X84509491Y-112424739D01*
X84533227Y-112574606D01*
X84534754Y-112584243D01*
X84597803Y-112778288D01*
X84600444Y-112786414D01*
X84696951Y-112975820D01*
X84821890Y-113147786D01*
X84972213Y-113298109D01*
X85144179Y-113423048D01*
X85144181Y-113423049D01*
X85144184Y-113423051D01*
X85333588Y-113519557D01*
X85535757Y-113585246D01*
X85745713Y-113618500D01*
X85745714Y-113618500D01*
X85958286Y-113618500D01*
X85958287Y-113618500D01*
X86168243Y-113585246D01*
X86370412Y-113519557D01*
X86559816Y-113423051D01*
X86642682Y-113362846D01*
X86731786Y-113298109D01*
X86731788Y-113298106D01*
X86731792Y-113298104D01*
X86882104Y-113147792D01*
X86882106Y-113147788D01*
X86882109Y-113147786D01*
X87005903Y-112977396D01*
X87007051Y-112975816D01*
X87103557Y-112786412D01*
X87169246Y-112584243D01*
X87202500Y-112374287D01*
X87202500Y-112316153D01*
X91909500Y-112316153D01*
X91909500Y-112473846D01*
X91940261Y-112628489D01*
X91940264Y-112628501D01*
X92000602Y-112774172D01*
X92000609Y-112774185D01*
X92088210Y-112905288D01*
X92088213Y-112905292D01*
X92199707Y-113016786D01*
X92199711Y-113016789D01*
X92330814Y-113104390D01*
X92330827Y-113104397D01*
X92453442Y-113155185D01*
X92476503Y-113164737D01*
X92631153Y-113195499D01*
X92631156Y-113195500D01*
X92631158Y-113195500D01*
X92788844Y-113195500D01*
X92788845Y-113195499D01*
X92943497Y-113164737D01*
X93089179Y-113104394D01*
X93220289Y-113016789D01*
X93331789Y-112905289D01*
X93419394Y-112774179D01*
X93479737Y-112628497D01*
X93510500Y-112473842D01*
X93510500Y-112316158D01*
X93510500Y-112316155D01*
X93510499Y-112316153D01*
X93500465Y-112265711D01*
X93479737Y-112161503D01*
X93448156Y-112085259D01*
X93419397Y-112015827D01*
X93419390Y-112015814D01*
X93332702Y-111886077D01*
X93332701Y-111886076D01*
X93331787Y-111884708D01*
X93270352Y-111823273D01*
X96847380Y-111823273D01*
X96847380Y-111980966D01*
X96878140Y-112135605D01*
X96878142Y-112135614D01*
X96938482Y-112281292D01*
X96938489Y-112281305D01*
X97026090Y-112412408D01*
X97026093Y-112412412D01*
X97137587Y-112523906D01*
X97137591Y-112523909D01*
X97268694Y-112611510D01*
X97268707Y-112611517D01*
X97364727Y-112651289D01*
X97414383Y-112671857D01*
X97541554Y-112697153D01*
X97569033Y-112702619D01*
X97569036Y-112702620D01*
X97569038Y-112702620D01*
X97726724Y-112702620D01*
X97726725Y-112702619D01*
X97881377Y-112671857D01*
X98027059Y-112611514D01*
X98158169Y-112523909D01*
X98269669Y-112412409D01*
X98357274Y-112281299D01*
X98395442Y-112189153D01*
X108038500Y-112189153D01*
X108038500Y-112346846D01*
X108069261Y-112501489D01*
X108069264Y-112501501D01*
X108129602Y-112647172D01*
X108129609Y-112647185D01*
X108217210Y-112778288D01*
X108217213Y-112778292D01*
X108328707Y-112889786D01*
X108328711Y-112889789D01*
X108459814Y-112977390D01*
X108459827Y-112977397D01*
X108605498Y-113037735D01*
X108605503Y-113037737D01*
X108760153Y-113068499D01*
X108760156Y-113068500D01*
X108760158Y-113068500D01*
X108917844Y-113068500D01*
X108917845Y-113068499D01*
X109072497Y-113037737D01*
X109218179Y-112977394D01*
X109261169Y-112948668D01*
X109327841Y-112927791D01*
X109395221Y-112946274D01*
X109398948Y-112948669D01*
X109439577Y-112975816D01*
X109448703Y-112981914D01*
X109448705Y-112981915D01*
X109448709Y-112981917D01*
X109583475Y-113037738D01*
X109594385Y-113042257D01*
X109726312Y-113068499D01*
X109749035Y-113073019D01*
X109749038Y-113073020D01*
X109749040Y-113073020D01*
X109906726Y-113073020D01*
X109906727Y-113073019D01*
X110061379Y-113042257D01*
X110207061Y-112981914D01*
X110286918Y-112928554D01*
X110353595Y-112907677D01*
X110380001Y-112910040D01*
X110383501Y-112910736D01*
X110383503Y-112910737D01*
X110443865Y-112922743D01*
X110538155Y-112941500D01*
X110538158Y-112941500D01*
X110695844Y-112941500D01*
X110695845Y-112941499D01*
X110850497Y-112910737D01*
X110996179Y-112850394D01*
X110996184Y-112850390D01*
X111001546Y-112847525D01*
X111002670Y-112849629D01*
X111059283Y-112831901D01*
X111120787Y-112848771D01*
X111121454Y-112847525D01*
X111126825Y-112850396D01*
X111265115Y-112907677D01*
X111272503Y-112910737D01*
X111362080Y-112928555D01*
X111427153Y-112941499D01*
X111427156Y-112941500D01*
X111427158Y-112941500D01*
X111584844Y-112941500D01*
X111584845Y-112941499D01*
X111739497Y-112910737D01*
X111874431Y-112854846D01*
X111885172Y-112850397D01*
X111885172Y-112850396D01*
X111885179Y-112850394D01*
X112016289Y-112762789D01*
X112127789Y-112651289D01*
X112215394Y-112520179D01*
X112217845Y-112514263D01*
X112260034Y-112412408D01*
X112275737Y-112374497D01*
X112306500Y-112219842D01*
X112306500Y-112062158D01*
X112306500Y-112062155D01*
X112306499Y-112062153D01*
X112297283Y-112015821D01*
X112275737Y-111907503D01*
X112220112Y-111773211D01*
X112215397Y-111761827D01*
X112215390Y-111761814D01*
X112127789Y-111630711D01*
X112127786Y-111630707D01*
X112016292Y-111519213D01*
X112016288Y-111519210D01*
X111885185Y-111431609D01*
X111885172Y-111431602D01*
X111739501Y-111371264D01*
X111739489Y-111371261D01*
X111584845Y-111340500D01*
X111584842Y-111340500D01*
X111427158Y-111340500D01*
X111427155Y-111340500D01*
X111272510Y-111371261D01*
X111272498Y-111371264D01*
X111126822Y-111431604D01*
X111121451Y-111434476D01*
X111120329Y-111432377D01*
X111063679Y-111450099D01*
X111002220Y-111433219D01*
X111001549Y-111434476D01*
X110996177Y-111431604D01*
X110850501Y-111371264D01*
X110850489Y-111371261D01*
X110695845Y-111340500D01*
X110695842Y-111340500D01*
X110538158Y-111340500D01*
X110538155Y-111340500D01*
X110383510Y-111371261D01*
X110383498Y-111371264D01*
X110237827Y-111431602D01*
X110237814Y-111431609D01*
X110157964Y-111484964D01*
X110091286Y-111505842D01*
X110064882Y-111503479D01*
X109906727Y-111472020D01*
X109906724Y-111472020D01*
X109749040Y-111472020D01*
X109749037Y-111472020D01*
X109594392Y-111502781D01*
X109594380Y-111502784D01*
X109448710Y-111563122D01*
X109448696Y-111563130D01*
X109405710Y-111591851D01*
X109339032Y-111612727D01*
X109271652Y-111594241D01*
X109267932Y-111591849D01*
X109218189Y-111558612D01*
X109218182Y-111558608D01*
X109218179Y-111558606D01*
X109218175Y-111558604D01*
X109218171Y-111558602D01*
X109072501Y-111498264D01*
X109072489Y-111498261D01*
X108917845Y-111467500D01*
X108917842Y-111467500D01*
X108760158Y-111467500D01*
X108760155Y-111467500D01*
X108605510Y-111498261D01*
X108605498Y-111498264D01*
X108459827Y-111558602D01*
X108459814Y-111558609D01*
X108328711Y-111646210D01*
X108328707Y-111646213D01*
X108217213Y-111757707D01*
X108217210Y-111757711D01*
X108129609Y-111888814D01*
X108129602Y-111888827D01*
X108069264Y-112034498D01*
X108069261Y-112034510D01*
X108038500Y-112189153D01*
X98395442Y-112189153D01*
X98417617Y-112135617D01*
X98417618Y-112135614D01*
X98417620Y-112135605D01*
X98448379Y-111980966D01*
X98448380Y-111980964D01*
X98448380Y-111823275D01*
X98448379Y-111823273D01*
X98438421Y-111773210D01*
X98417617Y-111668623D01*
X98408333Y-111646210D01*
X98357277Y-111522947D01*
X98357270Y-111522934D01*
X98269669Y-111391831D01*
X98269666Y-111391827D01*
X98158172Y-111280333D01*
X98158168Y-111280330D01*
X98027065Y-111192729D01*
X98027052Y-111192722D01*
X97881381Y-111132384D01*
X97881369Y-111132381D01*
X97726725Y-111101620D01*
X97726722Y-111101620D01*
X97569038Y-111101620D01*
X97569035Y-111101620D01*
X97414390Y-111132381D01*
X97414378Y-111132384D01*
X97268707Y-111192722D01*
X97268694Y-111192729D01*
X97137591Y-111280330D01*
X97137587Y-111280333D01*
X97026093Y-111391827D01*
X97026090Y-111391831D01*
X96938489Y-111522934D01*
X96938482Y-111522947D01*
X96878144Y-111668618D01*
X96878141Y-111668630D01*
X96847380Y-111823273D01*
X93270352Y-111823273D01*
X93220292Y-111773213D01*
X93220288Y-111773210D01*
X93089185Y-111685609D01*
X93089172Y-111685602D01*
X92943501Y-111625264D01*
X92943489Y-111625261D01*
X92788845Y-111594500D01*
X92788842Y-111594500D01*
X92631158Y-111594500D01*
X92631155Y-111594500D01*
X92476510Y-111625261D01*
X92476498Y-111625264D01*
X92330827Y-111685602D01*
X92330814Y-111685609D01*
X92199711Y-111773210D01*
X92199707Y-111773213D01*
X92088213Y-111884707D01*
X92088210Y-111884711D01*
X92000609Y-112015814D01*
X92000602Y-112015827D01*
X91940264Y-112161498D01*
X91940261Y-112161510D01*
X91909500Y-112316153D01*
X87202500Y-112316153D01*
X87202500Y-112161713D01*
X87169246Y-111951757D01*
X87103557Y-111749588D01*
X87007051Y-111560184D01*
X87007049Y-111560181D01*
X87007048Y-111560179D01*
X86882109Y-111388213D01*
X86731786Y-111237890D01*
X86559820Y-111112951D01*
X86370414Y-111016444D01*
X86370413Y-111016443D01*
X86370412Y-111016443D01*
X86168243Y-110950754D01*
X86168241Y-110950753D01*
X86168240Y-110950753D01*
X86006957Y-110925208D01*
X85958287Y-110917500D01*
X85745713Y-110917500D01*
X85697042Y-110925208D01*
X85535760Y-110950753D01*
X85333585Y-111016444D01*
X85144179Y-111112951D01*
X84972213Y-111237890D01*
X84821890Y-111388213D01*
X84696951Y-111560179D01*
X84600444Y-111749585D01*
X84534753Y-111951760D01*
X84516563Y-112066609D01*
X84501500Y-112161713D01*
X79784636Y-112161713D01*
X79865632Y-112145602D01*
X80011314Y-112085259D01*
X80039226Y-112066609D01*
X80058488Y-112053739D01*
X80115235Y-112015821D01*
X80142424Y-111997654D01*
X80253924Y-111886154D01*
X80341529Y-111755044D01*
X80401872Y-111609362D01*
X80432635Y-111454707D01*
X80432635Y-111297023D01*
X80432635Y-111297020D01*
X80432634Y-111297018D01*
X80429315Y-111280331D01*
X80401872Y-111142368D01*
X80389687Y-111112951D01*
X80341532Y-110996692D01*
X80341525Y-110996679D01*
X80253924Y-110865576D01*
X80253921Y-110865572D01*
X80142424Y-110754075D01*
X80072199Y-110707153D01*
X80027394Y-110653541D01*
X80018687Y-110584216D01*
X80036512Y-110538915D01*
X80036280Y-110538791D01*
X80037346Y-110536795D01*
X80037991Y-110535155D01*
X80039149Y-110533424D01*
X80099492Y-110387742D01*
X80130255Y-110233087D01*
X80130255Y-110157153D01*
X88607500Y-110157153D01*
X88607500Y-110314846D01*
X88638261Y-110469489D01*
X88638264Y-110469501D01*
X88698602Y-110615172D01*
X88698609Y-110615185D01*
X88786210Y-110746288D01*
X88786213Y-110746292D01*
X88897707Y-110857786D01*
X88897711Y-110857789D01*
X89028814Y-110945390D01*
X89028827Y-110945397D01*
X89174498Y-111005735D01*
X89174503Y-111005737D01*
X89329153Y-111036499D01*
X89329156Y-111036500D01*
X89329158Y-111036500D01*
X89486844Y-111036500D01*
X89486845Y-111036499D01*
X89641497Y-111005737D01*
X89787179Y-110945394D01*
X89918289Y-110857789D01*
X90029789Y-110746289D01*
X90117394Y-110615179D01*
X90177737Y-110469497D01*
X90183238Y-110441842D01*
X90189343Y-110411153D01*
X95084500Y-110411153D01*
X95084500Y-110568846D01*
X95115261Y-110723489D01*
X95115264Y-110723501D01*
X95175602Y-110869172D01*
X95175609Y-110869185D01*
X95263210Y-111000288D01*
X95263213Y-111000292D01*
X95374707Y-111111786D01*
X95374711Y-111111789D01*
X95505814Y-111199390D01*
X95505827Y-111199397D01*
X95651498Y-111259735D01*
X95651503Y-111259737D01*
X95806153Y-111290499D01*
X95806156Y-111290500D01*
X95806158Y-111290500D01*
X95963844Y-111290500D01*
X95963845Y-111290499D01*
X96118497Y-111259737D01*
X96264179Y-111199394D01*
X96395289Y-111111789D01*
X96506789Y-111000289D01*
X96594394Y-110869179D01*
X96654737Y-110723497D01*
X96685500Y-110568842D01*
X96685500Y-110411158D01*
X96685500Y-110411155D01*
X96685499Y-110411153D01*
X96663839Y-110302257D01*
X96660238Y-110284153D01*
X98386500Y-110284153D01*
X98386500Y-110441846D01*
X98417261Y-110596489D01*
X98417264Y-110596501D01*
X98477602Y-110742172D01*
X98477609Y-110742185D01*
X98565210Y-110873288D01*
X98565213Y-110873292D01*
X98676707Y-110984786D01*
X98676711Y-110984789D01*
X98807814Y-111072390D01*
X98807827Y-111072397D01*
X98952648Y-111132383D01*
X98953503Y-111132737D01*
X99108153Y-111163499D01*
X99108156Y-111163500D01*
X99108158Y-111163500D01*
X99265844Y-111163500D01*
X99265845Y-111163499D01*
X99420497Y-111132737D01*
X99566179Y-111072394D01*
X99697289Y-110984789D01*
X99808789Y-110873289D01*
X99896394Y-110742179D01*
X99956737Y-110596497D01*
X99987500Y-110441842D01*
X99987500Y-110284158D01*
X99987500Y-110284155D01*
X99987499Y-110284153D01*
X99956738Y-110129510D01*
X99956737Y-110129503D01*
X99911587Y-110020500D01*
X99896397Y-109983827D01*
X99896390Y-109983814D01*
X99808789Y-109852711D01*
X99808786Y-109852707D01*
X99697292Y-109741213D01*
X99697288Y-109741210D01*
X99566185Y-109653609D01*
X99566172Y-109653602D01*
X99420501Y-109593264D01*
X99420489Y-109593261D01*
X99265845Y-109562500D01*
X99265842Y-109562500D01*
X99108158Y-109562500D01*
X99108155Y-109562500D01*
X98953510Y-109593261D01*
X98953498Y-109593264D01*
X98807827Y-109653602D01*
X98807814Y-109653609D01*
X98676711Y-109741210D01*
X98676707Y-109741213D01*
X98565213Y-109852707D01*
X98565210Y-109852711D01*
X98477609Y-109983814D01*
X98477602Y-109983827D01*
X98417264Y-110129498D01*
X98417261Y-110129510D01*
X98386500Y-110284153D01*
X96660238Y-110284153D01*
X96654738Y-110256508D01*
X96654737Y-110256507D01*
X96654737Y-110256503D01*
X96645038Y-110233087D01*
X96594397Y-110110827D01*
X96594390Y-110110814D01*
X96506789Y-109979711D01*
X96506786Y-109979707D01*
X96395292Y-109868213D01*
X96395288Y-109868210D01*
X96264185Y-109780609D01*
X96264172Y-109780602D01*
X96118501Y-109720264D01*
X96118489Y-109720261D01*
X95963845Y-109689500D01*
X95963842Y-109689500D01*
X95806158Y-109689500D01*
X95806155Y-109689500D01*
X95651510Y-109720261D01*
X95651498Y-109720264D01*
X95505827Y-109780602D01*
X95505814Y-109780609D01*
X95374711Y-109868210D01*
X95374707Y-109868213D01*
X95263213Y-109979707D01*
X95263210Y-109979711D01*
X95175609Y-110110814D01*
X95175602Y-110110827D01*
X95115264Y-110256498D01*
X95115261Y-110256510D01*
X95084500Y-110411153D01*
X90189343Y-110411153D01*
X90195366Y-110380874D01*
X90195366Y-110380873D01*
X90208499Y-110314846D01*
X90208500Y-110314844D01*
X90208500Y-110157155D01*
X90208499Y-110157153D01*
X90199283Y-110110821D01*
X90177737Y-110002503D01*
X90147456Y-109929397D01*
X90117397Y-109856827D01*
X90117390Y-109856814D01*
X90029789Y-109725711D01*
X90029786Y-109725707D01*
X89918292Y-109614213D01*
X89918288Y-109614210D01*
X89787185Y-109526609D01*
X89787172Y-109526602D01*
X89641501Y-109466264D01*
X89641489Y-109466261D01*
X89486845Y-109435500D01*
X89486842Y-109435500D01*
X89329158Y-109435500D01*
X89329155Y-109435500D01*
X89174510Y-109466261D01*
X89174498Y-109466264D01*
X89028827Y-109526602D01*
X89028814Y-109526609D01*
X88897711Y-109614210D01*
X88897707Y-109614213D01*
X88786213Y-109725707D01*
X88786210Y-109725711D01*
X88698609Y-109856814D01*
X88698602Y-109856827D01*
X88638264Y-110002498D01*
X88638261Y-110002510D01*
X88607500Y-110157153D01*
X80130255Y-110157153D01*
X80130255Y-110075403D01*
X80130255Y-110075400D01*
X80130254Y-110075398D01*
X80119334Y-110020499D01*
X80099492Y-109920748D01*
X80099490Y-109920743D01*
X80039152Y-109775072D01*
X80039145Y-109775059D01*
X79958820Y-109654845D01*
X79937942Y-109588168D01*
X79956426Y-109520787D01*
X80008405Y-109474097D01*
X80014470Y-109471393D01*
X80135172Y-109421397D01*
X80135172Y-109421396D01*
X80135179Y-109421394D01*
X80266289Y-109333789D01*
X80377789Y-109222289D01*
X80432002Y-109141153D01*
X83019500Y-109141153D01*
X83019500Y-109298846D01*
X83050261Y-109453489D01*
X83050264Y-109453501D01*
X83110602Y-109599172D01*
X83110609Y-109599185D01*
X83198210Y-109730288D01*
X83198213Y-109730292D01*
X83309707Y-109841786D01*
X83309711Y-109841789D01*
X83440814Y-109929390D01*
X83440827Y-109929397D01*
X83572220Y-109983821D01*
X83586503Y-109989737D01*
X83741153Y-110020499D01*
X83741156Y-110020500D01*
X83741158Y-110020500D01*
X83898844Y-110020500D01*
X83898845Y-110020499D01*
X84053497Y-109989737D01*
X84199179Y-109929394D01*
X84330289Y-109841789D01*
X84441789Y-109730289D01*
X84529394Y-109599179D01*
X84531845Y-109593263D01*
X84544587Y-109562500D01*
X84589737Y-109453497D01*
X84620500Y-109298842D01*
X84620500Y-109141158D01*
X84620500Y-109141155D01*
X84620499Y-109141153D01*
X84609850Y-109087616D01*
X84589737Y-108986503D01*
X84572749Y-108945489D01*
X84529397Y-108840827D01*
X84529390Y-108840814D01*
X84441789Y-108709711D01*
X84441786Y-108709707D01*
X84330292Y-108598213D01*
X84330288Y-108598210D01*
X84199185Y-108510609D01*
X84199172Y-108510602D01*
X84053501Y-108450264D01*
X84053489Y-108450261D01*
X83898845Y-108419500D01*
X83898842Y-108419500D01*
X83741158Y-108419500D01*
X83741155Y-108419500D01*
X83586510Y-108450261D01*
X83586498Y-108450264D01*
X83440827Y-108510602D01*
X83440814Y-108510609D01*
X83309711Y-108598210D01*
X83309707Y-108598213D01*
X83198213Y-108709707D01*
X83198210Y-108709711D01*
X83110609Y-108840814D01*
X83110602Y-108840827D01*
X83050264Y-108986498D01*
X83050261Y-108986510D01*
X83019500Y-109141153D01*
X80432002Y-109141153D01*
X80465394Y-109091179D01*
X80525737Y-108945497D01*
X80556500Y-108790842D01*
X80556500Y-108633158D01*
X80556500Y-108633155D01*
X80556499Y-108633153D01*
X80549549Y-108598213D01*
X80525737Y-108478503D01*
X80514039Y-108450261D01*
X80465397Y-108332827D01*
X80465390Y-108332814D01*
X80377789Y-108201711D01*
X80377786Y-108201707D01*
X80266292Y-108090213D01*
X80266288Y-108090210D01*
X80135185Y-108002609D01*
X80135172Y-108002602D01*
X79989501Y-107942264D01*
X79989489Y-107942261D01*
X79834845Y-107911500D01*
X79834842Y-107911500D01*
X79677158Y-107911500D01*
X79677155Y-107911500D01*
X79522510Y-107942261D01*
X79522498Y-107942264D01*
X79376827Y-108002602D01*
X79376814Y-108002609D01*
X79245711Y-108090210D01*
X79245707Y-108090213D01*
X79134213Y-108201707D01*
X79134210Y-108201711D01*
X79046609Y-108332814D01*
X79046602Y-108332827D01*
X78986264Y-108478498D01*
X78986261Y-108478510D01*
X78955500Y-108633153D01*
X78955500Y-108790846D01*
X78986261Y-108945489D01*
X78986264Y-108945501D01*
X79046602Y-109091172D01*
X79046609Y-109091185D01*
X79126934Y-109211399D01*
X79147812Y-109278077D01*
X79129327Y-109345457D01*
X79077349Y-109392147D01*
X79071285Y-109394851D01*
X78950579Y-109444849D01*
X78950569Y-109444854D01*
X78819466Y-109532455D01*
X78819462Y-109532458D01*
X78707968Y-109643952D01*
X78707965Y-109643956D01*
X78620364Y-109775059D01*
X78620357Y-109775072D01*
X78560019Y-109920743D01*
X78560016Y-109920755D01*
X78529255Y-110075398D01*
X66667500Y-110075398D01*
X66667500Y-107871153D01*
X75907500Y-107871153D01*
X75907500Y-108028846D01*
X75938261Y-108183489D01*
X75938264Y-108183501D01*
X75998602Y-108329172D01*
X75998609Y-108329185D01*
X76086210Y-108460288D01*
X76086213Y-108460292D01*
X76197707Y-108571786D01*
X76197711Y-108571789D01*
X76328814Y-108659390D01*
X76328827Y-108659397D01*
X76450288Y-108709707D01*
X76474503Y-108719737D01*
X76629153Y-108750499D01*
X76629156Y-108750500D01*
X76629158Y-108750500D01*
X76786844Y-108750500D01*
X76786845Y-108750499D01*
X76941497Y-108719737D01*
X77087179Y-108659394D01*
X77218289Y-108571789D01*
X77329789Y-108460289D01*
X77417394Y-108329179D01*
X77477737Y-108183497D01*
X77508500Y-108028842D01*
X77508500Y-107871158D01*
X77508500Y-107871155D01*
X77508499Y-107871153D01*
X77492757Y-107792014D01*
X77477737Y-107716503D01*
X77439345Y-107623815D01*
X77417397Y-107570827D01*
X77417390Y-107570814D01*
X77329789Y-107439711D01*
X77329786Y-107439707D01*
X77218292Y-107328213D01*
X77218288Y-107328210D01*
X77087185Y-107240609D01*
X77087172Y-107240602D01*
X76941501Y-107180264D01*
X76941489Y-107180261D01*
X76786845Y-107149500D01*
X76786842Y-107149500D01*
X76629158Y-107149500D01*
X76629155Y-107149500D01*
X76474510Y-107180261D01*
X76474498Y-107180264D01*
X76328827Y-107240602D01*
X76328814Y-107240609D01*
X76197711Y-107328210D01*
X76197707Y-107328213D01*
X76086213Y-107439707D01*
X76086210Y-107439711D01*
X75998609Y-107570814D01*
X75998602Y-107570827D01*
X75938264Y-107716498D01*
X75938261Y-107716510D01*
X75907500Y-107871153D01*
X66667500Y-107871153D01*
X66667500Y-106722533D01*
X67904499Y-106722533D01*
X67930458Y-106853030D01*
X67930461Y-106853040D01*
X67981376Y-106975961D01*
X67981386Y-106975979D01*
X68055301Y-107086601D01*
X68055307Y-107086609D01*
X68149390Y-107180692D01*
X68149398Y-107180698D01*
X68260020Y-107254613D01*
X68260023Y-107254614D01*
X68260031Y-107254620D01*
X68382964Y-107305540D01*
X68382968Y-107305540D01*
X68382969Y-107305541D01*
X68513466Y-107331500D01*
X68513469Y-107331500D01*
X68646533Y-107331500D01*
X68734325Y-107314035D01*
X68777036Y-107305540D01*
X68899969Y-107254620D01*
X69010606Y-107180695D01*
X69104695Y-107086606D01*
X69178620Y-106975969D01*
X69229540Y-106853036D01*
X69255500Y-106722531D01*
X69255500Y-106589469D01*
X69255500Y-106589466D01*
X69229541Y-106458969D01*
X69229540Y-106458968D01*
X69229540Y-106458964D01*
X69229538Y-106458959D01*
X69178623Y-106336038D01*
X69178622Y-106336037D01*
X69178620Y-106336031D01*
X69165087Y-106315778D01*
X69104698Y-106225398D01*
X69104692Y-106225390D01*
X69010609Y-106131307D01*
X69010601Y-106131301D01*
X68953508Y-106093153D01*
X71843500Y-106093153D01*
X71843500Y-106250846D01*
X71874261Y-106405489D01*
X71874264Y-106405501D01*
X71934602Y-106551172D01*
X71934609Y-106551185D01*
X72022210Y-106682288D01*
X72022213Y-106682292D01*
X72133707Y-106793786D01*
X72133711Y-106793789D01*
X72264814Y-106881390D01*
X72264827Y-106881397D01*
X72410498Y-106941735D01*
X72410503Y-106941737D01*
X72565153Y-106972499D01*
X72565156Y-106972500D01*
X72565158Y-106972500D01*
X72722844Y-106972500D01*
X72722845Y-106972499D01*
X72877497Y-106941737D01*
X73023179Y-106881394D01*
X73154289Y-106793789D01*
X73265789Y-106682289D01*
X73353394Y-106551179D01*
X73413737Y-106405497D01*
X73427557Y-106336020D01*
X73431584Y-106315778D01*
X85848500Y-106315778D01*
X85848500Y-106536222D01*
X85856933Y-106589466D01*
X85882985Y-106753952D01*
X85951103Y-106963603D01*
X85951104Y-106963606D01*
X85999799Y-107059172D01*
X86038636Y-107135394D01*
X86051187Y-107160025D01*
X86180752Y-107338358D01*
X86180756Y-107338363D01*
X86336636Y-107494243D01*
X86336641Y-107494247D01*
X86442046Y-107570827D01*
X86514978Y-107623815D01*
X86643375Y-107689237D01*
X86711393Y-107723895D01*
X86711396Y-107723896D01*
X86816221Y-107757955D01*
X86921049Y-107792015D01*
X87138778Y-107826500D01*
X87138779Y-107826500D01*
X87359221Y-107826500D01*
X87359222Y-107826500D01*
X87576951Y-107792015D01*
X87786606Y-107723895D01*
X87983022Y-107623815D01*
X88161365Y-107494242D01*
X88317242Y-107338365D01*
X88446815Y-107160022D01*
X88546895Y-106963606D01*
X88615015Y-106753951D01*
X88649500Y-106536222D01*
X88649500Y-106347153D01*
X89369500Y-106347153D01*
X89369500Y-106504846D01*
X89400261Y-106659489D01*
X89400264Y-106659501D01*
X89460602Y-106805172D01*
X89460609Y-106805185D01*
X89548210Y-106936288D01*
X89548213Y-106936292D01*
X89659707Y-107047786D01*
X89659711Y-107047789D01*
X89790814Y-107135390D01*
X89790827Y-107135397D01*
X89936498Y-107195735D01*
X89936503Y-107195737D01*
X90091153Y-107226499D01*
X90091156Y-107226500D01*
X90091158Y-107226500D01*
X90248844Y-107226500D01*
X90248845Y-107226499D01*
X90403497Y-107195737D01*
X90549179Y-107135394D01*
X90680289Y-107047789D01*
X90791789Y-106936289D01*
X90879394Y-106805179D01*
X90939737Y-106659497D01*
X90970500Y-106504842D01*
X90970500Y-106347158D01*
X90970500Y-106347155D01*
X90970499Y-106347153D01*
X90961283Y-106300821D01*
X90939737Y-106192503D01*
X90898585Y-106093153D01*
X92163500Y-106093153D01*
X92163500Y-106250846D01*
X92194261Y-106405489D01*
X92194264Y-106405501D01*
X92254602Y-106551172D01*
X92254609Y-106551185D01*
X92342210Y-106682288D01*
X92342213Y-106682292D01*
X92453707Y-106793786D01*
X92453711Y-106793789D01*
X92584814Y-106881390D01*
X92584827Y-106881397D01*
X92730498Y-106941735D01*
X92730503Y-106941737D01*
X92885153Y-106972499D01*
X92885156Y-106972500D01*
X92885158Y-106972500D01*
X93042844Y-106972500D01*
X93042845Y-106972499D01*
X93197497Y-106941737D01*
X93343179Y-106881394D01*
X93474289Y-106793789D01*
X93585789Y-106682289D01*
X93673394Y-106551179D01*
X93733737Y-106405497D01*
X93764500Y-106250842D01*
X93764500Y-106093158D01*
X93764500Y-106093155D01*
X93764499Y-106093153D01*
X93742839Y-105984257D01*
X93739238Y-105966153D01*
X98894500Y-105966153D01*
X98894500Y-106123846D01*
X98925261Y-106278489D01*
X98925264Y-106278501D01*
X98985602Y-106424172D01*
X98985609Y-106424185D01*
X99073210Y-106555288D01*
X99073213Y-106555292D01*
X99184707Y-106666786D01*
X99184711Y-106666789D01*
X99315814Y-106754390D01*
X99315827Y-106754397D01*
X99438442Y-106805185D01*
X99461503Y-106814737D01*
X99616153Y-106845499D01*
X99616156Y-106845500D01*
X99616158Y-106845500D01*
X99773844Y-106845500D01*
X99773845Y-106845499D01*
X99928497Y-106814737D01*
X100063436Y-106758844D01*
X100074172Y-106754397D01*
X100074172Y-106754396D01*
X100074179Y-106754394D01*
X100074841Y-106753952D01*
X100121865Y-106722531D01*
X100205289Y-106666789D01*
X100270925Y-106601153D01*
X114134500Y-106601153D01*
X114134500Y-106758846D01*
X114165261Y-106913489D01*
X114165264Y-106913501D01*
X114225602Y-107059172D01*
X114225609Y-107059185D01*
X114313210Y-107190288D01*
X114313213Y-107190292D01*
X114424707Y-107301786D01*
X114424711Y-107301789D01*
X114555814Y-107389390D01*
X114555827Y-107389397D01*
X114677288Y-107439707D01*
X114701503Y-107449737D01*
X114856153Y-107480499D01*
X114856156Y-107480500D01*
X114856158Y-107480500D01*
X115013844Y-107480500D01*
X115013845Y-107480499D01*
X115168497Y-107449737D01*
X115314179Y-107389394D01*
X115445289Y-107301789D01*
X115556789Y-107190289D01*
X115644394Y-107059179D01*
X115704737Y-106913497D01*
X115735500Y-106758842D01*
X115735500Y-106601158D01*
X115735500Y-106601155D01*
X115735499Y-106601153D01*
X119214500Y-106601153D01*
X119214500Y-106758846D01*
X119245261Y-106913489D01*
X119245264Y-106913501D01*
X119305602Y-107059172D01*
X119305609Y-107059185D01*
X119393210Y-107190288D01*
X119393213Y-107190292D01*
X119504707Y-107301786D01*
X119504711Y-107301789D01*
X119635814Y-107389390D01*
X119635827Y-107389397D01*
X119757288Y-107439707D01*
X119781503Y-107449737D01*
X119936153Y-107480499D01*
X119936156Y-107480500D01*
X119936158Y-107480500D01*
X120093844Y-107480500D01*
X120093845Y-107480499D01*
X120248497Y-107449737D01*
X120394179Y-107389394D01*
X120525289Y-107301789D01*
X120636789Y-107190289D01*
X120724394Y-107059179D01*
X120784737Y-106913497D01*
X120815500Y-106758842D01*
X120815500Y-106601158D01*
X120815500Y-106601155D01*
X120815499Y-106601153D01*
X120796341Y-106504842D01*
X120784737Y-106446503D01*
X120767749Y-106405489D01*
X120724397Y-106300827D01*
X120724390Y-106300814D01*
X120636789Y-106169711D01*
X120636786Y-106169707D01*
X120525292Y-106058213D01*
X120525288Y-106058210D01*
X120394185Y-105970609D01*
X120394172Y-105970602D01*
X120248501Y-105910264D01*
X120248489Y-105910261D01*
X120093845Y-105879500D01*
X120093842Y-105879500D01*
X119936158Y-105879500D01*
X119936155Y-105879500D01*
X119781510Y-105910261D01*
X119781498Y-105910264D01*
X119635827Y-105970602D01*
X119635814Y-105970609D01*
X119504711Y-106058210D01*
X119504707Y-106058213D01*
X119393213Y-106169707D01*
X119393210Y-106169711D01*
X119305609Y-106300814D01*
X119305602Y-106300827D01*
X119245264Y-106446498D01*
X119245261Y-106446510D01*
X119214500Y-106601153D01*
X115735499Y-106601153D01*
X115716341Y-106504842D01*
X115704737Y-106446503D01*
X115687749Y-106405489D01*
X115644397Y-106300827D01*
X115644390Y-106300814D01*
X115556789Y-106169711D01*
X115556786Y-106169707D01*
X115445292Y-106058213D01*
X115445288Y-106058210D01*
X115314185Y-105970609D01*
X115314172Y-105970602D01*
X115168501Y-105910264D01*
X115168489Y-105910261D01*
X115013845Y-105879500D01*
X115013842Y-105879500D01*
X114856158Y-105879500D01*
X114856155Y-105879500D01*
X114701510Y-105910261D01*
X114701498Y-105910264D01*
X114555827Y-105970602D01*
X114555814Y-105970609D01*
X114424711Y-106058210D01*
X114424707Y-106058213D01*
X114313213Y-106169707D01*
X114313210Y-106169711D01*
X114225609Y-106300814D01*
X114225602Y-106300827D01*
X114165264Y-106446498D01*
X114165261Y-106446510D01*
X114134500Y-106601153D01*
X100270925Y-106601153D01*
X100316789Y-106555289D01*
X100329530Y-106536221D01*
X100336243Y-106526175D01*
X100404390Y-106424185D01*
X100404390Y-106424184D01*
X100404394Y-106424179D01*
X100464737Y-106278497D01*
X100495500Y-106123842D01*
X100495500Y-105966158D01*
X100495500Y-105966155D01*
X100495499Y-105966153D01*
X100485465Y-105915711D01*
X100464737Y-105811503D01*
X100415227Y-105691974D01*
X100404397Y-105665827D01*
X100404390Y-105665814D01*
X100316789Y-105534711D01*
X100316786Y-105534707D01*
X100205292Y-105423213D01*
X100205288Y-105423210D01*
X100074185Y-105335609D01*
X100074172Y-105335602D01*
X99928501Y-105275264D01*
X99928489Y-105275261D01*
X99773845Y-105244500D01*
X99773842Y-105244500D01*
X99616158Y-105244500D01*
X99616155Y-105244500D01*
X99461510Y-105275261D01*
X99461498Y-105275264D01*
X99315827Y-105335602D01*
X99315814Y-105335609D01*
X99184711Y-105423210D01*
X99184707Y-105423213D01*
X99073213Y-105534707D01*
X99073210Y-105534711D01*
X98985609Y-105665814D01*
X98985602Y-105665827D01*
X98925264Y-105811498D01*
X98925261Y-105811510D01*
X98894500Y-105966153D01*
X93739238Y-105966153D01*
X93733738Y-105938508D01*
X93733737Y-105938507D01*
X93733737Y-105938503D01*
X93712982Y-105888396D01*
X93673397Y-105792827D01*
X93673390Y-105792814D01*
X93585789Y-105661711D01*
X93585786Y-105661707D01*
X93474292Y-105550213D01*
X93474288Y-105550210D01*
X93343185Y-105462609D01*
X93343172Y-105462602D01*
X93197501Y-105402264D01*
X93197489Y-105402261D01*
X93042845Y-105371500D01*
X93042842Y-105371500D01*
X92885158Y-105371500D01*
X92885155Y-105371500D01*
X92730510Y-105402261D01*
X92730498Y-105402264D01*
X92584827Y-105462602D01*
X92584814Y-105462609D01*
X92453711Y-105550210D01*
X92453707Y-105550213D01*
X92342213Y-105661707D01*
X92342210Y-105661711D01*
X92254609Y-105792814D01*
X92254602Y-105792827D01*
X92194264Y-105938498D01*
X92194261Y-105938510D01*
X92163500Y-106093153D01*
X90898585Y-106093153D01*
X90884113Y-106058213D01*
X90879397Y-106046826D01*
X90879390Y-106046814D01*
X90791789Y-105915711D01*
X90791786Y-105915707D01*
X90680292Y-105804213D01*
X90680288Y-105804210D01*
X90549185Y-105716609D01*
X90549172Y-105716602D01*
X90403501Y-105656264D01*
X90403489Y-105656261D01*
X90248845Y-105625500D01*
X90248842Y-105625500D01*
X90091158Y-105625500D01*
X90091155Y-105625500D01*
X89936510Y-105656261D01*
X89936498Y-105656264D01*
X89790827Y-105716602D01*
X89790814Y-105716609D01*
X89659711Y-105804210D01*
X89659707Y-105804213D01*
X89548213Y-105915707D01*
X89548210Y-105915711D01*
X89460609Y-106046814D01*
X89460602Y-106046827D01*
X89400264Y-106192498D01*
X89400261Y-106192510D01*
X89369500Y-106347153D01*
X88649500Y-106347153D01*
X88649500Y-106315778D01*
X88615015Y-106098049D01*
X88572160Y-105966153D01*
X88546896Y-105888396D01*
X88546895Y-105888393D01*
X88504001Y-105804210D01*
X88446815Y-105691978D01*
X88398516Y-105625500D01*
X88317247Y-105513641D01*
X88317243Y-105513636D01*
X88161363Y-105357756D01*
X88161358Y-105357752D01*
X87983025Y-105228187D01*
X87983024Y-105228186D01*
X87983022Y-105228185D01*
X87920096Y-105196122D01*
X87786606Y-105128104D01*
X87786603Y-105128103D01*
X87576952Y-105059985D01*
X87468086Y-105042742D01*
X87359222Y-105025500D01*
X87138778Y-105025500D01*
X87066201Y-105036995D01*
X86921047Y-105059985D01*
X86711396Y-105128103D01*
X86711393Y-105128104D01*
X86514974Y-105228187D01*
X86336641Y-105357752D01*
X86336636Y-105357756D01*
X86180756Y-105513636D01*
X86180752Y-105513641D01*
X86051187Y-105691974D01*
X85951104Y-105888393D01*
X85951103Y-105888396D01*
X85882985Y-106098047D01*
X85858784Y-106250846D01*
X85848500Y-106315778D01*
X73431584Y-106315778D01*
X73437365Y-106286715D01*
X73437365Y-106286714D01*
X73444500Y-106250844D01*
X73444500Y-106093155D01*
X73444499Y-106093153D01*
X73437549Y-106058213D01*
X73413737Y-105938503D01*
X73392982Y-105888396D01*
X73353397Y-105792827D01*
X73353390Y-105792814D01*
X73265789Y-105661711D01*
X73265786Y-105661707D01*
X73154292Y-105550213D01*
X73154288Y-105550210D01*
X73023185Y-105462609D01*
X73023172Y-105462602D01*
X72877501Y-105402264D01*
X72877489Y-105402261D01*
X72722845Y-105371500D01*
X72722842Y-105371500D01*
X72565158Y-105371500D01*
X72565155Y-105371500D01*
X72410510Y-105402261D01*
X72410498Y-105402264D01*
X72264827Y-105462602D01*
X72264814Y-105462609D01*
X72133711Y-105550210D01*
X72133707Y-105550213D01*
X72022213Y-105661707D01*
X72022210Y-105661711D01*
X71934609Y-105792814D01*
X71934602Y-105792827D01*
X71874264Y-105938498D01*
X71874261Y-105938510D01*
X71843500Y-106093153D01*
X68953508Y-106093153D01*
X68899979Y-106057386D01*
X68899972Y-106057382D01*
X68899969Y-106057380D01*
X68899965Y-106057378D01*
X68899961Y-106057376D01*
X68777040Y-106006461D01*
X68777030Y-106006458D01*
X68646533Y-105980500D01*
X68646531Y-105980500D01*
X68513469Y-105980500D01*
X68513467Y-105980500D01*
X68382969Y-106006458D01*
X68382959Y-106006461D01*
X68260038Y-106057376D01*
X68260020Y-106057386D01*
X68149398Y-106131301D01*
X68149390Y-106131307D01*
X68055307Y-106225390D01*
X68055301Y-106225398D01*
X67981386Y-106336020D01*
X67981376Y-106336038D01*
X67930461Y-106458959D01*
X67930458Y-106458969D01*
X67904500Y-106589466D01*
X67904500Y-106589469D01*
X67904500Y-106722531D01*
X67904500Y-106722533D01*
X67904499Y-106722533D01*
X66667500Y-106722533D01*
X66667500Y-104569153D01*
X69811500Y-104569153D01*
X69811500Y-104726846D01*
X69842261Y-104881489D01*
X69842264Y-104881501D01*
X69902602Y-105027172D01*
X69902609Y-105027185D01*
X69990210Y-105158288D01*
X69990213Y-105158292D01*
X70101707Y-105269786D01*
X70101711Y-105269789D01*
X70232814Y-105357390D01*
X70232827Y-105357397D01*
X70378498Y-105417735D01*
X70378503Y-105417737D01*
X70533153Y-105448499D01*
X70533156Y-105448500D01*
X70533158Y-105448500D01*
X70690844Y-105448500D01*
X70690845Y-105448499D01*
X70845497Y-105417737D01*
X70991179Y-105357394D01*
X71122289Y-105269789D01*
X71233789Y-105158289D01*
X71321394Y-105027179D01*
X71322090Y-105025500D01*
X71370039Y-104909738D01*
X71381737Y-104881497D01*
X71412500Y-104726842D01*
X71412500Y-104569158D01*
X71412500Y-104569155D01*
X71412499Y-104569153D01*
X71381738Y-104414510D01*
X71381737Y-104414503D01*
X71374192Y-104396288D01*
X71321397Y-104268827D01*
X71321390Y-104268814D01*
X71233789Y-104137711D01*
X71233786Y-104137707D01*
X71122292Y-104026213D01*
X71122288Y-104026210D01*
X70991185Y-103938609D01*
X70991172Y-103938602D01*
X70845501Y-103878264D01*
X70845489Y-103878261D01*
X70690845Y-103847500D01*
X70690842Y-103847500D01*
X70533158Y-103847500D01*
X70533155Y-103847500D01*
X70378510Y-103878261D01*
X70378498Y-103878264D01*
X70232827Y-103938602D01*
X70232814Y-103938609D01*
X70101711Y-104026210D01*
X70101707Y-104026213D01*
X69990213Y-104137707D01*
X69990210Y-104137711D01*
X69902609Y-104268814D01*
X69902602Y-104268827D01*
X69842264Y-104414498D01*
X69842261Y-104414510D01*
X69811500Y-104569153D01*
X66667500Y-104569153D01*
X66667500Y-103722533D01*
X67904499Y-103722533D01*
X67930458Y-103853030D01*
X67930461Y-103853040D01*
X67981376Y-103975961D01*
X67981386Y-103975979D01*
X68055301Y-104086601D01*
X68055307Y-104086609D01*
X68149390Y-104180692D01*
X68149398Y-104180698D01*
X68260020Y-104254613D01*
X68260023Y-104254614D01*
X68260031Y-104254620D01*
X68260037Y-104254622D01*
X68260038Y-104254623D01*
X68335997Y-104286086D01*
X68382964Y-104305540D01*
X68382968Y-104305540D01*
X68382969Y-104305541D01*
X68513466Y-104331500D01*
X68513469Y-104331500D01*
X68646533Y-104331500D01*
X68734325Y-104314035D01*
X68777036Y-104305540D01*
X68899969Y-104254620D01*
X69010606Y-104180695D01*
X69104695Y-104086606D01*
X69178620Y-103975969D01*
X69229540Y-103853036D01*
X69247882Y-103760827D01*
X69255500Y-103722533D01*
X69255500Y-103589466D01*
X69229541Y-103458969D01*
X69229540Y-103458968D01*
X69229540Y-103458964D01*
X69217792Y-103430602D01*
X69178623Y-103336038D01*
X69178622Y-103336037D01*
X69178620Y-103336031D01*
X69123801Y-103253989D01*
X69104698Y-103225398D01*
X69104692Y-103225390D01*
X69010609Y-103131307D01*
X69010601Y-103131301D01*
X68899979Y-103057386D01*
X68899972Y-103057382D01*
X68899969Y-103057380D01*
X68899965Y-103057378D01*
X68899961Y-103057376D01*
X68882459Y-103050127D01*
X68777040Y-103006461D01*
X68777030Y-103006458D01*
X68646533Y-102980500D01*
X68646531Y-102980500D01*
X68513469Y-102980500D01*
X68513467Y-102980500D01*
X68382969Y-103006458D01*
X68382959Y-103006461D01*
X68260038Y-103057376D01*
X68260020Y-103057386D01*
X68149398Y-103131301D01*
X68149390Y-103131307D01*
X68055307Y-103225390D01*
X68055301Y-103225398D01*
X67981386Y-103336020D01*
X67981376Y-103336038D01*
X67930461Y-103458959D01*
X67930458Y-103458969D01*
X67904500Y-103589466D01*
X67904500Y-103589469D01*
X67904500Y-103722531D01*
X67904500Y-103722533D01*
X67904499Y-103722533D01*
X66667500Y-103722533D01*
X66667500Y-102941653D01*
X74383500Y-102941653D01*
X74383500Y-103099346D01*
X74414261Y-103253989D01*
X74414264Y-103254001D01*
X74474602Y-103399672D01*
X74474609Y-103399685D01*
X74562210Y-103530788D01*
X74562213Y-103530792D01*
X74673707Y-103642286D01*
X74673711Y-103642289D01*
X74804814Y-103729890D01*
X74804827Y-103729897D01*
X74879500Y-103760827D01*
X74950503Y-103790237D01*
X75105153Y-103820999D01*
X75105156Y-103821000D01*
X75105158Y-103821000D01*
X75262844Y-103821000D01*
X75262845Y-103820999D01*
X75417497Y-103790237D01*
X75563179Y-103729894D01*
X75694289Y-103642289D01*
X75805789Y-103530789D01*
X75893394Y-103399679D01*
X75953737Y-103253997D01*
X75984500Y-103099342D01*
X75984500Y-102941658D01*
X75984500Y-102941655D01*
X75984499Y-102941653D01*
X77431500Y-102941653D01*
X77431500Y-103099346D01*
X77462261Y-103253989D01*
X77462264Y-103254001D01*
X77522602Y-103399672D01*
X77522609Y-103399685D01*
X77610210Y-103530788D01*
X77610213Y-103530792D01*
X77721707Y-103642286D01*
X77721711Y-103642289D01*
X77852814Y-103729890D01*
X77852827Y-103729897D01*
X77927500Y-103760827D01*
X77998503Y-103790237D01*
X78153153Y-103820999D01*
X78153156Y-103821000D01*
X78153158Y-103821000D01*
X78310844Y-103821000D01*
X78310845Y-103820999D01*
X78465497Y-103790237D01*
X78611179Y-103729894D01*
X78742289Y-103642289D01*
X78853789Y-103530789D01*
X78923705Y-103426153D01*
X88099500Y-103426153D01*
X88099500Y-103583846D01*
X88130261Y-103738489D01*
X88130264Y-103738501D01*
X88190602Y-103884172D01*
X88190609Y-103884185D01*
X88278210Y-104015288D01*
X88278213Y-104015292D01*
X88389707Y-104126786D01*
X88389711Y-104126789D01*
X88520814Y-104214390D01*
X88520827Y-104214397D01*
X88652220Y-104268821D01*
X88666503Y-104274737D01*
X88821153Y-104305499D01*
X88821156Y-104305500D01*
X88821158Y-104305500D01*
X88978844Y-104305500D01*
X88978845Y-104305499D01*
X89133497Y-104274737D01*
X89268431Y-104218846D01*
X89279172Y-104214397D01*
X89279172Y-104214396D01*
X89279179Y-104214394D01*
X89410289Y-104126789D01*
X89521789Y-104015289D01*
X89609394Y-103884179D01*
X89611845Y-103878263D01*
X89648306Y-103790237D01*
X89669737Y-103738497D01*
X89700500Y-103583842D01*
X89700500Y-103426158D01*
X89700500Y-103426155D01*
X89700499Y-103426153D01*
X92544500Y-103426153D01*
X92544500Y-103583846D01*
X92575261Y-103738489D01*
X92575264Y-103738501D01*
X92635602Y-103884172D01*
X92635609Y-103884185D01*
X92723210Y-104015288D01*
X92723213Y-104015292D01*
X92834707Y-104126786D01*
X92834711Y-104126789D01*
X92965814Y-104214390D01*
X92965827Y-104214397D01*
X93097220Y-104268821D01*
X93111503Y-104274737D01*
X93266153Y-104305499D01*
X93266156Y-104305500D01*
X93266158Y-104305500D01*
X93423844Y-104305500D01*
X93423845Y-104305499D01*
X93578497Y-104274737D01*
X93713431Y-104218846D01*
X93724172Y-104214397D01*
X93724172Y-104214396D01*
X93724179Y-104214394D01*
X93855289Y-104126789D01*
X93920925Y-104061153D01*
X96354500Y-104061153D01*
X96354500Y-104218846D01*
X96385261Y-104373489D01*
X96385264Y-104373501D01*
X96445602Y-104519172D01*
X96445609Y-104519185D01*
X96533210Y-104650288D01*
X96533213Y-104650292D01*
X96644707Y-104761786D01*
X96644711Y-104761789D01*
X96775814Y-104849390D01*
X96775827Y-104849397D01*
X96921498Y-104909735D01*
X96921503Y-104909737D01*
X97076153Y-104940499D01*
X97076156Y-104940500D01*
X97076158Y-104940500D01*
X97233844Y-104940500D01*
X97233845Y-104940499D01*
X97388497Y-104909737D01*
X97534179Y-104849394D01*
X97665289Y-104761789D01*
X97776789Y-104650289D01*
X97864394Y-104519179D01*
X97924737Y-104373497D01*
X97924739Y-104373485D01*
X97924893Y-104372981D01*
X97925050Y-104372740D01*
X97927068Y-104367870D01*
X97927991Y-104368252D01*
X97963190Y-104314543D01*
X98027002Y-104286086D01*
X98096069Y-104296646D01*
X98146656Y-104340085D01*
X98184210Y-104396288D01*
X98184213Y-104396292D01*
X98295707Y-104507786D01*
X98295711Y-104507789D01*
X98426814Y-104595390D01*
X98426827Y-104595397D01*
X98572498Y-104655735D01*
X98572503Y-104655737D01*
X98727153Y-104686499D01*
X98727156Y-104686500D01*
X98727158Y-104686500D01*
X98884844Y-104686500D01*
X98884845Y-104686499D01*
X99039497Y-104655737D01*
X99185179Y-104595394D01*
X99316289Y-104507789D01*
X99427789Y-104396289D01*
X99515394Y-104265179D01*
X99575737Y-104119497D01*
X99606500Y-103964842D01*
X99606500Y-103807158D01*
X99606500Y-103807155D01*
X99606499Y-103807153D01*
X99597283Y-103760821D01*
X99575737Y-103652503D01*
X99549628Y-103589469D01*
X99515397Y-103506827D01*
X99515393Y-103506820D01*
X99503458Y-103488958D01*
X99503457Y-103488956D01*
X99461493Y-103426153D01*
X114134500Y-103426153D01*
X114134500Y-103583846D01*
X114165261Y-103738489D01*
X114165264Y-103738501D01*
X114225602Y-103884172D01*
X114225609Y-103884185D01*
X114313210Y-104015288D01*
X114313213Y-104015292D01*
X114424707Y-104126786D01*
X114424711Y-104126789D01*
X114555814Y-104214390D01*
X114555827Y-104214397D01*
X114687220Y-104268821D01*
X114701503Y-104274737D01*
X114856153Y-104305499D01*
X114856156Y-104305500D01*
X114856158Y-104305500D01*
X115013844Y-104305500D01*
X115013845Y-104305499D01*
X115168497Y-104274737D01*
X115303431Y-104218846D01*
X115314172Y-104214397D01*
X115314172Y-104214396D01*
X115314179Y-104214394D01*
X115445289Y-104126789D01*
X115556789Y-104015289D01*
X115644394Y-103884179D01*
X115646845Y-103878263D01*
X115683306Y-103790237D01*
X115704737Y-103738497D01*
X115735500Y-103583842D01*
X115735500Y-103426158D01*
X115735500Y-103426155D01*
X115735499Y-103426153D01*
X119214500Y-103426153D01*
X119214500Y-103583846D01*
X119245261Y-103738489D01*
X119245264Y-103738501D01*
X119305602Y-103884172D01*
X119305609Y-103884185D01*
X119393210Y-104015288D01*
X119393213Y-104015292D01*
X119504707Y-104126786D01*
X119504711Y-104126789D01*
X119635814Y-104214390D01*
X119635827Y-104214397D01*
X119767220Y-104268821D01*
X119781503Y-104274737D01*
X119936153Y-104305499D01*
X119936156Y-104305500D01*
X119936158Y-104305500D01*
X120093844Y-104305500D01*
X120093845Y-104305499D01*
X120248497Y-104274737D01*
X120383431Y-104218846D01*
X120394172Y-104214397D01*
X120394172Y-104214396D01*
X120394179Y-104214394D01*
X120525289Y-104126789D01*
X120636789Y-104015289D01*
X120724394Y-103884179D01*
X120726845Y-103878263D01*
X120763306Y-103790237D01*
X120784737Y-103738497D01*
X120815500Y-103583842D01*
X120815500Y-103426158D01*
X120815500Y-103426155D01*
X120815499Y-103426153D01*
X120810232Y-103399673D01*
X120784737Y-103271503D01*
X120781716Y-103264210D01*
X120724397Y-103125827D01*
X120724390Y-103125814D01*
X120636789Y-102994711D01*
X120636786Y-102994707D01*
X120525292Y-102883213D01*
X120525288Y-102883210D01*
X120394185Y-102795609D01*
X120394172Y-102795602D01*
X120248501Y-102735264D01*
X120248489Y-102735261D01*
X120093845Y-102704500D01*
X120093842Y-102704500D01*
X119936158Y-102704500D01*
X119936155Y-102704500D01*
X119781510Y-102735261D01*
X119781498Y-102735264D01*
X119635827Y-102795602D01*
X119635814Y-102795609D01*
X119504711Y-102883210D01*
X119504707Y-102883213D01*
X119393213Y-102994707D01*
X119393210Y-102994711D01*
X119305609Y-103125814D01*
X119305602Y-103125827D01*
X119245264Y-103271498D01*
X119245261Y-103271510D01*
X119214500Y-103426153D01*
X115735499Y-103426153D01*
X115730232Y-103399673D01*
X115704737Y-103271503D01*
X115701716Y-103264210D01*
X115644397Y-103125827D01*
X115644390Y-103125814D01*
X115556789Y-102994711D01*
X115556786Y-102994707D01*
X115445292Y-102883213D01*
X115445288Y-102883210D01*
X115314185Y-102795609D01*
X115314172Y-102795602D01*
X115168501Y-102735264D01*
X115168489Y-102735261D01*
X115013845Y-102704500D01*
X115013842Y-102704500D01*
X114856158Y-102704500D01*
X114856155Y-102704500D01*
X114701510Y-102735261D01*
X114701498Y-102735264D01*
X114555827Y-102795602D01*
X114555814Y-102795609D01*
X114424711Y-102883210D01*
X114424707Y-102883213D01*
X114313213Y-102994707D01*
X114313210Y-102994711D01*
X114225609Y-103125814D01*
X114225602Y-103125827D01*
X114165264Y-103271498D01*
X114165261Y-103271510D01*
X114134500Y-103426153D01*
X99461493Y-103426153D01*
X99427789Y-103375711D01*
X99427786Y-103375707D01*
X99316292Y-103264213D01*
X99316288Y-103264210D01*
X99185185Y-103176609D01*
X99185172Y-103176602D01*
X99039501Y-103116264D01*
X99039489Y-103116261D01*
X98884845Y-103085500D01*
X98884842Y-103085500D01*
X98727158Y-103085500D01*
X98727155Y-103085500D01*
X98572510Y-103116261D01*
X98572498Y-103116264D01*
X98426827Y-103176602D01*
X98426814Y-103176609D01*
X98295711Y-103264210D01*
X98295707Y-103264213D01*
X98184213Y-103375707D01*
X98184210Y-103375711D01*
X98096609Y-103506814D01*
X98096602Y-103506827D01*
X98036259Y-103652509D01*
X98036099Y-103653040D01*
X98035939Y-103653283D01*
X98033932Y-103658130D01*
X98033011Y-103657748D01*
X97997791Y-103711472D01*
X97933973Y-103739916D01*
X97864908Y-103729344D01*
X97814343Y-103685914D01*
X97776789Y-103629711D01*
X97776786Y-103629707D01*
X97665292Y-103518213D01*
X97665288Y-103518210D01*
X97534185Y-103430609D01*
X97534172Y-103430602D01*
X97388501Y-103370264D01*
X97388489Y-103370261D01*
X97233845Y-103339500D01*
X97233842Y-103339500D01*
X97076158Y-103339500D01*
X97076155Y-103339500D01*
X96921510Y-103370261D01*
X96921498Y-103370264D01*
X96775827Y-103430602D01*
X96775814Y-103430609D01*
X96644711Y-103518210D01*
X96644707Y-103518213D01*
X96533213Y-103629707D01*
X96533210Y-103629711D01*
X96445609Y-103760814D01*
X96445602Y-103760827D01*
X96385264Y-103906498D01*
X96385261Y-103906510D01*
X96354500Y-104061153D01*
X93920925Y-104061153D01*
X93966789Y-104015289D01*
X93976839Y-104000247D01*
X93986243Y-103986175D01*
X94054390Y-103884185D01*
X94054390Y-103884184D01*
X94054394Y-103884179D01*
X94056845Y-103878263D01*
X94093306Y-103790237D01*
X94114737Y-103738497D01*
X94145500Y-103583842D01*
X94145500Y-103426158D01*
X94145500Y-103426155D01*
X94145499Y-103426153D01*
X94140232Y-103399673D01*
X94114737Y-103271503D01*
X94111716Y-103264210D01*
X94054397Y-103125827D01*
X94054390Y-103125814D01*
X93966789Y-102994711D01*
X93966786Y-102994707D01*
X93855292Y-102883213D01*
X93855288Y-102883210D01*
X93724185Y-102795609D01*
X93724172Y-102795602D01*
X93578501Y-102735264D01*
X93578489Y-102735261D01*
X93423845Y-102704500D01*
X93423842Y-102704500D01*
X93266158Y-102704500D01*
X93266155Y-102704500D01*
X93111510Y-102735261D01*
X93111498Y-102735264D01*
X92965827Y-102795602D01*
X92965814Y-102795609D01*
X92834711Y-102883210D01*
X92834707Y-102883213D01*
X92723213Y-102994707D01*
X92723210Y-102994711D01*
X92635609Y-103125814D01*
X92635602Y-103125827D01*
X92575264Y-103271498D01*
X92575261Y-103271510D01*
X92544500Y-103426153D01*
X89700499Y-103426153D01*
X89695232Y-103399673D01*
X89669737Y-103271503D01*
X89666716Y-103264210D01*
X89609397Y-103125827D01*
X89609390Y-103125814D01*
X89521789Y-102994711D01*
X89521786Y-102994707D01*
X89410292Y-102883213D01*
X89410288Y-102883210D01*
X89279185Y-102795609D01*
X89279172Y-102795602D01*
X89133501Y-102735264D01*
X89133489Y-102735261D01*
X88978845Y-102704500D01*
X88978842Y-102704500D01*
X88821158Y-102704500D01*
X88821155Y-102704500D01*
X88666510Y-102735261D01*
X88666498Y-102735264D01*
X88520827Y-102795602D01*
X88520814Y-102795609D01*
X88389711Y-102883210D01*
X88389707Y-102883213D01*
X88278213Y-102994707D01*
X88278210Y-102994711D01*
X88190609Y-103125814D01*
X88190602Y-103125827D01*
X88130264Y-103271498D01*
X88130261Y-103271510D01*
X88099500Y-103426153D01*
X78923705Y-103426153D01*
X78941394Y-103399679D01*
X78941395Y-103399676D01*
X78941397Y-103399673D01*
X78952605Y-103372614D01*
X78997506Y-103264211D01*
X79001737Y-103253997D01*
X79032500Y-103099342D01*
X79032500Y-102941658D01*
X79032500Y-102941655D01*
X79032499Y-102941653D01*
X79015618Y-102856786D01*
X79001737Y-102787003D01*
X78980305Y-102735261D01*
X78941397Y-102641327D01*
X78941390Y-102641314D01*
X78853789Y-102510211D01*
X78853786Y-102510207D01*
X78742292Y-102398713D01*
X78742288Y-102398710D01*
X78611185Y-102311109D01*
X78611172Y-102311102D01*
X78498969Y-102264627D01*
X78465501Y-102250764D01*
X78465489Y-102250761D01*
X78310845Y-102220000D01*
X78310842Y-102220000D01*
X78153158Y-102220000D01*
X78153155Y-102220000D01*
X77998510Y-102250761D01*
X77998498Y-102250764D01*
X77852827Y-102311102D01*
X77852814Y-102311109D01*
X77721711Y-102398710D01*
X77721707Y-102398713D01*
X77610213Y-102510207D01*
X77610210Y-102510211D01*
X77522609Y-102641314D01*
X77522602Y-102641327D01*
X77462264Y-102786998D01*
X77462261Y-102787010D01*
X77431500Y-102941653D01*
X75984499Y-102941653D01*
X75967618Y-102856786D01*
X75953737Y-102787003D01*
X75932305Y-102735261D01*
X75893397Y-102641327D01*
X75893390Y-102641314D01*
X75805789Y-102510211D01*
X75805786Y-102510207D01*
X75694292Y-102398713D01*
X75694288Y-102398710D01*
X75563185Y-102311109D01*
X75563172Y-102311102D01*
X75417501Y-102250764D01*
X75417489Y-102250761D01*
X75262845Y-102220000D01*
X75262842Y-102220000D01*
X75105158Y-102220000D01*
X75105155Y-102220000D01*
X74950510Y-102250761D01*
X74950498Y-102250764D01*
X74804827Y-102311102D01*
X74804814Y-102311109D01*
X74673711Y-102398710D01*
X74673707Y-102398713D01*
X74562213Y-102510207D01*
X74562210Y-102510211D01*
X74474609Y-102641314D01*
X74474602Y-102641327D01*
X74414264Y-102786998D01*
X74414261Y-102787010D01*
X74383500Y-102941653D01*
X66667500Y-102941653D01*
X66667500Y-102156153D01*
X99529500Y-102156153D01*
X99529500Y-102313846D01*
X99560261Y-102468489D01*
X99560264Y-102468501D01*
X99620602Y-102614172D01*
X99620609Y-102614185D01*
X99708210Y-102745288D01*
X99708213Y-102745292D01*
X99819707Y-102856786D01*
X99819711Y-102856789D01*
X99950814Y-102944390D01*
X99950827Y-102944397D01*
X100037989Y-102980500D01*
X100096503Y-103004737D01*
X100251153Y-103035499D01*
X100251156Y-103035500D01*
X100251158Y-103035500D01*
X100408844Y-103035500D01*
X100408845Y-103035499D01*
X100563497Y-103004737D01*
X100709179Y-102944394D01*
X100840289Y-102856789D01*
X100951789Y-102745289D01*
X101039394Y-102614179D01*
X101099737Y-102468497D01*
X101130500Y-102313842D01*
X101130500Y-102156158D01*
X101130500Y-102156155D01*
X101130499Y-102156153D01*
X101099738Y-102001510D01*
X101099737Y-102001503D01*
X101099735Y-102001498D01*
X101039397Y-101855827D01*
X101039390Y-101855814D01*
X100951789Y-101724711D01*
X100951786Y-101724707D01*
X100840292Y-101613213D01*
X100840288Y-101613210D01*
X100709185Y-101525609D01*
X100709172Y-101525602D01*
X100563501Y-101465264D01*
X100563489Y-101465261D01*
X100408845Y-101434500D01*
X100408842Y-101434500D01*
X100251158Y-101434500D01*
X100251155Y-101434500D01*
X100096510Y-101465261D01*
X100096498Y-101465264D01*
X99950827Y-101525602D01*
X99950814Y-101525609D01*
X99819711Y-101613210D01*
X99819707Y-101613213D01*
X99708213Y-101724707D01*
X99708210Y-101724711D01*
X99620609Y-101855814D01*
X99620602Y-101855827D01*
X99560264Y-102001498D01*
X99560261Y-102001510D01*
X99529500Y-102156153D01*
X66667500Y-102156153D01*
X66667500Y-98981153D01*
X73875500Y-98981153D01*
X73875500Y-99138846D01*
X73906261Y-99293489D01*
X73906264Y-99293501D01*
X73966602Y-99439172D01*
X73966609Y-99439185D01*
X74054210Y-99570288D01*
X74054213Y-99570292D01*
X74165707Y-99681786D01*
X74165711Y-99681789D01*
X74296814Y-99769390D01*
X74296827Y-99769397D01*
X74418288Y-99819707D01*
X74442503Y-99829737D01*
X74597153Y-99860499D01*
X74597156Y-99860500D01*
X74597158Y-99860500D01*
X74754844Y-99860500D01*
X74754845Y-99860499D01*
X74909497Y-99829737D01*
X75055179Y-99769394D01*
X75186289Y-99681789D01*
X75297789Y-99570289D01*
X75352002Y-99489153D01*
X83781500Y-99489153D01*
X83781500Y-99646846D01*
X83812261Y-99801489D01*
X83812264Y-99801501D01*
X83872602Y-99947172D01*
X83872609Y-99947185D01*
X83960210Y-100078288D01*
X83960213Y-100078292D01*
X84071707Y-100189786D01*
X84071711Y-100189789D01*
X84202814Y-100277390D01*
X84202827Y-100277397D01*
X84324288Y-100327707D01*
X84348503Y-100337737D01*
X84503153Y-100368499D01*
X84503156Y-100368500D01*
X84503158Y-100368500D01*
X84660844Y-100368500D01*
X84660845Y-100368499D01*
X84815497Y-100337737D01*
X84961179Y-100277394D01*
X85092289Y-100189789D01*
X85203789Y-100078289D01*
X85291394Y-99947179D01*
X85351737Y-99801497D01*
X85382500Y-99646842D01*
X85382500Y-99584778D01*
X93722500Y-99584778D01*
X93722500Y-99805222D01*
X93726383Y-99829737D01*
X93756985Y-100022952D01*
X93825103Y-100232603D01*
X93825104Y-100232606D01*
X93925187Y-100429025D01*
X94054752Y-100607358D01*
X94054756Y-100607363D01*
X94210636Y-100763243D01*
X94210641Y-100763247D01*
X94316686Y-100840292D01*
X94388978Y-100892815D01*
X94504714Y-100951786D01*
X94585393Y-100992895D01*
X94585396Y-100992896D01*
X94690221Y-101026955D01*
X94795049Y-101061015D01*
X95012778Y-101095500D01*
X95012779Y-101095500D01*
X95233221Y-101095500D01*
X95233222Y-101095500D01*
X95450951Y-101061015D01*
X95660606Y-100992895D01*
X95857022Y-100892815D01*
X96035365Y-100763242D01*
X96191242Y-100607365D01*
X96320815Y-100429022D01*
X96420895Y-100232606D01*
X96489015Y-100022951D01*
X96523500Y-99805222D01*
X96523500Y-99584778D01*
X98802500Y-99584778D01*
X98802500Y-99805222D01*
X98806383Y-99829737D01*
X98836985Y-100022952D01*
X98905103Y-100232603D01*
X98905104Y-100232606D01*
X99005187Y-100429025D01*
X99134752Y-100607358D01*
X99134756Y-100607363D01*
X99290636Y-100763243D01*
X99290641Y-100763247D01*
X99396686Y-100840292D01*
X99468978Y-100892815D01*
X99584714Y-100951786D01*
X99665393Y-100992895D01*
X99665396Y-100992896D01*
X99770221Y-101026955D01*
X99875049Y-101061015D01*
X100092778Y-101095500D01*
X100092779Y-101095500D01*
X100313221Y-101095500D01*
X100313222Y-101095500D01*
X100530951Y-101061015D01*
X100740606Y-100992895D01*
X100937022Y-100892815D01*
X101115365Y-100763242D01*
X101271242Y-100607365D01*
X101400815Y-100429022D01*
X101491445Y-100251153D01*
X107994494Y-100251153D01*
X107994494Y-100408846D01*
X108025255Y-100563489D01*
X108025258Y-100563501D01*
X108085596Y-100709172D01*
X108085603Y-100709185D01*
X108173204Y-100840288D01*
X108173207Y-100840292D01*
X108284701Y-100951786D01*
X108284705Y-100951789D01*
X108415808Y-101039390D01*
X108415821Y-101039397D01*
X108551268Y-101095500D01*
X108561497Y-101099737D01*
X108716147Y-101130499D01*
X108716150Y-101130500D01*
X108716152Y-101130500D01*
X108873838Y-101130500D01*
X108873839Y-101130499D01*
X109028491Y-101099737D01*
X109121975Y-101061015D01*
X109172542Y-101040070D01*
X109242011Y-101032601D01*
X109267446Y-101040070D01*
X109401268Y-101095500D01*
X109411497Y-101099737D01*
X109566147Y-101130499D01*
X109566150Y-101130500D01*
X109566152Y-101130500D01*
X109723838Y-101130500D01*
X109723839Y-101130499D01*
X109878491Y-101099737D01*
X110024173Y-101039394D01*
X110155283Y-100951789D01*
X110266783Y-100840289D01*
X110320996Y-100759153D01*
X122643500Y-100759153D01*
X122643500Y-100916846D01*
X122674261Y-101071489D01*
X122674264Y-101071501D01*
X122734602Y-101217172D01*
X122734609Y-101217185D01*
X122822210Y-101348288D01*
X122822213Y-101348292D01*
X122933707Y-101459786D01*
X122933711Y-101459789D01*
X123064814Y-101547390D01*
X123064827Y-101547397D01*
X123210498Y-101607735D01*
X123210503Y-101607737D01*
X123365153Y-101638499D01*
X123365156Y-101638500D01*
X123365158Y-101638500D01*
X123522844Y-101638500D01*
X123522845Y-101638499D01*
X123677497Y-101607737D01*
X123823179Y-101547394D01*
X123954289Y-101459789D01*
X124065789Y-101348289D01*
X124153394Y-101217179D01*
X124213737Y-101071497D01*
X124244500Y-100916842D01*
X124244500Y-100759158D01*
X124244500Y-100759155D01*
X124244499Y-100759153D01*
X124233850Y-100705616D01*
X124213737Y-100604503D01*
X124196749Y-100563489D01*
X124153397Y-100458827D01*
X124153390Y-100458814D01*
X124065789Y-100327711D01*
X124065786Y-100327707D01*
X123954292Y-100216213D01*
X123954288Y-100216210D01*
X123823185Y-100128609D01*
X123823172Y-100128602D01*
X123677501Y-100068264D01*
X123677489Y-100068261D01*
X123522845Y-100037500D01*
X123522842Y-100037500D01*
X123365158Y-100037500D01*
X123365155Y-100037500D01*
X123210510Y-100068261D01*
X123210498Y-100068264D01*
X123064827Y-100128602D01*
X123064814Y-100128609D01*
X122933711Y-100216210D01*
X122933707Y-100216213D01*
X122822213Y-100327707D01*
X122822210Y-100327711D01*
X122734609Y-100458814D01*
X122734602Y-100458827D01*
X122674264Y-100604498D01*
X122674261Y-100604510D01*
X122643500Y-100759153D01*
X110320996Y-100759153D01*
X110354388Y-100709179D01*
X110414731Y-100563497D01*
X110445494Y-100408842D01*
X110445494Y-100251158D01*
X110445494Y-100251155D01*
X110445493Y-100251153D01*
X110438543Y-100216213D01*
X110414731Y-100096503D01*
X110403033Y-100068261D01*
X110354391Y-99950827D01*
X110354384Y-99950814D01*
X110266783Y-99819711D01*
X110266780Y-99819707D01*
X110155286Y-99708213D01*
X110155282Y-99708210D01*
X110024179Y-99620609D01*
X110024166Y-99620602D01*
X109878495Y-99560264D01*
X109878483Y-99560261D01*
X109723839Y-99529500D01*
X109723836Y-99529500D01*
X109566152Y-99529500D01*
X109566149Y-99529500D01*
X109411504Y-99560261D01*
X109411492Y-99560264D01*
X109267446Y-99619930D01*
X109197977Y-99627399D01*
X109172542Y-99619930D01*
X109028495Y-99560264D01*
X109028483Y-99560261D01*
X108873839Y-99529500D01*
X108873836Y-99529500D01*
X108716152Y-99529500D01*
X108716149Y-99529500D01*
X108561504Y-99560261D01*
X108561492Y-99560264D01*
X108415821Y-99620602D01*
X108415808Y-99620609D01*
X108284705Y-99708210D01*
X108284701Y-99708213D01*
X108173207Y-99819707D01*
X108173204Y-99819711D01*
X108085603Y-99950814D01*
X108085596Y-99950827D01*
X108025258Y-100096498D01*
X108025255Y-100096510D01*
X107994494Y-100251153D01*
X101491445Y-100251153D01*
X101500895Y-100232606D01*
X101500896Y-100232603D01*
X101509297Y-100206748D01*
X101534687Y-100128602D01*
X101569015Y-100022951D01*
X101603500Y-99805222D01*
X101603500Y-99584778D01*
X101569015Y-99367049D01*
X101500895Y-99157394D01*
X101500895Y-99157393D01*
X101411097Y-98981158D01*
X101400815Y-98960978D01*
X101303114Y-98826503D01*
X101271247Y-98782641D01*
X101271243Y-98782636D01*
X101115363Y-98626756D01*
X101115358Y-98626752D01*
X100937025Y-98497187D01*
X100937024Y-98497186D01*
X100937022Y-98497185D01*
X100874096Y-98465122D01*
X100740606Y-98397104D01*
X100740603Y-98397103D01*
X100530952Y-98328985D01*
X100422086Y-98311742D01*
X100313222Y-98294500D01*
X100092778Y-98294500D01*
X100020201Y-98305995D01*
X99875047Y-98328985D01*
X99665396Y-98397103D01*
X99665393Y-98397104D01*
X99468974Y-98497187D01*
X99290641Y-98626752D01*
X99290636Y-98626756D01*
X99134756Y-98782636D01*
X99134752Y-98782641D01*
X99005187Y-98960974D01*
X98905104Y-99157393D01*
X98905103Y-99157396D01*
X98836985Y-99367047D01*
X98817645Y-99489155D01*
X98802500Y-99584778D01*
X96523500Y-99584778D01*
X96489015Y-99367049D01*
X96420895Y-99157394D01*
X96420895Y-99157393D01*
X96331097Y-98981158D01*
X96320815Y-98960978D01*
X96223114Y-98826503D01*
X96191247Y-98782641D01*
X96191243Y-98782636D01*
X96035363Y-98626756D01*
X96035358Y-98626752D01*
X95857025Y-98497187D01*
X95857024Y-98497186D01*
X95857022Y-98497185D01*
X95794096Y-98465122D01*
X95660606Y-98397104D01*
X95660603Y-98397103D01*
X95450952Y-98328985D01*
X95342086Y-98311742D01*
X95233222Y-98294500D01*
X95012778Y-98294500D01*
X94940201Y-98305995D01*
X94795047Y-98328985D01*
X94585396Y-98397103D01*
X94585393Y-98397104D01*
X94388974Y-98497187D01*
X94210641Y-98626752D01*
X94210636Y-98626756D01*
X94054756Y-98782636D01*
X94054752Y-98782641D01*
X93925187Y-98960974D01*
X93825104Y-99157393D01*
X93825103Y-99157396D01*
X93756985Y-99367047D01*
X93737645Y-99489155D01*
X93722500Y-99584778D01*
X85382500Y-99584778D01*
X85382500Y-99489158D01*
X85382500Y-99489155D01*
X85382499Y-99489153D01*
X85371850Y-99435616D01*
X85351737Y-99334503D01*
X85334749Y-99293489D01*
X85291397Y-99188827D01*
X85291390Y-99188814D01*
X85203789Y-99057711D01*
X85203786Y-99057707D01*
X85092292Y-98946213D01*
X85092288Y-98946210D01*
X84961185Y-98858609D01*
X84961172Y-98858602D01*
X84815501Y-98798264D01*
X84815489Y-98798261D01*
X84660845Y-98767500D01*
X84660842Y-98767500D01*
X84503158Y-98767500D01*
X84503155Y-98767500D01*
X84348510Y-98798261D01*
X84348498Y-98798264D01*
X84202827Y-98858602D01*
X84202814Y-98858609D01*
X84071711Y-98946210D01*
X84071707Y-98946213D01*
X83960213Y-99057707D01*
X83960210Y-99057711D01*
X83872609Y-99188814D01*
X83872602Y-99188827D01*
X83812264Y-99334498D01*
X83812261Y-99334510D01*
X83781500Y-99489153D01*
X75352002Y-99489153D01*
X75385394Y-99439179D01*
X75445737Y-99293497D01*
X75476500Y-99138842D01*
X75476500Y-98981158D01*
X75476500Y-98981155D01*
X75476499Y-98981153D01*
X75469549Y-98946213D01*
X75445737Y-98826503D01*
X75427567Y-98782636D01*
X75388061Y-98687259D01*
X75388060Y-98687257D01*
X75385395Y-98680824D01*
X75385394Y-98680821D01*
X75385392Y-98680818D01*
X75385390Y-98680814D01*
X75297789Y-98549711D01*
X75297786Y-98549707D01*
X75186292Y-98438213D01*
X75186288Y-98438210D01*
X75055185Y-98350609D01*
X75055172Y-98350602D01*
X74909501Y-98290264D01*
X74909489Y-98290261D01*
X74754845Y-98259500D01*
X74754842Y-98259500D01*
X74597158Y-98259500D01*
X74597155Y-98259500D01*
X74442510Y-98290261D01*
X74442498Y-98290264D01*
X74296827Y-98350602D01*
X74296814Y-98350609D01*
X74165711Y-98438210D01*
X74165707Y-98438213D01*
X74054213Y-98549707D01*
X74054210Y-98549711D01*
X73966609Y-98680814D01*
X73966602Y-98680827D01*
X73906264Y-98826498D01*
X73906261Y-98826510D01*
X73875500Y-98981153D01*
X66667500Y-98981153D01*
X66667500Y-97425818D01*
X84960000Y-97425818D01*
X84960000Y-97646181D01*
X84994473Y-97863835D01*
X85062567Y-98073410D01*
X85162611Y-98269756D01*
X85208932Y-98333513D01*
X85917861Y-97624584D01*
X85940667Y-97709694D01*
X85999910Y-97812306D01*
X86083694Y-97896090D01*
X86186306Y-97955333D01*
X86271414Y-97978137D01*
X85562485Y-98687065D01*
X85562485Y-98687066D01*
X85626243Y-98733388D01*
X85822589Y-98833432D01*
X86032164Y-98901526D01*
X86249819Y-98936000D01*
X86470181Y-98936000D01*
X86687835Y-98901526D01*
X86897410Y-98833432D01*
X87093760Y-98733386D01*
X87157513Y-98687066D01*
X87157514Y-98687066D01*
X86448585Y-97978138D01*
X86533694Y-97955333D01*
X86636306Y-97896090D01*
X86720090Y-97812306D01*
X86779333Y-97709694D01*
X86802137Y-97624585D01*
X87511066Y-98333514D01*
X87511066Y-98333513D01*
X87557386Y-98269760D01*
X87657432Y-98073410D01*
X87725526Y-97863835D01*
X87760000Y-97646181D01*
X87760000Y-97425818D01*
X87725526Y-97208164D01*
X87657432Y-96998589D01*
X87557388Y-96802243D01*
X87511066Y-96738485D01*
X87511065Y-96738485D01*
X86802137Y-97447413D01*
X86779333Y-97362306D01*
X86720090Y-97259694D01*
X86636306Y-97175910D01*
X86533694Y-97116667D01*
X86448583Y-97093861D01*
X87157513Y-96384932D01*
X87093756Y-96338611D01*
X86897410Y-96238567D01*
X86687835Y-96170473D01*
X86470181Y-96136000D01*
X86249819Y-96136000D01*
X86032164Y-96170473D01*
X85822589Y-96238567D01*
X85626233Y-96338616D01*
X85562485Y-96384931D01*
X85562485Y-96384932D01*
X86271414Y-97093861D01*
X86186306Y-97116667D01*
X86083694Y-97175910D01*
X85999910Y-97259694D01*
X85940667Y-97362306D01*
X85917861Y-97447414D01*
X85208932Y-96738485D01*
X85208931Y-96738485D01*
X85162616Y-96802233D01*
X85062567Y-96998589D01*
X84994473Y-97208164D01*
X84960000Y-97425818D01*
X66667500Y-97425818D01*
X66667500Y-95933153D01*
X72473500Y-95933153D01*
X72473500Y-96090846D01*
X72504261Y-96245489D01*
X72504264Y-96245501D01*
X72564602Y-96391172D01*
X72564609Y-96391185D01*
X72652210Y-96522288D01*
X72652213Y-96522292D01*
X72763707Y-96633786D01*
X72763711Y-96633789D01*
X72894814Y-96721390D01*
X72894827Y-96721397D01*
X73040498Y-96781735D01*
X73040503Y-96781737D01*
X73195153Y-96812499D01*
X73195156Y-96812500D01*
X73195158Y-96812500D01*
X73352844Y-96812500D01*
X73352845Y-96812499D01*
X73507497Y-96781737D01*
X73653179Y-96721394D01*
X73784289Y-96633789D01*
X73895789Y-96522289D01*
X73983394Y-96391179D01*
X74043737Y-96245497D01*
X74074500Y-96090842D01*
X74074500Y-95933158D01*
X74074500Y-95933155D01*
X74074499Y-95933153D01*
X74043738Y-95778510D01*
X74043737Y-95778503D01*
X74002585Y-95679153D01*
X81871500Y-95679153D01*
X81871500Y-95836846D01*
X81902261Y-95991489D01*
X81902264Y-95991501D01*
X81962602Y-96137172D01*
X81962609Y-96137185D01*
X82050210Y-96268288D01*
X82050213Y-96268292D01*
X82161707Y-96379786D01*
X82161711Y-96379789D01*
X82292814Y-96467390D01*
X82292827Y-96467397D01*
X82438498Y-96527735D01*
X82438503Y-96527737D01*
X82593153Y-96558499D01*
X82593156Y-96558500D01*
X82593158Y-96558500D01*
X82750844Y-96558500D01*
X82750845Y-96558499D01*
X82905497Y-96527737D01*
X83051179Y-96467394D01*
X83182289Y-96379789D01*
X83182292Y-96379786D01*
X83217569Y-96344510D01*
X83293786Y-96268292D01*
X83293789Y-96268289D01*
X83381394Y-96137179D01*
X83441737Y-95991497D01*
X83472500Y-95836842D01*
X83472500Y-95679158D01*
X83472500Y-95679155D01*
X83472499Y-95679153D01*
X83463283Y-95632821D01*
X83441737Y-95524503D01*
X83386112Y-95390211D01*
X83381397Y-95378827D01*
X83381390Y-95378814D01*
X83293789Y-95247711D01*
X83293786Y-95247707D01*
X83182292Y-95136213D01*
X83182288Y-95136210D01*
X83051185Y-95048609D01*
X83051172Y-95048602D01*
X82905501Y-94988264D01*
X82905489Y-94988261D01*
X82750845Y-94957500D01*
X82750842Y-94957500D01*
X82593158Y-94957500D01*
X82593155Y-94957500D01*
X82438510Y-94988261D01*
X82438498Y-94988264D01*
X82292827Y-95048602D01*
X82292814Y-95048609D01*
X82161711Y-95136210D01*
X82161707Y-95136213D01*
X82050213Y-95247707D01*
X82050210Y-95247711D01*
X81962609Y-95378814D01*
X81962602Y-95378827D01*
X81902264Y-95524498D01*
X81902261Y-95524510D01*
X81871500Y-95679153D01*
X74002585Y-95679153D01*
X73983397Y-95632826D01*
X73983390Y-95632814D01*
X73895789Y-95501711D01*
X73895786Y-95501707D01*
X73784292Y-95390213D01*
X73784288Y-95390210D01*
X73653185Y-95302609D01*
X73653172Y-95302602D01*
X73507501Y-95242264D01*
X73507489Y-95242261D01*
X73352845Y-95211500D01*
X73352842Y-95211500D01*
X73195158Y-95211500D01*
X73195155Y-95211500D01*
X73040510Y-95242261D01*
X73040498Y-95242264D01*
X72894827Y-95302602D01*
X72894814Y-95302609D01*
X72763711Y-95390210D01*
X72763707Y-95390213D01*
X72652213Y-95501707D01*
X72652210Y-95501711D01*
X72564609Y-95632814D01*
X72564602Y-95632827D01*
X72504264Y-95778498D01*
X72504261Y-95778510D01*
X72473500Y-95933153D01*
X66667500Y-95933153D01*
X66667500Y-93393153D01*
X79971500Y-93393153D01*
X79971500Y-93550846D01*
X80002261Y-93705489D01*
X80002264Y-93705501D01*
X80062602Y-93851172D01*
X80062609Y-93851185D01*
X80150210Y-93982288D01*
X80150213Y-93982292D01*
X80261707Y-94093786D01*
X80261711Y-94093789D01*
X80392814Y-94181390D01*
X80392827Y-94181397D01*
X80538498Y-94241735D01*
X80538503Y-94241737D01*
X80693153Y-94272499D01*
X80693156Y-94272500D01*
X80693158Y-94272500D01*
X80850844Y-94272500D01*
X80850845Y-94272499D01*
X81005497Y-94241737D01*
X81151179Y-94181394D01*
X81282289Y-94093789D01*
X81393789Y-93982289D01*
X81481394Y-93851179D01*
X81541737Y-93705497D01*
X81572500Y-93550842D01*
X81572500Y-93393158D01*
X81572500Y-93393155D01*
X81572499Y-93393153D01*
X90639500Y-93393153D01*
X90639500Y-93550846D01*
X90670261Y-93705489D01*
X90670264Y-93705501D01*
X90730602Y-93851172D01*
X90730609Y-93851185D01*
X90818210Y-93982288D01*
X90818213Y-93982292D01*
X90929707Y-94093786D01*
X90929711Y-94093789D01*
X91060814Y-94181390D01*
X91060827Y-94181397D01*
X91206498Y-94241735D01*
X91206503Y-94241737D01*
X91361153Y-94272499D01*
X91361156Y-94272500D01*
X91361158Y-94272500D01*
X91518844Y-94272500D01*
X91518845Y-94272499D01*
X91673497Y-94241737D01*
X91819179Y-94181394D01*
X91950289Y-94093789D01*
X92061789Y-93982289D01*
X92149394Y-93851179D01*
X92209737Y-93705497D01*
X92240500Y-93550842D01*
X92240500Y-93393158D01*
X92240500Y-93393155D01*
X92240499Y-93393153D01*
X100799500Y-93393153D01*
X100799500Y-93550846D01*
X100830261Y-93705489D01*
X100830264Y-93705501D01*
X100890602Y-93851172D01*
X100890609Y-93851185D01*
X100978210Y-93982288D01*
X100978213Y-93982292D01*
X101089707Y-94093786D01*
X101089711Y-94093789D01*
X101220814Y-94181390D01*
X101220827Y-94181397D01*
X101366498Y-94241735D01*
X101366503Y-94241737D01*
X101521153Y-94272499D01*
X101521156Y-94272500D01*
X101521158Y-94272500D01*
X101678844Y-94272500D01*
X101678845Y-94272499D01*
X101833497Y-94241737D01*
X101979179Y-94181394D01*
X102110289Y-94093789D01*
X102221789Y-93982289D01*
X102309394Y-93851179D01*
X102369737Y-93705497D01*
X102400500Y-93550842D01*
X102400500Y-93393158D01*
X102400500Y-93393155D01*
X102400499Y-93393153D01*
X102373317Y-93256500D01*
X102369737Y-93238503D01*
X102369735Y-93238498D01*
X102309397Y-93092827D01*
X102309390Y-93092814D01*
X102221792Y-92961716D01*
X102221789Y-92961711D01*
X102221784Y-92961706D01*
X102221781Y-92961702D01*
X102145232Y-92885153D01*
X112991500Y-92885153D01*
X112991500Y-93042846D01*
X113022261Y-93197489D01*
X113022264Y-93197501D01*
X113082602Y-93343172D01*
X113082609Y-93343185D01*
X113170210Y-93474288D01*
X113170213Y-93474292D01*
X113281707Y-93585786D01*
X113281711Y-93585789D01*
X113412814Y-93673390D01*
X113412827Y-93673397D01*
X113496749Y-93708158D01*
X113558503Y-93733737D01*
X113713153Y-93764499D01*
X113713156Y-93764500D01*
X113713158Y-93764500D01*
X113870844Y-93764500D01*
X113870845Y-93764499D01*
X114025497Y-93733737D01*
X114087263Y-93708153D01*
X124294500Y-93708153D01*
X124294500Y-93865846D01*
X124325261Y-94020489D01*
X124325264Y-94020501D01*
X124385602Y-94166172D01*
X124385609Y-94166185D01*
X124473210Y-94297288D01*
X124473213Y-94297292D01*
X124584707Y-94408786D01*
X124584715Y-94408792D01*
X124660760Y-94459604D01*
X124705566Y-94513216D01*
X124714273Y-94582541D01*
X124684119Y-94645568D01*
X124660764Y-94665806D01*
X124637712Y-94681209D01*
X124637707Y-94681213D01*
X124526213Y-94792707D01*
X124526210Y-94792711D01*
X124438609Y-94923814D01*
X124438602Y-94923827D01*
X124378264Y-95069498D01*
X124378261Y-95069510D01*
X124347500Y-95224153D01*
X124347500Y-95381846D01*
X124378261Y-95536489D01*
X124378264Y-95536501D01*
X124438602Y-95682172D01*
X124438609Y-95682185D01*
X124526210Y-95813288D01*
X124526213Y-95813292D01*
X124637707Y-95924786D01*
X124637711Y-95924789D01*
X124768814Y-96012390D01*
X124768827Y-96012397D01*
X124914498Y-96072735D01*
X124914503Y-96072737D01*
X125069153Y-96103499D01*
X125069156Y-96103500D01*
X125069158Y-96103500D01*
X125226844Y-96103500D01*
X125226845Y-96103499D01*
X125381497Y-96072737D01*
X125527179Y-96012394D01*
X125658289Y-95924789D01*
X125769789Y-95813289D01*
X125857394Y-95682179D01*
X125917737Y-95536497D01*
X125948500Y-95381842D01*
X125948500Y-95224158D01*
X125948500Y-95224155D01*
X125948499Y-95224153D01*
X125945982Y-95211500D01*
X125917737Y-95069503D01*
X125917735Y-95069498D01*
X125857397Y-94923827D01*
X125857390Y-94923814D01*
X125769789Y-94792711D01*
X125769786Y-94792707D01*
X125658292Y-94681213D01*
X125658288Y-94681210D01*
X125582238Y-94630395D01*
X125537433Y-94576783D01*
X125528726Y-94507458D01*
X125558880Y-94444431D01*
X125582240Y-94424190D01*
X125588778Y-94419821D01*
X125605289Y-94408789D01*
X125716789Y-94297289D01*
X125804394Y-94166179D01*
X125864737Y-94020497D01*
X125895500Y-93865842D01*
X125895500Y-93708158D01*
X125895500Y-93708155D01*
X125895499Y-93708153D01*
X125894969Y-93705489D01*
X125864737Y-93553503D01*
X125864735Y-93553498D01*
X125804397Y-93407827D01*
X125804390Y-93407814D01*
X125716789Y-93276711D01*
X125716786Y-93276707D01*
X125605292Y-93165213D01*
X125605288Y-93165210D01*
X125474185Y-93077609D01*
X125474172Y-93077602D01*
X125328501Y-93017264D01*
X125328489Y-93017261D01*
X125173845Y-92986500D01*
X125173842Y-92986500D01*
X125016158Y-92986500D01*
X125016155Y-92986500D01*
X124861510Y-93017261D01*
X124861498Y-93017264D01*
X124715827Y-93077602D01*
X124715814Y-93077609D01*
X124584711Y-93165210D01*
X124584707Y-93165213D01*
X124473213Y-93276707D01*
X124473210Y-93276711D01*
X124385609Y-93407814D01*
X124385602Y-93407827D01*
X124325264Y-93553498D01*
X124325261Y-93553510D01*
X124294500Y-93708153D01*
X114087263Y-93708153D01*
X114171179Y-93673394D01*
X114171185Y-93673390D01*
X114282572Y-93598964D01*
X114291077Y-93593280D01*
X114302289Y-93585789D01*
X114413789Y-93474289D01*
X114501394Y-93343179D01*
X114561737Y-93197497D01*
X114592500Y-93042842D01*
X114592500Y-92885158D01*
X114592500Y-92885155D01*
X114592499Y-92885153D01*
X114585549Y-92850213D01*
X114561737Y-92730503D01*
X114544749Y-92689489D01*
X114501397Y-92584827D01*
X114501390Y-92584814D01*
X114413789Y-92453711D01*
X114413786Y-92453707D01*
X114302292Y-92342213D01*
X114302288Y-92342210D01*
X114171185Y-92254609D01*
X114171172Y-92254602D01*
X114025501Y-92194264D01*
X114025489Y-92194261D01*
X113870845Y-92163500D01*
X113870842Y-92163500D01*
X113713158Y-92163500D01*
X113713155Y-92163500D01*
X113558510Y-92194261D01*
X113558498Y-92194264D01*
X113412827Y-92254602D01*
X113412814Y-92254609D01*
X113281711Y-92342210D01*
X113281707Y-92342213D01*
X113170213Y-92453707D01*
X113170210Y-92453711D01*
X113082609Y-92584814D01*
X113082602Y-92584827D01*
X113022264Y-92730498D01*
X113022261Y-92730510D01*
X112991500Y-92885153D01*
X102145232Y-92885153D01*
X102110292Y-92850213D01*
X102110288Y-92850210D01*
X101979185Y-92762609D01*
X101979172Y-92762602D01*
X101833501Y-92702264D01*
X101833489Y-92702261D01*
X101678845Y-92671500D01*
X101678842Y-92671500D01*
X101521158Y-92671500D01*
X101521155Y-92671500D01*
X101366510Y-92702261D01*
X101366498Y-92702264D01*
X101220827Y-92762602D01*
X101220814Y-92762609D01*
X101089711Y-92850210D01*
X101089707Y-92850213D01*
X100978213Y-92961707D01*
X100978210Y-92961711D01*
X100890609Y-93092814D01*
X100890602Y-93092827D01*
X100830264Y-93238498D01*
X100830261Y-93238510D01*
X100799500Y-93393153D01*
X92240499Y-93393153D01*
X92213317Y-93256500D01*
X92209737Y-93238503D01*
X92209735Y-93238498D01*
X92149397Y-93092827D01*
X92149390Y-93092814D01*
X92061789Y-92961711D01*
X92061786Y-92961707D01*
X91950292Y-92850213D01*
X91950288Y-92850210D01*
X91819185Y-92762609D01*
X91819172Y-92762602D01*
X91673501Y-92702264D01*
X91673489Y-92702261D01*
X91518845Y-92671500D01*
X91518842Y-92671500D01*
X91361158Y-92671500D01*
X91361155Y-92671500D01*
X91206510Y-92702261D01*
X91206498Y-92702264D01*
X91060827Y-92762602D01*
X91060814Y-92762609D01*
X90929711Y-92850210D01*
X90929707Y-92850213D01*
X90818213Y-92961707D01*
X90818210Y-92961711D01*
X90730609Y-93092814D01*
X90730602Y-93092827D01*
X90670264Y-93238498D01*
X90670261Y-93238510D01*
X90639500Y-93393153D01*
X81572499Y-93393153D01*
X81545317Y-93256500D01*
X81541737Y-93238503D01*
X81541735Y-93238498D01*
X81481397Y-93092827D01*
X81481390Y-93092814D01*
X81393789Y-92961711D01*
X81393786Y-92961707D01*
X81282292Y-92850213D01*
X81282288Y-92850210D01*
X81151185Y-92762609D01*
X81151172Y-92762602D01*
X81005501Y-92702264D01*
X81005489Y-92702261D01*
X80850845Y-92671500D01*
X80850842Y-92671500D01*
X80693158Y-92671500D01*
X80693155Y-92671500D01*
X80538510Y-92702261D01*
X80538498Y-92702264D01*
X80392827Y-92762602D01*
X80392814Y-92762609D01*
X80261711Y-92850210D01*
X80261707Y-92850213D01*
X80150213Y-92961707D01*
X80150210Y-92961711D01*
X80062609Y-93092814D01*
X80062602Y-93092827D01*
X80002264Y-93238498D01*
X80002261Y-93238510D01*
X79971500Y-93393153D01*
X66667500Y-93393153D01*
X66667500Y-93345912D01*
X66687185Y-93278873D01*
X66739989Y-93233118D01*
X66809147Y-93223174D01*
X66816477Y-93224803D01*
X66816528Y-93224549D01*
X66977153Y-93256499D01*
X66977156Y-93256500D01*
X66977158Y-93256500D01*
X67134844Y-93256500D01*
X67134845Y-93256499D01*
X67289497Y-93225737D01*
X67435179Y-93165394D01*
X67566289Y-93077789D01*
X67677789Y-92966289D01*
X67765394Y-92835179D01*
X67825737Y-92689497D01*
X67856500Y-92534842D01*
X67856500Y-92377158D01*
X67856500Y-92377155D01*
X67856499Y-92377153D01*
X67849549Y-92342213D01*
X67825737Y-92222503D01*
X67814039Y-92194261D01*
X67765397Y-92076827D01*
X67765390Y-92076814D01*
X67677789Y-91945711D01*
X67677786Y-91945707D01*
X67566292Y-91834213D01*
X67566288Y-91834210D01*
X67435185Y-91746609D01*
X67435172Y-91746602D01*
X67289501Y-91686264D01*
X67289489Y-91686261D01*
X67134845Y-91655500D01*
X67134842Y-91655500D01*
X66977158Y-91655500D01*
X66977155Y-91655500D01*
X66816528Y-91687451D01*
X66816015Y-91684873D01*
X66757511Y-91685338D01*
X66698435Y-91648031D01*
X66668906Y-91584708D01*
X66667500Y-91566087D01*
X66667500Y-88785837D01*
X71969500Y-88785837D01*
X71969500Y-89014162D01*
X72005215Y-89239660D01*
X72075770Y-89456803D01*
X72179421Y-89660228D01*
X72313621Y-89844937D01*
X72475063Y-90006379D01*
X72659772Y-90140579D01*
X72701515Y-90161848D01*
X72863196Y-90244229D01*
X72863198Y-90244229D01*
X72863201Y-90244231D01*
X72932409Y-90266718D01*
X73080339Y-90314784D01*
X73305838Y-90350500D01*
X73305843Y-90350500D01*
X73534162Y-90350500D01*
X73759660Y-90314784D01*
X73800725Y-90301441D01*
X73976799Y-90244231D01*
X74180228Y-90140579D01*
X74364937Y-90006379D01*
X74526379Y-89844937D01*
X74660579Y-89660228D01*
X74764231Y-89456799D01*
X74834784Y-89239660D01*
X74870500Y-89014162D01*
X74870500Y-88785837D01*
X74834784Y-88560339D01*
X74764229Y-88343196D01*
X74660578Y-88139771D01*
X74543313Y-87978371D01*
X74526379Y-87955063D01*
X74473451Y-87902135D01*
X75469500Y-87902135D01*
X75469500Y-89897870D01*
X75469501Y-89897876D01*
X75475908Y-89957483D01*
X75526202Y-90092328D01*
X75526206Y-90092335D01*
X75612452Y-90207544D01*
X75612455Y-90207547D01*
X75727664Y-90293793D01*
X75727671Y-90293797D01*
X75862517Y-90344091D01*
X75862516Y-90344091D01*
X75869444Y-90344835D01*
X75922127Y-90350500D01*
X77917872Y-90350499D01*
X77977483Y-90344091D01*
X78112331Y-90293796D01*
X78227546Y-90207546D01*
X78313796Y-90092331D01*
X78364091Y-89957483D01*
X78370500Y-89897873D01*
X78370499Y-88785837D01*
X82567000Y-88785837D01*
X82567000Y-89014162D01*
X82602715Y-89239660D01*
X82673270Y-89456803D01*
X82776921Y-89660228D01*
X82911121Y-89844937D01*
X83072563Y-90006379D01*
X83257271Y-90140578D01*
X83257275Y-90140581D01*
X83260853Y-90142774D01*
X83307726Y-90194588D01*
X83319146Y-90263518D01*
X83291486Y-90327680D01*
X83283741Y-90336180D01*
X83198210Y-90421711D01*
X83110609Y-90552814D01*
X83110602Y-90552827D01*
X83050264Y-90698498D01*
X83050261Y-90698510D01*
X83019500Y-90853153D01*
X83019500Y-91010846D01*
X83050261Y-91165489D01*
X83050264Y-91165501D01*
X83110602Y-91311172D01*
X83110609Y-91311185D01*
X83198210Y-91442288D01*
X83198213Y-91442292D01*
X83309707Y-91553786D01*
X83309711Y-91553789D01*
X83440814Y-91641390D01*
X83440827Y-91641397D01*
X83552013Y-91687451D01*
X83586503Y-91701737D01*
X83741153Y-91732499D01*
X83741156Y-91732500D01*
X83741158Y-91732500D01*
X83898844Y-91732500D01*
X83898845Y-91732499D01*
X84053497Y-91701737D01*
X84199179Y-91641394D01*
X84330289Y-91553789D01*
X84441789Y-91442289D01*
X84529394Y-91311179D01*
X84589737Y-91165497D01*
X84620500Y-91010842D01*
X84620500Y-90853158D01*
X84620500Y-90853155D01*
X84620499Y-90853153D01*
X84589738Y-90698510D01*
X84589737Y-90698503D01*
X84589735Y-90698498D01*
X84529397Y-90552827D01*
X84529390Y-90552814D01*
X84458998Y-90447466D01*
X84438120Y-90380789D01*
X84456604Y-90313409D01*
X84508583Y-90266718D01*
X84523773Y-90260647D01*
X84574299Y-90244231D01*
X84777728Y-90140579D01*
X84962437Y-90006379D01*
X85123879Y-89844937D01*
X85258079Y-89660228D01*
X85361731Y-89456799D01*
X85432284Y-89239660D01*
X85468000Y-89014162D01*
X85468000Y-88785837D01*
X85432284Y-88560339D01*
X85361729Y-88343196D01*
X85258078Y-88139771D01*
X85140813Y-87978371D01*
X85123879Y-87955063D01*
X85070951Y-87902135D01*
X86067000Y-87902135D01*
X86067000Y-89897870D01*
X86067001Y-89897876D01*
X86073408Y-89957483D01*
X86123702Y-90092328D01*
X86123706Y-90092335D01*
X86209952Y-90207544D01*
X86209955Y-90207547D01*
X86325164Y-90293793D01*
X86325171Y-90293797D01*
X86460017Y-90344091D01*
X86460016Y-90344091D01*
X86466944Y-90344835D01*
X86519627Y-90350500D01*
X88515372Y-90350499D01*
X88574983Y-90344091D01*
X88709831Y-90293796D01*
X88825046Y-90207546D01*
X88911296Y-90092331D01*
X88961591Y-89957483D01*
X88968000Y-89897873D01*
X88967999Y-88785837D01*
X93164500Y-88785837D01*
X93164500Y-89014162D01*
X93200215Y-89239660D01*
X93270770Y-89456803D01*
X93374421Y-89660228D01*
X93508621Y-89844937D01*
X93670063Y-90006379D01*
X93854772Y-90140579D01*
X93896519Y-90161850D01*
X93947314Y-90209822D01*
X93964110Y-90277642D01*
X93941574Y-90343778D01*
X93927906Y-90360015D01*
X93866210Y-90421711D01*
X93778609Y-90552814D01*
X93778602Y-90552827D01*
X93718264Y-90698498D01*
X93718261Y-90698510D01*
X93687500Y-90853153D01*
X93687500Y-91010846D01*
X93718261Y-91165489D01*
X93718264Y-91165501D01*
X93778602Y-91311172D01*
X93778609Y-91311185D01*
X93866210Y-91442288D01*
X93866213Y-91442292D01*
X93977707Y-91553786D01*
X93977711Y-91553789D01*
X94108814Y-91641390D01*
X94108827Y-91641397D01*
X94220013Y-91687451D01*
X94254503Y-91701737D01*
X94409153Y-91732499D01*
X94409156Y-91732500D01*
X94409158Y-91732500D01*
X94566844Y-91732500D01*
X94566845Y-91732499D01*
X94721497Y-91701737D01*
X94867179Y-91641394D01*
X94998289Y-91553789D01*
X95109789Y-91442289D01*
X95197394Y-91311179D01*
X95257737Y-91165497D01*
X95288500Y-91010842D01*
X95288500Y-90853158D01*
X95288500Y-90853155D01*
X95288499Y-90853153D01*
X95257738Y-90698510D01*
X95257737Y-90698503D01*
X95257735Y-90698498D01*
X95197397Y-90552827D01*
X95197395Y-90552823D01*
X95197394Y-90552821D01*
X95114292Y-90428451D01*
X95093415Y-90361775D01*
X95111899Y-90294395D01*
X95163878Y-90247704D01*
X95169951Y-90244996D01*
X95171784Y-90244235D01*
X95171799Y-90244231D01*
X95375228Y-90140579D01*
X95559937Y-90006379D01*
X95721379Y-89844937D01*
X95855579Y-89660228D01*
X95959231Y-89456799D01*
X96029784Y-89239660D01*
X96065500Y-89014162D01*
X96065500Y-88785837D01*
X96029784Y-88560339D01*
X95959229Y-88343196D01*
X95855578Y-88139771D01*
X95738313Y-87978371D01*
X95721379Y-87955063D01*
X95668451Y-87902135D01*
X96664500Y-87902135D01*
X96664500Y-89897870D01*
X96664501Y-89897876D01*
X96670908Y-89957483D01*
X96721202Y-90092328D01*
X96721206Y-90092335D01*
X96807452Y-90207544D01*
X96807455Y-90207547D01*
X96922664Y-90293793D01*
X96922671Y-90293797D01*
X97057517Y-90344091D01*
X97057516Y-90344091D01*
X97064444Y-90344835D01*
X97117127Y-90350500D01*
X99112872Y-90350499D01*
X99172483Y-90344091D01*
X99307331Y-90293796D01*
X99422546Y-90207546D01*
X99508796Y-90092331D01*
X99559091Y-89957483D01*
X99565500Y-89897873D01*
X99565499Y-88785837D01*
X103762000Y-88785837D01*
X103762000Y-89014162D01*
X103797715Y-89239660D01*
X103868270Y-89456803D01*
X103971921Y-89660228D01*
X104106121Y-89844937D01*
X104267563Y-90006379D01*
X104385861Y-90092328D01*
X104452273Y-90140580D01*
X104540721Y-90185646D01*
X104591518Y-90233620D01*
X104608313Y-90301441D01*
X104585776Y-90367576D01*
X104572109Y-90383811D01*
X104534214Y-90421706D01*
X104534210Y-90421711D01*
X104446609Y-90552814D01*
X104446602Y-90552827D01*
X104386264Y-90698498D01*
X104386261Y-90698510D01*
X104355500Y-90853153D01*
X104355500Y-91010846D01*
X104386261Y-91165489D01*
X104386264Y-91165501D01*
X104446602Y-91311172D01*
X104446609Y-91311185D01*
X104534210Y-91442288D01*
X104534213Y-91442292D01*
X104645707Y-91553786D01*
X104645711Y-91553789D01*
X104776814Y-91641390D01*
X104776827Y-91641397D01*
X104888013Y-91687451D01*
X104922503Y-91701737D01*
X105077153Y-91732499D01*
X105077156Y-91732500D01*
X105077158Y-91732500D01*
X105234844Y-91732500D01*
X105234845Y-91732499D01*
X105389497Y-91701737D01*
X105535179Y-91641394D01*
X105666289Y-91553789D01*
X105777789Y-91442289D01*
X105865394Y-91311179D01*
X105925737Y-91165497D01*
X105956500Y-91010842D01*
X105956500Y-90853158D01*
X105956500Y-90853155D01*
X105956499Y-90853153D01*
X105925738Y-90698510D01*
X105925737Y-90698503D01*
X105925735Y-90698498D01*
X105865397Y-90552827D01*
X105865390Y-90552814D01*
X105777789Y-90421711D01*
X105773924Y-90417001D01*
X105774893Y-90416205D01*
X105744548Y-90360631D01*
X105749532Y-90290939D01*
X105791404Y-90235006D01*
X105809416Y-90223790D01*
X105972728Y-90140579D01*
X106157437Y-90006379D01*
X106318879Y-89844937D01*
X106453079Y-89660228D01*
X106556731Y-89456799D01*
X106627284Y-89239660D01*
X106663000Y-89014162D01*
X106663000Y-88785837D01*
X106627284Y-88560339D01*
X106556729Y-88343196D01*
X106453078Y-88139771D01*
X106335813Y-87978371D01*
X106318879Y-87955063D01*
X106265951Y-87902135D01*
X107262000Y-87902135D01*
X107262000Y-89897870D01*
X107262001Y-89897876D01*
X107268408Y-89957483D01*
X107318702Y-90092328D01*
X107318706Y-90092335D01*
X107404952Y-90207544D01*
X107404955Y-90207547D01*
X107520164Y-90293793D01*
X107520171Y-90293797D01*
X107655017Y-90344091D01*
X107655016Y-90344091D01*
X107661944Y-90344835D01*
X107714627Y-90350500D01*
X109710372Y-90350499D01*
X109769983Y-90344091D01*
X109904831Y-90293796D01*
X110020046Y-90207546D01*
X110106296Y-90092331D01*
X110156591Y-89957483D01*
X110163000Y-89897873D01*
X110162999Y-88785837D01*
X114359500Y-88785837D01*
X114359500Y-89014162D01*
X114395215Y-89239660D01*
X114465770Y-89456803D01*
X114569421Y-89660228D01*
X114703621Y-89844937D01*
X114865063Y-90006379D01*
X115049772Y-90140579D01*
X115091515Y-90161848D01*
X115184925Y-90209443D01*
X115235721Y-90257418D01*
X115252516Y-90325239D01*
X115229979Y-90391374D01*
X115216314Y-90407607D01*
X115202210Y-90421711D01*
X115114609Y-90552814D01*
X115114602Y-90552827D01*
X115054264Y-90698498D01*
X115054261Y-90698510D01*
X115023500Y-90853153D01*
X115023500Y-91010846D01*
X115054261Y-91165489D01*
X115054264Y-91165501D01*
X115114602Y-91311172D01*
X115114609Y-91311185D01*
X115202210Y-91442288D01*
X115202213Y-91442292D01*
X115313707Y-91553786D01*
X115313711Y-91553789D01*
X115444814Y-91641390D01*
X115444827Y-91641397D01*
X115556013Y-91687451D01*
X115590503Y-91701737D01*
X115745153Y-91732499D01*
X115745156Y-91732500D01*
X115745158Y-91732500D01*
X115902844Y-91732500D01*
X115902845Y-91732499D01*
X116057497Y-91701737D01*
X116203179Y-91641394D01*
X116334289Y-91553789D01*
X116445789Y-91442289D01*
X116533394Y-91311179D01*
X116593737Y-91165497D01*
X116624500Y-91010842D01*
X116624500Y-90853158D01*
X116624500Y-90853155D01*
X116624499Y-90853153D01*
X116593738Y-90698510D01*
X116593737Y-90698503D01*
X116593735Y-90698498D01*
X116533397Y-90552827D01*
X116533390Y-90552814D01*
X116445789Y-90421711D01*
X116445786Y-90421707D01*
X116422237Y-90398158D01*
X116388752Y-90336835D01*
X116393736Y-90267143D01*
X116435608Y-90211210D01*
X116453623Y-90199992D01*
X116464229Y-90194588D01*
X116570228Y-90140579D01*
X116754937Y-90006379D01*
X116916379Y-89844937D01*
X117050579Y-89660228D01*
X117154231Y-89456799D01*
X117224784Y-89239660D01*
X117260500Y-89014162D01*
X117260500Y-88785837D01*
X117224784Y-88560339D01*
X117154229Y-88343196D01*
X117050578Y-88139771D01*
X116933313Y-87978371D01*
X116916379Y-87955063D01*
X116863451Y-87902135D01*
X117859500Y-87902135D01*
X117859500Y-89897870D01*
X117859501Y-89897876D01*
X117865908Y-89957483D01*
X117916202Y-90092328D01*
X117916206Y-90092335D01*
X118002452Y-90207544D01*
X118002455Y-90207547D01*
X118117664Y-90293793D01*
X118117671Y-90293797D01*
X118252517Y-90344091D01*
X118252516Y-90344091D01*
X118259444Y-90344835D01*
X118312127Y-90350500D01*
X120307872Y-90350499D01*
X120367483Y-90344091D01*
X120502331Y-90293796D01*
X120617546Y-90207546D01*
X120703796Y-90092331D01*
X120754091Y-89957483D01*
X120760500Y-89897873D01*
X120760499Y-87902128D01*
X120754091Y-87842517D01*
X120753883Y-87841960D01*
X120703797Y-87707671D01*
X120703793Y-87707664D01*
X120617547Y-87592455D01*
X120617544Y-87592452D01*
X120502335Y-87506206D01*
X120502328Y-87506202D01*
X120367482Y-87455908D01*
X120367483Y-87455908D01*
X120307883Y-87449501D01*
X120307881Y-87449500D01*
X120307873Y-87449500D01*
X120307864Y-87449500D01*
X118312129Y-87449500D01*
X118312123Y-87449501D01*
X118252516Y-87455908D01*
X118117671Y-87506202D01*
X118117664Y-87506206D01*
X118002455Y-87592452D01*
X118002452Y-87592455D01*
X117916206Y-87707664D01*
X117916202Y-87707671D01*
X117865908Y-87842517D01*
X117859501Y-87902116D01*
X117859501Y-87902123D01*
X117859500Y-87902135D01*
X116863451Y-87902135D01*
X116754937Y-87793621D01*
X116570228Y-87659421D01*
X116366803Y-87555770D01*
X116149660Y-87485215D01*
X115924162Y-87449500D01*
X115924157Y-87449500D01*
X115695843Y-87449500D01*
X115695838Y-87449500D01*
X115470339Y-87485215D01*
X115253196Y-87555770D01*
X115049771Y-87659421D01*
X114865061Y-87793622D01*
X114703622Y-87955061D01*
X114569421Y-88139771D01*
X114465770Y-88343196D01*
X114395215Y-88560339D01*
X114359500Y-88785837D01*
X110162999Y-88785837D01*
X110162999Y-87902128D01*
X110156591Y-87842517D01*
X110156383Y-87841960D01*
X110106297Y-87707671D01*
X110106293Y-87707664D01*
X110020047Y-87592455D01*
X110020044Y-87592452D01*
X109904835Y-87506206D01*
X109904828Y-87506202D01*
X109769982Y-87455908D01*
X109769983Y-87455908D01*
X109710383Y-87449501D01*
X109710381Y-87449500D01*
X109710373Y-87449500D01*
X109710364Y-87449500D01*
X107714629Y-87449500D01*
X107714623Y-87449501D01*
X107655016Y-87455908D01*
X107520171Y-87506202D01*
X107520164Y-87506206D01*
X107404955Y-87592452D01*
X107404952Y-87592455D01*
X107318706Y-87707664D01*
X107318702Y-87707671D01*
X107268408Y-87842517D01*
X107262001Y-87902116D01*
X107262001Y-87902123D01*
X107262000Y-87902135D01*
X106265951Y-87902135D01*
X106157437Y-87793621D01*
X105972728Y-87659421D01*
X105769303Y-87555770D01*
X105552160Y-87485215D01*
X105326662Y-87449500D01*
X105326657Y-87449500D01*
X105098343Y-87449500D01*
X105098338Y-87449500D01*
X104872839Y-87485215D01*
X104655696Y-87555770D01*
X104452271Y-87659421D01*
X104267561Y-87793622D01*
X104106122Y-87955061D01*
X103971921Y-88139771D01*
X103868270Y-88343196D01*
X103797715Y-88560339D01*
X103762000Y-88785837D01*
X99565499Y-88785837D01*
X99565499Y-87902128D01*
X99559091Y-87842517D01*
X99558883Y-87841960D01*
X99508797Y-87707671D01*
X99508793Y-87707664D01*
X99422547Y-87592455D01*
X99422544Y-87592452D01*
X99307335Y-87506206D01*
X99307328Y-87506202D01*
X99172482Y-87455908D01*
X99172483Y-87455908D01*
X99112883Y-87449501D01*
X99112881Y-87449500D01*
X99112873Y-87449500D01*
X99112864Y-87449500D01*
X97117129Y-87449500D01*
X97117123Y-87449501D01*
X97057516Y-87455908D01*
X96922671Y-87506202D01*
X96922664Y-87506206D01*
X96807455Y-87592452D01*
X96807452Y-87592455D01*
X96721206Y-87707664D01*
X96721202Y-87707671D01*
X96670908Y-87842517D01*
X96664501Y-87902116D01*
X96664501Y-87902123D01*
X96664500Y-87902135D01*
X95668451Y-87902135D01*
X95559937Y-87793621D01*
X95375228Y-87659421D01*
X95171803Y-87555770D01*
X94954660Y-87485215D01*
X94729162Y-87449500D01*
X94729157Y-87449500D01*
X94500843Y-87449500D01*
X94500838Y-87449500D01*
X94275339Y-87485215D01*
X94058196Y-87555770D01*
X93854771Y-87659421D01*
X93670061Y-87793622D01*
X93508622Y-87955061D01*
X93374421Y-88139771D01*
X93270770Y-88343196D01*
X93200215Y-88560339D01*
X93164500Y-88785837D01*
X88967999Y-88785837D01*
X88967999Y-87902128D01*
X88961591Y-87842517D01*
X88961383Y-87841960D01*
X88911297Y-87707671D01*
X88911293Y-87707664D01*
X88825047Y-87592455D01*
X88825044Y-87592452D01*
X88709835Y-87506206D01*
X88709828Y-87506202D01*
X88574982Y-87455908D01*
X88574983Y-87455908D01*
X88515383Y-87449501D01*
X88515381Y-87449500D01*
X88515373Y-87449500D01*
X88515364Y-87449500D01*
X86519629Y-87449500D01*
X86519623Y-87449501D01*
X86460016Y-87455908D01*
X86325171Y-87506202D01*
X86325164Y-87506206D01*
X86209955Y-87592452D01*
X86209952Y-87592455D01*
X86123706Y-87707664D01*
X86123702Y-87707671D01*
X86073408Y-87842517D01*
X86067001Y-87902116D01*
X86067001Y-87902123D01*
X86067000Y-87902135D01*
X85070951Y-87902135D01*
X84962437Y-87793621D01*
X84777728Y-87659421D01*
X84574303Y-87555770D01*
X84357160Y-87485215D01*
X84131662Y-87449500D01*
X84131657Y-87449500D01*
X83903343Y-87449500D01*
X83903338Y-87449500D01*
X83677839Y-87485215D01*
X83460696Y-87555770D01*
X83257271Y-87659421D01*
X83072561Y-87793622D01*
X82911122Y-87955061D01*
X82776921Y-88139771D01*
X82673270Y-88343196D01*
X82602715Y-88560339D01*
X82567000Y-88785837D01*
X78370499Y-88785837D01*
X78370499Y-87902128D01*
X78364091Y-87842517D01*
X78363883Y-87841960D01*
X78313797Y-87707671D01*
X78313793Y-87707664D01*
X78227547Y-87592455D01*
X78227544Y-87592452D01*
X78112335Y-87506206D01*
X78112328Y-87506202D01*
X77977482Y-87455908D01*
X77977483Y-87455908D01*
X77917883Y-87449501D01*
X77917881Y-87449500D01*
X77917873Y-87449500D01*
X77917864Y-87449500D01*
X75922129Y-87449500D01*
X75922123Y-87449501D01*
X75862516Y-87455908D01*
X75727671Y-87506202D01*
X75727664Y-87506206D01*
X75612455Y-87592452D01*
X75612452Y-87592455D01*
X75526206Y-87707664D01*
X75526202Y-87707671D01*
X75475908Y-87842517D01*
X75469501Y-87902116D01*
X75469501Y-87902123D01*
X75469500Y-87902135D01*
X74473451Y-87902135D01*
X74414337Y-87843021D01*
X74413326Y-87841960D01*
X74397980Y-87812170D01*
X74381930Y-87782776D01*
X74382040Y-87781226D01*
X74381330Y-87779847D01*
X74384523Y-87746515D01*
X74386914Y-87713084D01*
X74387987Y-87710356D01*
X74387993Y-87710296D01*
X74388028Y-87710250D01*
X74388500Y-87709050D01*
X74429737Y-87609497D01*
X74460500Y-87454842D01*
X74460500Y-87297158D01*
X74460500Y-87297155D01*
X74460499Y-87297153D01*
X74441671Y-87202500D01*
X74429737Y-87142503D01*
X74429735Y-87142498D01*
X74369397Y-86996827D01*
X74369390Y-86996814D01*
X74281789Y-86865711D01*
X74281786Y-86865707D01*
X74170292Y-86754213D01*
X74170288Y-86754210D01*
X74039185Y-86666609D01*
X74039172Y-86666602D01*
X73893501Y-86606264D01*
X73893489Y-86606261D01*
X73738845Y-86575500D01*
X73738842Y-86575500D01*
X73581158Y-86575500D01*
X73581155Y-86575500D01*
X73426510Y-86606261D01*
X73426498Y-86606264D01*
X73280827Y-86666602D01*
X73280814Y-86666609D01*
X73149711Y-86754210D01*
X73149707Y-86754213D01*
X73038213Y-86865707D01*
X73038210Y-86865711D01*
X72950609Y-86996814D01*
X72950602Y-86996827D01*
X72890264Y-87142498D01*
X72890261Y-87142510D01*
X72859500Y-87297153D01*
X72859500Y-87454842D01*
X72859756Y-87456129D01*
X72859694Y-87456817D01*
X72860097Y-87460905D01*
X72859321Y-87460981D01*
X72853529Y-87525721D01*
X72810667Y-87580899D01*
X72794434Y-87590807D01*
X72659771Y-87659421D01*
X72475061Y-87793622D01*
X72313622Y-87955061D01*
X72179421Y-88139771D01*
X72075770Y-88343196D01*
X72005215Y-88560339D01*
X71969500Y-88785837D01*
X66667500Y-88785837D01*
X66667500Y-85871250D01*
X66667726Y-85863763D01*
X66673929Y-85761213D01*
X66674867Y-85745713D01*
X67737500Y-85745713D01*
X67737500Y-85958287D01*
X67770754Y-86168243D01*
X67775790Y-86183743D01*
X67836444Y-86370414D01*
X67932951Y-86559820D01*
X68057890Y-86731786D01*
X68208213Y-86882109D01*
X68380179Y-87007048D01*
X68380181Y-87007049D01*
X68380184Y-87007051D01*
X68569588Y-87103557D01*
X68771757Y-87169246D01*
X68981713Y-87202500D01*
X68981714Y-87202500D01*
X69194286Y-87202500D01*
X69194287Y-87202500D01*
X69404243Y-87169246D01*
X69606412Y-87103557D01*
X69795816Y-87007051D01*
X69817789Y-86991086D01*
X69967786Y-86882109D01*
X69967788Y-86882106D01*
X69967792Y-86882104D01*
X70118104Y-86731792D01*
X70118106Y-86731788D01*
X70118109Y-86731786D01*
X70243048Y-86559820D01*
X70243047Y-86559820D01*
X70243051Y-86559816D01*
X70339557Y-86370412D01*
X70405246Y-86168243D01*
X70438500Y-85958287D01*
X70438500Y-85761213D01*
X122522500Y-85761213D01*
X122522500Y-85973787D01*
X122555754Y-86183743D01*
X122616407Y-86370414D01*
X122621444Y-86385914D01*
X122717951Y-86575320D01*
X122842890Y-86747286D01*
X122993213Y-86897609D01*
X123165179Y-87022548D01*
X123165181Y-87022549D01*
X123165184Y-87022551D01*
X123354588Y-87119057D01*
X123556757Y-87184746D01*
X123766713Y-87218000D01*
X123766714Y-87218000D01*
X123979286Y-87218000D01*
X123979287Y-87218000D01*
X124189243Y-87184746D01*
X124391412Y-87119057D01*
X124580816Y-87022551D01*
X124616240Y-86996814D01*
X124752786Y-86897609D01*
X124752788Y-86897606D01*
X124752792Y-86897604D01*
X124903104Y-86747292D01*
X124903106Y-86747288D01*
X124903109Y-86747286D01*
X125028048Y-86575320D01*
X125028047Y-86575320D01*
X125028051Y-86575316D01*
X125124557Y-86385912D01*
X125190246Y-86183743D01*
X125223500Y-85973787D01*
X125223500Y-85761213D01*
X125190246Y-85551257D01*
X125124557Y-85349088D01*
X125028051Y-85159684D01*
X125028049Y-85159681D01*
X125028048Y-85159679D01*
X124903109Y-84987713D01*
X124752786Y-84837390D01*
X124580820Y-84712451D01*
X124391414Y-84615944D01*
X124391413Y-84615943D01*
X124391412Y-84615943D01*
X124189243Y-84550254D01*
X124189241Y-84550253D01*
X124189240Y-84550253D01*
X124027957Y-84524708D01*
X123979287Y-84517000D01*
X123766713Y-84517000D01*
X123718042Y-84524708D01*
X123556760Y-84550253D01*
X123354585Y-84615944D01*
X123165179Y-84712451D01*
X122993213Y-84837390D01*
X122842890Y-84987713D01*
X122717951Y-85159679D01*
X122621444Y-85349085D01*
X122555753Y-85551260D01*
X122532903Y-85695531D01*
X122522500Y-85761213D01*
X70438500Y-85761213D01*
X70438500Y-85745713D01*
X70405246Y-85535757D01*
X70339557Y-85333588D01*
X70243051Y-85144184D01*
X70243049Y-85144181D01*
X70243048Y-85144179D01*
X70118109Y-84972213D01*
X69967786Y-84821890D01*
X69795820Y-84696951D01*
X69606414Y-84600444D01*
X69606413Y-84600443D01*
X69606412Y-84600443D01*
X69404243Y-84534754D01*
X69404241Y-84534753D01*
X69404240Y-84534753D01*
X69242957Y-84509208D01*
X69194287Y-84501500D01*
X68981713Y-84501500D01*
X68933042Y-84509208D01*
X68771760Y-84534753D01*
X68569585Y-84600444D01*
X68380179Y-84696951D01*
X68208213Y-84821890D01*
X68057890Y-84972213D01*
X67932951Y-85144179D01*
X67836444Y-85333585D01*
X67770753Y-85535760D01*
X67745448Y-85695531D01*
X67737500Y-85745713D01*
X66674867Y-85745713D01*
X66685271Y-85573701D01*
X66687076Y-85558840D01*
X66738780Y-85276701D01*
X66742364Y-85262163D01*
X66774298Y-85159684D01*
X66827696Y-84988322D01*
X66832998Y-84974341D01*
X66950731Y-84712749D01*
X66957676Y-84699516D01*
X67106080Y-84454026D01*
X67114567Y-84441730D01*
X67291480Y-84215917D01*
X67301395Y-84204726D01*
X67504226Y-84001895D01*
X67515417Y-83991980D01*
X67741230Y-83815067D01*
X67753526Y-83806580D01*
X67999016Y-83658176D01*
X68012249Y-83651231D01*
X68273841Y-83533498D01*
X68287822Y-83528196D01*
X68561668Y-83442862D01*
X68576197Y-83439280D01*
X68858344Y-83387575D01*
X68873201Y-83385771D01*
X69163264Y-83368226D01*
X69170751Y-83368000D01*
X69232892Y-83368000D01*
X123807108Y-83368000D01*
X123869249Y-83368000D01*
X123876736Y-83368226D01*
G37*
%TD.AperFunction*%
%TD*%
M02*
