%TF.GenerationSoftware,KiCad,Pcbnew,9.0.4*%
%TF.CreationDate,2026-06-04T22:37:21-04:00*%
%TF.ProjectId,wrist_board,77726973-745f-4626-9f61-72642e6b6963,rev?*%
%TF.SameCoordinates,Original*%
%TF.FileFunction,Paste,Top*%
%TF.FilePolarity,Positive*%
%FSLAX46Y46*%
G04 Gerber Fmt 4.6, Leading zero omitted, Abs format (unit mm)*
G04 Created by KiCad (PCBNEW 9.0.4) date 2026-06-04 22:37:21*
%MOMM*%
%LPD*%
G01*
G04 APERTURE LIST*
G04 Aperture macros list*
%AMRoundRect*
0 Rectangle with rounded corners*
0 $1 Rounding radius*
0 $2 $3 $4 $5 $6 $7 $8 $9 X,Y pos of 4 corners*
0 Add a 4 corners polygon primitive as box body*
4,1,4,$2,$3,$4,$5,$6,$7,$8,$9,$2,$3,0*
0 Add four circle primitives for the rounded corners*
1,1,$1+$1,$2,$3*
1,1,$1+$1,$4,$5*
1,1,$1+$1,$6,$7*
1,1,$1+$1,$8,$9*
0 Add four rect primitives between the rounded corners*
20,1,$1+$1,$2,$3,$4,$5,0*
20,1,$1+$1,$4,$5,$6,$7,0*
20,1,$1+$1,$6,$7,$8,$9,0*
20,1,$1+$1,$8,$9,$2,$3,0*%
G04 Aperture macros list end*
%ADD10RoundRect,0.250000X-0.475000X0.250000X-0.475000X-0.250000X0.475000X-0.250000X0.475000X0.250000X0*%
%ADD11RoundRect,0.150000X-0.512500X-0.150000X0.512500X-0.150000X0.512500X0.150000X-0.512500X0.150000X0*%
%ADD12RoundRect,0.250000X0.503814X0.132583X0.132583X0.503814X-0.503814X-0.132583X-0.132583X-0.503814X0*%
%ADD13RoundRect,0.250000X0.450000X-0.262500X0.450000X0.262500X-0.450000X0.262500X-0.450000X-0.262500X0*%
%ADD14RoundRect,0.243750X0.456250X-0.243750X0.456250X0.243750X-0.456250X0.243750X-0.456250X-0.243750X0*%
%ADD15RoundRect,0.250000X0.250000X0.475000X-0.250000X0.475000X-0.250000X-0.475000X0.250000X-0.475000X0*%
%ADD16RoundRect,0.243750X-0.243750X-0.456250X0.243750X-0.456250X0.243750X0.456250X-0.243750X0.456250X0*%
%ADD17RoundRect,0.250000X0.475000X-0.250000X0.475000X0.250000X-0.475000X0.250000X-0.475000X-0.250000X0*%
%ADD18R,1.700000X0.900000*%
%ADD19RoundRect,0.250000X0.262500X0.450000X-0.262500X0.450000X-0.262500X-0.450000X0.262500X-0.450000X0*%
%ADD20RoundRect,0.150000X-0.150000X-0.425000X0.150000X-0.425000X0.150000X0.425000X-0.150000X0.425000X0*%
%ADD21RoundRect,0.075000X-0.075000X-0.500000X0.075000X-0.500000X0.075000X0.500000X-0.075000X0.500000X0*%
%ADD22O,1.000000X2.100000*%
%ADD23O,1.000000X1.800000*%
%ADD24RoundRect,0.250000X-0.250000X-0.475000X0.250000X-0.475000X0.250000X0.475000X-0.250000X0.475000X0*%
%ADD25RoundRect,0.243750X0.243750X0.456250X-0.243750X0.456250X-0.243750X-0.456250X0.243750X-0.456250X0*%
%ADD26RoundRect,0.250000X-0.450000X0.262500X-0.450000X-0.262500X0.450000X-0.262500X0.450000X0.262500X0*%
%ADD27RoundRect,0.150000X-0.500000X0.150000X-0.500000X-0.150000X0.500000X-0.150000X0.500000X0.150000X0*%
%ADD28RoundRect,0.175000X-0.175000X0.350000X-0.175000X-0.350000X0.175000X-0.350000X0.175000X0.350000X0*%
%ADD29R,0.900000X1.500000*%
%ADD30R,1.500000X0.900000*%
%ADD31R,0.900000X0.900000*%
%ADD32RoundRect,0.250000X-0.503814X-0.132583X-0.132583X-0.503814X0.503814X0.132583X0.132583X0.503814X0*%
%ADD33RoundRect,0.075000X-0.350000X-0.075000X0.350000X-0.075000X0.350000X0.075000X-0.350000X0.075000X0*%
%ADD34RoundRect,0.075000X0.075000X-0.350000X0.075000X0.350000X-0.075000X0.350000X-0.075000X-0.350000X0*%
%ADD35RoundRect,0.160000X-0.160000X-0.160000X0.160000X-0.160000X0.160000X0.160000X-0.160000X0.160000X0*%
%ADD36RoundRect,0.062500X-0.375000X-0.062500X0.375000X-0.062500X0.375000X0.062500X-0.375000X0.062500X0*%
%ADD37RoundRect,0.062500X-0.062500X-0.375000X0.062500X-0.375000X0.062500X0.375000X-0.062500X0.375000X0*%
G04 APERTURE END LIST*
D10*
%TO.C,C13*%
X112395000Y-92070000D03*
X112395000Y-90170000D03*
%TD*%
D11*
%TO.C,U2*%
X75957000Y-97922000D03*
X75957000Y-98872000D03*
X75957000Y-99822000D03*
X78232000Y-99822000D03*
X78232000Y-97922000D03*
%TD*%
D12*
%TO.C,R6*%
X103261235Y-118501235D03*
X101970765Y-117210765D03*
%TD*%
D13*
%TO.C,R13*%
X102870000Y-111125000D03*
X102870000Y-109300000D03*
%TD*%
D14*
%TO.C,D2*%
X87630000Y-121666000D03*
X87630000Y-119791000D03*
%TD*%
%TO.C,D3*%
X81788000Y-102616000D03*
X81788000Y-100741000D03*
%TD*%
D15*
%TO.C,C3*%
X76642500Y-95504000D03*
X74742500Y-95504000D03*
%TD*%
D13*
%TO.C,R9*%
X91440000Y-88796500D03*
X91440000Y-86971500D03*
%TD*%
D16*
%TO.C,D1*%
X78389000Y-117348000D03*
X80264000Y-117348000D03*
%TD*%
D10*
%TO.C,C15*%
X76200000Y-114300000D03*
X76200000Y-116200000D03*
%TD*%
%TO.C,C7*%
X91440000Y-90490000D03*
X91440000Y-92390000D03*
%TD*%
D17*
%TO.C,C2*%
X69088000Y-119700000D03*
X69088000Y-117800000D03*
%TD*%
D18*
%TO.C,SW3*%
X123444000Y-124509000D03*
X123444000Y-121109000D03*
%TD*%
D19*
%TO.C,R17*%
X115189000Y-119380000D03*
X113364000Y-119380000D03*
%TD*%
D15*
%TO.C,C9*%
X70038000Y-92456000D03*
X68138000Y-92456000D03*
%TD*%
D20*
%TO.C,J2*%
X93320000Y-120780000D03*
X94120000Y-120780000D03*
D21*
X95270000Y-120780000D03*
X96270000Y-120780000D03*
X96770000Y-120780000D03*
X97770000Y-120780000D03*
D20*
X98920000Y-120780000D03*
X99720000Y-120780000D03*
X99720000Y-120780000D03*
X98920000Y-120780000D03*
D21*
X98270000Y-120780000D03*
X97270000Y-120780000D03*
X95770000Y-120780000D03*
X94770000Y-120780000D03*
D20*
X94120000Y-120780000D03*
X93320000Y-120780000D03*
D22*
X92200000Y-121355000D03*
D23*
X92200000Y-125535000D03*
D22*
X100840000Y-121355000D03*
D23*
X100840000Y-125535000D03*
%TD*%
D13*
%TO.C,R12*%
X122555000Y-92352500D03*
X122555000Y-90527500D03*
%TD*%
%TO.C,R18*%
X78232000Y-105965000D03*
X78232000Y-104140000D03*
%TD*%
%TO.C,R8*%
X101600000Y-88542500D03*
X101600000Y-86717500D03*
%TD*%
%TO.C,R16*%
X84582000Y-102616000D03*
X84582000Y-100791000D03*
%TD*%
D10*
%TO.C,C8*%
X80772000Y-90490000D03*
X80772000Y-92390000D03*
%TD*%
D15*
%TO.C,C11*%
X95885000Y-112395000D03*
X93985000Y-112395000D03*
%TD*%
D24*
%TO.C,C4*%
X79502000Y-95504000D03*
X81402000Y-95504000D03*
%TD*%
D25*
%TO.C,F1*%
X91694000Y-117602000D03*
X89819000Y-117602000D03*
%TD*%
D12*
%TO.C,R7*%
X103505000Y-104150235D03*
X102214530Y-102859765D03*
%TD*%
D13*
%TO.C,R1*%
X99314000Y-118364000D03*
X99314000Y-116539000D03*
%TD*%
D15*
%TO.C,C5*%
X92456000Y-110236000D03*
X90556000Y-110236000D03*
%TD*%
D26*
%TO.C,R20*%
X79756000Y-113284000D03*
X79756000Y-115109000D03*
%TD*%
D27*
%TO.C,SW1*%
X70530000Y-102906000D03*
X70530000Y-105906000D03*
X70530000Y-107406000D03*
D28*
X69680000Y-101481000D03*
X67480000Y-101481000D03*
X69680000Y-108831000D03*
X67480000Y-108831000D03*
%TD*%
D13*
%TO.C,R15*%
X85344000Y-121666000D03*
X85344000Y-119841000D03*
%TD*%
D18*
%TO.C,SW2*%
X117983000Y-124509000D03*
X117983000Y-121109000D03*
%TD*%
D10*
%TO.C,C10*%
X69088000Y-121732000D03*
X69088000Y-123632000D03*
%TD*%
D15*
%TO.C,C1*%
X91694000Y-114808000D03*
X89794000Y-114808000D03*
%TD*%
D13*
%TO.C,R19*%
X72644000Y-109220000D03*
X72644000Y-107395000D03*
%TD*%
%TO.C,R4*%
X75184000Y-105965000D03*
X75184000Y-104140000D03*
%TD*%
D29*
%TO.C,X1*%
X125148000Y-97930000D03*
X123878000Y-97930000D03*
X122608000Y-97930000D03*
X121338000Y-97930000D03*
X120068000Y-97930000D03*
X118798000Y-97930000D03*
X117528000Y-97930000D03*
X116258000Y-97930000D03*
X114988000Y-97930000D03*
X113718000Y-97930000D03*
X112448000Y-97930000D03*
X111178000Y-97930000D03*
X109908000Y-97930000D03*
X108638000Y-97930000D03*
D30*
X107388000Y-99695000D03*
X107388000Y-100965000D03*
X107388000Y-102235000D03*
X107388000Y-103505000D03*
X107388000Y-104775000D03*
X107388000Y-106045000D03*
X107388000Y-107315000D03*
X107388000Y-108585000D03*
X107388000Y-109855000D03*
X107388000Y-111125000D03*
X107388000Y-112395000D03*
X107388000Y-113665000D03*
D29*
X108638000Y-115430000D03*
X109908000Y-115430000D03*
X111178000Y-115430000D03*
X112448000Y-115430000D03*
X113718000Y-115430000D03*
X114988000Y-115430000D03*
X116258000Y-115430000D03*
X117528000Y-115430000D03*
X118798000Y-115430000D03*
X120068000Y-115430000D03*
X121338000Y-115430000D03*
X122608000Y-115430000D03*
X123878000Y-115430000D03*
X125148000Y-115430000D03*
D31*
X117428000Y-105180000D03*
X118828000Y-105180000D03*
X118828000Y-103780000D03*
X117428000Y-103780000D03*
X116028000Y-103780000D03*
X116028000Y-105180000D03*
X116028000Y-106580000D03*
X117428000Y-106580000D03*
X118828000Y-106580000D03*
%TD*%
D32*
%TO.C,R3*%
X81513530Y-108945530D03*
X82804000Y-110236000D03*
%TD*%
D15*
%TO.C,C12*%
X92390000Y-103505000D03*
X90490000Y-103505000D03*
%TD*%
D33*
%TO.C,U3*%
X94525000Y-106020000D03*
X94525000Y-106520000D03*
X94525000Y-107020000D03*
X94525000Y-107520000D03*
X94525000Y-108020000D03*
X94525000Y-108520000D03*
D34*
X95225000Y-109220000D03*
X95725000Y-109220000D03*
X96225000Y-109220000D03*
X96725000Y-109220000D03*
X97225000Y-109220000D03*
X97725000Y-109220000D03*
D33*
X98425000Y-108520000D03*
X98425000Y-108020000D03*
X98425000Y-107520000D03*
X98425000Y-107020000D03*
X98425000Y-106520000D03*
X98425000Y-106020000D03*
D34*
X97725000Y-105320000D03*
X97225000Y-105320000D03*
X96725000Y-105320000D03*
X96225000Y-105320000D03*
X95725000Y-105320000D03*
X95225000Y-105320000D03*
%TD*%
D13*
%TO.C,R10*%
X80772000Y-88796500D03*
X80772000Y-86971500D03*
%TD*%
D19*
%TO.C,R11*%
X70000500Y-89916000D03*
X68175500Y-89916000D03*
%TD*%
D13*
%TO.C,R2*%
X94742000Y-118364000D03*
X94742000Y-116539000D03*
%TD*%
%TO.C,R14*%
X112395000Y-88514000D03*
X112395000Y-86689000D03*
%TD*%
D10*
%TO.C,C6*%
X101600000Y-90198500D03*
X101600000Y-92098500D03*
%TD*%
%TO.C,C14*%
X125095000Y-90490000D03*
X125095000Y-92390000D03*
%TD*%
D35*
%TO.C,U1*%
X76416000Y-110452000D03*
X76416000Y-111252000D03*
X77216000Y-110452000D03*
X77216000Y-111252000D03*
D36*
X75378500Y-110102000D03*
X75378500Y-110602000D03*
X75378500Y-111102000D03*
X75378500Y-111602000D03*
D37*
X76066000Y-112289500D03*
X76566000Y-112289500D03*
X77066000Y-112289500D03*
X77566000Y-112289500D03*
D36*
X78253500Y-111602000D03*
X78253500Y-111102000D03*
X78253500Y-110602000D03*
X78253500Y-110102000D03*
D37*
X77566000Y-109414500D03*
X77066000Y-109414500D03*
X76566000Y-109414500D03*
X76066000Y-109414500D03*
%TD*%
D26*
%TO.C,R5*%
X73152000Y-98147500D03*
X73152000Y-99972500D03*
%TD*%
M02*
