%TF.GenerationSoftware,KiCad,Pcbnew,9.0.4*%
%TF.CreationDate,2026-06-01T19:18:12-04:00*%
%TF.ProjectId,wrist_board,77726973-745f-4626-9f61-72642e6b6963,rev?*%
%TF.SameCoordinates,Original*%
%TF.FileFunction,Copper,L4,Bot*%
%TF.FilePolarity,Positive*%
%FSLAX46Y46*%
G04 Gerber Fmt 4.6, Leading zero omitted, Abs format (unit mm)*
G04 Created by KiCad (PCBNEW 9.0.4) date 2026-06-01 19:18:12*
%MOMM*%
%LPD*%
G01*
G04 APERTURE LIST*
%TA.AperFunction,ComponentPad*%
%ADD10C,1.800000*%
%TD*%
%TA.AperFunction,ComponentPad*%
%ADD11R,1.700000X1.700000*%
%TD*%
%TA.AperFunction,ComponentPad*%
%ADD12C,1.700000*%
%TD*%
%TA.AperFunction,HeatsinkPad*%
%ADD13O,1.000000X2.100000*%
%TD*%
%TA.AperFunction,HeatsinkPad*%
%ADD14O,1.000000X1.800000*%
%TD*%
%TA.AperFunction,ComponentPad*%
%ADD15R,1.308000X1.308000*%
%TD*%
%TA.AperFunction,ComponentPad*%
%ADD16C,1.308000*%
%TD*%
%TA.AperFunction,ViaPad*%
%ADD17C,0.600000*%
%TD*%
%TA.AperFunction,ViaPad*%
%ADD18C,0.500000*%
%TD*%
%TA.AperFunction,Conductor*%
%ADD19C,0.300000*%
%TD*%
%TA.AperFunction,Conductor*%
%ADD20C,0.400000*%
%TD*%
%TA.AperFunction,Conductor*%
%ADD21C,0.200000*%
%TD*%
G04 APERTURE END LIST*
D10*
%TO.P,TP5,1,1*%
%TO.N,+5V*%
X81280000Y-117348000D03*
%TD*%
D11*
%TO.P,J5,1,Pin_1*%
%TO.N,/FS_3*%
X95245000Y-91440000D03*
D12*
%TO.P,J5,2,Pin_2*%
%TO.N,GND*%
X97785000Y-91440000D03*
%TD*%
D10*
%TO.P,TP1,1,1*%
%TO.N,/INT*%
X87249000Y-106426000D03*
%TD*%
D11*
%TO.P,J8,1,Pin_1*%
%TO.N,/IO11*%
X109982000Y-121412000D03*
D12*
%TO.P,J8,2,Pin_2*%
%TO.N,/IO12*%
X109982000Y-123952000D03*
%TO.P,J8,3,Pin_3*%
%TO.N,/IO14*%
X107442000Y-121412000D03*
%TO.P,J8,4,Pin_4*%
%TO.N,/IO13*%
X107442000Y-123952000D03*
%TD*%
D10*
%TO.P,TP2,1,1*%
%TO.N,/SCL*%
X100203000Y-99695000D03*
%TD*%
D13*
%TO.P,J2,S1,SHIELD*%
%TO.N,GND*%
X92200000Y-121355000D03*
D14*
X92200000Y-125535000D03*
D13*
X100840000Y-121355000D03*
D14*
X100840000Y-125535000D03*
%TD*%
D10*
%TO.P,TP3,1,1*%
%TO.N,/SDA*%
X95123000Y-99695000D03*
%TD*%
%TO.P,TP6,1,1*%
%TO.N,+3V3*%
X85725000Y-98679000D03*
%TD*%
D11*
%TO.P,J3,1,Pin_1*%
%TO.N,/FS_1*%
X115001200Y-91440000D03*
D12*
%TO.P,J3,2,Pin_2*%
%TO.N,GND*%
X117541200Y-91440000D03*
%TD*%
D11*
%TO.P,J6,1,Pin_1*%
%TO.N,/FS_4*%
X85344000Y-91440000D03*
D12*
%TO.P,J6,2,Pin_2*%
%TO.N,GND*%
X87884000Y-91440000D03*
%TD*%
D10*
%TO.P,TP4,1,1*%
%TO.N,GND*%
X80391000Y-123571000D03*
%TD*%
D11*
%TO.P,J7,1,Pin_1*%
%TO.N,/FS_5*%
X75941000Y-91440000D03*
D12*
%TO.P,J7,2,Pin_2*%
%TO.N,GND*%
X78481000Y-91440000D03*
%TD*%
D15*
%TO.P,J1,1,1*%
%TO.N,/<NO NET>*%
X72914000Y-120723500D03*
D16*
%TO.P,J1,2,2*%
%TO.N,GND*%
X74914000Y-120723500D03*
%TD*%
D11*
%TO.P,J4,1,Pin_1*%
%TO.N,/FS_2*%
X105405000Y-91440000D03*
D12*
%TO.P,J4,2,Pin_2*%
%TO.N,GND*%
X107945000Y-91440000D03*
%TD*%
D17*
%TO.N,GND*%
X120015000Y-106680000D03*
X69088000Y-116652000D03*
X69088000Y-124780000D03*
X89408000Y-110236000D03*
X99568000Y-115316000D03*
X88392000Y-114808000D03*
X92964000Y-106172000D03*
X71328200Y-92456000D03*
X71120000Y-113284000D03*
X123444000Y-125730000D03*
X80518000Y-95250000D03*
X92710000Y-112395000D03*
X100584000Y-91440000D03*
X74930000Y-118364000D03*
D18*
X90170000Y-91440000D03*
D17*
X117983000Y-125857000D03*
X102108000Y-93472000D03*
X80772000Y-91440000D03*
X90805000Y-121412000D03*
X114935000Y-106680000D03*
X91948000Y-93472000D03*
X120015000Y-103505000D03*
X125148000Y-95303000D03*
X110236000Y-91440000D03*
X79913000Y-104237000D03*
X94742000Y-115316000D03*
X76708000Y-113030000D03*
X88900000Y-103505000D03*
X124206000Y-93472000D03*
X75438000Y-101346000D03*
X80772000Y-92964000D03*
X120396000Y-91440000D03*
X78232000Y-95250000D03*
X85344000Y-118618000D03*
X99695000Y-106045000D03*
X102362000Y-121412000D03*
X114935000Y-103505000D03*
X110236000Y-92456000D03*
X125095000Y-118110000D03*
X97647880Y-111902120D03*
X95885000Y-110490000D03*
%TO.N,+3V3*%
X71328200Y-87376000D03*
X104140000Y-119380000D03*
X80518000Y-100208000D03*
X104140000Y-105410000D03*
X102870000Y-112395000D03*
X123825000Y-95250000D03*
X95084997Y-110490000D03*
X100584000Y-87376000D03*
X124206000Y-89027000D03*
X80772000Y-87376000D03*
X99695000Y-108585000D03*
X112141000Y-119380000D03*
X110236000Y-87376000D03*
X121920000Y-89027000D03*
X90424000Y-87376000D03*
%TO.N,/INT*%
X99187000Y-110363000D03*
X90170000Y-106426000D03*
%TO.N,Net-(U3-CPOUT)*%
X93345000Y-103505000D03*
X97155000Y-104140000D03*
%TO.N,/SCL*%
X100330000Y-102235000D03*
X98806000Y-103886000D03*
%TO.N,/<NO NET>*%
X70104000Y-114300000D03*
X70612000Y-104648000D03*
%TO.N,/IO13*%
X109827882Y-112272520D03*
%TO.N,/IO12*%
X110617000Y-112141000D03*
%TO.N,/D+*%
X97345000Y-119696632D03*
X96095000Y-118999000D03*
X108794994Y-100330000D03*
%TO.N,/IO14*%
X108839000Y-112268000D03*
%TO.N,/D-*%
X96945000Y-118999000D03*
X109644994Y-100330000D03*
%TO.N,/IO11*%
X111506000Y-112141000D03*
%TO.N,/EN*%
X123444000Y-100838000D03*
X123444000Y-119507000D03*
%TO.N,/BOOT*%
X117983000Y-119507000D03*
X113411000Y-113792000D03*
%TD*%
D19*
%TO.N,/INT*%
X90170000Y-106426000D02*
X90678000Y-106934000D01*
X90678000Y-106934000D02*
X95758000Y-106934000D01*
X95758000Y-106934000D02*
X99187000Y-110363000D01*
%TO.N,Net-(U3-CPOUT)*%
X93345000Y-103505000D02*
X96520000Y-103505000D01*
X96520000Y-103505000D02*
X97155000Y-104140000D01*
%TO.N,/SCL*%
X98806000Y-103759000D02*
X98806000Y-103886000D01*
X100330000Y-102235000D02*
X98806000Y-103759000D01*
D20*
%TO.N,/<NO NET>*%
X70104000Y-105156000D02*
X70612000Y-104648000D01*
X70104000Y-114300000D02*
X70104000Y-105156000D01*
D21*
%TO.N,/IO13*%
X108590056Y-111667000D02*
X107061000Y-113196056D01*
X107061000Y-113196056D02*
X107061000Y-113478900D01*
X109827882Y-112272520D02*
X109222362Y-111667000D01*
X107061000Y-123571000D02*
X107442000Y-123952000D01*
X107061000Y-113478900D02*
X107041000Y-113498900D01*
X109222362Y-111667000D02*
X108590056Y-111667000D01*
X106965240Y-122563000D02*
X107061000Y-122563000D01*
X107041000Y-120261000D02*
X106965240Y-120261000D01*
X106291000Y-121888760D02*
X106965240Y-122563000D01*
X106291000Y-120935240D02*
X106291000Y-121888760D01*
X107061000Y-122563000D02*
X107061000Y-123571000D01*
X106965240Y-120261000D02*
X106291000Y-120935240D01*
X107041000Y-113498900D02*
X107041000Y-120261000D01*
%TO.N,/IO12*%
X110617000Y-112141000D02*
X110617000Y-117562760D01*
X110617000Y-117562760D02*
X108831000Y-119348760D01*
X108831000Y-122801000D02*
X109982000Y-123952000D01*
X108831000Y-119348760D02*
X108831000Y-122801000D01*
%TO.N,/D+*%
X96582632Y-119696632D02*
X96095000Y-119209000D01*
X96294999Y-118799001D02*
X96095000Y-118999000D01*
X96294999Y-116746803D02*
X96294999Y-118799001D01*
X108794994Y-100330000D02*
X108994993Y-100529999D01*
X108994993Y-100529999D02*
X108994993Y-104046795D01*
X108994993Y-104046795D02*
X108995000Y-104046802D01*
X96095000Y-119209000D02*
X96095000Y-118999000D01*
X108995000Y-104046802D02*
X96294999Y-116746803D01*
X97345000Y-119696632D02*
X96582632Y-119696632D01*
%TO.N,/IO14*%
X108839000Y-112268000D02*
X107442000Y-113665000D01*
X107442000Y-113665000D02*
X107442000Y-121412000D01*
%TO.N,/D-*%
X96745001Y-118799001D02*
X96945000Y-118999000D01*
X109444995Y-104233193D02*
X109445000Y-104233198D01*
X96745001Y-116933197D02*
X96745001Y-118799001D01*
X109644994Y-100330000D02*
X109444995Y-100529999D01*
X109444995Y-100529999D02*
X109444995Y-104233193D01*
X109445000Y-104233198D02*
X96745001Y-116933197D01*
%TO.N,/IO11*%
X109347000Y-120777000D02*
X109982000Y-121412000D01*
X109347000Y-119399860D02*
X109347000Y-120777000D01*
X111506000Y-112141000D02*
X111018000Y-112629000D01*
X111018000Y-112629000D02*
X111018000Y-117728860D01*
X111018000Y-117728860D02*
X109347000Y-119399860D01*
D19*
%TO.N,/EN*%
X123444000Y-119507000D02*
X123444000Y-100838000D01*
%TO.N,/BOOT*%
X117983000Y-118364000D02*
X117983000Y-119507000D01*
X113411000Y-113792000D02*
X117983000Y-118364000D01*
%TD*%
M02*
