%TF.GenerationSoftware,KiCad,Pcbnew,9.0.4*%
%TF.CreationDate,2026-06-01T19:18:12-04:00*%
%TF.ProjectId,wrist_board,77726973-745f-4626-9f61-72642e6b6963,rev?*%
%TF.SameCoordinates,Original*%
%TF.FileFunction,Copper,L2,Inr*%
%TF.FilePolarity,Positive*%
%FSLAX46Y46*%
G04 Gerber Fmt 4.6, Leading zero omitted, Abs format (unit mm)*
G04 Created by KiCad (PCBNEW 9.0.4) date 2026-06-01 19:18:12*
%MOMM*%
%LPD*%
G01*
G04 APERTURE LIST*
%TA.AperFunction,ComponentPad*%
%ADD10C,1.800000*%
%TD*%
%TA.AperFunction,ComponentPad*%
%ADD11R,1.700000X1.700000*%
%TD*%
%TA.AperFunction,ComponentPad*%
%ADD12C,1.700000*%
%TD*%
%TA.AperFunction,HeatsinkPad*%
%ADD13O,1.000000X2.100000*%
%TD*%
%TA.AperFunction,HeatsinkPad*%
%ADD14O,1.000000X1.800000*%
%TD*%
%TA.AperFunction,ComponentPad*%
%ADD15R,1.308000X1.308000*%
%TD*%
%TA.AperFunction,ComponentPad*%
%ADD16C,1.308000*%
%TD*%
%TA.AperFunction,ViaPad*%
%ADD17C,0.600000*%
%TD*%
%TA.AperFunction,ViaPad*%
%ADD18C,0.500000*%
%TD*%
G04 APERTURE END LIST*
D10*
%TO.N,+5V*%
%TO.C,TP5*%
X81280000Y-117348000D03*
%TD*%
D11*
%TO.N,/FS_3*%
%TO.C,J5*%
X95245000Y-91440000D03*
D12*
%TO.N,GND*%
X97785000Y-91440000D03*
%TD*%
D10*
%TO.N,/INT*%
%TO.C,TP1*%
X87249000Y-106426000D03*
%TD*%
D11*
%TO.N,/IO11*%
%TO.C,J8*%
X109982000Y-121412000D03*
D12*
%TO.N,/IO12*%
X109982000Y-123952000D03*
%TO.N,/IO14*%
X107442000Y-121412000D03*
%TO.N,/IO13*%
X107442000Y-123952000D03*
%TD*%
D10*
%TO.N,/SCL*%
%TO.C,TP2*%
X100203000Y-99695000D03*
%TD*%
D13*
%TO.N,GND*%
%TO.C,J2*%
X92200000Y-121355000D03*
D14*
X92200000Y-125535000D03*
D13*
X100840000Y-121355000D03*
D14*
X100840000Y-125535000D03*
%TD*%
D10*
%TO.N,/SDA*%
%TO.C,TP3*%
X95123000Y-99695000D03*
%TD*%
%TO.N,+3V3*%
%TO.C,TP6*%
X85725000Y-98679000D03*
%TD*%
D11*
%TO.N,/FS_1*%
%TO.C,J3*%
X115001200Y-91440000D03*
D12*
%TO.N,GND*%
X117541200Y-91440000D03*
%TD*%
D11*
%TO.N,/FS_4*%
%TO.C,J6*%
X85344000Y-91440000D03*
D12*
%TO.N,GND*%
X87884000Y-91440000D03*
%TD*%
D10*
%TO.N,GND*%
%TO.C,TP4*%
X80391000Y-123571000D03*
%TD*%
D11*
%TO.N,/FS_5*%
%TO.C,J7*%
X75941000Y-91440000D03*
D12*
%TO.N,GND*%
X78481000Y-91440000D03*
%TD*%
D15*
%TO.N,/<NO NET>*%
%TO.C,J1*%
X72914000Y-120723500D03*
D16*
%TO.N,GND*%
X74914000Y-120723500D03*
%TD*%
D11*
%TO.N,/FS_2*%
%TO.C,J4*%
X105405000Y-91440000D03*
D12*
%TO.N,GND*%
X107945000Y-91440000D03*
%TD*%
D17*
%TO.N,GND*%
X120015000Y-106680000D03*
X69088000Y-116652000D03*
X69088000Y-124780000D03*
X89408000Y-110236000D03*
X99568000Y-115316000D03*
X88392000Y-114808000D03*
X92964000Y-106172000D03*
X71328200Y-92456000D03*
X71120000Y-113284000D03*
X123444000Y-125730000D03*
X80518000Y-95250000D03*
X92710000Y-112395000D03*
X100584000Y-91440000D03*
X74930000Y-118364000D03*
D18*
X90170000Y-91440000D03*
D17*
X117983000Y-125857000D03*
X102108000Y-93472000D03*
X80772000Y-91440000D03*
X90805000Y-121412000D03*
X114935000Y-106680000D03*
X91948000Y-93472000D03*
X120015000Y-103505000D03*
X125148000Y-95303000D03*
X110236000Y-91440000D03*
X79913000Y-104237000D03*
X94742000Y-115316000D03*
X76708000Y-113030000D03*
X88900000Y-103505000D03*
X124206000Y-93472000D03*
X75438000Y-101346000D03*
X80772000Y-92964000D03*
X120396000Y-91440000D03*
X78232000Y-95250000D03*
X85344000Y-118618000D03*
X99695000Y-106045000D03*
X102362000Y-121412000D03*
X114935000Y-103505000D03*
X110236000Y-92456000D03*
X125095000Y-118110000D03*
X97647880Y-111902120D03*
X95885000Y-110490000D03*
%TO.N,+3V3*%
X71328200Y-87376000D03*
X104140000Y-119380000D03*
X80518000Y-100208000D03*
X104140000Y-105410000D03*
X102870000Y-112395000D03*
X123825000Y-95250000D03*
X95084997Y-110490000D03*
X100584000Y-87376000D03*
X124206000Y-89027000D03*
X80772000Y-87376000D03*
X99695000Y-108585000D03*
X112141000Y-119380000D03*
X110236000Y-87376000D03*
X121920000Y-89027000D03*
X90424000Y-87376000D03*
%TO.N,/INT*%
X99187000Y-110363000D03*
X90170000Y-106426000D03*
%TO.N,Net-(U3-CPOUT)*%
X93345000Y-103505000D03*
X97155000Y-104140000D03*
%TO.N,/SCL*%
X100330000Y-102235000D03*
X98806000Y-103886000D03*
%TO.N,/<NO NET>*%
X70104000Y-114300000D03*
X70612000Y-104648000D03*
%TO.N,/IO13*%
X109827882Y-112272520D03*
%TO.N,/IO12*%
X110617000Y-112141000D03*
%TO.N,/D+*%
X97345000Y-119696632D03*
X96095000Y-118999000D03*
X108794994Y-100330000D03*
%TO.N,/IO14*%
X108839000Y-112268000D03*
%TO.N,/D-*%
X96945000Y-118999000D03*
X109644994Y-100330000D03*
%TO.N,/IO11*%
X111506000Y-112141000D03*
%TO.N,/EN*%
X123444000Y-100838000D03*
X123444000Y-119507000D03*
%TO.N,/BOOT*%
X117983000Y-119507000D03*
X113411000Y-113792000D03*
%TD*%
%TA.AperFunction,Conductor*%
%TO.N,GND*%
G36*
X123876736Y-83368226D02*
G01*
X124166796Y-83385771D01*
X124181659Y-83387576D01*
X124463798Y-83439280D01*
X124478335Y-83442863D01*
X124752172Y-83528195D01*
X124766163Y-83533500D01*
X125027743Y-83651227D01*
X125040989Y-83658180D01*
X125286465Y-83806575D01*
X125298776Y-83815073D01*
X125524573Y-83991973D01*
X125535781Y-84001903D01*
X125738596Y-84204718D01*
X125748526Y-84215926D01*
X125868481Y-84369038D01*
X125925422Y-84441717D01*
X125933926Y-84454037D01*
X125982721Y-84534753D01*
X126082316Y-84699504D01*
X126089275Y-84712763D01*
X126206997Y-84974331D01*
X126212306Y-84988332D01*
X126297635Y-85262163D01*
X126301219Y-85276701D01*
X126352923Y-85558840D01*
X126354728Y-85573705D01*
X126372274Y-85863763D01*
X126372500Y-85871250D01*
X126372500Y-124948749D01*
X126372274Y-124956236D01*
X126354728Y-125246294D01*
X126352923Y-125261159D01*
X126301219Y-125543298D01*
X126297635Y-125557836D01*
X126212306Y-125831667D01*
X126206997Y-125845668D01*
X126089275Y-126107236D01*
X126082316Y-126120495D01*
X125933928Y-126365959D01*
X125925422Y-126378282D01*
X125748526Y-126604073D01*
X125738596Y-126615281D01*
X125535781Y-126818096D01*
X125524573Y-126828026D01*
X125298782Y-127004922D01*
X125286459Y-127013428D01*
X125040995Y-127161816D01*
X125027736Y-127168775D01*
X124766168Y-127286497D01*
X124752167Y-127291806D01*
X124478336Y-127377135D01*
X124463798Y-127380719D01*
X124181659Y-127432423D01*
X124166794Y-127434228D01*
X123876736Y-127451774D01*
X123869249Y-127452000D01*
X69170751Y-127452000D01*
X69163264Y-127451774D01*
X68873205Y-127434228D01*
X68858340Y-127432423D01*
X68576201Y-127380719D01*
X68561663Y-127377135D01*
X68287832Y-127291806D01*
X68273831Y-127286497D01*
X68012263Y-127168775D01*
X67999004Y-127161816D01*
X67753540Y-127013428D01*
X67741217Y-127004922D01*
X67515426Y-126828026D01*
X67504218Y-126818096D01*
X67301403Y-126615281D01*
X67291473Y-126604073D01*
X67114573Y-126378276D01*
X67106075Y-126365965D01*
X66957680Y-126120489D01*
X66950727Y-126107243D01*
X66833000Y-125845663D01*
X66827696Y-125831677D01*
X66742363Y-125557835D01*
X66738780Y-125543298D01*
X66687076Y-125261159D01*
X66685271Y-125246294D01*
X66676848Y-125107051D01*
X66672581Y-125036504D01*
X91200000Y-125036504D01*
X91200000Y-125285000D01*
X91900000Y-125285000D01*
X91900000Y-125785000D01*
X91200000Y-125785000D01*
X91200000Y-126033495D01*
X91238427Y-126226681D01*
X91238430Y-126226693D01*
X91313807Y-126408671D01*
X91313814Y-126408684D01*
X91423248Y-126572462D01*
X91423251Y-126572466D01*
X91562533Y-126711748D01*
X91562537Y-126711751D01*
X91726315Y-126821185D01*
X91726328Y-126821192D01*
X91908308Y-126896569D01*
X91950000Y-126904862D01*
X91950000Y-126101988D01*
X91959940Y-126119205D01*
X92015795Y-126175060D01*
X92084204Y-126214556D01*
X92160504Y-126235000D01*
X92239496Y-126235000D01*
X92315796Y-126214556D01*
X92384205Y-126175060D01*
X92440060Y-126119205D01*
X92450000Y-126101988D01*
X92450000Y-126904862D01*
X92491690Y-126896569D01*
X92491692Y-126896569D01*
X92673671Y-126821192D01*
X92673684Y-126821185D01*
X92837462Y-126711751D01*
X92837466Y-126711748D01*
X92976748Y-126572466D01*
X92976751Y-126572462D01*
X93086185Y-126408684D01*
X93086192Y-126408671D01*
X93161569Y-126226693D01*
X93161572Y-126226681D01*
X93199999Y-126033495D01*
X93200000Y-126033492D01*
X93200000Y-125785000D01*
X92500000Y-125785000D01*
X92500000Y-125285000D01*
X93200000Y-125285000D01*
X93200000Y-125036508D01*
X93199999Y-125036504D01*
X99840000Y-125036504D01*
X99840000Y-125285000D01*
X100540000Y-125285000D01*
X100540000Y-125785000D01*
X99840000Y-125785000D01*
X99840000Y-126033495D01*
X99878427Y-126226681D01*
X99878430Y-126226693D01*
X99953807Y-126408671D01*
X99953814Y-126408684D01*
X100063248Y-126572462D01*
X100063251Y-126572466D01*
X100202533Y-126711748D01*
X100202537Y-126711751D01*
X100366315Y-126821185D01*
X100366328Y-126821192D01*
X100548308Y-126896569D01*
X100590000Y-126904862D01*
X100590000Y-126101988D01*
X100599940Y-126119205D01*
X100655795Y-126175060D01*
X100724204Y-126214556D01*
X100800504Y-126235000D01*
X100879496Y-126235000D01*
X100955796Y-126214556D01*
X101024205Y-126175060D01*
X101080060Y-126119205D01*
X101090000Y-126101988D01*
X101090000Y-126904862D01*
X101131690Y-126896569D01*
X101131692Y-126896569D01*
X101313671Y-126821192D01*
X101313684Y-126821185D01*
X101477462Y-126711751D01*
X101477466Y-126711748D01*
X101616748Y-126572466D01*
X101616751Y-126572462D01*
X101726185Y-126408684D01*
X101726192Y-126408671D01*
X101801569Y-126226693D01*
X101801572Y-126226681D01*
X101839999Y-126033495D01*
X101840000Y-126033492D01*
X101840000Y-125785000D01*
X101140000Y-125785000D01*
X101140000Y-125285000D01*
X101840000Y-125285000D01*
X101840000Y-125036508D01*
X101839999Y-125036504D01*
X101801572Y-124843318D01*
X101801569Y-124843306D01*
X101726192Y-124661328D01*
X101726185Y-124661315D01*
X101616751Y-124497537D01*
X101616748Y-124497533D01*
X101477466Y-124358251D01*
X101477462Y-124358248D01*
X101313684Y-124248814D01*
X101313671Y-124248807D01*
X101131691Y-124173429D01*
X101131683Y-124173427D01*
X101090000Y-124165135D01*
X101090000Y-124968011D01*
X101080060Y-124950795D01*
X101024205Y-124894940D01*
X100955796Y-124855444D01*
X100879496Y-124835000D01*
X100800504Y-124835000D01*
X100724204Y-124855444D01*
X100655795Y-124894940D01*
X100599940Y-124950795D01*
X100590000Y-124968011D01*
X100590000Y-124165136D01*
X100589999Y-124165135D01*
X100548316Y-124173427D01*
X100548308Y-124173429D01*
X100366328Y-124248807D01*
X100366315Y-124248814D01*
X100202537Y-124358248D01*
X100202533Y-124358251D01*
X100063251Y-124497533D01*
X100063248Y-124497537D01*
X99953814Y-124661315D01*
X99953807Y-124661328D01*
X99878430Y-124843306D01*
X99878427Y-124843318D01*
X99840000Y-125036504D01*
X93199999Y-125036504D01*
X93161572Y-124843318D01*
X93161569Y-124843306D01*
X93086192Y-124661328D01*
X93086185Y-124661315D01*
X92976751Y-124497537D01*
X92976748Y-124497533D01*
X92837466Y-124358251D01*
X92837462Y-124358248D01*
X92673684Y-124248814D01*
X92673671Y-124248807D01*
X92491691Y-124173429D01*
X92491683Y-124173427D01*
X92450000Y-124165135D01*
X92450000Y-124968011D01*
X92440060Y-124950795D01*
X92384205Y-124894940D01*
X92315796Y-124855444D01*
X92239496Y-124835000D01*
X92160504Y-124835000D01*
X92084204Y-124855444D01*
X92015795Y-124894940D01*
X91959940Y-124950795D01*
X91950000Y-124968011D01*
X91950000Y-124165136D01*
X91949999Y-124165135D01*
X91908316Y-124173427D01*
X91908308Y-124173429D01*
X91726328Y-124248807D01*
X91726315Y-124248814D01*
X91562537Y-124358248D01*
X91562533Y-124358251D01*
X91423251Y-124497533D01*
X91423248Y-124497537D01*
X91313814Y-124661315D01*
X91313807Y-124661328D01*
X91238430Y-124843306D01*
X91238427Y-124843318D01*
X91200000Y-125036504D01*
X66672581Y-125036504D01*
X66667726Y-124956236D01*
X66667500Y-124948749D01*
X66667500Y-123460818D01*
X78991000Y-123460818D01*
X78991000Y-123681181D01*
X79025473Y-123898835D01*
X79093567Y-124108410D01*
X79193611Y-124304756D01*
X79239932Y-124368513D01*
X79948861Y-123659584D01*
X79971667Y-123744694D01*
X80030910Y-123847306D01*
X80114694Y-123931090D01*
X80217306Y-123990333D01*
X80302414Y-124013137D01*
X79593485Y-124722065D01*
X79593485Y-124722066D01*
X79657243Y-124768388D01*
X79853589Y-124868432D01*
X80063164Y-124936526D01*
X80280819Y-124971000D01*
X80501181Y-124971000D01*
X80718835Y-124936526D01*
X80792826Y-124912486D01*
X80928410Y-124868432D01*
X81124760Y-124768386D01*
X81188513Y-124722066D01*
X81188514Y-124722066D01*
X80479585Y-124013138D01*
X80564694Y-123990333D01*
X80667306Y-123931090D01*
X80751090Y-123847306D01*
X80810333Y-123744694D01*
X80833137Y-123659585D01*
X81542066Y-124368514D01*
X81542066Y-124368513D01*
X81588386Y-124304760D01*
X81688432Y-124108410D01*
X81756526Y-123898835D01*
X81791000Y-123681181D01*
X81791000Y-123460818D01*
X81756526Y-123243164D01*
X81688432Y-123033589D01*
X81588388Y-122837243D01*
X81542066Y-122773485D01*
X81542065Y-122773485D01*
X80833137Y-123482413D01*
X80810333Y-123397306D01*
X80751090Y-123294694D01*
X80667306Y-123210910D01*
X80564694Y-123151667D01*
X80479583Y-123128861D01*
X81188513Y-122419932D01*
X81124756Y-122373611D01*
X80928410Y-122273567D01*
X80718835Y-122205473D01*
X80501181Y-122171000D01*
X80280819Y-122171000D01*
X80063164Y-122205473D01*
X79853589Y-122273567D01*
X79657233Y-122373616D01*
X79593485Y-122419931D01*
X79593485Y-122419932D01*
X80302414Y-123128861D01*
X80217306Y-123151667D01*
X80114694Y-123210910D01*
X80030910Y-123294694D01*
X79971667Y-123397306D01*
X79948861Y-123482414D01*
X79239932Y-122773485D01*
X79239931Y-122773485D01*
X79193616Y-122837233D01*
X79093567Y-123033589D01*
X79025473Y-123243164D01*
X78991000Y-123460818D01*
X66667500Y-123460818D01*
X66667500Y-120021635D01*
X71759500Y-120021635D01*
X71759500Y-121425370D01*
X71759501Y-121425376D01*
X71765908Y-121484983D01*
X71816202Y-121619828D01*
X71816206Y-121619835D01*
X71902452Y-121735044D01*
X71902455Y-121735047D01*
X72017664Y-121821293D01*
X72017671Y-121821297D01*
X72152517Y-121871591D01*
X72152516Y-121871591D01*
X72159444Y-121872335D01*
X72212127Y-121878000D01*
X73615872Y-121877999D01*
X73675483Y-121871591D01*
X73810331Y-121821296D01*
X73925546Y-121735046D01*
X74011796Y-121619831D01*
X74062091Y-121484983D01*
X74068500Y-121425373D01*
X74068499Y-121266804D01*
X74088183Y-121199768D01*
X74104818Y-121179125D01*
X74514000Y-120769943D01*
X74514000Y-120776161D01*
X74541259Y-120877894D01*
X74593920Y-120969106D01*
X74668394Y-121043580D01*
X74759606Y-121096241D01*
X74861339Y-121123500D01*
X74867554Y-121123500D01*
X74292602Y-121698449D01*
X74292603Y-121698450D01*
X74309165Y-121710485D01*
X74309179Y-121710493D01*
X74471012Y-121792950D01*
X74643774Y-121849084D01*
X74823179Y-121877500D01*
X75004821Y-121877500D01*
X75184225Y-121849084D01*
X75356984Y-121792951D01*
X75518831Y-121710486D01*
X75535395Y-121698449D01*
X75478265Y-121641319D01*
X74960447Y-121123500D01*
X74966661Y-121123500D01*
X75068394Y-121096241D01*
X75159606Y-121043580D01*
X75234080Y-120969106D01*
X75286741Y-120877894D01*
X75314000Y-120776161D01*
X75314000Y-120769946D01*
X75888949Y-121344895D01*
X75900986Y-121328331D01*
X75983451Y-121166484D01*
X76039584Y-120993725D01*
X76068000Y-120814321D01*
X76068000Y-120706504D01*
X91200000Y-120706504D01*
X91200000Y-121105000D01*
X91900000Y-121105000D01*
X91900000Y-121605000D01*
X91200000Y-121605000D01*
X91200000Y-122003495D01*
X91238427Y-122196681D01*
X91238430Y-122196693D01*
X91313807Y-122378671D01*
X91313814Y-122378684D01*
X91423248Y-122542462D01*
X91423251Y-122542466D01*
X91562533Y-122681748D01*
X91562537Y-122681751D01*
X91726315Y-122791185D01*
X91726328Y-122791192D01*
X91908308Y-122866569D01*
X91950000Y-122874862D01*
X91950000Y-122071988D01*
X91959940Y-122089205D01*
X92015795Y-122145060D01*
X92084204Y-122184556D01*
X92160504Y-122205000D01*
X92239496Y-122205000D01*
X92315796Y-122184556D01*
X92384205Y-122145060D01*
X92440060Y-122089205D01*
X92450000Y-122071988D01*
X92450000Y-122874862D01*
X92491690Y-122866569D01*
X92491692Y-122866569D01*
X92673671Y-122791192D01*
X92673684Y-122791185D01*
X92837462Y-122681751D01*
X92837466Y-122681748D01*
X92976748Y-122542466D01*
X92976751Y-122542462D01*
X93086185Y-122378684D01*
X93086186Y-122378682D01*
X93090129Y-122369163D01*
X93133968Y-122314757D01*
X93200261Y-122292689D01*
X93267961Y-122309965D01*
X93273400Y-122313647D01*
X93276634Y-122315514D01*
X93276635Y-122315515D01*
X93407865Y-122391281D01*
X93554234Y-122430500D01*
X93554236Y-122430500D01*
X93705764Y-122430500D01*
X93705766Y-122430500D01*
X93852135Y-122391281D01*
X93983365Y-122315515D01*
X94090515Y-122208365D01*
X94166281Y-122077135D01*
X94205500Y-121930766D01*
X94205500Y-121779234D01*
X98834500Y-121779234D01*
X98834500Y-121930765D01*
X98873719Y-122077136D01*
X98898361Y-122119816D01*
X98949485Y-122208365D01*
X99056635Y-122315515D01*
X99187865Y-122391281D01*
X99334234Y-122430500D01*
X99334236Y-122430500D01*
X99485764Y-122430500D01*
X99485766Y-122430500D01*
X99632135Y-122391281D01*
X99763365Y-122315515D01*
X99763366Y-122315513D01*
X99770403Y-122311451D01*
X99771676Y-122313656D01*
X99824956Y-122293043D01*
X99893405Y-122307063D01*
X99943407Y-122355864D01*
X99949867Y-122369157D01*
X99953809Y-122378674D01*
X99953814Y-122378684D01*
X100063248Y-122542462D01*
X100063251Y-122542466D01*
X100202533Y-122681748D01*
X100202537Y-122681751D01*
X100366315Y-122791185D01*
X100366328Y-122791192D01*
X100548308Y-122866569D01*
X100590000Y-122874862D01*
X100590000Y-122071988D01*
X100599940Y-122089205D01*
X100655795Y-122145060D01*
X100724204Y-122184556D01*
X100800504Y-122205000D01*
X100879496Y-122205000D01*
X100955796Y-122184556D01*
X101024205Y-122145060D01*
X101080060Y-122089205D01*
X101090000Y-122071988D01*
X101090000Y-122874862D01*
X101131690Y-122866569D01*
X101131692Y-122866569D01*
X101313671Y-122791192D01*
X101313684Y-122791185D01*
X101477462Y-122681751D01*
X101477466Y-122681748D01*
X101616748Y-122542466D01*
X101616751Y-122542462D01*
X101726185Y-122378684D01*
X101726192Y-122378671D01*
X101801569Y-122196693D01*
X101801572Y-122196681D01*
X101839999Y-122003495D01*
X101840000Y-122003492D01*
X101840000Y-121605000D01*
X101140000Y-121605000D01*
X101140000Y-121305713D01*
X106091500Y-121305713D01*
X106091500Y-121518286D01*
X106121942Y-121710493D01*
X106124754Y-121728243D01*
X106173413Y-121878000D01*
X106190444Y-121930414D01*
X106286951Y-122119820D01*
X106411890Y-122291786D01*
X106562213Y-122442109D01*
X106734182Y-122567050D01*
X106742946Y-122571516D01*
X106793742Y-122619491D01*
X106810536Y-122687312D01*
X106787998Y-122753447D01*
X106742946Y-122792484D01*
X106734182Y-122796949D01*
X106562213Y-122921890D01*
X106411890Y-123072213D01*
X106286951Y-123244179D01*
X106190444Y-123433585D01*
X106124753Y-123635760D01*
X106091500Y-123845713D01*
X106091500Y-124058286D01*
X106121676Y-124248814D01*
X106124754Y-124268243D01*
X106157334Y-124368514D01*
X106190444Y-124470414D01*
X106286951Y-124659820D01*
X106411890Y-124831786D01*
X106562213Y-124982109D01*
X106734179Y-125107048D01*
X106734181Y-125107049D01*
X106734184Y-125107051D01*
X106923588Y-125203557D01*
X107125757Y-125269246D01*
X107335713Y-125302500D01*
X107335714Y-125302500D01*
X107548286Y-125302500D01*
X107548287Y-125302500D01*
X107758243Y-125269246D01*
X107960412Y-125203557D01*
X108149816Y-125107051D01*
X108246911Y-125036508D01*
X108321786Y-124982109D01*
X108321788Y-124982106D01*
X108321792Y-124982104D01*
X108472104Y-124831792D01*
X108472106Y-124831788D01*
X108472109Y-124831786D01*
X108597048Y-124659820D01*
X108597047Y-124659820D01*
X108597051Y-124659816D01*
X108601514Y-124651054D01*
X108649488Y-124600259D01*
X108717308Y-124583463D01*
X108783444Y-124605999D01*
X108822486Y-124651056D01*
X108826951Y-124659820D01*
X108951890Y-124831786D01*
X109102213Y-124982109D01*
X109274179Y-125107048D01*
X109274181Y-125107049D01*
X109274184Y-125107051D01*
X109463588Y-125203557D01*
X109665757Y-125269246D01*
X109875713Y-125302500D01*
X109875714Y-125302500D01*
X110088286Y-125302500D01*
X110088287Y-125302500D01*
X110298243Y-125269246D01*
X110500412Y-125203557D01*
X110689816Y-125107051D01*
X110786911Y-125036508D01*
X110861786Y-124982109D01*
X110861788Y-124982106D01*
X110861792Y-124982104D01*
X111012104Y-124831792D01*
X111012106Y-124831788D01*
X111012109Y-124831786D01*
X111137048Y-124659820D01*
X111137047Y-124659820D01*
X111137051Y-124659816D01*
X111233557Y-124470412D01*
X111299246Y-124268243D01*
X111332500Y-124058287D01*
X111332500Y-123845713D01*
X111299246Y-123635757D01*
X111233557Y-123433588D01*
X111137051Y-123244184D01*
X111137049Y-123244181D01*
X111137048Y-123244179D01*
X111012109Y-123072213D01*
X110898569Y-122958673D01*
X110865084Y-122897350D01*
X110870068Y-122827658D01*
X110911940Y-122771725D01*
X110942915Y-122754810D01*
X111074331Y-122705796D01*
X111189546Y-122619546D01*
X111275796Y-122504331D01*
X111326091Y-122369483D01*
X111332500Y-122309873D01*
X111332499Y-120514128D01*
X111326091Y-120454517D01*
X111325627Y-120453274D01*
X111275797Y-120319671D01*
X111275793Y-120319664D01*
X111189547Y-120204455D01*
X111189544Y-120204452D01*
X111074335Y-120118206D01*
X111074328Y-120118202D01*
X110939482Y-120067908D01*
X110939483Y-120067908D01*
X110879883Y-120061501D01*
X110879881Y-120061500D01*
X110879873Y-120061500D01*
X110879864Y-120061500D01*
X109084129Y-120061500D01*
X109084123Y-120061501D01*
X109024516Y-120067908D01*
X108889671Y-120118202D01*
X108889664Y-120118206D01*
X108774455Y-120204452D01*
X108774452Y-120204455D01*
X108688206Y-120319664D01*
X108688203Y-120319669D01*
X108639189Y-120451083D01*
X108597317Y-120507016D01*
X108531853Y-120531433D01*
X108463580Y-120516581D01*
X108435326Y-120495430D01*
X108321786Y-120381890D01*
X108149820Y-120256951D01*
X107960414Y-120160444D01*
X107960413Y-120160443D01*
X107960412Y-120160443D01*
X107758243Y-120094754D01*
X107758241Y-120094753D01*
X107758240Y-120094753D01*
X107596957Y-120069208D01*
X107548287Y-120061500D01*
X107335713Y-120061500D01*
X107287042Y-120069208D01*
X107125760Y-120094753D01*
X106923585Y-120160444D01*
X106734179Y-120256951D01*
X106562213Y-120381890D01*
X106411890Y-120532213D01*
X106286951Y-120704179D01*
X106190444Y-120893585D01*
X106124753Y-121095760D01*
X106091500Y-121305713D01*
X101140000Y-121305713D01*
X101140000Y-121105000D01*
X101840000Y-121105000D01*
X101840000Y-120706508D01*
X101839999Y-120706504D01*
X101801572Y-120513318D01*
X101801569Y-120513306D01*
X101726192Y-120331328D01*
X101726185Y-120331315D01*
X101616751Y-120167537D01*
X101616748Y-120167533D01*
X101477466Y-120028251D01*
X101477462Y-120028248D01*
X101313684Y-119918814D01*
X101313671Y-119918807D01*
X101131691Y-119843429D01*
X101131683Y-119843427D01*
X101090000Y-119835135D01*
X101090000Y-120638011D01*
X101080060Y-120620795D01*
X101024205Y-120564940D01*
X100955796Y-120525444D01*
X100879496Y-120505000D01*
X100800504Y-120505000D01*
X100724204Y-120525444D01*
X100655795Y-120564940D01*
X100599940Y-120620795D01*
X100590000Y-120638011D01*
X100590000Y-119835136D01*
X100589999Y-119835135D01*
X100548316Y-119843427D01*
X100548308Y-119843429D01*
X100366328Y-119918807D01*
X100366315Y-119918814D01*
X100202537Y-120028248D01*
X100202533Y-120028251D01*
X100063251Y-120167533D01*
X100063248Y-120167537D01*
X99953814Y-120331315D01*
X99953807Y-120331328D01*
X99878430Y-120513306D01*
X99878427Y-120513318D01*
X99840000Y-120706504D01*
X99840000Y-121105000D01*
X100540000Y-121105000D01*
X100540000Y-121605000D01*
X100001784Y-121605000D01*
X99934745Y-121585315D01*
X99908240Y-121562397D01*
X99900382Y-121553367D01*
X99870515Y-121501635D01*
X99763365Y-121394485D01*
X99677473Y-121344895D01*
X99632136Y-121318719D01*
X99558950Y-121299109D01*
X99485766Y-121279500D01*
X99334234Y-121279500D01*
X99187863Y-121318719D01*
X99056635Y-121394485D01*
X99056632Y-121394487D01*
X98949487Y-121501632D01*
X98949485Y-121501635D01*
X98873719Y-121632863D01*
X98834500Y-121779234D01*
X94205500Y-121779234D01*
X94166281Y-121632865D01*
X94090515Y-121501635D01*
X93983365Y-121394485D01*
X93897473Y-121344895D01*
X93852136Y-121318719D01*
X93778950Y-121299109D01*
X93705766Y-121279500D01*
X93554234Y-121279500D01*
X93407863Y-121318719D01*
X93276635Y-121394485D01*
X93276632Y-121394487D01*
X93169487Y-121501632D01*
X93169483Y-121501638D01*
X93145603Y-121543000D01*
X93095036Y-121591216D01*
X93038216Y-121605000D01*
X92500000Y-121605000D01*
X92500000Y-121105000D01*
X93200000Y-121105000D01*
X93200000Y-120706508D01*
X93199999Y-120706504D01*
X93161572Y-120513318D01*
X93161569Y-120513306D01*
X93086192Y-120331328D01*
X93086185Y-120331315D01*
X92976751Y-120167537D01*
X92976748Y-120167533D01*
X92837466Y-120028251D01*
X92837462Y-120028248D01*
X92673684Y-119918814D01*
X92673671Y-119918807D01*
X92491691Y-119843429D01*
X92491683Y-119843427D01*
X92450000Y-119835135D01*
X92450000Y-120638011D01*
X92440060Y-120620795D01*
X92384205Y-120564940D01*
X92315796Y-120525444D01*
X92239496Y-120505000D01*
X92160504Y-120505000D01*
X92084204Y-120525444D01*
X92015795Y-120564940D01*
X91959940Y-120620795D01*
X91950000Y-120638011D01*
X91950000Y-119835136D01*
X91949999Y-119835135D01*
X91908316Y-119843427D01*
X91908308Y-119843429D01*
X91726328Y-119918807D01*
X91726315Y-119918814D01*
X91562537Y-120028248D01*
X91562533Y-120028251D01*
X91423251Y-120167533D01*
X91423248Y-120167537D01*
X91313814Y-120331315D01*
X91313807Y-120331328D01*
X91238430Y-120513306D01*
X91238427Y-120513318D01*
X91200000Y-120706504D01*
X76068000Y-120706504D01*
X76068000Y-120632678D01*
X76039584Y-120453274D01*
X75983450Y-120280512D01*
X75900993Y-120118679D01*
X75900985Y-120118665D01*
X75888950Y-120102103D01*
X75888949Y-120102102D01*
X75314000Y-120677052D01*
X75314000Y-120670839D01*
X75286741Y-120569106D01*
X75234080Y-120477894D01*
X75159606Y-120403420D01*
X75068394Y-120350759D01*
X74966661Y-120323500D01*
X74960447Y-120323500D01*
X75535396Y-119748549D01*
X75535395Y-119748548D01*
X75518834Y-119736514D01*
X75518830Y-119736512D01*
X75356984Y-119654048D01*
X75184225Y-119597915D01*
X75004821Y-119569500D01*
X74823179Y-119569500D01*
X74643774Y-119597915D01*
X74471015Y-119654048D01*
X74309170Y-119736512D01*
X74309161Y-119736518D01*
X74292603Y-119748548D01*
X74292602Y-119748549D01*
X74867554Y-120323500D01*
X74861339Y-120323500D01*
X74759606Y-120350759D01*
X74668394Y-120403420D01*
X74593920Y-120477894D01*
X74541259Y-120569106D01*
X74514000Y-120670839D01*
X74514000Y-120677054D01*
X74104818Y-120267872D01*
X74071333Y-120206549D01*
X74068499Y-120180191D01*
X74068499Y-120021629D01*
X74068498Y-120021623D01*
X74068497Y-120021616D01*
X74062091Y-119962017D01*
X74050195Y-119930123D01*
X74016262Y-119839142D01*
X74011797Y-119827171D01*
X74011793Y-119827164D01*
X73925547Y-119711955D01*
X73925544Y-119711952D01*
X73810335Y-119625706D01*
X73810328Y-119625702D01*
X73675482Y-119575408D01*
X73675483Y-119575408D01*
X73615883Y-119569001D01*
X73615881Y-119569000D01*
X73615873Y-119569000D01*
X73615864Y-119569000D01*
X72212129Y-119569000D01*
X72212123Y-119569001D01*
X72152516Y-119575408D01*
X72017671Y-119625702D01*
X72017664Y-119625706D01*
X71902455Y-119711952D01*
X71902452Y-119711955D01*
X71816206Y-119827164D01*
X71816202Y-119827171D01*
X71765908Y-119962017D01*
X71759966Y-120017289D01*
X71759501Y-120021623D01*
X71759500Y-120021635D01*
X66667500Y-120021635D01*
X66667500Y-118920153D01*
X95294500Y-118920153D01*
X95294500Y-119077846D01*
X95325261Y-119232489D01*
X95325264Y-119232501D01*
X95385602Y-119378172D01*
X95385609Y-119378185D01*
X95473210Y-119509288D01*
X95473213Y-119509292D01*
X95584707Y-119620786D01*
X95584711Y-119620789D01*
X95715814Y-119708390D01*
X95715827Y-119708397D01*
X95838442Y-119759185D01*
X95861503Y-119768737D01*
X96016153Y-119799499D01*
X96016156Y-119799500D01*
X96016158Y-119799500D01*
X96173844Y-119799500D01*
X96173845Y-119799499D01*
X96328497Y-119768737D01*
X96387228Y-119744409D01*
X96456695Y-119736941D01*
X96519174Y-119768216D01*
X96554827Y-119828304D01*
X96556296Y-119834779D01*
X96575261Y-119930123D01*
X96575264Y-119930133D01*
X96635602Y-120075804D01*
X96635609Y-120075817D01*
X96723210Y-120206920D01*
X96723213Y-120206924D01*
X96834707Y-120318418D01*
X96834711Y-120318421D01*
X96965814Y-120406022D01*
X96965827Y-120406029D01*
X97111498Y-120466367D01*
X97111503Y-120466369D01*
X97257602Y-120495430D01*
X97266153Y-120497131D01*
X97266156Y-120497132D01*
X97266158Y-120497132D01*
X97423844Y-120497132D01*
X97423845Y-120497131D01*
X97578497Y-120466369D01*
X97724179Y-120406026D01*
X97855289Y-120318421D01*
X97966789Y-120206921D01*
X98054394Y-120075811D01*
X98114737Y-119930129D01*
X98145500Y-119775474D01*
X98145500Y-119617790D01*
X98145500Y-119617787D01*
X98145499Y-119617785D01*
X98139146Y-119585846D01*
X98114737Y-119463135D01*
X98114735Y-119463130D01*
X98064777Y-119342518D01*
X98054395Y-119317456D01*
X98054394Y-119317453D01*
X98054392Y-119317450D01*
X98054390Y-119317446D01*
X98043503Y-119301153D01*
X103339500Y-119301153D01*
X103339500Y-119458846D01*
X103370261Y-119613489D01*
X103370264Y-119613501D01*
X103430602Y-119759172D01*
X103430609Y-119759185D01*
X103518210Y-119890288D01*
X103518213Y-119890292D01*
X103629707Y-120001786D01*
X103629711Y-120001789D01*
X103760814Y-120089390D01*
X103760827Y-120089397D01*
X103906498Y-120149735D01*
X103906503Y-120149737D01*
X104059605Y-120180191D01*
X104061153Y-120180499D01*
X104061156Y-120180500D01*
X104061158Y-120180500D01*
X104218844Y-120180500D01*
X104218845Y-120180499D01*
X104373497Y-120149737D01*
X104519179Y-120089394D01*
X104650289Y-120001789D01*
X104761789Y-119890289D01*
X104849394Y-119759179D01*
X104853798Y-119748548D01*
X104876331Y-119694147D01*
X104909737Y-119613497D01*
X104940500Y-119458842D01*
X104940500Y-119301158D01*
X104940500Y-119301155D01*
X104940499Y-119301153D01*
X111340500Y-119301153D01*
X111340500Y-119458846D01*
X111371261Y-119613489D01*
X111371264Y-119613501D01*
X111431602Y-119759172D01*
X111431609Y-119759185D01*
X111519210Y-119890288D01*
X111519213Y-119890292D01*
X111630707Y-120001786D01*
X111630711Y-120001789D01*
X111761814Y-120089390D01*
X111761827Y-120089397D01*
X111907498Y-120149735D01*
X111907503Y-120149737D01*
X112060605Y-120180191D01*
X112062153Y-120180499D01*
X112062156Y-120180500D01*
X112062158Y-120180500D01*
X112219844Y-120180500D01*
X112219845Y-120180499D01*
X112374497Y-120149737D01*
X112520179Y-120089394D01*
X112651289Y-120001789D01*
X112762789Y-119890289D01*
X112850394Y-119759179D01*
X112854798Y-119748548D01*
X112877331Y-119694147D01*
X112910737Y-119613497D01*
X112941500Y-119458842D01*
X112941500Y-119428153D01*
X117182500Y-119428153D01*
X117182500Y-119585846D01*
X117213261Y-119740489D01*
X117213264Y-119740501D01*
X117273602Y-119886172D01*
X117273609Y-119886185D01*
X117361210Y-120017288D01*
X117361213Y-120017292D01*
X117472707Y-120128786D01*
X117472711Y-120128789D01*
X117603814Y-120216390D01*
X117603827Y-120216397D01*
X117728101Y-120267872D01*
X117749503Y-120276737D01*
X117904153Y-120307499D01*
X117904156Y-120307500D01*
X117904158Y-120307500D01*
X118061844Y-120307500D01*
X118061845Y-120307499D01*
X118216497Y-120276737D01*
X118362179Y-120216394D01*
X118493289Y-120128789D01*
X118604789Y-120017289D01*
X118692394Y-119886179D01*
X118752737Y-119740497D01*
X118783500Y-119585842D01*
X118783500Y-119428158D01*
X118783500Y-119428155D01*
X118783499Y-119428153D01*
X122643500Y-119428153D01*
X122643500Y-119585846D01*
X122674261Y-119740489D01*
X122674264Y-119740501D01*
X122734602Y-119886172D01*
X122734609Y-119886185D01*
X122822210Y-120017288D01*
X122822213Y-120017292D01*
X122933707Y-120128786D01*
X122933711Y-120128789D01*
X123064814Y-120216390D01*
X123064827Y-120216397D01*
X123189101Y-120267872D01*
X123210503Y-120276737D01*
X123365153Y-120307499D01*
X123365156Y-120307500D01*
X123365158Y-120307500D01*
X123522844Y-120307500D01*
X123522845Y-120307499D01*
X123677497Y-120276737D01*
X123823179Y-120216394D01*
X123954289Y-120128789D01*
X124065789Y-120017289D01*
X124153394Y-119886179D01*
X124213737Y-119740497D01*
X124244500Y-119585842D01*
X124244500Y-119428158D01*
X124244500Y-119428155D01*
X124244499Y-119428153D01*
X124213738Y-119273510D01*
X124213737Y-119273503D01*
X124196749Y-119232489D01*
X124153397Y-119127827D01*
X124153390Y-119127814D01*
X124065789Y-118996711D01*
X124065786Y-118996707D01*
X123954292Y-118885213D01*
X123954288Y-118885210D01*
X123823185Y-118797609D01*
X123823172Y-118797602D01*
X123677501Y-118737264D01*
X123677489Y-118737261D01*
X123522845Y-118706500D01*
X123522842Y-118706500D01*
X123365158Y-118706500D01*
X123365155Y-118706500D01*
X123210510Y-118737261D01*
X123210498Y-118737264D01*
X123064827Y-118797602D01*
X123064814Y-118797609D01*
X122933711Y-118885210D01*
X122933707Y-118885213D01*
X122822213Y-118996707D01*
X122822210Y-118996711D01*
X122734609Y-119127814D01*
X122734602Y-119127827D01*
X122674264Y-119273498D01*
X122674261Y-119273510D01*
X122643500Y-119428153D01*
X118783499Y-119428153D01*
X118752738Y-119273510D01*
X118752737Y-119273503D01*
X118735749Y-119232489D01*
X118692397Y-119127827D01*
X118692390Y-119127814D01*
X118604789Y-118996711D01*
X118604786Y-118996707D01*
X118493292Y-118885213D01*
X118493288Y-118885210D01*
X118362185Y-118797609D01*
X118362172Y-118797602D01*
X118216501Y-118737264D01*
X118216489Y-118737261D01*
X118061845Y-118706500D01*
X118061842Y-118706500D01*
X117904158Y-118706500D01*
X117904155Y-118706500D01*
X117749510Y-118737261D01*
X117749498Y-118737264D01*
X117603827Y-118797602D01*
X117603814Y-118797609D01*
X117472711Y-118885210D01*
X117472707Y-118885213D01*
X117361213Y-118996707D01*
X117361210Y-118996711D01*
X117273609Y-119127814D01*
X117273602Y-119127827D01*
X117213264Y-119273498D01*
X117213261Y-119273510D01*
X117182500Y-119428153D01*
X112941500Y-119428153D01*
X112941500Y-119301158D01*
X112941500Y-119301155D01*
X112941499Y-119301153D01*
X112927841Y-119232489D01*
X112910737Y-119146503D01*
X112850669Y-119001484D01*
X112850397Y-119000827D01*
X112850390Y-119000814D01*
X112762789Y-118869711D01*
X112762786Y-118869707D01*
X112651292Y-118758213D01*
X112651288Y-118758210D01*
X112520185Y-118670609D01*
X112520172Y-118670602D01*
X112374501Y-118610264D01*
X112374489Y-118610261D01*
X112219845Y-118579500D01*
X112219842Y-118579500D01*
X112062158Y-118579500D01*
X112062155Y-118579500D01*
X111907510Y-118610261D01*
X111907498Y-118610264D01*
X111761827Y-118670602D01*
X111761814Y-118670609D01*
X111630711Y-118758210D01*
X111630707Y-118758213D01*
X111519213Y-118869707D01*
X111519210Y-118869711D01*
X111431609Y-119000814D01*
X111431602Y-119000827D01*
X111371264Y-119146498D01*
X111371261Y-119146510D01*
X111340500Y-119301153D01*
X104940499Y-119301153D01*
X104926841Y-119232489D01*
X104909737Y-119146503D01*
X104849669Y-119001484D01*
X104849397Y-119000827D01*
X104849390Y-119000814D01*
X104761789Y-118869711D01*
X104761786Y-118869707D01*
X104650292Y-118758213D01*
X104650288Y-118758210D01*
X104519185Y-118670609D01*
X104519172Y-118670602D01*
X104373501Y-118610264D01*
X104373489Y-118610261D01*
X104218845Y-118579500D01*
X104218842Y-118579500D01*
X104061158Y-118579500D01*
X104061155Y-118579500D01*
X103906510Y-118610261D01*
X103906498Y-118610264D01*
X103760827Y-118670602D01*
X103760814Y-118670609D01*
X103629711Y-118758210D01*
X103629707Y-118758213D01*
X103518213Y-118869707D01*
X103518210Y-118869711D01*
X103430609Y-119000814D01*
X103430602Y-119000827D01*
X103370264Y-119146498D01*
X103370261Y-119146510D01*
X103339500Y-119301153D01*
X98043503Y-119301153D01*
X97966789Y-119186343D01*
X97966786Y-119186339D01*
X97855292Y-119074845D01*
X97800608Y-119038306D01*
X97755804Y-118984693D01*
X97745500Y-118935204D01*
X97745500Y-118920155D01*
X97745499Y-118920153D01*
X97738549Y-118885213D01*
X97714737Y-118765503D01*
X97693410Y-118714014D01*
X97654397Y-118619827D01*
X97654390Y-118619814D01*
X97566789Y-118488711D01*
X97566786Y-118488707D01*
X97455292Y-118377213D01*
X97455288Y-118377210D01*
X97324185Y-118289609D01*
X97324172Y-118289602D01*
X97178501Y-118229264D01*
X97178489Y-118229261D01*
X97023845Y-118198500D01*
X97023842Y-118198500D01*
X96866158Y-118198500D01*
X96866155Y-118198500D01*
X96711510Y-118229261D01*
X96711498Y-118229264D01*
X96567452Y-118288930D01*
X96497983Y-118296399D01*
X96472548Y-118288930D01*
X96328501Y-118229264D01*
X96328489Y-118229261D01*
X96173845Y-118198500D01*
X96173842Y-118198500D01*
X96016158Y-118198500D01*
X96016155Y-118198500D01*
X95861510Y-118229261D01*
X95861498Y-118229264D01*
X95715827Y-118289602D01*
X95715814Y-118289609D01*
X95584711Y-118377210D01*
X95584707Y-118377213D01*
X95473213Y-118488707D01*
X95473210Y-118488711D01*
X95385609Y-118619814D01*
X95385602Y-118619827D01*
X95325264Y-118765498D01*
X95325261Y-118765510D01*
X95294500Y-118920153D01*
X66667500Y-118920153D01*
X66667500Y-117237778D01*
X79879500Y-117237778D01*
X79879500Y-117458221D01*
X79913985Y-117675952D01*
X79982103Y-117885603D01*
X79982104Y-117885606D01*
X80082187Y-118082025D01*
X80211752Y-118260358D01*
X80211756Y-118260363D01*
X80367636Y-118416243D01*
X80367641Y-118416247D01*
X80523192Y-118529260D01*
X80545978Y-118545815D01*
X80672459Y-118610261D01*
X80742393Y-118645895D01*
X80742396Y-118645896D01*
X80818435Y-118670602D01*
X80952049Y-118714015D01*
X81169778Y-118748500D01*
X81169779Y-118748500D01*
X81390221Y-118748500D01*
X81390222Y-118748500D01*
X81607951Y-118714015D01*
X81817606Y-118645895D01*
X82014022Y-118545815D01*
X82192365Y-118416242D01*
X82348242Y-118260365D01*
X82477815Y-118082022D01*
X82577895Y-117885606D01*
X82646015Y-117675951D01*
X82680500Y-117458222D01*
X82680500Y-117237778D01*
X82646015Y-117020049D01*
X82577895Y-116810394D01*
X82577895Y-116810393D01*
X82543237Y-116742375D01*
X82477815Y-116613978D01*
X82461260Y-116591192D01*
X82348247Y-116435641D01*
X82348243Y-116435636D01*
X82192363Y-116279756D01*
X82192358Y-116279752D01*
X82014025Y-116150187D01*
X82014024Y-116150186D01*
X82014022Y-116150185D01*
X81951096Y-116118122D01*
X81817606Y-116050104D01*
X81817603Y-116050103D01*
X81607952Y-115981985D01*
X81499086Y-115964742D01*
X81390222Y-115947500D01*
X81169778Y-115947500D01*
X81097201Y-115958995D01*
X80952047Y-115981985D01*
X80742396Y-116050103D01*
X80742393Y-116050104D01*
X80545974Y-116150187D01*
X80367641Y-116279752D01*
X80367636Y-116279756D01*
X80211756Y-116435636D01*
X80211752Y-116435641D01*
X80082187Y-116613974D01*
X79982104Y-116810393D01*
X79982103Y-116810396D01*
X79913985Y-117020047D01*
X79879500Y-117237778D01*
X66667500Y-117237778D01*
X66667500Y-114221153D01*
X69303500Y-114221153D01*
X69303500Y-114378846D01*
X69334261Y-114533489D01*
X69334264Y-114533501D01*
X69394602Y-114679172D01*
X69394609Y-114679185D01*
X69482210Y-114810288D01*
X69482213Y-114810292D01*
X69593707Y-114921786D01*
X69593711Y-114921789D01*
X69724814Y-115009390D01*
X69724827Y-115009397D01*
X69870498Y-115069735D01*
X69870503Y-115069737D01*
X70025153Y-115100499D01*
X70025156Y-115100500D01*
X70025158Y-115100500D01*
X70182844Y-115100500D01*
X70182845Y-115100499D01*
X70337497Y-115069737D01*
X70483179Y-115009394D01*
X70614289Y-114921789D01*
X70725789Y-114810289D01*
X70813394Y-114679179D01*
X70873737Y-114533497D01*
X70904500Y-114378842D01*
X70904500Y-114221158D01*
X70904500Y-114221155D01*
X70904499Y-114221153D01*
X70873738Y-114066510D01*
X70873737Y-114066503D01*
X70856749Y-114025489D01*
X70813397Y-113920827D01*
X70813390Y-113920814D01*
X70725789Y-113789711D01*
X70725786Y-113789707D01*
X70649232Y-113713153D01*
X112610500Y-113713153D01*
X112610500Y-113870846D01*
X112641261Y-114025489D01*
X112641264Y-114025501D01*
X112701602Y-114171172D01*
X112701609Y-114171185D01*
X112789210Y-114302288D01*
X112789213Y-114302292D01*
X112900707Y-114413786D01*
X112900711Y-114413789D01*
X113031814Y-114501390D01*
X113031827Y-114501397D01*
X113177498Y-114561735D01*
X113177503Y-114561737D01*
X113332153Y-114592499D01*
X113332156Y-114592500D01*
X113332158Y-114592500D01*
X113489844Y-114592500D01*
X113489845Y-114592499D01*
X113644497Y-114561737D01*
X113790179Y-114501394D01*
X113921289Y-114413789D01*
X114032789Y-114302289D01*
X114120394Y-114171179D01*
X114180737Y-114025497D01*
X114211500Y-113870842D01*
X114211500Y-113713158D01*
X114211500Y-113713155D01*
X114211499Y-113713153D01*
X114204549Y-113678213D01*
X114180737Y-113558503D01*
X114164605Y-113519557D01*
X114120397Y-113412827D01*
X114120390Y-113412814D01*
X114032789Y-113281711D01*
X114032786Y-113281707D01*
X113921292Y-113170213D01*
X113921288Y-113170210D01*
X113790185Y-113082609D01*
X113790172Y-113082602D01*
X113644501Y-113022264D01*
X113644489Y-113022261D01*
X113489845Y-112991500D01*
X113489842Y-112991500D01*
X113332158Y-112991500D01*
X113332155Y-112991500D01*
X113177510Y-113022261D01*
X113177498Y-113022264D01*
X113031827Y-113082602D01*
X113031814Y-113082609D01*
X112900711Y-113170210D01*
X112900707Y-113170213D01*
X112789213Y-113281707D01*
X112789210Y-113281711D01*
X112701609Y-113412814D01*
X112701602Y-113412827D01*
X112641264Y-113558498D01*
X112641261Y-113558510D01*
X112610500Y-113713153D01*
X70649232Y-113713153D01*
X70614292Y-113678213D01*
X70614288Y-113678210D01*
X70483185Y-113590609D01*
X70483172Y-113590602D01*
X70337501Y-113530264D01*
X70337489Y-113530261D01*
X70182845Y-113499500D01*
X70182842Y-113499500D01*
X70025158Y-113499500D01*
X70025155Y-113499500D01*
X69870510Y-113530261D01*
X69870498Y-113530264D01*
X69724827Y-113590602D01*
X69724814Y-113590609D01*
X69593711Y-113678210D01*
X69593707Y-113678213D01*
X69482213Y-113789707D01*
X69482210Y-113789711D01*
X69394609Y-113920814D01*
X69394602Y-113920827D01*
X69334264Y-114066498D01*
X69334261Y-114066510D01*
X69303500Y-114221153D01*
X66667500Y-114221153D01*
X66667500Y-112161713D01*
X84501500Y-112161713D01*
X84501500Y-112374287D01*
X84534754Y-112584243D01*
X84597803Y-112778288D01*
X84600444Y-112786414D01*
X84696951Y-112975820D01*
X84821890Y-113147786D01*
X84972213Y-113298109D01*
X85144179Y-113423048D01*
X85144181Y-113423049D01*
X85144184Y-113423051D01*
X85333588Y-113519557D01*
X85535757Y-113585246D01*
X85745713Y-113618500D01*
X85745714Y-113618500D01*
X85958286Y-113618500D01*
X85958287Y-113618500D01*
X86168243Y-113585246D01*
X86370412Y-113519557D01*
X86559816Y-113423051D01*
X86581789Y-113407086D01*
X86731786Y-113298109D01*
X86731788Y-113298106D01*
X86731792Y-113298104D01*
X86882104Y-113147792D01*
X86882106Y-113147788D01*
X86882109Y-113147786D01*
X87005903Y-112977396D01*
X87007051Y-112975816D01*
X87103557Y-112786412D01*
X87169246Y-112584243D01*
X87202500Y-112374287D01*
X87202500Y-112316153D01*
X102069500Y-112316153D01*
X102069500Y-112473846D01*
X102100261Y-112628489D01*
X102100264Y-112628501D01*
X102160602Y-112774172D01*
X102160609Y-112774185D01*
X102248210Y-112905288D01*
X102248213Y-112905292D01*
X102359707Y-113016786D01*
X102359711Y-113016789D01*
X102490814Y-113104390D01*
X102490827Y-113104397D01*
X102636498Y-113164735D01*
X102636503Y-113164737D01*
X102791153Y-113195499D01*
X102791156Y-113195500D01*
X102791158Y-113195500D01*
X102948844Y-113195500D01*
X102948845Y-113195499D01*
X103103497Y-113164737D01*
X103249179Y-113104394D01*
X103380289Y-113016789D01*
X103491789Y-112905289D01*
X103579394Y-112774179D01*
X103639737Y-112628497D01*
X103670500Y-112473842D01*
X103670500Y-112316158D01*
X103670500Y-112316155D01*
X103670499Y-112316153D01*
X103648839Y-112207257D01*
X103645238Y-112189153D01*
X108038500Y-112189153D01*
X108038500Y-112346846D01*
X108069261Y-112501489D01*
X108069264Y-112501501D01*
X108129602Y-112647172D01*
X108129609Y-112647185D01*
X108217210Y-112778288D01*
X108217213Y-112778292D01*
X108328707Y-112889786D01*
X108328711Y-112889789D01*
X108459814Y-112977390D01*
X108459827Y-112977397D01*
X108605498Y-113037735D01*
X108605503Y-113037737D01*
X108760153Y-113068499D01*
X108760156Y-113068500D01*
X108760158Y-113068500D01*
X108917844Y-113068500D01*
X108917845Y-113068499D01*
X109072497Y-113037737D01*
X109218179Y-112977394D01*
X109261169Y-112948668D01*
X109327841Y-112927791D01*
X109395221Y-112946274D01*
X109398948Y-112948669D01*
X109439577Y-112975816D01*
X109448703Y-112981914D01*
X109448705Y-112981915D01*
X109448709Y-112981917D01*
X109583475Y-113037738D01*
X109594385Y-113042257D01*
X109726312Y-113068499D01*
X109749035Y-113073019D01*
X109749038Y-113073020D01*
X109749040Y-113073020D01*
X109906726Y-113073020D01*
X109906727Y-113073019D01*
X110061379Y-113042257D01*
X110207061Y-112981914D01*
X110286918Y-112928554D01*
X110353595Y-112907677D01*
X110380001Y-112910040D01*
X110383501Y-112910736D01*
X110383503Y-112910737D01*
X110443865Y-112922743D01*
X110538155Y-112941500D01*
X110538158Y-112941500D01*
X110695844Y-112941500D01*
X110695845Y-112941499D01*
X110850497Y-112910737D01*
X110996179Y-112850394D01*
X110996184Y-112850390D01*
X111001546Y-112847525D01*
X111002670Y-112849629D01*
X111059283Y-112831901D01*
X111120787Y-112848771D01*
X111121454Y-112847525D01*
X111126825Y-112850396D01*
X111265115Y-112907677D01*
X111272503Y-112910737D01*
X111362080Y-112928555D01*
X111427153Y-112941499D01*
X111427156Y-112941500D01*
X111427158Y-112941500D01*
X111584844Y-112941500D01*
X111584845Y-112941499D01*
X111739497Y-112910737D01*
X111885179Y-112850394D01*
X112016289Y-112762789D01*
X112127789Y-112651289D01*
X112215394Y-112520179D01*
X112275737Y-112374497D01*
X112306500Y-112219842D01*
X112306500Y-112062158D01*
X112306500Y-112062155D01*
X112306499Y-112062153D01*
X112297283Y-112015821D01*
X112275737Y-111907503D01*
X112220112Y-111773211D01*
X112215397Y-111761827D01*
X112215390Y-111761814D01*
X112127789Y-111630711D01*
X112127786Y-111630707D01*
X112016292Y-111519213D01*
X112016288Y-111519210D01*
X111885185Y-111431609D01*
X111885172Y-111431602D01*
X111739501Y-111371264D01*
X111739489Y-111371261D01*
X111584845Y-111340500D01*
X111584842Y-111340500D01*
X111427158Y-111340500D01*
X111427155Y-111340500D01*
X111272510Y-111371261D01*
X111272498Y-111371264D01*
X111126822Y-111431604D01*
X111121451Y-111434476D01*
X111120329Y-111432377D01*
X111063679Y-111450099D01*
X111002220Y-111433219D01*
X111001549Y-111434476D01*
X110996177Y-111431604D01*
X110850501Y-111371264D01*
X110850489Y-111371261D01*
X110695845Y-111340500D01*
X110695842Y-111340500D01*
X110538158Y-111340500D01*
X110538155Y-111340500D01*
X110383510Y-111371261D01*
X110383498Y-111371264D01*
X110237827Y-111431602D01*
X110237814Y-111431609D01*
X110157964Y-111484964D01*
X110091286Y-111505842D01*
X110064882Y-111503479D01*
X109906727Y-111472020D01*
X109906724Y-111472020D01*
X109749040Y-111472020D01*
X109749037Y-111472020D01*
X109594392Y-111502781D01*
X109594380Y-111502784D01*
X109448710Y-111563122D01*
X109448696Y-111563130D01*
X109405710Y-111591851D01*
X109339032Y-111612727D01*
X109271652Y-111594241D01*
X109267932Y-111591849D01*
X109218189Y-111558612D01*
X109218182Y-111558608D01*
X109218179Y-111558606D01*
X109218175Y-111558604D01*
X109218171Y-111558602D01*
X109072501Y-111498264D01*
X109072489Y-111498261D01*
X108917845Y-111467500D01*
X108917842Y-111467500D01*
X108760158Y-111467500D01*
X108760155Y-111467500D01*
X108605510Y-111498261D01*
X108605498Y-111498264D01*
X108459827Y-111558602D01*
X108459814Y-111558609D01*
X108328711Y-111646210D01*
X108328707Y-111646213D01*
X108217213Y-111757707D01*
X108217210Y-111757711D01*
X108129609Y-111888814D01*
X108129602Y-111888827D01*
X108069264Y-112034498D01*
X108069261Y-112034510D01*
X108038500Y-112189153D01*
X103645238Y-112189153D01*
X103639738Y-112161508D01*
X103639737Y-112161507D01*
X103639737Y-112161503D01*
X103639735Y-112161498D01*
X103579397Y-112015827D01*
X103579390Y-112015814D01*
X103491789Y-111884711D01*
X103491786Y-111884707D01*
X103380292Y-111773213D01*
X103380288Y-111773210D01*
X103249185Y-111685609D01*
X103249172Y-111685602D01*
X103103501Y-111625264D01*
X103103489Y-111625261D01*
X102948845Y-111594500D01*
X102948842Y-111594500D01*
X102791158Y-111594500D01*
X102791155Y-111594500D01*
X102636510Y-111625261D01*
X102636498Y-111625264D01*
X102490827Y-111685602D01*
X102490814Y-111685609D01*
X102359711Y-111773210D01*
X102359707Y-111773213D01*
X102248213Y-111884707D01*
X102248210Y-111884711D01*
X102160609Y-112015814D01*
X102160602Y-112015827D01*
X102100264Y-112161498D01*
X102100261Y-112161510D01*
X102069500Y-112316153D01*
X87202500Y-112316153D01*
X87202500Y-112161713D01*
X87169246Y-111951757D01*
X87103557Y-111749588D01*
X87007051Y-111560184D01*
X87007049Y-111560181D01*
X87007048Y-111560179D01*
X86882109Y-111388213D01*
X86731786Y-111237890D01*
X86559820Y-111112951D01*
X86370414Y-111016444D01*
X86370413Y-111016443D01*
X86370412Y-111016443D01*
X86168243Y-110950754D01*
X86168241Y-110950753D01*
X86168240Y-110950753D01*
X86006957Y-110925208D01*
X85958287Y-110917500D01*
X85745713Y-110917500D01*
X85697042Y-110925208D01*
X85535760Y-110950753D01*
X85333585Y-111016444D01*
X85144179Y-111112951D01*
X84972213Y-111237890D01*
X84821890Y-111388213D01*
X84696951Y-111560179D01*
X84600444Y-111749585D01*
X84534753Y-111951760D01*
X84517268Y-112062158D01*
X84501500Y-112161713D01*
X66667500Y-112161713D01*
X66667500Y-110411153D01*
X94284497Y-110411153D01*
X94284497Y-110568846D01*
X94315258Y-110723489D01*
X94315261Y-110723501D01*
X94375599Y-110869172D01*
X94375606Y-110869185D01*
X94463207Y-111000288D01*
X94463210Y-111000292D01*
X94574704Y-111111786D01*
X94574708Y-111111789D01*
X94705811Y-111199390D01*
X94705824Y-111199397D01*
X94851495Y-111259735D01*
X94851500Y-111259737D01*
X95006150Y-111290499D01*
X95006153Y-111290500D01*
X95006155Y-111290500D01*
X95163841Y-111290500D01*
X95163842Y-111290499D01*
X95318494Y-111259737D01*
X95464176Y-111199394D01*
X95595286Y-111111789D01*
X95706786Y-111000289D01*
X95794391Y-110869179D01*
X95854734Y-110723497D01*
X95885497Y-110568842D01*
X95885497Y-110411158D01*
X95885497Y-110411155D01*
X95885496Y-110411153D01*
X95863836Y-110302257D01*
X95860235Y-110284153D01*
X98386500Y-110284153D01*
X98386500Y-110441846D01*
X98417261Y-110596489D01*
X98417264Y-110596501D01*
X98477602Y-110742172D01*
X98477609Y-110742185D01*
X98565210Y-110873288D01*
X98565213Y-110873292D01*
X98676707Y-110984786D01*
X98676711Y-110984789D01*
X98807814Y-111072390D01*
X98807827Y-111072397D01*
X98953498Y-111132735D01*
X98953503Y-111132737D01*
X99108153Y-111163499D01*
X99108156Y-111163500D01*
X99108158Y-111163500D01*
X99265844Y-111163500D01*
X99265845Y-111163499D01*
X99420497Y-111132737D01*
X99566179Y-111072394D01*
X99697289Y-110984789D01*
X99808789Y-110873289D01*
X99896394Y-110742179D01*
X99956737Y-110596497D01*
X99987500Y-110441842D01*
X99987500Y-110284158D01*
X99987500Y-110284155D01*
X99987499Y-110284153D01*
X99956738Y-110129510D01*
X99956737Y-110129503D01*
X99948996Y-110110814D01*
X99896397Y-109983827D01*
X99896390Y-109983814D01*
X99808789Y-109852711D01*
X99808786Y-109852707D01*
X99697292Y-109741213D01*
X99697288Y-109741210D01*
X99566185Y-109653609D01*
X99566172Y-109653602D01*
X99445379Y-109603568D01*
X99445369Y-109603565D01*
X99420497Y-109593263D01*
X99368447Y-109582909D01*
X99368434Y-109582906D01*
X99265846Y-109562500D01*
X99265842Y-109562500D01*
X99108158Y-109562500D01*
X99108155Y-109562500D01*
X98953510Y-109593261D01*
X98953498Y-109593264D01*
X98807827Y-109653602D01*
X98807814Y-109653609D01*
X98676711Y-109741210D01*
X98676707Y-109741213D01*
X98565213Y-109852707D01*
X98565210Y-109852711D01*
X98477609Y-109983814D01*
X98477602Y-109983827D01*
X98417264Y-110129498D01*
X98417261Y-110129510D01*
X98386500Y-110284153D01*
X95860235Y-110284153D01*
X95854735Y-110256508D01*
X95854734Y-110256507D01*
X95854734Y-110256503D01*
X95854732Y-110256498D01*
X95794394Y-110110827D01*
X95794387Y-110110814D01*
X95706786Y-109979711D01*
X95706783Y-109979707D01*
X95595289Y-109868213D01*
X95595285Y-109868210D01*
X95464182Y-109780609D01*
X95464169Y-109780602D01*
X95318498Y-109720264D01*
X95318486Y-109720261D01*
X95163842Y-109689500D01*
X95163839Y-109689500D01*
X95006155Y-109689500D01*
X95006152Y-109689500D01*
X94851507Y-109720261D01*
X94851495Y-109720264D01*
X94705824Y-109780602D01*
X94705811Y-109780609D01*
X94574708Y-109868210D01*
X94574704Y-109868213D01*
X94463210Y-109979707D01*
X94463207Y-109979711D01*
X94375606Y-110110814D01*
X94375599Y-110110827D01*
X94315261Y-110256498D01*
X94315258Y-110256510D01*
X94284497Y-110411153D01*
X66667500Y-110411153D01*
X66667500Y-108506153D01*
X98894500Y-108506153D01*
X98894500Y-108663846D01*
X98925261Y-108818489D01*
X98925264Y-108818501D01*
X98985602Y-108964172D01*
X98985609Y-108964185D01*
X99073210Y-109095288D01*
X99073213Y-109095292D01*
X99184707Y-109206786D01*
X99184711Y-109206789D01*
X99315814Y-109294390D01*
X99315827Y-109294397D01*
X99436619Y-109344430D01*
X99436620Y-109344430D01*
X99461503Y-109354737D01*
X99513561Y-109365092D01*
X99616155Y-109385500D01*
X99616158Y-109385500D01*
X99773844Y-109385500D01*
X99773845Y-109385499D01*
X99928497Y-109354737D01*
X100074179Y-109294394D01*
X100205289Y-109206789D01*
X100316789Y-109095289D01*
X100404394Y-108964179D01*
X100464737Y-108818497D01*
X100495500Y-108663842D01*
X100495500Y-108506158D01*
X100495500Y-108506155D01*
X100495499Y-108506153D01*
X100464738Y-108351510D01*
X100464737Y-108351503D01*
X100464735Y-108351498D01*
X100404397Y-108205827D01*
X100404390Y-108205814D01*
X100316789Y-108074711D01*
X100316786Y-108074707D01*
X100205292Y-107963213D01*
X100205288Y-107963210D01*
X100074185Y-107875609D01*
X100074172Y-107875602D01*
X99928501Y-107815264D01*
X99928489Y-107815261D01*
X99773845Y-107784500D01*
X99773842Y-107784500D01*
X99616158Y-107784500D01*
X99616155Y-107784500D01*
X99461510Y-107815261D01*
X99461498Y-107815264D01*
X99315827Y-107875602D01*
X99315814Y-107875609D01*
X99184711Y-107963210D01*
X99184707Y-107963213D01*
X99073213Y-108074707D01*
X99073210Y-108074711D01*
X98985609Y-108205814D01*
X98985602Y-108205827D01*
X98925264Y-108351498D01*
X98925261Y-108351510D01*
X98894500Y-108506153D01*
X66667500Y-108506153D01*
X66667500Y-106722533D01*
X67904499Y-106722533D01*
X67930458Y-106853030D01*
X67930461Y-106853040D01*
X67981376Y-106975961D01*
X67981386Y-106975979D01*
X68055301Y-107086601D01*
X68055307Y-107086609D01*
X68149390Y-107180692D01*
X68149398Y-107180698D01*
X68260020Y-107254613D01*
X68260023Y-107254614D01*
X68260031Y-107254620D01*
X68382964Y-107305540D01*
X68382968Y-107305540D01*
X68382969Y-107305541D01*
X68513466Y-107331500D01*
X68513469Y-107331500D01*
X68646533Y-107331500D01*
X68734325Y-107314035D01*
X68777036Y-107305540D01*
X68899969Y-107254620D01*
X69010606Y-107180695D01*
X69104695Y-107086606D01*
X69178620Y-106975969D01*
X69229540Y-106853036D01*
X69255500Y-106722531D01*
X69255500Y-106589469D01*
X69255500Y-106589466D01*
X69229541Y-106458969D01*
X69229540Y-106458968D01*
X69229540Y-106458964D01*
X69178620Y-106336031D01*
X69165087Y-106315778D01*
X85848500Y-106315778D01*
X85848500Y-106536221D01*
X85882985Y-106753952D01*
X85951103Y-106963603D01*
X85951104Y-106963606D01*
X86013775Y-107086601D01*
X86038636Y-107135394D01*
X86051187Y-107160025D01*
X86180752Y-107338358D01*
X86180756Y-107338363D01*
X86336636Y-107494243D01*
X86336641Y-107494247D01*
X86492192Y-107607260D01*
X86514978Y-107623815D01*
X86643375Y-107689237D01*
X86711393Y-107723895D01*
X86711396Y-107723896D01*
X86816221Y-107757955D01*
X86921049Y-107792015D01*
X87138778Y-107826500D01*
X87138779Y-107826500D01*
X87359221Y-107826500D01*
X87359222Y-107826500D01*
X87576951Y-107792015D01*
X87786606Y-107723895D01*
X87983022Y-107623815D01*
X88161365Y-107494242D01*
X88317242Y-107338365D01*
X88446815Y-107160022D01*
X88546895Y-106963606D01*
X88615015Y-106753951D01*
X88649500Y-106536222D01*
X88649500Y-106347153D01*
X89369500Y-106347153D01*
X89369500Y-106504846D01*
X89400261Y-106659489D01*
X89400264Y-106659501D01*
X89460602Y-106805172D01*
X89460609Y-106805185D01*
X89548210Y-106936288D01*
X89548213Y-106936292D01*
X89659707Y-107047786D01*
X89659711Y-107047789D01*
X89790814Y-107135390D01*
X89790827Y-107135397D01*
X89900188Y-107180695D01*
X89936503Y-107195737D01*
X90091153Y-107226499D01*
X90091156Y-107226500D01*
X90091158Y-107226500D01*
X90248844Y-107226500D01*
X90248845Y-107226499D01*
X90403497Y-107195737D01*
X90549179Y-107135394D01*
X90680289Y-107047789D01*
X90791789Y-106936289D01*
X90879394Y-106805179D01*
X90939737Y-106659497D01*
X90970500Y-106504842D01*
X90970500Y-106347158D01*
X90970500Y-106347155D01*
X90970499Y-106347153D01*
X90946279Y-106225394D01*
X90939737Y-106192503D01*
X90914388Y-106131305D01*
X90879397Y-106046827D01*
X90879390Y-106046814D01*
X90791789Y-105915711D01*
X90791786Y-105915707D01*
X90680292Y-105804213D01*
X90680288Y-105804210D01*
X90549185Y-105716609D01*
X90549172Y-105716602D01*
X90403501Y-105656264D01*
X90403489Y-105656261D01*
X90248845Y-105625500D01*
X90248842Y-105625500D01*
X90091158Y-105625500D01*
X90091155Y-105625500D01*
X89936510Y-105656261D01*
X89936498Y-105656264D01*
X89790827Y-105716602D01*
X89790814Y-105716609D01*
X89659711Y-105804210D01*
X89659707Y-105804213D01*
X89548213Y-105915707D01*
X89548210Y-105915711D01*
X89460609Y-106046814D01*
X89460602Y-106046827D01*
X89400264Y-106192498D01*
X89400261Y-106192510D01*
X89369500Y-106347153D01*
X88649500Y-106347153D01*
X88649500Y-106315778D01*
X88615015Y-106098049D01*
X88555771Y-105915711D01*
X88546896Y-105888396D01*
X88546895Y-105888393D01*
X88496338Y-105789172D01*
X88446815Y-105691978D01*
X88398516Y-105625500D01*
X88317247Y-105513641D01*
X88317243Y-105513636D01*
X88161363Y-105357756D01*
X88161358Y-105357752D01*
X88124747Y-105331153D01*
X103339500Y-105331153D01*
X103339500Y-105488846D01*
X103370261Y-105643489D01*
X103370264Y-105643501D01*
X103430602Y-105789172D01*
X103430609Y-105789185D01*
X103518210Y-105920288D01*
X103518213Y-105920292D01*
X103629707Y-106031786D01*
X103629711Y-106031789D01*
X103760814Y-106119390D01*
X103760827Y-106119397D01*
X103906498Y-106179735D01*
X103906503Y-106179737D01*
X104061153Y-106210499D01*
X104061156Y-106210500D01*
X104061158Y-106210500D01*
X104218844Y-106210500D01*
X104218845Y-106210499D01*
X104373497Y-106179737D01*
X104519179Y-106119394D01*
X104650289Y-106031789D01*
X104761789Y-105920289D01*
X104849394Y-105789179D01*
X104909737Y-105643497D01*
X104940500Y-105488842D01*
X104940500Y-105331158D01*
X104940500Y-105331155D01*
X104940499Y-105331153D01*
X104928292Y-105269786D01*
X104909737Y-105176503D01*
X104861474Y-105059985D01*
X104849397Y-105030827D01*
X104849390Y-105030814D01*
X104761789Y-104899711D01*
X104761786Y-104899707D01*
X104650292Y-104788213D01*
X104650288Y-104788210D01*
X104519185Y-104700609D01*
X104519172Y-104700602D01*
X104373501Y-104640264D01*
X104373489Y-104640261D01*
X104218845Y-104609500D01*
X104218842Y-104609500D01*
X104061158Y-104609500D01*
X104061155Y-104609500D01*
X103906510Y-104640261D01*
X103906498Y-104640264D01*
X103760827Y-104700602D01*
X103760814Y-104700609D01*
X103629711Y-104788210D01*
X103629707Y-104788213D01*
X103518213Y-104899707D01*
X103518210Y-104899711D01*
X103430609Y-105030814D01*
X103430602Y-105030827D01*
X103370264Y-105176498D01*
X103370261Y-105176510D01*
X103339500Y-105331153D01*
X88124747Y-105331153D01*
X87983025Y-105228187D01*
X87983024Y-105228186D01*
X87983022Y-105228185D01*
X87920096Y-105196122D01*
X87786606Y-105128104D01*
X87786603Y-105128103D01*
X87576952Y-105059985D01*
X87392817Y-105030821D01*
X87359222Y-105025500D01*
X87138778Y-105025500D01*
X87105227Y-105030814D01*
X86921047Y-105059985D01*
X86711396Y-105128103D01*
X86711393Y-105128104D01*
X86514974Y-105228187D01*
X86336641Y-105357752D01*
X86336636Y-105357756D01*
X86180756Y-105513636D01*
X86180752Y-105513641D01*
X86051187Y-105691974D01*
X85951104Y-105888393D01*
X85951103Y-105888396D01*
X85882985Y-106098047D01*
X85848500Y-106315778D01*
X69165087Y-106315778D01*
X69104698Y-106225398D01*
X69104692Y-106225390D01*
X69010609Y-106131307D01*
X69010601Y-106131301D01*
X68899979Y-106057386D01*
X68899972Y-106057382D01*
X68899969Y-106057380D01*
X68899965Y-106057378D01*
X68899961Y-106057376D01*
X68777040Y-106006461D01*
X68777030Y-106006458D01*
X68646533Y-105980500D01*
X68646531Y-105980500D01*
X68513469Y-105980500D01*
X68513467Y-105980500D01*
X68382969Y-106006458D01*
X68382959Y-106006461D01*
X68260038Y-106057376D01*
X68260020Y-106057386D01*
X68149398Y-106131301D01*
X68149390Y-106131307D01*
X68055307Y-106225390D01*
X68055301Y-106225398D01*
X67981386Y-106336020D01*
X67981376Y-106336038D01*
X67930461Y-106458959D01*
X67930458Y-106458969D01*
X67904500Y-106589466D01*
X67904500Y-106589469D01*
X67904500Y-106722531D01*
X67904500Y-106722533D01*
X67904499Y-106722533D01*
X66667500Y-106722533D01*
X66667500Y-104569153D01*
X69811500Y-104569153D01*
X69811500Y-104726846D01*
X69842261Y-104881489D01*
X69842264Y-104881501D01*
X69902602Y-105027172D01*
X69902609Y-105027185D01*
X69990210Y-105158288D01*
X69990213Y-105158292D01*
X70101707Y-105269786D01*
X70101711Y-105269789D01*
X70232814Y-105357390D01*
X70232827Y-105357397D01*
X70378498Y-105417735D01*
X70378503Y-105417737D01*
X70533153Y-105448499D01*
X70533156Y-105448500D01*
X70533158Y-105448500D01*
X70690844Y-105448500D01*
X70690845Y-105448499D01*
X70845497Y-105417737D01*
X70991179Y-105357394D01*
X71122289Y-105269789D01*
X71233789Y-105158289D01*
X71321394Y-105027179D01*
X71322090Y-105025500D01*
X71370039Y-104909738D01*
X71381737Y-104881497D01*
X71412500Y-104726842D01*
X71412500Y-104569158D01*
X71412500Y-104569155D01*
X71412499Y-104569153D01*
X71381738Y-104414510D01*
X71381737Y-104414503D01*
X71374192Y-104396288D01*
X71321397Y-104268827D01*
X71321390Y-104268814D01*
X71233789Y-104137711D01*
X71233786Y-104137707D01*
X71122292Y-104026213D01*
X71122288Y-104026210D01*
X70991185Y-103938609D01*
X70991172Y-103938602D01*
X70845501Y-103878264D01*
X70845489Y-103878261D01*
X70690845Y-103847500D01*
X70690842Y-103847500D01*
X70533158Y-103847500D01*
X70533155Y-103847500D01*
X70378510Y-103878261D01*
X70378498Y-103878264D01*
X70232827Y-103938602D01*
X70232814Y-103938609D01*
X70101711Y-104026210D01*
X70101707Y-104026213D01*
X69990213Y-104137707D01*
X69990210Y-104137711D01*
X69902609Y-104268814D01*
X69902602Y-104268827D01*
X69842264Y-104414498D01*
X69842261Y-104414510D01*
X69811500Y-104569153D01*
X66667500Y-104569153D01*
X66667500Y-103722533D01*
X67904499Y-103722533D01*
X67930458Y-103853030D01*
X67930461Y-103853040D01*
X67981376Y-103975961D01*
X67981386Y-103975979D01*
X68055301Y-104086601D01*
X68055307Y-104086609D01*
X68149390Y-104180692D01*
X68149398Y-104180698D01*
X68260020Y-104254613D01*
X68260023Y-104254614D01*
X68260031Y-104254620D01*
X68260037Y-104254622D01*
X68260038Y-104254623D01*
X68335997Y-104286086D01*
X68382964Y-104305540D01*
X68382968Y-104305540D01*
X68382969Y-104305541D01*
X68513466Y-104331500D01*
X68513469Y-104331500D01*
X68646533Y-104331500D01*
X68734325Y-104314035D01*
X68777036Y-104305540D01*
X68899969Y-104254620D01*
X69010606Y-104180695D01*
X69104695Y-104086606D01*
X69178620Y-103975969D01*
X69229540Y-103853036D01*
X69247882Y-103760827D01*
X69255500Y-103722533D01*
X69255500Y-103589466D01*
X69229540Y-103458966D01*
X69229539Y-103458962D01*
X69215949Y-103426153D01*
X92544500Y-103426153D01*
X92544500Y-103583846D01*
X92575261Y-103738489D01*
X92575264Y-103738501D01*
X92635602Y-103884172D01*
X92635609Y-103884185D01*
X92723210Y-104015288D01*
X92723213Y-104015292D01*
X92834707Y-104126786D01*
X92834711Y-104126789D01*
X92965814Y-104214390D01*
X92965827Y-104214397D01*
X93097220Y-104268821D01*
X93111503Y-104274737D01*
X93266153Y-104305499D01*
X93266156Y-104305500D01*
X93266158Y-104305500D01*
X93423844Y-104305500D01*
X93423845Y-104305499D01*
X93578497Y-104274737D01*
X93713431Y-104218846D01*
X93724172Y-104214397D01*
X93724172Y-104214396D01*
X93724179Y-104214394D01*
X93855289Y-104126789D01*
X93920925Y-104061153D01*
X96354500Y-104061153D01*
X96354500Y-104218846D01*
X96385261Y-104373489D01*
X96385264Y-104373501D01*
X96445602Y-104519172D01*
X96445609Y-104519185D01*
X96533210Y-104650288D01*
X96533213Y-104650292D01*
X96644707Y-104761786D01*
X96644711Y-104761789D01*
X96775814Y-104849390D01*
X96775827Y-104849397D01*
X96897288Y-104899707D01*
X96921503Y-104909737D01*
X97076153Y-104940499D01*
X97076156Y-104940500D01*
X97076158Y-104940500D01*
X97233844Y-104940500D01*
X97233845Y-104940499D01*
X97388497Y-104909737D01*
X97534179Y-104849394D01*
X97665289Y-104761789D01*
X97776789Y-104650289D01*
X97864394Y-104519179D01*
X97924737Y-104373497D01*
X97924739Y-104373485D01*
X97924893Y-104372981D01*
X97925050Y-104372740D01*
X97927068Y-104367870D01*
X97927991Y-104368252D01*
X97963190Y-104314543D01*
X98027002Y-104286086D01*
X98096069Y-104296646D01*
X98146656Y-104340085D01*
X98184210Y-104396288D01*
X98184213Y-104396292D01*
X98295707Y-104507786D01*
X98295711Y-104507789D01*
X98426814Y-104595390D01*
X98426827Y-104595397D01*
X98572498Y-104655735D01*
X98572503Y-104655737D01*
X98727153Y-104686499D01*
X98727156Y-104686500D01*
X98727158Y-104686500D01*
X98884844Y-104686500D01*
X98884845Y-104686499D01*
X99039497Y-104655737D01*
X99185179Y-104595394D01*
X99316289Y-104507789D01*
X99427789Y-104396289D01*
X99515394Y-104265179D01*
X99575737Y-104119497D01*
X99606500Y-103964842D01*
X99606500Y-103807158D01*
X99606500Y-103807155D01*
X99606499Y-103807153D01*
X99597283Y-103760821D01*
X99575737Y-103652503D01*
X99549628Y-103589469D01*
X99515397Y-103506827D01*
X99515390Y-103506814D01*
X99427789Y-103375711D01*
X99427786Y-103375707D01*
X99316292Y-103264213D01*
X99316288Y-103264210D01*
X99185185Y-103176609D01*
X99185172Y-103176602D01*
X99039501Y-103116264D01*
X99039489Y-103116261D01*
X98884845Y-103085500D01*
X98884842Y-103085500D01*
X98727158Y-103085500D01*
X98727155Y-103085500D01*
X98572510Y-103116261D01*
X98572498Y-103116264D01*
X98426827Y-103176602D01*
X98426814Y-103176609D01*
X98295711Y-103264210D01*
X98295707Y-103264213D01*
X98184213Y-103375707D01*
X98184210Y-103375711D01*
X98096609Y-103506814D01*
X98096602Y-103506827D01*
X98036259Y-103652509D01*
X98036099Y-103653040D01*
X98035939Y-103653283D01*
X98033932Y-103658130D01*
X98033011Y-103657748D01*
X97997791Y-103711472D01*
X97933973Y-103739916D01*
X97864908Y-103729344D01*
X97814343Y-103685914D01*
X97776789Y-103629711D01*
X97776786Y-103629707D01*
X97665292Y-103518213D01*
X97665288Y-103518210D01*
X97534185Y-103430609D01*
X97534172Y-103430602D01*
X97388501Y-103370264D01*
X97388489Y-103370261D01*
X97233845Y-103339500D01*
X97233842Y-103339500D01*
X97076158Y-103339500D01*
X97076155Y-103339500D01*
X96921510Y-103370261D01*
X96921498Y-103370264D01*
X96775827Y-103430602D01*
X96775814Y-103430609D01*
X96644711Y-103518210D01*
X96644707Y-103518213D01*
X96533213Y-103629707D01*
X96533210Y-103629711D01*
X96445609Y-103760814D01*
X96445602Y-103760827D01*
X96385264Y-103906498D01*
X96385261Y-103906510D01*
X96354500Y-104061153D01*
X93920925Y-104061153D01*
X93966789Y-104015289D01*
X93976839Y-104000247D01*
X93986243Y-103986175D01*
X94054390Y-103884185D01*
X94054390Y-103884184D01*
X94054394Y-103884179D01*
X94056845Y-103878263D01*
X94086299Y-103807153D01*
X94114737Y-103738497D01*
X94145500Y-103583842D01*
X94145500Y-103426158D01*
X94145500Y-103426155D01*
X94145499Y-103426153D01*
X94135465Y-103375711D01*
X94114737Y-103271503D01*
X94075428Y-103176602D01*
X94054397Y-103125827D01*
X94054390Y-103125814D01*
X93966789Y-102994711D01*
X93966786Y-102994707D01*
X93855292Y-102883213D01*
X93855288Y-102883210D01*
X93724185Y-102795609D01*
X93724172Y-102795602D01*
X93578501Y-102735264D01*
X93578489Y-102735261D01*
X93423845Y-102704500D01*
X93423842Y-102704500D01*
X93266158Y-102704500D01*
X93266155Y-102704500D01*
X93111510Y-102735261D01*
X93111498Y-102735264D01*
X92965827Y-102795602D01*
X92965814Y-102795609D01*
X92834711Y-102883210D01*
X92834707Y-102883213D01*
X92723213Y-102994707D01*
X92723210Y-102994711D01*
X92635609Y-103125814D01*
X92635602Y-103125827D01*
X92575264Y-103271498D01*
X92575261Y-103271510D01*
X92544500Y-103426153D01*
X69215949Y-103426153D01*
X69178623Y-103336038D01*
X69178622Y-103336037D01*
X69178620Y-103336031D01*
X69104695Y-103225394D01*
X69104692Y-103225390D01*
X69010609Y-103131307D01*
X69010601Y-103131301D01*
X68899979Y-103057386D01*
X68899972Y-103057382D01*
X68899969Y-103057380D01*
X68899965Y-103057378D01*
X68899961Y-103057376D01*
X68777040Y-103006461D01*
X68777030Y-103006458D01*
X68646533Y-102980500D01*
X68646531Y-102980500D01*
X68513469Y-102980500D01*
X68513467Y-102980500D01*
X68382969Y-103006458D01*
X68382959Y-103006461D01*
X68260038Y-103057376D01*
X68260020Y-103057386D01*
X68149398Y-103131301D01*
X68149390Y-103131307D01*
X68055307Y-103225390D01*
X68055301Y-103225398D01*
X67981386Y-103336020D01*
X67981376Y-103336038D01*
X67930461Y-103458959D01*
X67930458Y-103458969D01*
X67904500Y-103589466D01*
X67904500Y-103589469D01*
X67904500Y-103722531D01*
X67904500Y-103722533D01*
X67904499Y-103722533D01*
X66667500Y-103722533D01*
X66667500Y-102156153D01*
X99529500Y-102156153D01*
X99529500Y-102313846D01*
X99560261Y-102468489D01*
X99560264Y-102468501D01*
X99620602Y-102614172D01*
X99620609Y-102614185D01*
X99708210Y-102745288D01*
X99708213Y-102745292D01*
X99819707Y-102856786D01*
X99819711Y-102856789D01*
X99950814Y-102944390D01*
X99950827Y-102944397D01*
X100037989Y-102980500D01*
X100096503Y-103004737D01*
X100251153Y-103035499D01*
X100251156Y-103035500D01*
X100251158Y-103035500D01*
X100408844Y-103035500D01*
X100408845Y-103035499D01*
X100563497Y-103004737D01*
X100709179Y-102944394D01*
X100840289Y-102856789D01*
X100951789Y-102745289D01*
X101039394Y-102614179D01*
X101099737Y-102468497D01*
X101130500Y-102313842D01*
X101130500Y-102156158D01*
X101130500Y-102156155D01*
X101130499Y-102156153D01*
X101099738Y-102001510D01*
X101099737Y-102001503D01*
X101099735Y-102001498D01*
X101039397Y-101855827D01*
X101039390Y-101855814D01*
X100951789Y-101724711D01*
X100951786Y-101724707D01*
X100840292Y-101613213D01*
X100840288Y-101613210D01*
X100709185Y-101525609D01*
X100709172Y-101525602D01*
X100563501Y-101465264D01*
X100563489Y-101465261D01*
X100408845Y-101434500D01*
X100408842Y-101434500D01*
X100251158Y-101434500D01*
X100251155Y-101434500D01*
X100096510Y-101465261D01*
X100096498Y-101465264D01*
X99950827Y-101525602D01*
X99950814Y-101525609D01*
X99819711Y-101613210D01*
X99819707Y-101613213D01*
X99708213Y-101724707D01*
X99708210Y-101724711D01*
X99620609Y-101855814D01*
X99620602Y-101855827D01*
X99560264Y-102001498D01*
X99560261Y-102001510D01*
X99529500Y-102156153D01*
X66667500Y-102156153D01*
X66667500Y-100129153D01*
X79717500Y-100129153D01*
X79717500Y-100286846D01*
X79748261Y-100441489D01*
X79748264Y-100441501D01*
X79808602Y-100587172D01*
X79808609Y-100587185D01*
X79896210Y-100718288D01*
X79896213Y-100718292D01*
X80007707Y-100829786D01*
X80007711Y-100829789D01*
X80138814Y-100917390D01*
X80138827Y-100917397D01*
X80284498Y-100977735D01*
X80284503Y-100977737D01*
X80439153Y-101008499D01*
X80439156Y-101008500D01*
X80439158Y-101008500D01*
X80596844Y-101008500D01*
X80596845Y-101008499D01*
X80751497Y-100977737D01*
X80897179Y-100917394D01*
X81028289Y-100829789D01*
X81139789Y-100718289D01*
X81227394Y-100587179D01*
X81287737Y-100441497D01*
X81318500Y-100286842D01*
X81318500Y-100129158D01*
X81318500Y-100129155D01*
X81318499Y-100129153D01*
X81301763Y-100045015D01*
X81287737Y-99974503D01*
X81247274Y-99876815D01*
X81227397Y-99828827D01*
X81227390Y-99828814D01*
X81139789Y-99697711D01*
X81139786Y-99697707D01*
X81028292Y-99586213D01*
X81028288Y-99586210D01*
X80897185Y-99498609D01*
X80897172Y-99498602D01*
X80751501Y-99438264D01*
X80751489Y-99438261D01*
X80596845Y-99407500D01*
X80596842Y-99407500D01*
X80439158Y-99407500D01*
X80439155Y-99407500D01*
X80284510Y-99438261D01*
X80284498Y-99438264D01*
X80138827Y-99498602D01*
X80138814Y-99498609D01*
X80007711Y-99586210D01*
X80007707Y-99586213D01*
X79896213Y-99697707D01*
X79896210Y-99697711D01*
X79808609Y-99828814D01*
X79808602Y-99828827D01*
X79748264Y-99974498D01*
X79748261Y-99974510D01*
X79717500Y-100129153D01*
X66667500Y-100129153D01*
X66667500Y-98568778D01*
X84324500Y-98568778D01*
X84324500Y-98789221D01*
X84358985Y-99006952D01*
X84427103Y-99216603D01*
X84427104Y-99216606D01*
X84495122Y-99350096D01*
X84524371Y-99407500D01*
X84527187Y-99413025D01*
X84656752Y-99591358D01*
X84656756Y-99591363D01*
X84812636Y-99747243D01*
X84812641Y-99747247D01*
X84924928Y-99828827D01*
X84990978Y-99876815D01*
X85119375Y-99942237D01*
X85187393Y-99976895D01*
X85187396Y-99976896D01*
X85292221Y-100010955D01*
X85397049Y-100045015D01*
X85614778Y-100079500D01*
X85614779Y-100079500D01*
X85835221Y-100079500D01*
X85835222Y-100079500D01*
X86052951Y-100045015D01*
X86262606Y-99976895D01*
X86459022Y-99876815D01*
X86637365Y-99747242D01*
X86793242Y-99591365D01*
X86798028Y-99584778D01*
X93722500Y-99584778D01*
X93722500Y-99805221D01*
X93756985Y-100022952D01*
X93825103Y-100232603D01*
X93825104Y-100232606D01*
X93925187Y-100429025D01*
X94054752Y-100607358D01*
X94054756Y-100607363D01*
X94210636Y-100763243D01*
X94210641Y-100763247D01*
X94316686Y-100840292D01*
X94388978Y-100892815D01*
X94504714Y-100951786D01*
X94585393Y-100992895D01*
X94585396Y-100992896D01*
X94690221Y-101026955D01*
X94795049Y-101061015D01*
X95012778Y-101095500D01*
X95012779Y-101095500D01*
X95233221Y-101095500D01*
X95233222Y-101095500D01*
X95450951Y-101061015D01*
X95660606Y-100992895D01*
X95857022Y-100892815D01*
X96035365Y-100763242D01*
X96191242Y-100607365D01*
X96320815Y-100429022D01*
X96420895Y-100232606D01*
X96489015Y-100022951D01*
X96523500Y-99805222D01*
X96523500Y-99584778D01*
X98802500Y-99584778D01*
X98802500Y-99805221D01*
X98836985Y-100022952D01*
X98905103Y-100232603D01*
X98905104Y-100232606D01*
X99005187Y-100429025D01*
X99134752Y-100607358D01*
X99134756Y-100607363D01*
X99290636Y-100763243D01*
X99290641Y-100763247D01*
X99396686Y-100840292D01*
X99468978Y-100892815D01*
X99584714Y-100951786D01*
X99665393Y-100992895D01*
X99665396Y-100992896D01*
X99770221Y-101026955D01*
X99875049Y-101061015D01*
X100092778Y-101095500D01*
X100092779Y-101095500D01*
X100313221Y-101095500D01*
X100313222Y-101095500D01*
X100530951Y-101061015D01*
X100740606Y-100992895D01*
X100937022Y-100892815D01*
X101115365Y-100763242D01*
X101271242Y-100607365D01*
X101400815Y-100429022D01*
X101491445Y-100251153D01*
X107994494Y-100251153D01*
X107994494Y-100408846D01*
X108025255Y-100563489D01*
X108025258Y-100563501D01*
X108085596Y-100709172D01*
X108085603Y-100709185D01*
X108173204Y-100840288D01*
X108173207Y-100840292D01*
X108284701Y-100951786D01*
X108284705Y-100951789D01*
X108415808Y-101039390D01*
X108415821Y-101039397D01*
X108551268Y-101095500D01*
X108561497Y-101099737D01*
X108716147Y-101130499D01*
X108716150Y-101130500D01*
X108716152Y-101130500D01*
X108873838Y-101130500D01*
X108873839Y-101130499D01*
X109028491Y-101099737D01*
X109121975Y-101061015D01*
X109172542Y-101040070D01*
X109242011Y-101032601D01*
X109267446Y-101040070D01*
X109401268Y-101095500D01*
X109411497Y-101099737D01*
X109566147Y-101130499D01*
X109566150Y-101130500D01*
X109566152Y-101130500D01*
X109723838Y-101130500D01*
X109723839Y-101130499D01*
X109878491Y-101099737D01*
X110024173Y-101039394D01*
X110155283Y-100951789D01*
X110266783Y-100840289D01*
X110320996Y-100759153D01*
X122643500Y-100759153D01*
X122643500Y-100916846D01*
X122674261Y-101071489D01*
X122674264Y-101071501D01*
X122734602Y-101217172D01*
X122734609Y-101217185D01*
X122822210Y-101348288D01*
X122822213Y-101348292D01*
X122933707Y-101459786D01*
X122933711Y-101459789D01*
X123064814Y-101547390D01*
X123064827Y-101547397D01*
X123210498Y-101607735D01*
X123210503Y-101607737D01*
X123365153Y-101638499D01*
X123365156Y-101638500D01*
X123365158Y-101638500D01*
X123522844Y-101638500D01*
X123522845Y-101638499D01*
X123677497Y-101607737D01*
X123823179Y-101547394D01*
X123954289Y-101459789D01*
X124065789Y-101348289D01*
X124153394Y-101217179D01*
X124213737Y-101071497D01*
X124244500Y-100916842D01*
X124244500Y-100759158D01*
X124244500Y-100759155D01*
X124244499Y-100759153D01*
X124236371Y-100718292D01*
X124213737Y-100604503D01*
X124196749Y-100563489D01*
X124153397Y-100458827D01*
X124153390Y-100458814D01*
X124065789Y-100327711D01*
X124065786Y-100327707D01*
X123954292Y-100216213D01*
X123954288Y-100216210D01*
X123823185Y-100128609D01*
X123823172Y-100128602D01*
X123677501Y-100068264D01*
X123677489Y-100068261D01*
X123522845Y-100037500D01*
X123522842Y-100037500D01*
X123365158Y-100037500D01*
X123365155Y-100037500D01*
X123210510Y-100068261D01*
X123210498Y-100068264D01*
X123064827Y-100128602D01*
X123064814Y-100128609D01*
X122933711Y-100216210D01*
X122933707Y-100216213D01*
X122822213Y-100327707D01*
X122822210Y-100327711D01*
X122734609Y-100458814D01*
X122734602Y-100458827D01*
X122674264Y-100604498D01*
X122674261Y-100604510D01*
X122643500Y-100759153D01*
X110320996Y-100759153D01*
X110354388Y-100709179D01*
X110414731Y-100563497D01*
X110445494Y-100408842D01*
X110445494Y-100251158D01*
X110445494Y-100251155D01*
X110445493Y-100251153D01*
X110438543Y-100216213D01*
X110414731Y-100096503D01*
X110393404Y-100045014D01*
X110354391Y-99950827D01*
X110354384Y-99950814D01*
X110266783Y-99819711D01*
X110266780Y-99819707D01*
X110155286Y-99708213D01*
X110155282Y-99708210D01*
X110024179Y-99620609D01*
X110024166Y-99620602D01*
X109878495Y-99560264D01*
X109878483Y-99560261D01*
X109723839Y-99529500D01*
X109723836Y-99529500D01*
X109566152Y-99529500D01*
X109566149Y-99529500D01*
X109411504Y-99560261D01*
X109411492Y-99560264D01*
X109267446Y-99619930D01*
X109197977Y-99627399D01*
X109172542Y-99619930D01*
X109028495Y-99560264D01*
X109028483Y-99560261D01*
X108873839Y-99529500D01*
X108873836Y-99529500D01*
X108716152Y-99529500D01*
X108716149Y-99529500D01*
X108561504Y-99560261D01*
X108561492Y-99560264D01*
X108415821Y-99620602D01*
X108415808Y-99620609D01*
X108284705Y-99708210D01*
X108284701Y-99708213D01*
X108173207Y-99819707D01*
X108173204Y-99819711D01*
X108085603Y-99950814D01*
X108085596Y-99950827D01*
X108025258Y-100096498D01*
X108025255Y-100096510D01*
X107994494Y-100251153D01*
X101491445Y-100251153D01*
X101500895Y-100232606D01*
X101500896Y-100232603D01*
X101509297Y-100206748D01*
X101534687Y-100128602D01*
X101569015Y-100022951D01*
X101603500Y-99805222D01*
X101603500Y-99584778D01*
X101569015Y-99367049D01*
X101500895Y-99157394D01*
X101500895Y-99157393D01*
X101424240Y-99006952D01*
X101400815Y-98960978D01*
X101276028Y-98789222D01*
X101271247Y-98782641D01*
X101271243Y-98782636D01*
X101115363Y-98626756D01*
X101115358Y-98626752D01*
X100937025Y-98497187D01*
X100937024Y-98497186D01*
X100937022Y-98497185D01*
X100874096Y-98465122D01*
X100740606Y-98397104D01*
X100740603Y-98397103D01*
X100530952Y-98328985D01*
X100422086Y-98311742D01*
X100313222Y-98294500D01*
X100092778Y-98294500D01*
X100020201Y-98305995D01*
X99875047Y-98328985D01*
X99665396Y-98397103D01*
X99665393Y-98397104D01*
X99468974Y-98497187D01*
X99290641Y-98626752D01*
X99290636Y-98626756D01*
X99134756Y-98782636D01*
X99134752Y-98782641D01*
X99005187Y-98960974D01*
X98905104Y-99157393D01*
X98905103Y-99157396D01*
X98836985Y-99367047D01*
X98802500Y-99584778D01*
X96523500Y-99584778D01*
X96489015Y-99367049D01*
X96420895Y-99157394D01*
X96420895Y-99157393D01*
X96344240Y-99006952D01*
X96320815Y-98960978D01*
X96196028Y-98789222D01*
X96191247Y-98782641D01*
X96191243Y-98782636D01*
X96035363Y-98626756D01*
X96035358Y-98626752D01*
X95857025Y-98497187D01*
X95857024Y-98497186D01*
X95857022Y-98497185D01*
X95794096Y-98465122D01*
X95660606Y-98397104D01*
X95660603Y-98397103D01*
X95450952Y-98328985D01*
X95342086Y-98311742D01*
X95233222Y-98294500D01*
X95012778Y-98294500D01*
X94940201Y-98305995D01*
X94795047Y-98328985D01*
X94585396Y-98397103D01*
X94585393Y-98397104D01*
X94388974Y-98497187D01*
X94210641Y-98626752D01*
X94210636Y-98626756D01*
X94054756Y-98782636D01*
X94054752Y-98782641D01*
X93925187Y-98960974D01*
X93825104Y-99157393D01*
X93825103Y-99157396D01*
X93756985Y-99367047D01*
X93722500Y-99584778D01*
X86798028Y-99584778D01*
X86815839Y-99560263D01*
X86854522Y-99507021D01*
X86889533Y-99458830D01*
X86922815Y-99413022D01*
X87022895Y-99216606D01*
X87091015Y-99006951D01*
X87125500Y-98789222D01*
X87125500Y-98568778D01*
X87091015Y-98351049D01*
X87022895Y-98141394D01*
X87022895Y-98141393D01*
X86988237Y-98073375D01*
X86922815Y-97944978D01*
X86906260Y-97922192D01*
X86793247Y-97766641D01*
X86793243Y-97766636D01*
X86637363Y-97610756D01*
X86637358Y-97610752D01*
X86459025Y-97481187D01*
X86459024Y-97481186D01*
X86459022Y-97481185D01*
X86396096Y-97449122D01*
X86262606Y-97381104D01*
X86262603Y-97381103D01*
X86052952Y-97312985D01*
X85944086Y-97295742D01*
X85835222Y-97278500D01*
X85614778Y-97278500D01*
X85542201Y-97289995D01*
X85397047Y-97312985D01*
X85187396Y-97381103D01*
X85187393Y-97381104D01*
X84990974Y-97481187D01*
X84812641Y-97610752D01*
X84812636Y-97610756D01*
X84656756Y-97766636D01*
X84656752Y-97766641D01*
X84527187Y-97944974D01*
X84427104Y-98141393D01*
X84427103Y-98141396D01*
X84358985Y-98351047D01*
X84324500Y-98568778D01*
X66667500Y-98568778D01*
X66667500Y-95171153D01*
X123024500Y-95171153D01*
X123024500Y-95328846D01*
X123055261Y-95483489D01*
X123055264Y-95483501D01*
X123115602Y-95629172D01*
X123115609Y-95629185D01*
X123203210Y-95760288D01*
X123203213Y-95760292D01*
X123314707Y-95871786D01*
X123314711Y-95871789D01*
X123445814Y-95959390D01*
X123445827Y-95959397D01*
X123591498Y-96019735D01*
X123591503Y-96019737D01*
X123746153Y-96050499D01*
X123746156Y-96050500D01*
X123746158Y-96050500D01*
X123903844Y-96050500D01*
X123903845Y-96050499D01*
X124058497Y-96019737D01*
X124204179Y-95959394D01*
X124335289Y-95871789D01*
X124446789Y-95760289D01*
X124534394Y-95629179D01*
X124594737Y-95483497D01*
X124625500Y-95328842D01*
X124625500Y-95171158D01*
X124625500Y-95171155D01*
X124625499Y-95171153D01*
X124594738Y-95016510D01*
X124594737Y-95016503D01*
X124594735Y-95016498D01*
X124534397Y-94870827D01*
X124534390Y-94870814D01*
X124446789Y-94739711D01*
X124446786Y-94739707D01*
X124335292Y-94628213D01*
X124335288Y-94628210D01*
X124204185Y-94540609D01*
X124204172Y-94540602D01*
X124058501Y-94480264D01*
X124058489Y-94480261D01*
X123903845Y-94449500D01*
X123903842Y-94449500D01*
X123746158Y-94449500D01*
X123746155Y-94449500D01*
X123591510Y-94480261D01*
X123591498Y-94480264D01*
X123445827Y-94540602D01*
X123445814Y-94540609D01*
X123314711Y-94628210D01*
X123314707Y-94628213D01*
X123203213Y-94739707D01*
X123203210Y-94739711D01*
X123115609Y-94870814D01*
X123115602Y-94870827D01*
X123055264Y-95016498D01*
X123055261Y-95016510D01*
X123024500Y-95171153D01*
X66667500Y-95171153D01*
X66667500Y-90542135D01*
X74590500Y-90542135D01*
X74590500Y-92337870D01*
X74590501Y-92337876D01*
X74596908Y-92397483D01*
X74647202Y-92532328D01*
X74647206Y-92532335D01*
X74733452Y-92647544D01*
X74733455Y-92647547D01*
X74848664Y-92733793D01*
X74848671Y-92733797D01*
X74983517Y-92784091D01*
X74983516Y-92784091D01*
X74990444Y-92784835D01*
X75043127Y-92790500D01*
X76838872Y-92790499D01*
X76898483Y-92784091D01*
X77033331Y-92733796D01*
X77148546Y-92647546D01*
X77234796Y-92532331D01*
X77285091Y-92397483D01*
X77291500Y-92337873D01*
X77291499Y-92313979D01*
X77294330Y-92300963D01*
X77304940Y-92281525D01*
X77311179Y-92260275D01*
X77327803Y-92239643D01*
X77327808Y-92239636D01*
X77327811Y-92239634D01*
X77327818Y-92239626D01*
X77998037Y-91569408D01*
X78015075Y-91632993D01*
X78080901Y-91747007D01*
X78173993Y-91840099D01*
X78288007Y-91905925D01*
X78351590Y-91922962D01*
X77719282Y-92555269D01*
X77719282Y-92555270D01*
X77773449Y-92594624D01*
X77962782Y-92691095D01*
X78164870Y-92756757D01*
X78374754Y-92790000D01*
X78587246Y-92790000D01*
X78797127Y-92756757D01*
X78797130Y-92756757D01*
X78999217Y-92691095D01*
X79188554Y-92594622D01*
X79242716Y-92555270D01*
X79242717Y-92555270D01*
X78610408Y-91922962D01*
X78673993Y-91905925D01*
X78788007Y-91840099D01*
X78881099Y-91747007D01*
X78946925Y-91632993D01*
X78963962Y-91569408D01*
X79596270Y-92201717D01*
X79596270Y-92201716D01*
X79635622Y-92147554D01*
X79732095Y-91958217D01*
X79797757Y-91756130D01*
X79797757Y-91756127D01*
X79831000Y-91546246D01*
X79831000Y-91333753D01*
X79797757Y-91123872D01*
X79797757Y-91123869D01*
X79732095Y-90921782D01*
X79635624Y-90732449D01*
X79596270Y-90678282D01*
X79596269Y-90678282D01*
X78963962Y-91310590D01*
X78946925Y-91247007D01*
X78881099Y-91132993D01*
X78788007Y-91039901D01*
X78673993Y-90974075D01*
X78610409Y-90957037D01*
X79025310Y-90542135D01*
X83993500Y-90542135D01*
X83993500Y-92337870D01*
X83993501Y-92337876D01*
X83999908Y-92397483D01*
X84050202Y-92532328D01*
X84050206Y-92532335D01*
X84136452Y-92647544D01*
X84136455Y-92647547D01*
X84251664Y-92733793D01*
X84251671Y-92733797D01*
X84386517Y-92784091D01*
X84386516Y-92784091D01*
X84393444Y-92784835D01*
X84446127Y-92790500D01*
X86241872Y-92790499D01*
X86301483Y-92784091D01*
X86436331Y-92733796D01*
X86551546Y-92647546D01*
X86637796Y-92532331D01*
X86688091Y-92397483D01*
X86694500Y-92337873D01*
X86694499Y-92313979D01*
X86697330Y-92300963D01*
X86707940Y-92281525D01*
X86714179Y-92260275D01*
X86730803Y-92239643D01*
X86730808Y-92239636D01*
X86730811Y-92239634D01*
X86730818Y-92239626D01*
X87401037Y-91569408D01*
X87418075Y-91632993D01*
X87483901Y-91747007D01*
X87576993Y-91840099D01*
X87691007Y-91905925D01*
X87754590Y-91922962D01*
X87122282Y-92555269D01*
X87122282Y-92555270D01*
X87176449Y-92594624D01*
X87365782Y-92691095D01*
X87567870Y-92756757D01*
X87777754Y-92790000D01*
X87990246Y-92790000D01*
X88200127Y-92756757D01*
X88200130Y-92756757D01*
X88402217Y-92691095D01*
X88591554Y-92594622D01*
X88645716Y-92555270D01*
X88645717Y-92555270D01*
X88013408Y-91922962D01*
X88076993Y-91905925D01*
X88191007Y-91840099D01*
X88284099Y-91747007D01*
X88349925Y-91632993D01*
X88366962Y-91569408D01*
X88999270Y-92201717D01*
X88999270Y-92201716D01*
X89038622Y-92147554D01*
X89135095Y-91958217D01*
X89200757Y-91756130D01*
X89200757Y-91756127D01*
X89234000Y-91546246D01*
X89234000Y-91333753D01*
X89200757Y-91123872D01*
X89200757Y-91123869D01*
X89135095Y-90921782D01*
X89038624Y-90732449D01*
X88999270Y-90678282D01*
X88999269Y-90678282D01*
X88366962Y-91310590D01*
X88349925Y-91247007D01*
X88284099Y-91132993D01*
X88191007Y-91039901D01*
X88076993Y-90974075D01*
X88013409Y-90957037D01*
X88428310Y-90542135D01*
X93894500Y-90542135D01*
X93894500Y-92337870D01*
X93894501Y-92337876D01*
X93900908Y-92397483D01*
X93951202Y-92532328D01*
X93951206Y-92532335D01*
X94037452Y-92647544D01*
X94037455Y-92647547D01*
X94152664Y-92733793D01*
X94152671Y-92733797D01*
X94287517Y-92784091D01*
X94287516Y-92784091D01*
X94294444Y-92784835D01*
X94347127Y-92790500D01*
X96142872Y-92790499D01*
X96202483Y-92784091D01*
X96337331Y-92733796D01*
X96452546Y-92647546D01*
X96538796Y-92532331D01*
X96589091Y-92397483D01*
X96595500Y-92337873D01*
X96595499Y-92313979D01*
X96598330Y-92300963D01*
X96608940Y-92281525D01*
X96615179Y-92260275D01*
X96631803Y-92239643D01*
X96631808Y-92239636D01*
X96631811Y-92239634D01*
X96631818Y-92239626D01*
X97302037Y-91569408D01*
X97319075Y-91632993D01*
X97384901Y-91747007D01*
X97477993Y-91840099D01*
X97592007Y-91905925D01*
X97655590Y-91922962D01*
X97023282Y-92555269D01*
X97023282Y-92555270D01*
X97077449Y-92594624D01*
X97266782Y-92691095D01*
X97468870Y-92756757D01*
X97678754Y-92790000D01*
X97891246Y-92790000D01*
X98101127Y-92756757D01*
X98101130Y-92756757D01*
X98303217Y-92691095D01*
X98492554Y-92594622D01*
X98546716Y-92555270D01*
X98546717Y-92555270D01*
X97914408Y-91922962D01*
X97977993Y-91905925D01*
X98092007Y-91840099D01*
X98185099Y-91747007D01*
X98250925Y-91632993D01*
X98267962Y-91569408D01*
X98900270Y-92201717D01*
X98900270Y-92201716D01*
X98939622Y-92147554D01*
X99036095Y-91958217D01*
X99101757Y-91756130D01*
X99101757Y-91756127D01*
X99135000Y-91546246D01*
X99135000Y-91333753D01*
X99101757Y-91123872D01*
X99101757Y-91123869D01*
X99036095Y-90921782D01*
X98939624Y-90732449D01*
X98900270Y-90678282D01*
X98900269Y-90678282D01*
X98267962Y-91310590D01*
X98250925Y-91247007D01*
X98185099Y-91132993D01*
X98092007Y-91039901D01*
X97977993Y-90974075D01*
X97914409Y-90957037D01*
X98329310Y-90542135D01*
X104054500Y-90542135D01*
X104054500Y-92337870D01*
X104054501Y-92337876D01*
X104060908Y-92397483D01*
X104111202Y-92532328D01*
X104111206Y-92532335D01*
X104197452Y-92647544D01*
X104197455Y-92647547D01*
X104312664Y-92733793D01*
X104312671Y-92733797D01*
X104447517Y-92784091D01*
X104447516Y-92784091D01*
X104454444Y-92784835D01*
X104507127Y-92790500D01*
X106302872Y-92790499D01*
X106362483Y-92784091D01*
X106497331Y-92733796D01*
X106612546Y-92647546D01*
X106698796Y-92532331D01*
X106749091Y-92397483D01*
X106755500Y-92337873D01*
X106755499Y-92313979D01*
X106758330Y-92300963D01*
X106768940Y-92281525D01*
X106775179Y-92260275D01*
X106791803Y-92239643D01*
X106791808Y-92239636D01*
X106791811Y-92239634D01*
X106791818Y-92239626D01*
X107462037Y-91569408D01*
X107479075Y-91632993D01*
X107544901Y-91747007D01*
X107637993Y-91840099D01*
X107752007Y-91905925D01*
X107815590Y-91922962D01*
X107183282Y-92555269D01*
X107183282Y-92555270D01*
X107237449Y-92594624D01*
X107426782Y-92691095D01*
X107628870Y-92756757D01*
X107838754Y-92790000D01*
X108051246Y-92790000D01*
X108261127Y-92756757D01*
X108261130Y-92756757D01*
X108463217Y-92691095D01*
X108652554Y-92594622D01*
X108706716Y-92555270D01*
X108706717Y-92555270D01*
X108074408Y-91922962D01*
X108137993Y-91905925D01*
X108252007Y-91840099D01*
X108345099Y-91747007D01*
X108410925Y-91632993D01*
X108427962Y-91569408D01*
X109060270Y-92201717D01*
X109060270Y-92201716D01*
X109099622Y-92147554D01*
X109196095Y-91958217D01*
X109261757Y-91756130D01*
X109261757Y-91756127D01*
X109295000Y-91546246D01*
X109295000Y-91333753D01*
X109261757Y-91123872D01*
X109261757Y-91123869D01*
X109196095Y-90921782D01*
X109099624Y-90732449D01*
X109060270Y-90678282D01*
X109060269Y-90678282D01*
X108427962Y-91310590D01*
X108410925Y-91247007D01*
X108345099Y-91132993D01*
X108252007Y-91039901D01*
X108137993Y-90974075D01*
X108074409Y-90957037D01*
X108489310Y-90542135D01*
X113650700Y-90542135D01*
X113650700Y-92337870D01*
X113650701Y-92337876D01*
X113657108Y-92397483D01*
X113707402Y-92532328D01*
X113707406Y-92532335D01*
X113793652Y-92647544D01*
X113793655Y-92647547D01*
X113908864Y-92733793D01*
X113908871Y-92733797D01*
X114043717Y-92784091D01*
X114043716Y-92784091D01*
X114050644Y-92784835D01*
X114103327Y-92790500D01*
X115899072Y-92790499D01*
X115958683Y-92784091D01*
X116093531Y-92733796D01*
X116208746Y-92647546D01*
X116294996Y-92532331D01*
X116345291Y-92397483D01*
X116351700Y-92337873D01*
X116351699Y-92313979D01*
X116354530Y-92300963D01*
X116365140Y-92281525D01*
X116371379Y-92260275D01*
X116388003Y-92239643D01*
X116388008Y-92239636D01*
X116388011Y-92239634D01*
X116388018Y-92239626D01*
X117058237Y-91569408D01*
X117075275Y-91632993D01*
X117141101Y-91747007D01*
X117234193Y-91840099D01*
X117348207Y-91905925D01*
X117411790Y-91922962D01*
X116779482Y-92555269D01*
X116779482Y-92555270D01*
X116833649Y-92594624D01*
X117022982Y-92691095D01*
X117225070Y-92756757D01*
X117434954Y-92790000D01*
X117647446Y-92790000D01*
X117857327Y-92756757D01*
X117857330Y-92756757D01*
X118059417Y-92691095D01*
X118248754Y-92594622D01*
X118302916Y-92555270D01*
X118302917Y-92555270D01*
X117670608Y-91922962D01*
X117734193Y-91905925D01*
X117848207Y-91840099D01*
X117941299Y-91747007D01*
X118007125Y-91632993D01*
X118024162Y-91569409D01*
X118656470Y-92201717D01*
X118656470Y-92201716D01*
X118695822Y-92147554D01*
X118792295Y-91958217D01*
X118857957Y-91756130D01*
X118857957Y-91756127D01*
X118891200Y-91546246D01*
X118891200Y-91333753D01*
X118857957Y-91123872D01*
X118857957Y-91123869D01*
X118792295Y-90921782D01*
X118695824Y-90732449D01*
X118656470Y-90678282D01*
X118656469Y-90678282D01*
X118024162Y-91310590D01*
X118007125Y-91247007D01*
X117941299Y-91132993D01*
X117848207Y-91039901D01*
X117734193Y-90974075D01*
X117670609Y-90957037D01*
X118302916Y-90324728D01*
X118248750Y-90285375D01*
X118059417Y-90188904D01*
X117857329Y-90123242D01*
X117647446Y-90090000D01*
X117434954Y-90090000D01*
X117225072Y-90123242D01*
X117225069Y-90123242D01*
X117022982Y-90188904D01*
X116833639Y-90285380D01*
X116779482Y-90324727D01*
X116779482Y-90324728D01*
X117411791Y-90957037D01*
X117348207Y-90974075D01*
X117234193Y-91039901D01*
X117141101Y-91132993D01*
X117075275Y-91247007D01*
X117058237Y-91310591D01*
X116388018Y-90640372D01*
X116354533Y-90579049D01*
X116354530Y-90579036D01*
X116351699Y-90566015D01*
X116351699Y-90542128D01*
X116345291Y-90482517D01*
X116317126Y-90407002D01*
X116294998Y-90347673D01*
X116294993Y-90347664D01*
X116208747Y-90232455D01*
X116208744Y-90232452D01*
X116093535Y-90146206D01*
X116093528Y-90146202D01*
X115958682Y-90095908D01*
X115958683Y-90095908D01*
X115899083Y-90089501D01*
X115899081Y-90089500D01*
X115899073Y-90089500D01*
X115899064Y-90089500D01*
X114103329Y-90089500D01*
X114103323Y-90089501D01*
X114043716Y-90095908D01*
X113908871Y-90146202D01*
X113908864Y-90146206D01*
X113793655Y-90232452D01*
X113793652Y-90232455D01*
X113707406Y-90347664D01*
X113707402Y-90347671D01*
X113657108Y-90482517D01*
X113650701Y-90542116D01*
X113650700Y-90542135D01*
X108489310Y-90542135D01*
X108580320Y-90451125D01*
X108706716Y-90324728D01*
X108652550Y-90285375D01*
X108463217Y-90188904D01*
X108261129Y-90123242D01*
X108051246Y-90090000D01*
X107838754Y-90090000D01*
X107628872Y-90123242D01*
X107628869Y-90123242D01*
X107426782Y-90188904D01*
X107237439Y-90285380D01*
X107183282Y-90324727D01*
X107183282Y-90324728D01*
X107815591Y-90957037D01*
X107752007Y-90974075D01*
X107637993Y-91039901D01*
X107544901Y-91132993D01*
X107479075Y-91247007D01*
X107462037Y-91310591D01*
X106791818Y-90640372D01*
X106758333Y-90579049D01*
X106758330Y-90579036D01*
X106755499Y-90566015D01*
X106755499Y-90542128D01*
X106749091Y-90482517D01*
X106720926Y-90407002D01*
X106698798Y-90347673D01*
X106698793Y-90347664D01*
X106612547Y-90232455D01*
X106612544Y-90232452D01*
X106497335Y-90146206D01*
X106497328Y-90146202D01*
X106362482Y-90095908D01*
X106362483Y-90095908D01*
X106302883Y-90089501D01*
X106302881Y-90089500D01*
X106302873Y-90089500D01*
X106302864Y-90089500D01*
X104507129Y-90089500D01*
X104507123Y-90089501D01*
X104447516Y-90095908D01*
X104312671Y-90146202D01*
X104312664Y-90146206D01*
X104197455Y-90232452D01*
X104197452Y-90232455D01*
X104111206Y-90347664D01*
X104111202Y-90347671D01*
X104060908Y-90482517D01*
X104054501Y-90542116D01*
X104054500Y-90542135D01*
X98329310Y-90542135D01*
X98420320Y-90451125D01*
X98546716Y-90324728D01*
X98492550Y-90285375D01*
X98303217Y-90188904D01*
X98101129Y-90123242D01*
X97891246Y-90090000D01*
X97678754Y-90090000D01*
X97468872Y-90123242D01*
X97468869Y-90123242D01*
X97266782Y-90188904D01*
X97077439Y-90285380D01*
X97023282Y-90324727D01*
X97023282Y-90324728D01*
X97655591Y-90957037D01*
X97592007Y-90974075D01*
X97477993Y-91039901D01*
X97384901Y-91132993D01*
X97319075Y-91247007D01*
X97302037Y-91310591D01*
X96631818Y-90640372D01*
X96598333Y-90579049D01*
X96598330Y-90579036D01*
X96595499Y-90566015D01*
X96595499Y-90542128D01*
X96589091Y-90482517D01*
X96560926Y-90407002D01*
X96538798Y-90347673D01*
X96538793Y-90347664D01*
X96452547Y-90232455D01*
X96452544Y-90232452D01*
X96337335Y-90146206D01*
X96337328Y-90146202D01*
X96202482Y-90095908D01*
X96202483Y-90095908D01*
X96142883Y-90089501D01*
X96142881Y-90089500D01*
X96142873Y-90089500D01*
X96142864Y-90089500D01*
X94347129Y-90089500D01*
X94347123Y-90089501D01*
X94287516Y-90095908D01*
X94152671Y-90146202D01*
X94152664Y-90146206D01*
X94037455Y-90232452D01*
X94037452Y-90232455D01*
X93951206Y-90347664D01*
X93951202Y-90347671D01*
X93900908Y-90482517D01*
X93894501Y-90542116D01*
X93894500Y-90542135D01*
X88428310Y-90542135D01*
X88519320Y-90451125D01*
X88645716Y-90324728D01*
X88591550Y-90285375D01*
X88402217Y-90188904D01*
X88200129Y-90123242D01*
X87990246Y-90090000D01*
X87777754Y-90090000D01*
X87567872Y-90123242D01*
X87567869Y-90123242D01*
X87365782Y-90188904D01*
X87176439Y-90285380D01*
X87122282Y-90324727D01*
X87122282Y-90324728D01*
X87754591Y-90957037D01*
X87691007Y-90974075D01*
X87576993Y-91039901D01*
X87483901Y-91132993D01*
X87418075Y-91247007D01*
X87401037Y-91310591D01*
X86730818Y-90640372D01*
X86697333Y-90579049D01*
X86697330Y-90579036D01*
X86694499Y-90566015D01*
X86694499Y-90542128D01*
X86688091Y-90482517D01*
X86659926Y-90407002D01*
X86637798Y-90347673D01*
X86637793Y-90347664D01*
X86551547Y-90232455D01*
X86551544Y-90232452D01*
X86436335Y-90146206D01*
X86436328Y-90146202D01*
X86301482Y-90095908D01*
X86301483Y-90095908D01*
X86241883Y-90089501D01*
X86241881Y-90089500D01*
X86241873Y-90089500D01*
X86241864Y-90089500D01*
X84446129Y-90089500D01*
X84446123Y-90089501D01*
X84386516Y-90095908D01*
X84251671Y-90146202D01*
X84251664Y-90146206D01*
X84136455Y-90232452D01*
X84136452Y-90232455D01*
X84050206Y-90347664D01*
X84050202Y-90347671D01*
X83999908Y-90482517D01*
X83993501Y-90542116D01*
X83993500Y-90542135D01*
X79025310Y-90542135D01*
X79116320Y-90451125D01*
X79242716Y-90324728D01*
X79188550Y-90285375D01*
X78999217Y-90188904D01*
X78797129Y-90123242D01*
X78587246Y-90090000D01*
X78374754Y-90090000D01*
X78164872Y-90123242D01*
X78164869Y-90123242D01*
X77962782Y-90188904D01*
X77773439Y-90285380D01*
X77719282Y-90324727D01*
X77719282Y-90324728D01*
X78351591Y-90957037D01*
X78288007Y-90974075D01*
X78173993Y-91039901D01*
X78080901Y-91132993D01*
X78015075Y-91247007D01*
X77998037Y-91310591D01*
X77327818Y-90640372D01*
X77294333Y-90579049D01*
X77294330Y-90579036D01*
X77291499Y-90566015D01*
X77291499Y-90542128D01*
X77285091Y-90482517D01*
X77256926Y-90407002D01*
X77234798Y-90347673D01*
X77234793Y-90347664D01*
X77148547Y-90232455D01*
X77148544Y-90232452D01*
X77033335Y-90146206D01*
X77033328Y-90146202D01*
X76898482Y-90095908D01*
X76898483Y-90095908D01*
X76838883Y-90089501D01*
X76838881Y-90089500D01*
X76838873Y-90089500D01*
X76838864Y-90089500D01*
X75043129Y-90089500D01*
X75043123Y-90089501D01*
X74983516Y-90095908D01*
X74848671Y-90146202D01*
X74848664Y-90146206D01*
X74733455Y-90232452D01*
X74733452Y-90232455D01*
X74647206Y-90347664D01*
X74647202Y-90347671D01*
X74596908Y-90482517D01*
X74590501Y-90542116D01*
X74590500Y-90542135D01*
X66667500Y-90542135D01*
X66667500Y-88948153D01*
X121119500Y-88948153D01*
X121119500Y-89105846D01*
X121150261Y-89260489D01*
X121150264Y-89260501D01*
X121210602Y-89406172D01*
X121210609Y-89406185D01*
X121298210Y-89537288D01*
X121298213Y-89537292D01*
X121409707Y-89648786D01*
X121409711Y-89648789D01*
X121540814Y-89736390D01*
X121540827Y-89736397D01*
X121686498Y-89796735D01*
X121686503Y-89796737D01*
X121841153Y-89827499D01*
X121841156Y-89827500D01*
X121841158Y-89827500D01*
X121998844Y-89827500D01*
X121998845Y-89827499D01*
X122153497Y-89796737D01*
X122299179Y-89736394D01*
X122430289Y-89648789D01*
X122541789Y-89537289D01*
X122629394Y-89406179D01*
X122689737Y-89260497D01*
X122720500Y-89105842D01*
X122720500Y-88948158D01*
X122720500Y-88948155D01*
X122720499Y-88948153D01*
X123405500Y-88948153D01*
X123405500Y-89105846D01*
X123436261Y-89260489D01*
X123436264Y-89260501D01*
X123496602Y-89406172D01*
X123496609Y-89406185D01*
X123584210Y-89537288D01*
X123584213Y-89537292D01*
X123695707Y-89648786D01*
X123695711Y-89648789D01*
X123826814Y-89736390D01*
X123826827Y-89736397D01*
X123972498Y-89796735D01*
X123972503Y-89796737D01*
X124127153Y-89827499D01*
X124127156Y-89827500D01*
X124127158Y-89827500D01*
X124284844Y-89827500D01*
X124284845Y-89827499D01*
X124439497Y-89796737D01*
X124585179Y-89736394D01*
X124716289Y-89648789D01*
X124827789Y-89537289D01*
X124915394Y-89406179D01*
X124975737Y-89260497D01*
X125006500Y-89105842D01*
X125006500Y-88948158D01*
X125006500Y-88948155D01*
X125006499Y-88948153D01*
X124975738Y-88793510D01*
X124975737Y-88793503D01*
X124975735Y-88793498D01*
X124915397Y-88647827D01*
X124915390Y-88647814D01*
X124827789Y-88516711D01*
X124827786Y-88516707D01*
X124716292Y-88405213D01*
X124716288Y-88405210D01*
X124585185Y-88317609D01*
X124585172Y-88317602D01*
X124439501Y-88257264D01*
X124439489Y-88257261D01*
X124284845Y-88226500D01*
X124284842Y-88226500D01*
X124127158Y-88226500D01*
X124127155Y-88226500D01*
X123972510Y-88257261D01*
X123972498Y-88257264D01*
X123826827Y-88317602D01*
X123826814Y-88317609D01*
X123695711Y-88405210D01*
X123695707Y-88405213D01*
X123584213Y-88516707D01*
X123584210Y-88516711D01*
X123496609Y-88647814D01*
X123496602Y-88647827D01*
X123436264Y-88793498D01*
X123436261Y-88793510D01*
X123405500Y-88948153D01*
X122720499Y-88948153D01*
X122689738Y-88793510D01*
X122689737Y-88793503D01*
X122689735Y-88793498D01*
X122629397Y-88647827D01*
X122629390Y-88647814D01*
X122541789Y-88516711D01*
X122541786Y-88516707D01*
X122430292Y-88405213D01*
X122430288Y-88405210D01*
X122299185Y-88317609D01*
X122299172Y-88317602D01*
X122153501Y-88257264D01*
X122153489Y-88257261D01*
X121998845Y-88226500D01*
X121998842Y-88226500D01*
X121841158Y-88226500D01*
X121841155Y-88226500D01*
X121686510Y-88257261D01*
X121686498Y-88257264D01*
X121540827Y-88317602D01*
X121540814Y-88317609D01*
X121409711Y-88405210D01*
X121409707Y-88405213D01*
X121298213Y-88516707D01*
X121298210Y-88516711D01*
X121210609Y-88647814D01*
X121210602Y-88647827D01*
X121150264Y-88793498D01*
X121150261Y-88793510D01*
X121119500Y-88948153D01*
X66667500Y-88948153D01*
X66667500Y-87297153D01*
X70527700Y-87297153D01*
X70527700Y-87454846D01*
X70558461Y-87609489D01*
X70558464Y-87609501D01*
X70618802Y-87755172D01*
X70618809Y-87755185D01*
X70706410Y-87886288D01*
X70706413Y-87886292D01*
X70817907Y-87997786D01*
X70817911Y-87997789D01*
X70949014Y-88085390D01*
X70949027Y-88085397D01*
X71094698Y-88145735D01*
X71094703Y-88145737D01*
X71249353Y-88176499D01*
X71249356Y-88176500D01*
X71249358Y-88176500D01*
X71407044Y-88176500D01*
X71407045Y-88176499D01*
X71561697Y-88145737D01*
X71707379Y-88085394D01*
X71838489Y-87997789D01*
X71949989Y-87886289D01*
X72037594Y-87755179D01*
X72097937Y-87609497D01*
X72128700Y-87454842D01*
X72128700Y-87297158D01*
X72128700Y-87297155D01*
X72128699Y-87297153D01*
X79971500Y-87297153D01*
X79971500Y-87454846D01*
X80002261Y-87609489D01*
X80002264Y-87609501D01*
X80062602Y-87755172D01*
X80062609Y-87755185D01*
X80150210Y-87886288D01*
X80150213Y-87886292D01*
X80261707Y-87997786D01*
X80261711Y-87997789D01*
X80392814Y-88085390D01*
X80392827Y-88085397D01*
X80538498Y-88145735D01*
X80538503Y-88145737D01*
X80693153Y-88176499D01*
X80693156Y-88176500D01*
X80693158Y-88176500D01*
X80850844Y-88176500D01*
X80850845Y-88176499D01*
X81005497Y-88145737D01*
X81151179Y-88085394D01*
X81282289Y-87997789D01*
X81393789Y-87886289D01*
X81481394Y-87755179D01*
X81541737Y-87609497D01*
X81572500Y-87454842D01*
X81572500Y-87297158D01*
X81572500Y-87297155D01*
X81572499Y-87297153D01*
X89623500Y-87297153D01*
X89623500Y-87454846D01*
X89654261Y-87609489D01*
X89654264Y-87609501D01*
X89714602Y-87755172D01*
X89714609Y-87755185D01*
X89802210Y-87886288D01*
X89802213Y-87886292D01*
X89913707Y-87997786D01*
X89913711Y-87997789D01*
X90044814Y-88085390D01*
X90044827Y-88085397D01*
X90190498Y-88145735D01*
X90190503Y-88145737D01*
X90345153Y-88176499D01*
X90345156Y-88176500D01*
X90345158Y-88176500D01*
X90502844Y-88176500D01*
X90502845Y-88176499D01*
X90657497Y-88145737D01*
X90803179Y-88085394D01*
X90934289Y-87997789D01*
X91045789Y-87886289D01*
X91133394Y-87755179D01*
X91193737Y-87609497D01*
X91224500Y-87454842D01*
X91224500Y-87297158D01*
X91224500Y-87297155D01*
X91224499Y-87297153D01*
X99783500Y-87297153D01*
X99783500Y-87454846D01*
X99814261Y-87609489D01*
X99814264Y-87609501D01*
X99874602Y-87755172D01*
X99874609Y-87755185D01*
X99962210Y-87886288D01*
X99962213Y-87886292D01*
X100073707Y-87997786D01*
X100073711Y-87997789D01*
X100204814Y-88085390D01*
X100204827Y-88085397D01*
X100350498Y-88145735D01*
X100350503Y-88145737D01*
X100505153Y-88176499D01*
X100505156Y-88176500D01*
X100505158Y-88176500D01*
X100662844Y-88176500D01*
X100662845Y-88176499D01*
X100817497Y-88145737D01*
X100963179Y-88085394D01*
X101094289Y-87997789D01*
X101205789Y-87886289D01*
X101293394Y-87755179D01*
X101353737Y-87609497D01*
X101384500Y-87454842D01*
X101384500Y-87297158D01*
X101384500Y-87297155D01*
X101384499Y-87297153D01*
X109435500Y-87297153D01*
X109435500Y-87454846D01*
X109466261Y-87609489D01*
X109466264Y-87609501D01*
X109526602Y-87755172D01*
X109526609Y-87755185D01*
X109614210Y-87886288D01*
X109614213Y-87886292D01*
X109725707Y-87997786D01*
X109725711Y-87997789D01*
X109856814Y-88085390D01*
X109856827Y-88085397D01*
X110002498Y-88145735D01*
X110002503Y-88145737D01*
X110157153Y-88176499D01*
X110157156Y-88176500D01*
X110157158Y-88176500D01*
X110314844Y-88176500D01*
X110314845Y-88176499D01*
X110469497Y-88145737D01*
X110615179Y-88085394D01*
X110746289Y-87997789D01*
X110857789Y-87886289D01*
X110945394Y-87755179D01*
X111005737Y-87609497D01*
X111036500Y-87454842D01*
X111036500Y-87297158D01*
X111036500Y-87297155D01*
X111036499Y-87297153D01*
X111017671Y-87202500D01*
X111005737Y-87142503D01*
X111005735Y-87142498D01*
X110945397Y-86996827D01*
X110945390Y-86996814D01*
X110857789Y-86865711D01*
X110857786Y-86865707D01*
X110746292Y-86754213D01*
X110746288Y-86754210D01*
X110615185Y-86666609D01*
X110615172Y-86666602D01*
X110469501Y-86606264D01*
X110469489Y-86606261D01*
X110314845Y-86575500D01*
X110314842Y-86575500D01*
X110157158Y-86575500D01*
X110157155Y-86575500D01*
X110002510Y-86606261D01*
X110002498Y-86606264D01*
X109856827Y-86666602D01*
X109856814Y-86666609D01*
X109725711Y-86754210D01*
X109725707Y-86754213D01*
X109614213Y-86865707D01*
X109614210Y-86865711D01*
X109526609Y-86996814D01*
X109526602Y-86996827D01*
X109466264Y-87142498D01*
X109466261Y-87142510D01*
X109435500Y-87297153D01*
X101384499Y-87297153D01*
X101365671Y-87202500D01*
X101353737Y-87142503D01*
X101353735Y-87142498D01*
X101293397Y-86996827D01*
X101293390Y-86996814D01*
X101205789Y-86865711D01*
X101205786Y-86865707D01*
X101094292Y-86754213D01*
X101094288Y-86754210D01*
X100963185Y-86666609D01*
X100963172Y-86666602D01*
X100817501Y-86606264D01*
X100817489Y-86606261D01*
X100662845Y-86575500D01*
X100662842Y-86575500D01*
X100505158Y-86575500D01*
X100505155Y-86575500D01*
X100350510Y-86606261D01*
X100350498Y-86606264D01*
X100204827Y-86666602D01*
X100204814Y-86666609D01*
X100073711Y-86754210D01*
X100073707Y-86754213D01*
X99962213Y-86865707D01*
X99962210Y-86865711D01*
X99874609Y-86996814D01*
X99874602Y-86996827D01*
X99814264Y-87142498D01*
X99814261Y-87142510D01*
X99783500Y-87297153D01*
X91224499Y-87297153D01*
X91205671Y-87202500D01*
X91193737Y-87142503D01*
X91193735Y-87142498D01*
X91133397Y-86996827D01*
X91133390Y-86996814D01*
X91045789Y-86865711D01*
X91045786Y-86865707D01*
X90934292Y-86754213D01*
X90934288Y-86754210D01*
X90803185Y-86666609D01*
X90803172Y-86666602D01*
X90657501Y-86606264D01*
X90657489Y-86606261D01*
X90502845Y-86575500D01*
X90502842Y-86575500D01*
X90345158Y-86575500D01*
X90345155Y-86575500D01*
X90190510Y-86606261D01*
X90190498Y-86606264D01*
X90044827Y-86666602D01*
X90044814Y-86666609D01*
X89913711Y-86754210D01*
X89913707Y-86754213D01*
X89802213Y-86865707D01*
X89802210Y-86865711D01*
X89714609Y-86996814D01*
X89714602Y-86996827D01*
X89654264Y-87142498D01*
X89654261Y-87142510D01*
X89623500Y-87297153D01*
X81572499Y-87297153D01*
X81553671Y-87202500D01*
X81541737Y-87142503D01*
X81541735Y-87142498D01*
X81481397Y-86996827D01*
X81481390Y-86996814D01*
X81393789Y-86865711D01*
X81393786Y-86865707D01*
X81282292Y-86754213D01*
X81282288Y-86754210D01*
X81151185Y-86666609D01*
X81151172Y-86666602D01*
X81005501Y-86606264D01*
X81005489Y-86606261D01*
X80850845Y-86575500D01*
X80850842Y-86575500D01*
X80693158Y-86575500D01*
X80693155Y-86575500D01*
X80538510Y-86606261D01*
X80538498Y-86606264D01*
X80392827Y-86666602D01*
X80392814Y-86666609D01*
X80261711Y-86754210D01*
X80261707Y-86754213D01*
X80150213Y-86865707D01*
X80150210Y-86865711D01*
X80062609Y-86996814D01*
X80062602Y-86996827D01*
X80002264Y-87142498D01*
X80002261Y-87142510D01*
X79971500Y-87297153D01*
X72128699Y-87297153D01*
X72109871Y-87202500D01*
X72097937Y-87142503D01*
X72097935Y-87142498D01*
X72037597Y-86996827D01*
X72037590Y-86996814D01*
X71949989Y-86865711D01*
X71949986Y-86865707D01*
X71838492Y-86754213D01*
X71838488Y-86754210D01*
X71707385Y-86666609D01*
X71707372Y-86666602D01*
X71561701Y-86606264D01*
X71561689Y-86606261D01*
X71407045Y-86575500D01*
X71407042Y-86575500D01*
X71249358Y-86575500D01*
X71249355Y-86575500D01*
X71094710Y-86606261D01*
X71094698Y-86606264D01*
X70949027Y-86666602D01*
X70949014Y-86666609D01*
X70817911Y-86754210D01*
X70817907Y-86754213D01*
X70706413Y-86865707D01*
X70706410Y-86865711D01*
X70618809Y-86996814D01*
X70618802Y-86996827D01*
X70558464Y-87142498D01*
X70558461Y-87142510D01*
X70527700Y-87297153D01*
X66667500Y-87297153D01*
X66667500Y-85871250D01*
X66667726Y-85863763D01*
X66673929Y-85761213D01*
X66674867Y-85745713D01*
X67737500Y-85745713D01*
X67737500Y-85958287D01*
X67770754Y-86168243D01*
X67775790Y-86183743D01*
X67836444Y-86370414D01*
X67932951Y-86559820D01*
X68057890Y-86731786D01*
X68208213Y-86882109D01*
X68380179Y-87007048D01*
X68380181Y-87007049D01*
X68380184Y-87007051D01*
X68569588Y-87103557D01*
X68771757Y-87169246D01*
X68981713Y-87202500D01*
X68981714Y-87202500D01*
X69194286Y-87202500D01*
X69194287Y-87202500D01*
X69404243Y-87169246D01*
X69606412Y-87103557D01*
X69795816Y-87007051D01*
X69817789Y-86991086D01*
X69967786Y-86882109D01*
X69967788Y-86882106D01*
X69967792Y-86882104D01*
X70118104Y-86731792D01*
X70118106Y-86731788D01*
X70118109Y-86731786D01*
X70243048Y-86559820D01*
X70243047Y-86559820D01*
X70243051Y-86559816D01*
X70339557Y-86370412D01*
X70405246Y-86168243D01*
X70438500Y-85958287D01*
X70438500Y-85761213D01*
X122522500Y-85761213D01*
X122522500Y-85973787D01*
X122555754Y-86183743D01*
X122616407Y-86370414D01*
X122621444Y-86385914D01*
X122717951Y-86575320D01*
X122842890Y-86747286D01*
X122993213Y-86897609D01*
X123165179Y-87022548D01*
X123165181Y-87022549D01*
X123165184Y-87022551D01*
X123354588Y-87119057D01*
X123556757Y-87184746D01*
X123766713Y-87218000D01*
X123766714Y-87218000D01*
X123979286Y-87218000D01*
X123979287Y-87218000D01*
X124189243Y-87184746D01*
X124391412Y-87119057D01*
X124580816Y-87022551D01*
X124616240Y-86996814D01*
X124752786Y-86897609D01*
X124752788Y-86897606D01*
X124752792Y-86897604D01*
X124903104Y-86747292D01*
X124903106Y-86747288D01*
X124903109Y-86747286D01*
X125028048Y-86575320D01*
X125028047Y-86575320D01*
X125028051Y-86575316D01*
X125124557Y-86385912D01*
X125190246Y-86183743D01*
X125223500Y-85973787D01*
X125223500Y-85761213D01*
X125190246Y-85551257D01*
X125124557Y-85349088D01*
X125028051Y-85159684D01*
X125028049Y-85159681D01*
X125028048Y-85159679D01*
X124903109Y-84987713D01*
X124752786Y-84837390D01*
X124580820Y-84712451D01*
X124391414Y-84615944D01*
X124391413Y-84615943D01*
X124391412Y-84615943D01*
X124189243Y-84550254D01*
X124189241Y-84550253D01*
X124189240Y-84550253D01*
X124027957Y-84524708D01*
X123979287Y-84517000D01*
X123766713Y-84517000D01*
X123718042Y-84524708D01*
X123556760Y-84550253D01*
X123354585Y-84615944D01*
X123165179Y-84712451D01*
X122993213Y-84837390D01*
X122842890Y-84987713D01*
X122717951Y-85159679D01*
X122621444Y-85349085D01*
X122555753Y-85551260D01*
X122532903Y-85695531D01*
X122522500Y-85761213D01*
X70438500Y-85761213D01*
X70438500Y-85745713D01*
X70405246Y-85535757D01*
X70339557Y-85333588D01*
X70243051Y-85144184D01*
X70243049Y-85144181D01*
X70243048Y-85144179D01*
X70118109Y-84972213D01*
X69967786Y-84821890D01*
X69795820Y-84696951D01*
X69606414Y-84600444D01*
X69606413Y-84600443D01*
X69606412Y-84600443D01*
X69404243Y-84534754D01*
X69404241Y-84534753D01*
X69404240Y-84534753D01*
X69242957Y-84509208D01*
X69194287Y-84501500D01*
X68981713Y-84501500D01*
X68933042Y-84509208D01*
X68771760Y-84534753D01*
X68569585Y-84600444D01*
X68380179Y-84696951D01*
X68208213Y-84821890D01*
X68057890Y-84972213D01*
X67932951Y-85144179D01*
X67836444Y-85333585D01*
X67770753Y-85535760D01*
X67745448Y-85695531D01*
X67737500Y-85745713D01*
X66674867Y-85745713D01*
X66685271Y-85573701D01*
X66687076Y-85558840D01*
X66738780Y-85276701D01*
X66742364Y-85262163D01*
X66774298Y-85159684D01*
X66827696Y-84988322D01*
X66832998Y-84974341D01*
X66950731Y-84712749D01*
X66957676Y-84699516D01*
X67106080Y-84454026D01*
X67114567Y-84441730D01*
X67291480Y-84215917D01*
X67301395Y-84204726D01*
X67504226Y-84001895D01*
X67515417Y-83991980D01*
X67741230Y-83815067D01*
X67753526Y-83806580D01*
X67999016Y-83658176D01*
X68012249Y-83651231D01*
X68273841Y-83533498D01*
X68287822Y-83528196D01*
X68561668Y-83442862D01*
X68576197Y-83439280D01*
X68858344Y-83387575D01*
X68873201Y-83385771D01*
X69163264Y-83368226D01*
X69170751Y-83368000D01*
X69232892Y-83368000D01*
X123807108Y-83368000D01*
X123869249Y-83368000D01*
X123876736Y-83368226D01*
G37*
%TD.AperFunction*%
%TD*%
M02*
