M48
; DRILL file {KiCad 9.0.4} date 2026-06-04T22:37:21-0400
; FORMAT={-:-/ absolute / inch / decimal}
; #@! TF.CreationDate,2026-06-04T22:37:21-04:00
; #@! TF.GenerationSoftware,Kicad,Pcbnew,9.0.4
; #@! TF.FileFunction,Plated,1,4,PTH
FMAT,2
INCH
; #@! TA.AperFunction,Plated,PTH,ViaDrill
T1C0.0118
; #@! TA.AperFunction,Plated,PTH,ComponentDrill
T2C0.0236
; #@! TA.AperFunction,Plated,PTH,ComponentDrill
T3C0.0315
; #@! TA.AperFunction,Plated,PTH,ComponentDrill
T4C0.0354
; #@! TA.AperFunction,Plated,PTH,ComponentDrill
T5C0.0394
; #@! TA.AperFunction,Plated,PTH,ComponentDrill
T6C0.0433
%
G90
G05
T1
X2.64Y-3.54
X2.64Y-3.64
X2.72Y-4.5926
X2.72Y-4.9126
X2.78Y-4.12
X2.86Y-4.18
X2.8848Y-3.78
X2.9Y-3.44
X2.92Y-4.44
X2.94Y-3.9
X2.95Y-4.66
X2.96Y-4.0559
X2.96Y-4.46
X3.0Y-4.62
X3.02Y-4.25
X3.08Y-4.0559
X3.08Y-4.46
X3.1232Y-4.3368
X3.125Y-3.815
X3.13Y-3.9
X3.1351Y-4.3849
X3.14Y-4.28
X3.18Y-3.38
X3.18Y-3.68
X3.2548Y-3.77
X3.3Y-3.58
X3.3Y-4.3
X3.33Y-3.92
X3.36Y-4.67
X3.48Y-4.52
X3.5Y-4.075
X3.52Y-4.34
X3.55Y-4.19
X3.575Y-4.78
X3.6Y-3.38
X3.6Y-3.68
X3.65Y-4.425
X3.66Y-4.18
X3.675Y-4.075
X3.72Y-3.58
X3.73Y-4.54
X3.7435Y-4.35
X3.775Y-4.35
X3.7833Y-4.685
X3.8167Y-4.685
X3.825Y-4.1
X3.8325Y-4.7125
X3.8444Y-4.4056
X3.89Y-4.09
X3.905Y-4.345
X3.92Y-4.54
X3.925Y-4.175
X3.925Y-4.275
X3.95Y-4.025
X4.0Y-3.36
X4.0Y-3.68
X4.03Y-4.78
X4.05Y-4.425
X4.1Y-4.15
X4.1Y-4.7
X4.14Y-3.58
X4.2833Y-3.95
X4.285Y-4.42
X4.3167Y-3.95
X4.3239Y-4.4202
X4.355Y-4.415
X4.39Y-4.415
X4.415Y-4.7
X4.42Y-3.36
X4.465Y-4.48
X4.48Y-3.66
X4.525Y-4.075
X4.525Y-4.2
X4.56Y-3.58
X4.645Y-4.705
X4.645Y-4.955
X4.725Y-4.075
X4.725Y-4.2
X4.82Y-3.5
X4.86Y-3.97
X4.86Y-4.705
X4.86Y-4.95
X4.875Y-3.75
X4.925Y-3.5174
X4.925Y-3.6924
X4.925Y-4.65
X4.9271Y-3.7521
T3
X2.8706Y-4.7529
X2.9494Y-4.7529
T4
X3.165Y-4.865
X3.28Y-4.6
X3.4Y-3.84
X3.435Y-4.19
X3.745Y-3.925
X3.945Y-3.925
T5
X4.23Y-4.78
X4.23Y-4.88
X4.33Y-4.78
X4.33Y-4.88
T6
X2.8906Y-3.5
X3.0283Y-3.5
X3.3078Y-3.5
X3.4456Y-3.5
X3.725Y-3.5
X3.8628Y-3.5
X4.1422Y-3.5
X4.28Y-3.5
X4.5594Y-3.5
X4.6972Y-3.5
T2
G00X3.6299Y-4.7561
M15
G01X3.6299Y-4.7994
M16
G05
G00X3.6299Y-4.9266
M15
G01X3.6299Y-4.9581
M16
G05
G00X3.9701Y-4.7561
M15
G01X3.9701Y-4.7994
M16
G05
G00X3.9701Y-4.9266
M15
G01X3.9701Y-4.9581
M16
G05
M30
