%TF.GenerationSoftware,KiCad,Pcbnew,9.0.4*%
%TF.CreationDate,2026-06-01T19:18:12-04:00*%
%TF.ProjectId,wrist_board,77726973-745f-4626-9f61-72642e6b6963,rev?*%
%TF.SameCoordinates,Original*%
%TF.FileFunction,Soldermask,Top*%
%TF.FilePolarity,Negative*%
%FSLAX46Y46*%
G04 Gerber Fmt 4.6, Leading zero omitted, Abs format (unit mm)*
G04 Created by KiCad (PCBNEW 9.0.4) date 2026-06-01 19:18:12*
%MOMM*%
%LPD*%
G01*
G04 APERTURE LIST*
G04 Aperture macros list*
%AMRoundRect*
0 Rectangle with rounded corners*
0 $1 Rounding radius*
0 $2 $3 $4 $5 $6 $7 $8 $9 X,Y pos of 4 corners*
0 Add a 4 corners polygon primitive as box body*
4,1,4,$2,$3,$4,$5,$6,$7,$8,$9,$2,$3,0*
0 Add four circle primitives for the rounded corners*
1,1,$1+$1,$2,$3*
1,1,$1+$1,$4,$5*
1,1,$1+$1,$6,$7*
1,1,$1+$1,$8,$9*
0 Add four rect primitives between the rounded corners*
20,1,$1+$1,$2,$3,$4,$5,0*
20,1,$1+$1,$4,$5,$6,$7,0*
20,1,$1+$1,$6,$7,$8,$9,0*
20,1,$1+$1,$8,$9,$2,$3,0*%
G04 Aperture macros list end*
%ADD10C,1.800000*%
%ADD11RoundRect,0.150000X-0.512500X-0.150000X0.512500X-0.150000X0.512500X0.150000X-0.512500X0.150000X0*%
%ADD12RoundRect,0.250000X0.503814X0.132583X0.132583X0.503814X-0.503814X-0.132583X-0.132583X-0.503814X0*%
%ADD13R,1.700000X1.700000*%
%ADD14C,1.700000*%
%ADD15RoundRect,0.250000X0.450000X-0.262500X0.450000X0.262500X-0.450000X0.262500X-0.450000X-0.262500X0*%
%ADD16RoundRect,0.243750X0.456250X-0.243750X0.456250X0.243750X-0.456250X0.243750X-0.456250X-0.243750X0*%
%ADD17RoundRect,0.243750X0.243750X0.456250X-0.243750X0.456250X-0.243750X-0.456250X0.243750X-0.456250X0*%
%ADD18RoundRect,0.250000X0.475000X-0.250000X0.475000X0.250000X-0.475000X0.250000X-0.475000X-0.250000X0*%
%ADD19RoundRect,0.250000X-0.475000X0.250000X-0.475000X-0.250000X0.475000X-0.250000X0.475000X0.250000X0*%
%ADD20R,1.700000X0.900000*%
%ADD21RoundRect,0.250000X0.262500X0.450000X-0.262500X0.450000X-0.262500X-0.450000X0.262500X-0.450000X0*%
%ADD22RoundRect,0.102000X-0.635000X-0.279400X0.635000X-0.279400X0.635000X0.279400X-0.635000X0.279400X0*%
%ADD23RoundRect,0.150000X-0.150000X-0.425000X0.150000X-0.425000X0.150000X0.425000X-0.150000X0.425000X0*%
%ADD24RoundRect,0.075000X-0.075000X-0.500000X0.075000X-0.500000X0.075000X0.500000X-0.075000X0.500000X0*%
%ADD25O,1.000000X2.100000*%
%ADD26O,1.000000X1.800000*%
%ADD27RoundRect,0.250000X0.250000X0.475000X-0.250000X0.475000X-0.250000X-0.475000X0.250000X-0.475000X0*%
%ADD28RoundRect,0.243750X-0.456250X0.243750X-0.456250X-0.243750X0.456250X-0.243750X0.456250X0.243750X0*%
%ADD29RoundRect,0.150000X-0.500000X0.150000X-0.500000X-0.150000X0.500000X-0.150000X0.500000X0.150000X0*%
%ADD30RoundRect,0.175000X-0.175000X0.350000X-0.175000X-0.350000X0.175000X-0.350000X0.175000X0.350000X0*%
%ADD31RoundRect,0.102000X-0.450000X0.750000X-0.450000X-0.750000X0.450000X-0.750000X0.450000X0.750000X0*%
%ADD32RoundRect,0.102000X-0.750000X0.450000X-0.750000X-0.450000X0.750000X-0.450000X0.750000X0.450000X0*%
%ADD33RoundRect,0.102000X-0.450000X0.450000X-0.450000X-0.450000X0.450000X-0.450000X0.450000X0.450000X0*%
%ADD34RoundRect,0.075000X-0.350000X-0.075000X0.350000X-0.075000X0.350000X0.075000X-0.350000X0.075000X0*%
%ADD35RoundRect,0.075000X0.075000X-0.350000X0.075000X0.350000X-0.075000X0.350000X-0.075000X-0.350000X0*%
%ADD36RoundRect,0.250000X-0.450000X0.262500X-0.450000X-0.262500X0.450000X-0.262500X0.450000X0.262500X0*%
%ADD37RoundRect,0.102000X-0.654000X-0.654000X0.654000X-0.654000X0.654000X0.654000X-0.654000X0.654000X0*%
%ADD38C,1.512000*%
%ADD39RoundRect,0.250000X-0.262500X-0.450000X0.262500X-0.450000X0.262500X0.450000X-0.262500X0.450000X0*%
G04 APERTURE END LIST*
D10*
%TO.C,TP5*%
X81280000Y-117348000D03*
%TD*%
D11*
%TO.C,U2*%
X76708000Y-100208000D03*
X76708000Y-101158000D03*
X76708000Y-102108000D03*
X78983000Y-102108000D03*
X78983000Y-100208000D03*
%TD*%
D12*
%TO.C,R6*%
X103261235Y-118501235D03*
X101970765Y-117210765D03*
%TD*%
D13*
%TO.C,J5*%
X95245000Y-91440000D03*
D14*
X97785000Y-91440000D03*
%TD*%
D15*
%TO.C,R13*%
X102870000Y-111125000D03*
X102870000Y-109300000D03*
%TD*%
D10*
%TO.C,TP1*%
X87249000Y-106426000D03*
%TD*%
D13*
%TO.C,J8*%
X109982000Y-121412000D03*
D14*
X109982000Y-123952000D03*
X107442000Y-121412000D03*
X107442000Y-123952000D03*
%TD*%
D16*
%TO.C,D2*%
X87630000Y-121666000D03*
X87630000Y-119791000D03*
%TD*%
D17*
%TO.C,D3*%
X83058000Y-101951000D03*
X81183000Y-101951000D03*
%TD*%
D18*
%TO.C,C3*%
X78232000Y-98298000D03*
X78232000Y-96398000D03*
%TD*%
D15*
%TO.C,R9*%
X91948000Y-88900000D03*
X91948000Y-87075000D03*
%TD*%
D19*
%TO.C,C7*%
X91948000Y-90424000D03*
X91948000Y-92324000D03*
%TD*%
D18*
%TO.C,C2*%
X69088000Y-119700000D03*
X69088000Y-117800000D03*
%TD*%
D20*
%TO.C,SW3*%
X123444000Y-124509000D03*
X123444000Y-121109000D03*
%TD*%
D10*
%TO.C,TP2*%
X100203000Y-99695000D03*
%TD*%
D21*
%TO.C,R17*%
X115189000Y-119380000D03*
X113364000Y-119380000D03*
%TD*%
D22*
%TO.C,U1*%
X72618600Y-112344200D03*
X72618600Y-113284000D03*
X72618600Y-114223800D03*
X75209400Y-114223800D03*
X75209400Y-112344200D03*
%TD*%
D19*
%TO.C,C9*%
X72852200Y-90556000D03*
X72852200Y-92456000D03*
%TD*%
D23*
%TO.C,J2*%
X93320000Y-120780000D03*
X94120000Y-120780000D03*
D24*
X95270000Y-120780000D03*
X96270000Y-120780000D03*
X96770000Y-120780000D03*
X97770000Y-120780000D03*
D23*
X98920000Y-120780000D03*
X99720000Y-120780000D03*
X99720000Y-120780000D03*
X98920000Y-120780000D03*
D24*
X98270000Y-120780000D03*
X97270000Y-120780000D03*
X95770000Y-120780000D03*
X94770000Y-120780000D03*
D23*
X94120000Y-120780000D03*
X93320000Y-120780000D03*
D25*
X92200000Y-121355000D03*
D26*
X92200000Y-125535000D03*
D25*
X100840000Y-121355000D03*
D26*
X100840000Y-125535000D03*
%TD*%
D15*
%TO.C,R12*%
X121920000Y-92075000D03*
X121920000Y-90250000D03*
%TD*%
%TO.C,R8*%
X102108000Y-88900000D03*
X102108000Y-87075000D03*
%TD*%
D21*
%TO.C,R16*%
X82961000Y-104237000D03*
X81136000Y-104237000D03*
%TD*%
D19*
%TO.C,C8*%
X82296000Y-90424000D03*
X82296000Y-92324000D03*
%TD*%
D27*
%TO.C,C11*%
X95885000Y-112395000D03*
X93985000Y-112395000D03*
%TD*%
D18*
%TO.C,C4*%
X80518000Y-98298000D03*
X80518000Y-96398000D03*
%TD*%
D17*
%TO.C,F1*%
X91694000Y-117602000D03*
X89819000Y-117602000D03*
%TD*%
D10*
%TO.C,TP3*%
X95123000Y-99695000D03*
%TD*%
D12*
%TO.C,R7*%
X103505000Y-104150235D03*
X102214530Y-102859765D03*
%TD*%
D15*
%TO.C,R1*%
X99314000Y-118364000D03*
X99314000Y-116539000D03*
%TD*%
D27*
%TO.C,C5*%
X92456000Y-110236000D03*
X90556000Y-110236000D03*
%TD*%
D28*
%TO.C,D1*%
X80772000Y-111155000D03*
X80772000Y-113030000D03*
%TD*%
D10*
%TO.C,TP6*%
X85725000Y-98679000D03*
%TD*%
D29*
%TO.C,SW1*%
X70530000Y-102906000D03*
X70530000Y-105906000D03*
X70530000Y-107406000D03*
D30*
X69680000Y-101481000D03*
X67480000Y-101481000D03*
X69680000Y-108831000D03*
X67480000Y-108831000D03*
%TD*%
D13*
%TO.C,J3*%
X115001200Y-91440000D03*
D14*
X117541200Y-91440000D03*
%TD*%
D15*
%TO.C,R15*%
X85344000Y-121666000D03*
X85344000Y-119841000D03*
%TD*%
D20*
%TO.C,SW2*%
X117983000Y-124509000D03*
X117983000Y-121109000D03*
%TD*%
D19*
%TO.C,C10*%
X69088000Y-121732000D03*
X69088000Y-123632000D03*
%TD*%
D27*
%TO.C,C1*%
X91694000Y-114808000D03*
X89794000Y-114808000D03*
%TD*%
D13*
%TO.C,J6*%
X85344000Y-91440000D03*
D14*
X87884000Y-91440000D03*
%TD*%
D31*
%TO.C,X1*%
X125148000Y-97930000D03*
X123878000Y-97930000D03*
X122608000Y-97930000D03*
X121338000Y-97930000D03*
X120068000Y-97930000D03*
X118798000Y-97930000D03*
X117528000Y-97930000D03*
X116258000Y-97930000D03*
X114988000Y-97930000D03*
X113718000Y-97930000D03*
X112448000Y-97930000D03*
X111178000Y-97930000D03*
X109908000Y-97930000D03*
X108638000Y-97930000D03*
D32*
X107388000Y-99695000D03*
X107388000Y-100965000D03*
X107388000Y-102235000D03*
X107388000Y-103505000D03*
X107388000Y-104775000D03*
X107388000Y-106045000D03*
X107388000Y-107315000D03*
X107388000Y-108585000D03*
X107388000Y-109855000D03*
X107388000Y-111125000D03*
X107388000Y-112395000D03*
X107388000Y-113665000D03*
D31*
X108638000Y-115430000D03*
X109908000Y-115430000D03*
X111178000Y-115430000D03*
X112448000Y-115430000D03*
X113718000Y-115430000D03*
X114988000Y-115430000D03*
X116258000Y-115430000D03*
X117528000Y-115430000D03*
X118798000Y-115430000D03*
X120068000Y-115430000D03*
X121338000Y-115430000D03*
X122608000Y-115430000D03*
X123878000Y-115430000D03*
X125148000Y-115430000D03*
D33*
X117428000Y-105180000D03*
X118828000Y-105180000D03*
X118828000Y-103780000D03*
X117428000Y-103780000D03*
X116028000Y-103780000D03*
X116028000Y-105180000D03*
X116028000Y-106580000D03*
X117428000Y-106580000D03*
X118828000Y-106580000D03*
%TD*%
D27*
%TO.C,C12*%
X92390000Y-103505000D03*
X90490000Y-103505000D03*
%TD*%
D34*
%TO.C,U3*%
X94525000Y-106020000D03*
X94525000Y-106520000D03*
X94525000Y-107020000D03*
X94525000Y-107520000D03*
X94525000Y-108020000D03*
X94525000Y-108520000D03*
D35*
X95225000Y-109220000D03*
X95725000Y-109220000D03*
X96225000Y-109220000D03*
X96725000Y-109220000D03*
X97225000Y-109220000D03*
X97725000Y-109220000D03*
D34*
X98425000Y-108520000D03*
X98425000Y-108020000D03*
X98425000Y-107520000D03*
X98425000Y-107020000D03*
X98425000Y-106520000D03*
X98425000Y-106020000D03*
D35*
X97725000Y-105320000D03*
X97225000Y-105320000D03*
X96725000Y-105320000D03*
X96225000Y-105320000D03*
X95725000Y-105320000D03*
X95225000Y-105320000D03*
%TD*%
D36*
%TO.C,R3*%
X78232000Y-111180000D03*
X78232000Y-113005000D03*
%TD*%
D10*
%TO.C,TP4*%
X80391000Y-123571000D03*
%TD*%
D13*
%TO.C,J7*%
X75941000Y-91440000D03*
D14*
X78481000Y-91440000D03*
%TD*%
D15*
%TO.C,R10*%
X82296000Y-88796500D03*
X82296000Y-86971500D03*
%TD*%
D37*
%TO.C,J1*%
X72914000Y-120723500D03*
D38*
X74914000Y-120723500D03*
%TD*%
D19*
%TO.C,C13*%
X111760000Y-90556000D03*
X111760000Y-92456000D03*
%TD*%
D15*
%TO.C,R11*%
X72852200Y-88900000D03*
X72852200Y-87075000D03*
%TD*%
D39*
%TO.C,R4*%
X74121000Y-109728000D03*
X75946000Y-109728000D03*
%TD*%
D15*
%TO.C,R2*%
X94742000Y-118364000D03*
X94742000Y-116539000D03*
%TD*%
%TO.C,R14*%
X111760000Y-88900000D03*
X111760000Y-87075000D03*
%TD*%
D19*
%TO.C,C6*%
X102108000Y-90556000D03*
X102108000Y-92456000D03*
%TD*%
%TO.C,C14*%
X124206000Y-90175000D03*
X124206000Y-92075000D03*
%TD*%
D13*
%TO.C,J4*%
X105405000Y-91440000D03*
D14*
X107945000Y-91440000D03*
%TD*%
D36*
%TO.C,R5*%
X73914000Y-100283000D03*
X73914000Y-102108000D03*
%TD*%
M02*
