M48
; DRILL file {KiCad 9.0.4} date 2026-06-01T19:18:13-0400
; FORMAT={-:-/ absolute / inch / decimal}
; #@! TF.CreationDate,2026-06-01T19:18:13-04:00
; #@! TF.GenerationSoftware,Kicad,Pcbnew,9.0.4
; #@! TF.FileFunction,Plated,1,4,PTH
FMAT,2
INCH
; #@! TA.AperFunction,Plated,PTH,ViaDrill
T1C0.0118
; #@! TA.AperFunction,Plated,PTH,ViaDrill
T2C0.0157
; #@! TA.AperFunction,Plated,PTH,ComponentDrill
T3C0.0236
; #@! TA.AperFunction,Plated,PTH,ComponentDrill
T4C0.0315
; #@! TA.AperFunction,Plated,PTH,ComponentDrill
T5C0.0354
; #@! TA.AperFunction,Plated,PTH,ComponentDrill
T6C0.0394
%
G90
G05
T1
X2.72Y-4.5926
X2.72Y-4.9126
X2.76Y-4.5
X2.78Y-4.12
X2.8Y-4.46
X2.8082Y-3.44
X2.8082Y-3.64
X2.95Y-4.66
X2.97Y-3.99
X3.02Y-4.45
X3.08Y-3.75
X3.1462Y-4.1038
X3.17Y-3.75
X3.18Y-3.44
X3.18Y-3.6
X3.18Y-3.66
X3.36Y-4.67
X3.48Y-4.52
X3.5Y-4.075
X3.52Y-4.34
X3.55Y-3.6
X3.55Y-4.19
X3.56Y-3.44
X3.575Y-4.78
X3.62Y-3.68
X3.65Y-4.425
X3.66Y-4.18
X3.675Y-4.075
X3.73Y-4.54
X3.7435Y-4.35
X3.775Y-4.35
X3.7833Y-4.685
X3.8167Y-4.685
X3.825Y-4.1
X3.8325Y-4.7125
X3.8444Y-4.4056
X3.89Y-4.09
X3.905Y-4.345
X3.92Y-4.54
X3.925Y-4.175
X3.925Y-4.275
X3.95Y-4.025
X3.96Y-3.44
X3.96Y-3.6
X4.02Y-3.68
X4.03Y-4.78
X4.05Y-4.425
X4.1Y-4.15
X4.1Y-4.7
X4.2833Y-3.95
X4.285Y-4.42
X4.3167Y-3.95
X4.3239Y-4.4202
X4.34Y-3.44
X4.34Y-3.6
X4.34Y-3.64
X4.355Y-4.415
X4.39Y-4.415
X4.415Y-4.7
X4.465Y-4.48
X4.525Y-4.075
X4.525Y-4.2
X4.645Y-4.705
X4.645Y-4.955
X4.725Y-4.075
X4.725Y-4.2
X4.74Y-3.6
X4.8Y-3.505
X4.86Y-3.97
X4.86Y-4.705
X4.86Y-4.95
X4.875Y-3.75
X4.89Y-3.505
X4.89Y-3.68
X4.925Y-4.65
X4.9271Y-3.7521
T2
X3.17Y-3.9452
T4
X2.8706Y-4.7529
X2.9494Y-4.7529
T5
X3.165Y-4.865
X3.2Y-4.62
X3.375Y-3.885
X3.435Y-4.19
X3.745Y-3.925
X3.945Y-3.925
T6
X2.9898Y-3.6
X3.0898Y-3.6
X3.36Y-3.6
X3.46Y-3.6
X3.7498Y-3.6
X3.8498Y-3.6
X4.1498Y-3.6
X4.23Y-4.78
X4.23Y-4.88
X4.2498Y-3.6
X4.33Y-4.78
X4.33Y-4.88
X4.5276Y-3.6
X4.6276Y-3.6
T3
G00X3.6299Y-4.7561
M15
G01X3.6299Y-4.7994
M16
G05
G00X3.6299Y-4.9266
M15
G01X3.6299Y-4.9581
M16
G05
G00X3.9701Y-4.7561
M15
G01X3.9701Y-4.7994
M16
G05
G00X3.9701Y-4.9266
M15
G01X3.9701Y-4.9581
M16
G05
M30
