%TF.GenerationSoftware,KiCad,Pcbnew,9.0.4*%
%TF.CreationDate,2026-06-04T22:37:21-04:00*%
%TF.ProjectId,wrist_board,77726973-745f-4626-9f61-72642e6b6963,rev?*%
%TF.SameCoordinates,Original*%
%TF.FileFunction,Copper,L1,Top*%
%TF.FilePolarity,Positive*%
%FSLAX46Y46*%
G04 Gerber Fmt 4.6, Leading zero omitted, Abs format (unit mm)*
G04 Created by KiCad (PCBNEW 9.0.4) date 2026-06-04 22:37:21*
%MOMM*%
%LPD*%
G01*
G04 APERTURE LIST*
G04 Aperture macros list*
%AMRoundRect*
0 Rectangle with rounded corners*
0 $1 Rounding radius*
0 $2 $3 $4 $5 $6 $7 $8 $9 X,Y pos of 4 corners*
0 Add a 4 corners polygon primitive as box body*
4,1,4,$2,$3,$4,$5,$6,$7,$8,$9,$2,$3,0*
0 Add four circle primitives for the rounded corners*
1,1,$1+$1,$2,$3*
1,1,$1+$1,$4,$5*
1,1,$1+$1,$6,$7*
1,1,$1+$1,$8,$9*
0 Add four rect primitives between the rounded corners*
20,1,$1+$1,$2,$3,$4,$5,0*
20,1,$1+$1,$4,$5,$6,$7,0*
20,1,$1+$1,$6,$7,$8,$9,0*
20,1,$1+$1,$8,$9,$2,$3,0*%
G04 Aperture macros list end*
%TA.AperFunction,SMDPad,CuDef*%
%ADD10RoundRect,0.250000X-0.475000X0.250000X-0.475000X-0.250000X0.475000X-0.250000X0.475000X0.250000X0*%
%TD*%
%TA.AperFunction,ComponentPad*%
%ADD11R,1.900000X1.900000*%
%TD*%
%TA.AperFunction,ComponentPad*%
%ADD12C,1.900000*%
%TD*%
%TA.AperFunction,ComponentPad*%
%ADD13C,1.800000*%
%TD*%
%TA.AperFunction,SMDPad,CuDef*%
%ADD14RoundRect,0.150000X-0.512500X-0.150000X0.512500X-0.150000X0.512500X0.150000X-0.512500X0.150000X0*%
%TD*%
%TA.AperFunction,SMDPad,CuDef*%
%ADD15RoundRect,0.250000X0.503814X0.132583X0.132583X0.503814X-0.503814X-0.132583X-0.132583X-0.503814X0*%
%TD*%
%TA.AperFunction,SMDPad,CuDef*%
%ADD16RoundRect,0.250000X0.450000X-0.262500X0.450000X0.262500X-0.450000X0.262500X-0.450000X-0.262500X0*%
%TD*%
%TA.AperFunction,ComponentPad*%
%ADD17R,1.700000X1.700000*%
%TD*%
%TA.AperFunction,ComponentPad*%
%ADD18C,1.700000*%
%TD*%
%TA.AperFunction,SMDPad,CuDef*%
%ADD19RoundRect,0.243750X0.456250X-0.243750X0.456250X0.243750X-0.456250X0.243750X-0.456250X-0.243750X0*%
%TD*%
%TA.AperFunction,SMDPad,CuDef*%
%ADD20RoundRect,0.250000X0.250000X0.475000X-0.250000X0.475000X-0.250000X-0.475000X0.250000X-0.475000X0*%
%TD*%
%TA.AperFunction,SMDPad,CuDef*%
%ADD21RoundRect,0.243750X-0.243750X-0.456250X0.243750X-0.456250X0.243750X0.456250X-0.243750X0.456250X0*%
%TD*%
%TA.AperFunction,SMDPad,CuDef*%
%ADD22RoundRect,0.250000X0.475000X-0.250000X0.475000X0.250000X-0.475000X0.250000X-0.475000X-0.250000X0*%
%TD*%
%TA.AperFunction,SMDPad,CuDef*%
%ADD23R,1.700000X0.900000*%
%TD*%
%TA.AperFunction,SMDPad,CuDef*%
%ADD24RoundRect,0.250000X0.262500X0.450000X-0.262500X0.450000X-0.262500X-0.450000X0.262500X-0.450000X0*%
%TD*%
%TA.AperFunction,SMDPad,CuDef*%
%ADD25RoundRect,0.150000X-0.150000X-0.425000X0.150000X-0.425000X0.150000X0.425000X-0.150000X0.425000X0*%
%TD*%
%TA.AperFunction,SMDPad,CuDef*%
%ADD26RoundRect,0.075000X-0.075000X-0.500000X0.075000X-0.500000X0.075000X0.500000X-0.075000X0.500000X0*%
%TD*%
%TA.AperFunction,HeatsinkPad*%
%ADD27O,1.000000X2.100000*%
%TD*%
%TA.AperFunction,HeatsinkPad*%
%ADD28O,1.000000X1.800000*%
%TD*%
%TA.AperFunction,SMDPad,CuDef*%
%ADD29RoundRect,0.250000X-0.250000X-0.475000X0.250000X-0.475000X0.250000X0.475000X-0.250000X0.475000X0*%
%TD*%
%TA.AperFunction,SMDPad,CuDef*%
%ADD30RoundRect,0.243750X0.243750X0.456250X-0.243750X0.456250X-0.243750X-0.456250X0.243750X-0.456250X0*%
%TD*%
%TA.AperFunction,SMDPad,CuDef*%
%ADD31RoundRect,0.250000X-0.450000X0.262500X-0.450000X-0.262500X0.450000X-0.262500X0.450000X0.262500X0*%
%TD*%
%TA.AperFunction,SMDPad,CuDef*%
%ADD32RoundRect,0.150000X-0.500000X0.150000X-0.500000X-0.150000X0.500000X-0.150000X0.500000X0.150000X0*%
%TD*%
%TA.AperFunction,SMDPad,CuDef*%
%ADD33RoundRect,0.175000X-0.175000X0.350000X-0.175000X-0.350000X0.175000X-0.350000X0.175000X0.350000X0*%
%TD*%
%TA.AperFunction,SMDPad,CuDef*%
%ADD34R,0.900000X1.500000*%
%TD*%
%TA.AperFunction,SMDPad,CuDef*%
%ADD35R,1.500000X0.900000*%
%TD*%
%TA.AperFunction,SMDPad,CuDef*%
%ADD36R,0.900000X0.900000*%
%TD*%
%TA.AperFunction,SMDPad,CuDef*%
%ADD37RoundRect,0.250000X-0.503814X-0.132583X-0.132583X-0.503814X0.503814X0.132583X0.132583X0.503814X0*%
%TD*%
%TA.AperFunction,SMDPad,CuDef*%
%ADD38RoundRect,0.075000X-0.350000X-0.075000X0.350000X-0.075000X0.350000X0.075000X-0.350000X0.075000X0*%
%TD*%
%TA.AperFunction,SMDPad,CuDef*%
%ADD39RoundRect,0.075000X0.075000X-0.350000X0.075000X0.350000X-0.075000X0.350000X-0.075000X-0.350000X0*%
%TD*%
%TA.AperFunction,ComponentPad*%
%ADD40R,1.308000X1.308000*%
%TD*%
%TA.AperFunction,ComponentPad*%
%ADD41C,1.308000*%
%TD*%
%TA.AperFunction,SMDPad,CuDef*%
%ADD42RoundRect,0.062500X-0.375000X-0.062500X0.375000X-0.062500X0.375000X0.062500X-0.375000X0.062500X0*%
%TD*%
%TA.AperFunction,SMDPad,CuDef*%
%ADD43RoundRect,0.062500X-0.062500X-0.375000X0.062500X-0.375000X0.062500X0.375000X-0.062500X0.375000X0*%
%TD*%
%TA.AperFunction,HeatsinkPad*%
%ADD44R,1.600000X1.600000*%
%TD*%
%TA.AperFunction,ViaPad*%
%ADD45C,0.600000*%
%TD*%
%TA.AperFunction,Conductor*%
%ADD46C,0.300000*%
%TD*%
%TA.AperFunction,Conductor*%
%ADD47C,0.400000*%
%TD*%
%TA.AperFunction,Conductor*%
%ADD48C,0.200000*%
%TD*%
%TA.AperFunction,Conductor*%
%ADD49C,0.500000*%
%TD*%
%TA.AperFunction,Conductor*%
%ADD50C,0.600000*%
%TD*%
G04 APERTURE END LIST*
D10*
%TO.P,C13,2*%
%TO.N,GND*%
X112395000Y-92070000D03*
%TO.P,C13,1*%
%TO.N,/FS_1*%
X112395000Y-90170000D03*
%TD*%
D11*
%TO.P,J7,1,Pin_1*%
%TO.N,/FS_5*%
X76920000Y-88900000D03*
D12*
%TO.P,J7,2,Pin_2*%
%TO.N,GND*%
X73420000Y-88900000D03*
%TD*%
%TO.P,J6,2,Pin_2*%
%TO.N,GND*%
X84017500Y-88900000D03*
D11*
%TO.P,J6,1,Pin_1*%
%TO.N,/FS_4*%
X87517500Y-88900000D03*
%TD*%
%TO.P,J5,1,Pin_1*%
%TO.N,/FS_3*%
X98115000Y-88900000D03*
D12*
%TO.P,J5,2,Pin_2*%
%TO.N,GND*%
X94615000Y-88900000D03*
%TD*%
D11*
%TO.P,J4,1,Pin_1*%
%TO.N,/FS_2*%
X108712500Y-88900000D03*
D12*
%TO.P,J4,2,Pin_2*%
%TO.N,GND*%
X105212500Y-88900000D03*
%TD*%
D11*
%TO.P,J3,1,Pin_1*%
%TO.N,/FS_1*%
X119310000Y-88900000D03*
D12*
%TO.P,J3,2,Pin_2*%
%TO.N,GND*%
X115810000Y-88900000D03*
%TD*%
D13*
%TO.P,TP5,1,1*%
%TO.N,+5V*%
X83312000Y-116840000D03*
%TD*%
D14*
%TO.P,U2,1,IN*%
%TO.N,Net-(SW1-B)*%
X75957000Y-97922000D03*
%TO.P,U2,2,GND*%
%TO.N,GND*%
X75957000Y-98872000D03*
%TO.P,U2,3,EN*%
%TO.N,Net-(U2-EN)*%
X75957000Y-99822000D03*
%TO.P,U2,4,NC*%
%TO.N,unconnected-(U2-NC-Pad4)*%
X78232000Y-99822000D03*
%TO.P,U2,5,OUT*%
%TO.N,+3V3*%
X78232000Y-97922000D03*
%TD*%
D15*
%TO.P,R6,1*%
%TO.N,+3V3*%
X103261235Y-118501235D03*
%TO.P,R6,2*%
%TO.N,/INT*%
X101970765Y-117210765D03*
%TD*%
D16*
%TO.P,R13,1*%
%TO.N,+3V3*%
X102870000Y-111125000D03*
%TO.P,R13,2*%
%TO.N,/SCL*%
X102870000Y-109300000D03*
%TD*%
D13*
%TO.P,TP1,1,1*%
%TO.N,/INT*%
X87249000Y-106426000D03*
%TD*%
D17*
%TO.P,J8,1,Pin_1*%
%TO.N,/IO11*%
X109982000Y-121412000D03*
D18*
%TO.P,J8,2,Pin_2*%
%TO.N,/IO12*%
X109982000Y-123952000D03*
%TO.P,J8,3,Pin_3*%
%TO.N,/IO14*%
X107442000Y-121412000D03*
%TO.P,J8,4,Pin_4*%
%TO.N,/IO13*%
X107442000Y-123952000D03*
%TD*%
D19*
%TO.P,D2,1,K*%
%TO.N,Net-(D2-K)*%
X87630000Y-121666000D03*
%TO.P,D2,2,A*%
%TO.N,+5V*%
X87630000Y-119791000D03*
%TD*%
%TO.P,D3,1,K*%
%TO.N,Net-(D3-K)*%
X81788000Y-102616000D03*
%TO.P,D3,2,A*%
%TO.N,+3V3*%
X81788000Y-100741000D03*
%TD*%
D20*
%TO.P,C3,1*%
%TO.N,+3V3*%
X76642500Y-95504000D03*
%TO.P,C3,2*%
%TO.N,GND*%
X74742500Y-95504000D03*
%TD*%
D16*
%TO.P,R9,1*%
%TO.N,/FS_3*%
X91440000Y-88796500D03*
%TO.P,R9,2*%
%TO.N,+3V3*%
X91440000Y-86971500D03*
%TD*%
D21*
%TO.P,D1,1,K*%
%TO.N,/SYS*%
X78389000Y-117348000D03*
%TO.P,D1,2,A*%
%TO.N,Net-(D1-A)*%
X80264000Y-117348000D03*
%TD*%
D10*
%TO.P,C15,1*%
%TO.N,/SYS*%
X76200000Y-114300000D03*
%TO.P,C15,2*%
%TO.N,GND*%
X76200000Y-116200000D03*
%TD*%
%TO.P,C7,1*%
%TO.N,/FS_3*%
X91440000Y-90490000D03*
%TO.P,C7,2*%
%TO.N,GND*%
X91440000Y-92390000D03*
%TD*%
D22*
%TO.P,C2,1*%
%TO.N,/<NO NET>*%
X69088000Y-119700000D03*
%TO.P,C2,2*%
%TO.N,GND*%
X69088000Y-117800000D03*
%TD*%
D23*
%TO.P,SW3,1,1*%
%TO.N,GND*%
X123444000Y-124509000D03*
%TO.P,SW3,2,2*%
%TO.N,/EN*%
X123444000Y-121109000D03*
%TD*%
D13*
%TO.P,TP2,1,1*%
%TO.N,/SCL*%
X100203000Y-99695000D03*
%TD*%
D24*
%TO.P,R17,1*%
%TO.N,/BOOT*%
X115189000Y-119380000D03*
%TO.P,R17,2*%
%TO.N,+3V3*%
X113364000Y-119380000D03*
%TD*%
D20*
%TO.P,C9,1*%
%TO.N,/FS_5*%
X70038000Y-92456000D03*
%TO.P,C9,2*%
%TO.N,GND*%
X68138000Y-92456000D03*
%TD*%
D25*
%TO.P,J2,A1,GND*%
%TO.N,GND*%
X93320000Y-120780000D03*
%TO.P,J2,A4,VBUS*%
%TO.N,Net-(C1-Pad1)*%
X94120000Y-120780000D03*
D26*
%TO.P,J2,A5,CC1*%
%TO.N,Net-(J2-CC1)*%
X95270000Y-120780000D03*
%TO.P,J2,A6,D+*%
%TO.N,/D+*%
X96270000Y-120780000D03*
%TO.P,J2,A7,D-*%
%TO.N,/D-*%
X96770000Y-120780000D03*
%TO.P,J2,A8*%
%TO.N,N/C*%
X97770000Y-120780000D03*
D25*
%TO.P,J2,A9,VBUS*%
%TO.N,Net-(C1-Pad1)*%
X98920000Y-120780000D03*
%TO.P,J2,A12,GND*%
%TO.N,GND*%
X99720000Y-120780000D03*
%TO.P,J2,B1,GND*%
X99720000Y-120780000D03*
%TO.P,J2,B4,VBUS*%
%TO.N,Net-(C1-Pad1)*%
X98920000Y-120780000D03*
D26*
%TO.P,J2,B5,CC2*%
%TO.N,Net-(J2-CC2)*%
X98270000Y-120780000D03*
%TO.P,J2,B6,D+*%
%TO.N,/D+*%
X97270000Y-120780000D03*
%TO.P,J2,B7,D-*%
%TO.N,/D-*%
X95770000Y-120780000D03*
%TO.P,J2,B8*%
%TO.N,N/C*%
X94770000Y-120780000D03*
D25*
%TO.P,J2,B9,VBUS*%
%TO.N,Net-(C1-Pad1)*%
X94120000Y-120780000D03*
%TO.P,J2,B12,GND*%
%TO.N,GND*%
X93320000Y-120780000D03*
D27*
%TO.P,J2,S1,SHIELD*%
X92200000Y-121355000D03*
D28*
X92200000Y-125535000D03*
D27*
X100840000Y-121355000D03*
D28*
X100840000Y-125535000D03*
%TD*%
D16*
%TO.P,R12,1*%
%TO.N,/EN*%
X122555000Y-92352500D03*
%TO.P,R12,2*%
%TO.N,+3V3*%
X122555000Y-90527500D03*
%TD*%
%TO.P,R18,1*%
%TO.N,Net-(U1-TMR)*%
X78232000Y-105965000D03*
%TO.P,R18,2*%
%TO.N,GND*%
X78232000Y-104140000D03*
%TD*%
%TO.P,R8,1*%
%TO.N,/FS_2*%
X101600000Y-88542500D03*
%TO.P,R8,2*%
%TO.N,+3V3*%
X101600000Y-86717500D03*
%TD*%
%TO.P,R16,1*%
%TO.N,Net-(D3-K)*%
X84582000Y-102616000D03*
%TO.P,R16,2*%
%TO.N,GND*%
X84582000Y-100791000D03*
%TD*%
D10*
%TO.P,C8,1*%
%TO.N,/FS_4*%
X80772000Y-90490000D03*
%TO.P,C8,2*%
%TO.N,GND*%
X80772000Y-92390000D03*
%TD*%
D20*
%TO.P,C11,1*%
%TO.N,Net-(U3-REGOUT)*%
X95885000Y-112395000D03*
%TO.P,C11,2*%
%TO.N,GND*%
X93985000Y-112395000D03*
%TD*%
D29*
%TO.P,C4,1*%
%TO.N,+3V3*%
X79502000Y-95504000D03*
%TO.P,C4,2*%
%TO.N,GND*%
X81402000Y-95504000D03*
%TD*%
D30*
%TO.P,F1,1*%
%TO.N,Net-(C1-Pad1)*%
X91694000Y-117602000D03*
%TO.P,F1,2*%
%TO.N,+5V*%
X89819000Y-117602000D03*
%TD*%
D13*
%TO.P,TP3,1,1*%
%TO.N,/SDA*%
X95123000Y-99695000D03*
%TD*%
D15*
%TO.P,R7,1*%
%TO.N,+3V3*%
X103505000Y-104150235D03*
%TO.P,R7,2*%
%TO.N,/SDA*%
X102214530Y-102859765D03*
%TD*%
D16*
%TO.P,R1,1*%
%TO.N,Net-(J2-CC2)*%
X99314000Y-118364000D03*
%TO.P,R1,2*%
%TO.N,GND*%
X99314000Y-116539000D03*
%TD*%
D20*
%TO.P,C5,1*%
%TO.N,+3V3*%
X92456000Y-110236000D03*
%TO.P,C5,2*%
%TO.N,GND*%
X90556000Y-110236000D03*
%TD*%
D13*
%TO.P,TP6,1,1*%
%TO.N,+3V3*%
X86360000Y-97536000D03*
%TD*%
D31*
%TO.P,R20,1*%
%TO.N,Net-(U1-~{CHG})*%
X79756000Y-113284000D03*
%TO.P,R20,2*%
%TO.N,Net-(D1-A)*%
X79756000Y-115109000D03*
%TD*%
D32*
%TO.P,SW1,1,A*%
%TO.N,/SYS*%
X70530000Y-102906000D03*
%TO.P,SW1,2,B*%
%TO.N,Net-(SW1-B)*%
X70530000Y-105906000D03*
%TO.P,SW1,3*%
%TO.N,N/C*%
X70530000Y-107406000D03*
D33*
%TO.P,SW1,SH*%
X69680000Y-101481000D03*
X67480000Y-101481000D03*
X69680000Y-108831000D03*
X67480000Y-108831000D03*
%TD*%
D16*
%TO.P,R15,1*%
%TO.N,Net-(D2-K)*%
X85344000Y-121666000D03*
%TO.P,R15,2*%
%TO.N,GND*%
X85344000Y-119841000D03*
%TD*%
D23*
%TO.P,SW2,1,1*%
%TO.N,GND*%
X117983000Y-124509000D03*
%TO.P,SW2,2,2*%
%TO.N,/BOOT*%
X117983000Y-121109000D03*
%TD*%
D10*
%TO.P,C10,1*%
%TO.N,/<NO NET>*%
X69088000Y-121732000D03*
%TO.P,C10,2*%
%TO.N,GND*%
X69088000Y-123632000D03*
%TD*%
D20*
%TO.P,C1,1*%
%TO.N,Net-(C1-Pad1)*%
X91694000Y-114808000D03*
%TO.P,C1,2*%
%TO.N,GND*%
X89794000Y-114808000D03*
%TD*%
D16*
%TO.P,R19,1*%
%TO.N,Net-(U1-TS)*%
X72644000Y-109220000D03*
%TO.P,R19,2*%
%TO.N,GND*%
X72644000Y-107395000D03*
%TD*%
%TO.P,R4,1*%
%TO.N,Net-(U1-ISET)*%
X75184000Y-105965000D03*
%TO.P,R4,2*%
%TO.N,GND*%
X75184000Y-104140000D03*
%TD*%
D34*
%TO.P,X1,1,GND*%
%TO.N,GND*%
X125148000Y-97930000D03*
%TO.P,X1,2,3V3*%
%TO.N,+3V3*%
X123878000Y-97930000D03*
%TO.P,X1,3,EN*%
%TO.N,/EN*%
X122608000Y-97930000D03*
%TO.P,X1,4,IO4*%
%TO.N,/FS_1*%
X121338000Y-97930000D03*
%TO.P,X1,5,IO5*%
%TO.N,/FS_2*%
X120068000Y-97930000D03*
%TO.P,X1,6,IO6*%
%TO.N,/FS_3*%
X118798000Y-97930000D03*
%TO.P,X1,7,IO7*%
%TO.N,/FS_4*%
X117528000Y-97930000D03*
%TO.P,X1,8,IO15*%
%TO.N,unconnected-(X1-IO15-Pad8)*%
X116258000Y-97930000D03*
%TO.P,X1,9,IO16*%
%TO.N,unconnected-(X1-IO16-Pad9)*%
X114988000Y-97930000D03*
%TO.P,X1,10,IO17*%
%TO.N,unconnected-(X1-IO17-Pad10)*%
X113718000Y-97930000D03*
%TO.P,X1,11,IO18*%
%TO.N,unconnected-(X1-IO18-Pad11)*%
X112448000Y-97930000D03*
%TO.P,X1,12,IO8*%
%TO.N,/FS_5*%
X111178000Y-97930000D03*
%TO.P,X1,13,IO19*%
%TO.N,/D-*%
X109908000Y-97930000D03*
%TO.P,X1,14,IO20*%
%TO.N,/D+*%
X108638000Y-97930000D03*
D35*
%TO.P,X1,15,IO3*%
%TO.N,unconnected-(X1-IO3-Pad15)*%
X107388000Y-99695000D03*
%TO.P,X1,16,IO46*%
%TO.N,unconnected-(X1-IO46-Pad16)*%
X107388000Y-100965000D03*
%TO.P,X1,17,IO9*%
%TO.N,unconnected-(X1-IO9-Pad17)*%
X107388000Y-102235000D03*
%TO.P,X1,18,IO10*%
%TO.N,unconnected-(X1-IO10-Pad18)*%
X107388000Y-103505000D03*
%TO.P,X1,19,IO11*%
%TO.N,/IO11*%
X107388000Y-104775000D03*
%TO.P,X1,20,IO12*%
%TO.N,/IO12*%
X107388000Y-106045000D03*
%TO.P,X1,21,IO13*%
%TO.N,/IO13*%
X107388000Y-107315000D03*
%TO.P,X1,22,IO14*%
%TO.N,/IO14*%
X107388000Y-108585000D03*
%TO.P,X1,23,IO21*%
%TO.N,/SDA*%
X107388000Y-109855000D03*
%TO.P,X1,24,IO47*%
%TO.N,unconnected-(X1-IO47-Pad24)*%
X107388000Y-111125000D03*
%TO.P,X1,25,IO48*%
%TO.N,unconnected-(X1-IO48-Pad25)*%
X107388000Y-112395000D03*
%TO.P,X1,26,IO45*%
%TO.N,unconnected-(X1-IO45-Pad26)*%
X107388000Y-113665000D03*
D34*
%TO.P,X1,27,IO0*%
%TO.N,/BOOT*%
X108638000Y-115430000D03*
%TO.P,X1,28,IO35*%
%TO.N,unconnected-(X1-IO35-Pad28)*%
X109908000Y-115430000D03*
%TO.P,X1,29,IO36*%
%TO.N,unconnected-(X1-IO36-Pad29)*%
X111178000Y-115430000D03*
%TO.P,X1,30,IO37*%
%TO.N,unconnected-(X1-IO37-Pad30)*%
X112448000Y-115430000D03*
%TO.P,X1,31,IO38*%
%TO.N,/SCL*%
X113718000Y-115430000D03*
%TO.P,X1,32,IO39*%
%TO.N,unconnected-(X1-IO39-Pad32)*%
X114988000Y-115430000D03*
%TO.P,X1,33,IO40*%
%TO.N,unconnected-(X1-IO40-Pad33)*%
X116258000Y-115430000D03*
%TO.P,X1,34,IO41*%
%TO.N,unconnected-(X1-IO41-Pad34)*%
X117528000Y-115430000D03*
%TO.P,X1,35,IO42*%
%TO.N,unconnected-(X1-IO42-Pad35)*%
X118798000Y-115430000D03*
%TO.P,X1,36,RXD0*%
%TO.N,unconnected-(X1-RXD0-Pad36)*%
X120068000Y-115430000D03*
%TO.P,X1,37,TXD0*%
%TO.N,unconnected-(X1-TXD0-Pad37)*%
X121338000Y-115430000D03*
%TO.P,X1,38,IO2*%
%TO.N,/INT*%
X122608000Y-115430000D03*
%TO.P,X1,39,IO1*%
%TO.N,unconnected-(X1-IO1-Pad39)*%
X123878000Y-115430000D03*
%TO.P,X1,40,GND*%
%TO.N,GND*%
X125148000Y-115430000D03*
D36*
%TO.P,X1,41,GND*%
X117428000Y-105180000D03*
%TO.P,X1,42,GND*%
X118828000Y-105180000D03*
%TO.P,X1,43,GND*%
X118828000Y-103780000D03*
%TO.P,X1,44,GND*%
X117428000Y-103780000D03*
%TO.P,X1,45,GND*%
X116028000Y-103780000D03*
%TO.P,X1,46,GND*%
X116028000Y-105180000D03*
%TO.P,X1,47,GND*%
X116028000Y-106580000D03*
%TO.P,X1,48,GND*%
X117428000Y-106580000D03*
%TO.P,X1,49,GND*%
X118828000Y-106580000D03*
%TD*%
D37*
%TO.P,R3,1*%
%TO.N,Net-(U1-ILIM)*%
X81513530Y-108945530D03*
%TO.P,R3,2*%
%TO.N,GND*%
X82804000Y-110236000D03*
%TD*%
D20*
%TO.P,C12,1*%
%TO.N,Net-(U3-CPOUT)*%
X92390000Y-103505000D03*
%TO.P,C12,2*%
%TO.N,GND*%
X90490000Y-103505000D03*
%TD*%
D38*
%TO.P,U3,1,CLKIN*%
%TO.N,GND*%
X94525000Y-106020000D03*
%TO.P,U3,2,NC*%
%TO.N,unconnected-(U3-NC-Pad2)*%
X94525000Y-106520000D03*
%TO.P,U3,3,NC*%
%TO.N,unconnected-(U3-NC-Pad3)*%
X94525000Y-107020000D03*
%TO.P,U3,4,NC*%
%TO.N,unconnected-(U3-NC-Pad4)*%
X94525000Y-107520000D03*
%TO.P,U3,5,NC*%
%TO.N,unconnected-(U3-NC-Pad5)*%
X94525000Y-108020000D03*
%TO.P,U3,6,AUX_DA*%
%TO.N,unconnected-(U3-AUX_DA-Pad6)*%
X94525000Y-108520000D03*
D39*
%TO.P,U3,7,AUX_CL*%
%TO.N,unconnected-(U3-AUX_CL-Pad7)*%
X95225000Y-109220000D03*
%TO.P,U3,8,VLOGIC*%
%TO.N,+3V3*%
X95725000Y-109220000D03*
%TO.P,U3,9,AD0*%
%TO.N,GND*%
X96225000Y-109220000D03*
%TO.P,U3,10,REGOUT*%
%TO.N,Net-(U3-REGOUT)*%
X96725000Y-109220000D03*
%TO.P,U3,11,FSYNC*%
%TO.N,GND*%
X97225000Y-109220000D03*
%TO.P,U3,12,INT*%
%TO.N,/INT*%
X97725000Y-109220000D03*
D38*
%TO.P,U3,13,VDD*%
%TO.N,+3V3*%
X98425000Y-108520000D03*
%TO.P,U3,14,NC*%
%TO.N,unconnected-(U3-NC-Pad14)*%
X98425000Y-108020000D03*
%TO.P,U3,15,NC*%
%TO.N,unconnected-(U3-NC-Pad15)*%
X98425000Y-107520000D03*
%TO.P,U3,16,NC*%
%TO.N,unconnected-(U3-NC-Pad16)*%
X98425000Y-107020000D03*
%TO.P,U3,17,NC*%
%TO.N,unconnected-(U3-NC-Pad17)*%
X98425000Y-106520000D03*
%TO.P,U3,18,GND*%
%TO.N,GND*%
X98425000Y-106020000D03*
D39*
%TO.P,U3,19,RESV*%
%TO.N,unconnected-(U3-RESV-Pad19)*%
X97725000Y-105320000D03*
%TO.P,U3,20,CPOUT*%
%TO.N,Net-(U3-CPOUT)*%
X97225000Y-105320000D03*
%TO.P,U3,21,RESV*%
%TO.N,unconnected-(U3-RESV-Pad21)*%
X96725000Y-105320000D03*
%TO.P,U3,22,RESV*%
%TO.N,unconnected-(U3-RESV-Pad22)*%
X96225000Y-105320000D03*
%TO.P,U3,23,SCL*%
%TO.N,/SCL*%
X95725000Y-105320000D03*
%TO.P,U3,24,SDA*%
%TO.N,/SDA*%
X95225000Y-105320000D03*
%TD*%
D13*
%TO.P,TP4,1,1*%
%TO.N,GND*%
X80391000Y-123571000D03*
%TD*%
D16*
%TO.P,R10,1*%
%TO.N,/FS_4*%
X80772000Y-88796500D03*
%TO.P,R10,2*%
%TO.N,+3V3*%
X80772000Y-86971500D03*
%TD*%
D40*
%TO.P,J1,1,1*%
%TO.N,/<NO NET>*%
X72914000Y-120723500D03*
D41*
%TO.P,J1,2,2*%
%TO.N,GND*%
X74914000Y-120723500D03*
%TD*%
D24*
%TO.P,R11,1*%
%TO.N,/FS_5*%
X70000500Y-89916000D03*
%TO.P,R11,2*%
%TO.N,+3V3*%
X68175500Y-89916000D03*
%TD*%
D16*
%TO.P,R2,1*%
%TO.N,Net-(J2-CC1)*%
X94742000Y-118364000D03*
%TO.P,R2,2*%
%TO.N,GND*%
X94742000Y-116539000D03*
%TD*%
%TO.P,R14,1*%
%TO.N,/FS_1*%
X112395000Y-88514000D03*
%TO.P,R14,2*%
%TO.N,+3V3*%
X112395000Y-86689000D03*
%TD*%
D10*
%TO.P,C6,1*%
%TO.N,/FS_2*%
X101600000Y-90198500D03*
%TO.P,C6,2*%
%TO.N,GND*%
X101600000Y-92098500D03*
%TD*%
%TO.P,C14,1*%
%TO.N,+3V3*%
X125095000Y-90490000D03*
%TO.P,C14,2*%
%TO.N,GND*%
X125095000Y-92390000D03*
%TD*%
D42*
%TO.P,U1,1,TS*%
%TO.N,Net-(U1-TS)*%
X75378500Y-110102000D03*
%TO.P,U1,2,BAT*%
%TO.N,/<NO NET>*%
X75378500Y-110602000D03*
%TO.P,U1,3,BAT*%
X75378500Y-111102000D03*
%TO.P,U1,4,~{CE}*%
%TO.N,GND*%
X75378500Y-111602000D03*
D43*
%TO.P,U1,5,EN2*%
%TO.N,/SYS*%
X76066000Y-112289500D03*
%TO.P,U1,6,EN1*%
%TO.N,GND*%
X76566000Y-112289500D03*
%TO.P,U1,7,~{PGOOD}*%
%TO.N,unconnected-(U1-~{PGOOD}-Pad7)*%
X77066000Y-112289500D03*
%TO.P,U1,8,VSS*%
%TO.N,GND*%
X77566000Y-112289500D03*
D42*
%TO.P,U1,9,~{CHG}*%
%TO.N,Net-(U1-~{CHG})*%
X78253500Y-111602000D03*
%TO.P,U1,10,OUT*%
%TO.N,/SYS*%
X78253500Y-111102000D03*
%TO.P,U1,11,OUT*%
X78253500Y-110602000D03*
%TO.P,U1,12,ILIM*%
%TO.N,Net-(U1-ILIM)*%
X78253500Y-110102000D03*
D43*
%TO.P,U1,13,IN*%
%TO.N,+5V*%
X77566000Y-109414500D03*
%TO.P,U1,14,TMR*%
%TO.N,Net-(U1-TMR)*%
X77066000Y-109414500D03*
%TO.P,U1,15,SYSOFF*%
%TO.N,GND*%
X76566000Y-109414500D03*
%TO.P,U1,16,ISET*%
%TO.N,Net-(U1-ISET)*%
X76066000Y-109414500D03*
D44*
%TO.P,U1,17,VSS*%
%TO.N,GND*%
X76816000Y-110852000D03*
%TD*%
D31*
%TO.P,R5,1*%
%TO.N,Net-(SW1-B)*%
X73152000Y-98147500D03*
%TO.P,R5,2*%
%TO.N,Net-(U2-EN)*%
X73152000Y-99972500D03*
%TD*%
D45*
%TO.N,GND*%
X113792000Y-92964000D03*
%TO.N,+3V3*%
X112268000Y-85344000D03*
%TO.N,GND*%
X101600000Y-93472000D03*
%TO.N,+3V3*%
X101600000Y-85344000D03*
X80772000Y-85852000D03*
%TO.N,GND*%
X91440000Y-93472000D03*
%TO.N,+3V3*%
X91440000Y-85852000D03*
%TO.N,GND*%
X80772000Y-93472000D03*
X73660000Y-87376000D03*
X67056000Y-92456000D03*
%TO.N,+3V3*%
X67056000Y-89916000D03*
%TO.N,GND*%
X83820000Y-90932000D03*
X94488000Y-90932000D03*
X105156000Y-90932000D03*
X115824000Y-90932000D03*
%TO.N,+3V3*%
X122428000Y-88900000D03*
%TO.N,GND*%
X84582000Y-99568000D03*
X120015000Y-106680000D03*
X69088000Y-116652000D03*
X69088000Y-124780000D03*
X89408000Y-110236000D03*
X99568000Y-115316000D03*
X74676000Y-99060000D03*
X88392000Y-114808000D03*
X92964000Y-106172000D03*
X74168000Y-112776000D03*
X123444000Y-125730000D03*
X78232000Y-113284000D03*
X78232000Y-103020500D03*
X92710000Y-112395000D03*
X74930000Y-118364000D03*
X117983000Y-125857000D03*
X76200000Y-117348000D03*
X90805000Y-121412000D03*
X114935000Y-106680000D03*
X82672000Y-95758000D03*
X120015000Y-103505000D03*
X125148000Y-95303000D03*
X94742000Y-115316000D03*
X88900000Y-103505000D03*
X125095000Y-93787000D03*
X72644000Y-106172000D03*
X73274000Y-96012000D03*
X83820000Y-109220000D03*
X85344000Y-118618000D03*
X99695000Y-106045000D03*
X102362000Y-121412000D03*
X114935000Y-103505000D03*
X76708000Y-107950000D03*
X75184000Y-103020500D03*
X125095000Y-118110000D03*
X97647880Y-111902120D03*
X95885000Y-110490000D03*
%TO.N,+3V3*%
X104140000Y-119380000D03*
X104140000Y-105410000D03*
X102870000Y-112395000D03*
X123825000Y-95250000D03*
X95084997Y-110490000D03*
X125095000Y-89342000D03*
X99695000Y-108585000D03*
X112141000Y-119380000D03*
X79375000Y-96901000D03*
X79502000Y-99060000D03*
%TO.N,/INT*%
X99187000Y-110363000D03*
X90170000Y-106426000D03*
%TO.N,Net-(U3-CPOUT)*%
X93345000Y-103505000D03*
X97155000Y-104140000D03*
%TO.N,/SCL*%
X100330000Y-102235000D03*
X98806000Y-103886000D03*
%TO.N,/IO13*%
X109827882Y-112272520D03*
%TO.N,/IO12*%
X110617000Y-112141000D03*
%TO.N,/D+*%
X97345000Y-119696632D03*
X96095000Y-118999000D03*
X108794994Y-100330000D03*
%TO.N,/IO14*%
X108839000Y-112268000D03*
%TO.N,/D-*%
X96945000Y-118999000D03*
X109644994Y-100330000D03*
%TO.N,/IO11*%
X111506000Y-112141000D03*
%TO.N,/EN*%
X123444000Y-100838000D03*
X123444000Y-119507000D03*
%TO.N,/BOOT*%
X117983000Y-119507000D03*
X113411000Y-113792000D03*
%TO.N,/SYS*%
X79632135Y-111375865D03*
X70612000Y-104648000D03*
X75184000Y-113284000D03*
%TO.N,Net-(U1-ILIM)*%
X79756000Y-108712000D03*
X79329755Y-110154245D03*
%TD*%
D46*
%TO.N,GND*%
X112898000Y-92070000D02*
X113792000Y-92964000D01*
X112395000Y-92070000D02*
X112898000Y-92070000D01*
%TO.N,+3V3*%
X112395000Y-85471000D02*
X112268000Y-85344000D01*
X112395000Y-86689000D02*
X112395000Y-85471000D01*
%TO.N,/FS_1*%
X112395000Y-88514000D02*
X112395000Y-90170000D01*
X118009000Y-87599000D02*
X119310000Y-88900000D01*
X113310000Y-87599000D02*
X118009000Y-87599000D01*
X112395000Y-88514000D02*
X113310000Y-87599000D01*
D47*
%TO.N,/FS_5*%
X76920000Y-92160000D02*
X76920000Y-88900000D01*
X84305580Y-94173000D02*
X78933000Y-94173000D01*
X85128580Y-94996000D02*
X84305580Y-94173000D01*
X89574058Y-94996000D02*
X85128580Y-94996000D01*
X90429058Y-95851000D02*
X89574058Y-94996000D01*
X109821000Y-95851000D02*
X90429058Y-95851000D01*
X78933000Y-94173000D02*
X76920000Y-92160000D01*
X111178000Y-97930000D02*
X111178000Y-97208000D01*
X111178000Y-97208000D02*
X109821000Y-95851000D01*
%TO.N,/FS_4*%
X87517500Y-92089500D02*
X87517500Y-88900000D01*
X116205000Y-95250000D02*
X90678000Y-95250000D01*
X90678000Y-95250000D02*
X87517500Y-92089500D01*
X117528000Y-96573000D02*
X116205000Y-95250000D01*
X117528000Y-97930000D02*
X117528000Y-96573000D01*
%TO.N,/FS_3*%
X98115000Y-92527000D02*
X98115000Y-88900000D01*
X100203000Y-94615000D02*
X98115000Y-92527000D01*
X116840000Y-94615000D02*
X100203000Y-94615000D01*
X118798000Y-97930000D02*
X118798000Y-96573000D01*
X118798000Y-96573000D02*
X116840000Y-94615000D01*
%TO.N,/FS_2*%
X108712500Y-91948500D02*
X108712500Y-88900000D01*
X117475000Y-93980000D02*
X110744000Y-93980000D01*
X120068000Y-96573000D02*
X117475000Y-93980000D01*
X120068000Y-97930000D02*
X120068000Y-96573000D01*
X110744000Y-93980000D02*
X108712500Y-91948500D01*
D46*
%TO.N,/FS_1*%
X119310000Y-94418000D02*
X119310000Y-88900000D01*
X121338000Y-96446000D02*
X119310000Y-94418000D01*
X121338000Y-97930000D02*
X121338000Y-96446000D01*
%TO.N,GND*%
X101600000Y-92098500D02*
X101600000Y-93472000D01*
%TO.N,+3V3*%
X101600000Y-86717500D02*
X101600000Y-85344000D01*
%TO.N,/FS_2*%
X107411500Y-87599000D02*
X102543500Y-87599000D01*
X108712500Y-88900000D02*
X107411500Y-87599000D01*
X102543500Y-87599000D02*
X101600000Y-88542500D01*
%TO.N,+3V3*%
X80772000Y-86971500D02*
X80772000Y-85852000D01*
%TO.N,GND*%
X91440000Y-92390000D02*
X91440000Y-93472000D01*
%TO.N,+3V3*%
X91440000Y-86971500D02*
X91440000Y-85852000D01*
%TO.N,/FS_3*%
X91440000Y-88796500D02*
X91440000Y-90490000D01*
X92637500Y-87599000D02*
X91440000Y-88796500D01*
X96814000Y-87599000D02*
X92637500Y-87599000D01*
X98115000Y-88900000D02*
X96814000Y-87599000D01*
%TO.N,GND*%
X80772000Y-92390000D02*
X80772000Y-93472000D01*
%TO.N,/FS_4*%
X80772000Y-88796500D02*
X80772000Y-90490000D01*
X86216500Y-87599000D02*
X81969500Y-87599000D01*
X87517500Y-88900000D02*
X86216500Y-87599000D01*
X81969500Y-87599000D02*
X80772000Y-88796500D01*
%TO.N,GND*%
X73420000Y-87616000D02*
X73660000Y-87376000D01*
X73420000Y-88900000D02*
X73420000Y-87616000D01*
X68138000Y-92456000D02*
X67056000Y-92456000D01*
%TO.N,+3V3*%
X68175500Y-89916000D02*
X67056000Y-89916000D01*
%TO.N,/FS_5*%
X70000500Y-92418500D02*
X70038000Y-92456000D01*
X70000500Y-89916000D02*
X70000500Y-92418500D01*
X75619000Y-90201000D02*
X70285500Y-90201000D01*
X76920000Y-88900000D02*
X75619000Y-90201000D01*
X70285500Y-90201000D02*
X70000500Y-89916000D01*
%TO.N,GND*%
X84017500Y-90734500D02*
X83820000Y-90932000D01*
X84017500Y-88900000D02*
X84017500Y-90734500D01*
X94615000Y-90805000D02*
X94488000Y-90932000D01*
X94615000Y-88900000D02*
X94615000Y-90805000D01*
X105212500Y-90875500D02*
X105156000Y-90932000D01*
X105212500Y-88900000D02*
X105212500Y-90875500D01*
X115810000Y-90918000D02*
X115824000Y-90932000D01*
X115810000Y-88900000D02*
X115810000Y-90918000D01*
%TO.N,+3V3*%
X125057500Y-90527500D02*
X125095000Y-90490000D01*
X122555000Y-90527500D02*
X125057500Y-90527500D01*
X122555000Y-89027000D02*
X122428000Y-88900000D01*
X122555000Y-90527500D02*
X122555000Y-89027000D01*
%TO.N,/EN*%
X122555000Y-92352500D02*
X122555000Y-97877000D01*
D48*
X122555000Y-97877000D02*
X122608000Y-97930000D01*
D46*
%TO.N,GND*%
X97225000Y-109220000D02*
X97225000Y-111479240D01*
X125095000Y-92390000D02*
X125095000Y-93787000D01*
X74914000Y-120723500D02*
X77543500Y-120723500D01*
X90862000Y-121355000D02*
X90805000Y-121412000D01*
X76566000Y-112289500D02*
X76566000Y-112813510D01*
X93116000Y-106020000D02*
X92964000Y-106172000D01*
D48*
X76200000Y-116200000D02*
X76200000Y-117348000D01*
D46*
X78036490Y-113284000D02*
X78232000Y-113284000D01*
D49*
X116028000Y-106580000D02*
X117428000Y-106580000D01*
X116028000Y-103780000D02*
X117428000Y-103780000D01*
D46*
X78232000Y-104140000D02*
X78232000Y-103020500D01*
D49*
X118828000Y-103780000D02*
X119740000Y-103780000D01*
X119915000Y-106580000D02*
X120015000Y-106680000D01*
D46*
X74864000Y-98872000D02*
X74676000Y-99060000D01*
X93985000Y-112395000D02*
X92710000Y-112395000D01*
D49*
X116028000Y-103780000D02*
X116028000Y-105180000D01*
D46*
X72644000Y-107395000D02*
X72644000Y-106172000D01*
D47*
X102305000Y-121355000D02*
X102362000Y-121412000D01*
D46*
X90490000Y-103505000D02*
X88900000Y-103505000D01*
X94742000Y-116539000D02*
X94742000Y-115316000D01*
D47*
X92200000Y-121355000D02*
X90862000Y-121355000D01*
D48*
X96225000Y-109220000D02*
X96225000Y-110150000D01*
D46*
X84582000Y-100791000D02*
X84582000Y-99568000D01*
D49*
X125148000Y-97930000D02*
X125148000Y-95303000D01*
D46*
X97225000Y-111479240D02*
X97647880Y-111902120D01*
D47*
X74914000Y-118380000D02*
X74930000Y-118364000D01*
D46*
X77301510Y-113078000D02*
X77566000Y-112813510D01*
D49*
X117428000Y-106580000D02*
X118828000Y-106580000D01*
X116028000Y-105180000D02*
X116028000Y-106580000D01*
X125148000Y-118057000D02*
X125095000Y-118110000D01*
D46*
X77566000Y-112813510D02*
X77566000Y-112289500D01*
X75184000Y-104140000D02*
X75184000Y-103020500D01*
X82804000Y-110236000D02*
X83820000Y-109220000D01*
X82418000Y-95504000D02*
X82672000Y-95758000D01*
X76830490Y-113078000D02*
X77301510Y-113078000D01*
D48*
X76566000Y-108092000D02*
X76708000Y-107950000D01*
X76566000Y-109414500D02*
X76566000Y-108092000D01*
X76566000Y-109414500D02*
X76566000Y-110602000D01*
D49*
X125095000Y-95250000D02*
X125148000Y-95303000D01*
D47*
X69088000Y-117800000D02*
X69088000Y-116652000D01*
X100840000Y-121355000D02*
X102305000Y-121355000D01*
D49*
X125148000Y-115430000D02*
X125148000Y-118057000D01*
X117428000Y-105180000D02*
X118828000Y-105180000D01*
D47*
X69088000Y-123632000D02*
X69088000Y-124780000D01*
D46*
X100265000Y-120780000D02*
X99720000Y-120780000D01*
X75957000Y-98872000D02*
X74864000Y-98872000D01*
X75342000Y-111602000D02*
X74168000Y-112776000D01*
D47*
X74914000Y-120723500D02*
X74914000Y-118380000D01*
D46*
X99670000Y-106020000D02*
X99695000Y-106045000D01*
D49*
X118828000Y-106580000D02*
X119915000Y-106580000D01*
X118828000Y-103780000D02*
X117428000Y-103780000D01*
D46*
X73782000Y-95504000D02*
X73274000Y-96012000D01*
D49*
X115210000Y-103780000D02*
X114935000Y-103505000D01*
D47*
X85344000Y-119841000D02*
X85344000Y-118618000D01*
D48*
X76566000Y-110602000D02*
X76816000Y-110852000D01*
D46*
X77543500Y-120723500D02*
X80391000Y-123571000D01*
D48*
X76566000Y-112289500D02*
X76566000Y-111102000D01*
D46*
X99314000Y-116539000D02*
X99314000Y-115570000D01*
X89794000Y-114808000D02*
X88392000Y-114808000D01*
D48*
X76566000Y-111102000D02*
X76816000Y-110852000D01*
D46*
X90556000Y-110236000D02*
X89408000Y-110236000D01*
X92775000Y-120780000D02*
X92200000Y-121355000D01*
D49*
X119740000Y-103780000D02*
X120015000Y-103505000D01*
D46*
X100265000Y-120780000D02*
X100840000Y-121355000D01*
D49*
X118828000Y-105180000D02*
X118828000Y-103780000D01*
D46*
X117983000Y-124509000D02*
X117983000Y-125857000D01*
X77566000Y-112813510D02*
X78036490Y-113284000D01*
X81402000Y-95504000D02*
X82418000Y-95504000D01*
X94525000Y-106020000D02*
X93116000Y-106020000D01*
X74742500Y-95504000D02*
X73782000Y-95504000D01*
D48*
X96225000Y-110150000D02*
X95885000Y-110490000D01*
D46*
X76566000Y-112813510D02*
X76830490Y-113078000D01*
X123444000Y-124509000D02*
X123444000Y-125730000D01*
X75378500Y-111602000D02*
X75342000Y-111602000D01*
X93320000Y-120780000D02*
X92775000Y-120780000D01*
D49*
X115035000Y-106580000D02*
X114935000Y-106680000D01*
X116028000Y-103780000D02*
X115210000Y-103780000D01*
D46*
X98425000Y-106020000D02*
X99670000Y-106020000D01*
D49*
X116028000Y-106580000D02*
X115035000Y-106580000D01*
D46*
X99314000Y-115570000D02*
X99568000Y-115316000D01*
%TO.N,+3V3*%
X78232000Y-97922000D02*
X76642500Y-96332500D01*
X113364000Y-119380000D02*
X112141000Y-119380000D01*
X98425000Y-108520000D02*
X99630000Y-108520000D01*
X78354000Y-98044000D02*
X78232000Y-97922000D01*
D50*
X79502000Y-99060000D02*
X78364000Y-97922000D01*
D48*
X95725000Y-109800057D02*
X95084997Y-110440060D01*
D49*
X123878000Y-97930000D02*
X123878000Y-95303000D01*
D46*
X78232000Y-97922000D02*
X78969000Y-97922000D01*
X99630000Y-108520000D02*
X99695000Y-108585000D01*
X85852000Y-98044000D02*
X78354000Y-98044000D01*
X78969000Y-97922000D02*
X81788000Y-100741000D01*
X102870000Y-111125000D02*
X102870000Y-112395000D01*
X86360000Y-97536000D02*
X85852000Y-98044000D01*
D50*
X79375000Y-96901000D02*
X78354000Y-97922000D01*
X78364000Y-97922000D02*
X78232000Y-97922000D01*
D48*
X95084997Y-110440060D02*
X95084997Y-110490000D01*
D46*
X103505000Y-104150235D02*
X103505000Y-104775000D01*
D49*
X123878000Y-95303000D02*
X123825000Y-95250000D01*
D46*
X125095000Y-90490000D02*
X125095000Y-89342000D01*
D48*
X95725000Y-109220000D02*
X95725000Y-109800057D01*
D46*
X103261235Y-118501235D02*
X104140000Y-119380000D01*
X78232000Y-97922000D02*
X78232000Y-96774000D01*
X103505000Y-104775000D02*
X104140000Y-105410000D01*
D48*
X95289057Y-110236000D02*
X92456000Y-110236000D01*
D46*
X78232000Y-96774000D02*
X79502000Y-95504000D01*
X76642500Y-96332500D02*
X76642500Y-95504000D01*
D50*
X78354000Y-97922000D02*
X78232000Y-97922000D01*
D46*
%TO.N,/SDA*%
X106753520Y-109855000D02*
X100684260Y-103785740D01*
X101288555Y-103785740D02*
X102214530Y-102859765D01*
X95225000Y-104091479D02*
X95225000Y-105320000D01*
X95123000Y-99695000D02*
X96947479Y-101519479D01*
X96947479Y-102369000D02*
X95225000Y-104091479D01*
X100684260Y-103785740D02*
X99267520Y-102369000D01*
X96947479Y-101519479D02*
X96947479Y-102369000D01*
X99267520Y-102369000D02*
X96947479Y-102369000D01*
X100684260Y-103785740D02*
X101288555Y-103785740D01*
X107388000Y-109855000D02*
X106753520Y-109855000D01*
%TO.N,/INT*%
X101970765Y-116469235D02*
X102552500Y-115887500D01*
X98490000Y-111060000D02*
X97725000Y-111060000D01*
X114935000Y-118110000D02*
X104775000Y-118110000D01*
X99187000Y-110363000D02*
X98490000Y-111060000D01*
X122608000Y-115430000D02*
X122608000Y-116062000D01*
X102552500Y-115887500D02*
X97725000Y-111060000D01*
X122608000Y-116062000D02*
X120560000Y-118110000D01*
X97725000Y-111060000D02*
X97725000Y-109220000D01*
X120560000Y-118110000D02*
X114935000Y-118110000D01*
X87249000Y-106426000D02*
X90170000Y-106426000D01*
X101970765Y-117210765D02*
X101970765Y-116469235D01*
X104775000Y-118110000D02*
X102552500Y-115887500D01*
D48*
%TO.N,Net-(U3-CPOUT)*%
X97155000Y-104140000D02*
X97225000Y-104210000D01*
D46*
X92390000Y-103505000D02*
X93345000Y-103505000D01*
X97225000Y-104210000D02*
X97225000Y-105320000D01*
%TO.N,/SCL*%
X99060000Y-102870000D02*
X97155000Y-102870000D01*
X97155000Y-102870000D02*
X97790000Y-102870000D01*
X101600000Y-105410000D02*
X99060000Y-102870000D01*
X95725000Y-104300000D02*
X95725000Y-105320000D01*
X100203000Y-102108000D02*
X100330000Y-102235000D01*
X113718000Y-115430000D02*
X113718000Y-116480000D01*
X101600000Y-114226480D02*
X101600000Y-108585000D01*
X102870000Y-109300000D02*
X102315000Y-109300000D01*
X97155000Y-102870000D02*
X95725000Y-104300000D01*
X113718000Y-116480000D02*
X112723000Y-117475000D01*
X101600000Y-108585000D02*
X101600000Y-105410000D01*
X102315000Y-109300000D02*
X101600000Y-108585000D01*
X97790000Y-102870000D02*
X98806000Y-103886000D01*
X100203000Y-99695000D02*
X100203000Y-102108000D01*
X112723000Y-117475000D02*
X104848520Y-117475000D01*
X104848520Y-117475000D02*
X101600000Y-114226480D01*
%TO.N,Net-(U3-REGOUT)*%
X96725000Y-111555000D02*
X95885000Y-112395000D01*
X96725000Y-109220000D02*
X96725000Y-111555000D01*
%TO.N,/<NO NET>*%
X72914000Y-113014000D02*
X74826000Y-111102000D01*
X71890500Y-119700000D02*
X72914000Y-120723500D01*
X72914000Y-120723500D02*
X72914000Y-113014000D01*
D48*
X75378500Y-110602000D02*
X75378500Y-111102000D01*
D47*
X72618600Y-120428100D02*
X72914000Y-120723500D01*
D46*
X74826000Y-111102000D02*
X75378500Y-111102000D01*
X71905500Y-121732000D02*
X72914000Y-120723500D01*
X69088000Y-119700000D02*
X71890500Y-119700000D01*
X69088000Y-121732000D02*
X71905500Y-121732000D01*
%TO.N,Net-(D3-K)*%
X81788000Y-102616000D02*
X84582000Y-102616000D01*
D47*
%TO.N,Net-(D2-K)*%
X87630000Y-121666000D02*
X85344000Y-121666000D01*
D46*
%TO.N,Net-(J2-CC2)*%
X99314000Y-118364000D02*
X98270000Y-119408000D01*
X98270000Y-119408000D02*
X98270000Y-120780000D01*
%TO.N,Net-(J2-CC1)*%
X94742000Y-118364000D02*
X95270000Y-118892000D01*
X95270000Y-118892000D02*
X95270000Y-120780000D01*
%TO.N,Net-(U2-EN)*%
X75806500Y-99972500D02*
X75957000Y-99822000D01*
X73152000Y-99972500D02*
X75806500Y-99972500D01*
%TO.N,Net-(SW1-B)*%
X72101000Y-99198500D02*
X72101000Y-104335000D01*
X73152000Y-98147500D02*
X72101000Y-99198500D01*
X73152000Y-98147500D02*
X75731500Y-98147500D01*
X75731500Y-98147500D02*
X75957000Y-97922000D01*
X72101000Y-104335000D02*
X70530000Y-105906000D01*
D47*
%TO.N,/FS_2*%
X101600000Y-90198500D02*
X101600000Y-88542500D01*
%TO.N,+5V*%
X89819000Y-117602000D02*
X89662000Y-117602000D01*
D46*
X83312000Y-116840000D02*
X81280000Y-114808000D01*
X81280000Y-114808000D02*
X81280000Y-110744000D01*
X81280000Y-110744000D02*
X79950500Y-109414500D01*
D47*
X89662000Y-117602000D02*
X88900000Y-116840000D01*
D46*
X79950500Y-109414500D02*
X77566000Y-109414500D01*
D47*
X88900000Y-116840000D02*
X83312000Y-116840000D01*
X89819000Y-117602000D02*
X87630000Y-119791000D01*
D48*
%TO.N,Net-(C1-Pad1)*%
X94879000Y-122057000D02*
X98101824Y-122057000D01*
X98101824Y-122057000D02*
X98920000Y-121238824D01*
D47*
X94120000Y-120028000D02*
X91694000Y-117602000D01*
X94120000Y-120780000D02*
X94120000Y-120028000D01*
D48*
X98920000Y-121238824D02*
X98920000Y-120780000D01*
D46*
X91694000Y-114808000D02*
X91694000Y-117602000D01*
D48*
X94120000Y-120780000D02*
X94120000Y-121298000D01*
X94120000Y-121298000D02*
X94879000Y-122057000D01*
%TO.N,/IO13*%
X107920000Y-107315000D02*
X107388000Y-107315000D01*
X109827882Y-112272520D02*
X109474000Y-111918638D01*
X109474000Y-108869000D02*
X107920000Y-107315000D01*
X109474000Y-111918638D02*
X109474000Y-108869000D01*
%TO.N,/IO12*%
X110236000Y-108361000D02*
X107920000Y-106045000D01*
X107920000Y-106045000D02*
X107388000Y-106045000D01*
X110617000Y-112141000D02*
X110236000Y-111760000D01*
X110236000Y-111760000D02*
X110236000Y-108361000D01*
%TO.N,/D+*%
X108712000Y-98981000D02*
X108638000Y-98981000D01*
X97270000Y-120780000D02*
X97270000Y-119771632D01*
X96295000Y-119199000D02*
X96295000Y-119888000D01*
X108794994Y-100330000D02*
X108712000Y-100247006D01*
X108638000Y-98981000D02*
X108638000Y-97930000D01*
X96270000Y-119913000D02*
X96270000Y-120780000D01*
X96295000Y-119888000D02*
X96270000Y-119913000D01*
X96095000Y-118999000D02*
X96295000Y-119199000D01*
X96270000Y-120780000D02*
X96294999Y-120755001D01*
X97270000Y-119771632D02*
X97345000Y-119696632D01*
X108712000Y-100247006D02*
X108712000Y-98981000D01*
%TO.N,/IO14*%
X107388000Y-108585000D02*
X107920000Y-108585000D01*
X107920000Y-108585000D02*
X108839000Y-109504000D01*
X108839000Y-109504000D02*
X108839000Y-112268000D01*
%TO.N,/D-*%
X96770000Y-119913000D02*
X96770000Y-120780000D01*
X109644994Y-100116397D02*
X109728000Y-100033391D01*
X109728000Y-100033391D02*
X109728000Y-98110000D01*
X109644994Y-100330000D02*
X109644994Y-100116397D01*
X96945000Y-118999000D02*
X96745000Y-119199000D01*
X95770000Y-120780000D02*
X95770000Y-121388824D01*
X96745000Y-119199000D02*
X96745000Y-119888000D01*
X96037176Y-121656000D02*
X96530000Y-121656000D01*
X95770000Y-121388824D02*
X96037176Y-121656000D01*
X96530000Y-121656000D02*
X96770000Y-121416000D01*
X96770000Y-120780000D02*
X96745001Y-120755001D01*
X96745000Y-119888000D02*
X96770000Y-119913000D01*
X96770000Y-121416000D02*
X96770000Y-120780000D01*
X109728000Y-98110000D02*
X109908000Y-97930000D01*
%TO.N,/IO11*%
X111125000Y-107562000D02*
X108338000Y-104775000D01*
X108338000Y-104775000D02*
X107388000Y-104775000D01*
X111125000Y-111760000D02*
X111125000Y-107562000D01*
X111506000Y-112141000D02*
X111125000Y-111760000D01*
D46*
%TO.N,/EN*%
X123444000Y-121109000D02*
X123444000Y-119507000D01*
X122608000Y-100002000D02*
X122608000Y-97930000D01*
X123444000Y-100838000D02*
X122608000Y-100002000D01*
%TO.N,/BOOT*%
X116254000Y-119380000D02*
X117983000Y-121109000D01*
X113411000Y-113792000D02*
X109347000Y-113792000D01*
X109347000Y-113792000D02*
X108638000Y-114501000D01*
X108638000Y-114501000D02*
X108638000Y-115430000D01*
X115189000Y-119380000D02*
X116254000Y-119380000D01*
X117983000Y-119507000D02*
X117983000Y-121109000D01*
D48*
%TO.N,/SYS*%
X76066000Y-114166000D02*
X76200000Y-114300000D01*
D46*
X76066000Y-113792000D02*
X75692000Y-113792000D01*
X76066000Y-113792000D02*
X76066000Y-114166000D01*
X78858270Y-110602000D02*
X79632135Y-111375865D01*
X75692000Y-113792000D02*
X75184000Y-113284000D01*
X78389000Y-116489000D02*
X76200000Y-114300000D01*
D47*
X70530000Y-102906000D02*
X70530000Y-104566000D01*
X70530000Y-104566000D02*
X70612000Y-104648000D01*
D46*
X78253500Y-110602000D02*
X78858270Y-110602000D01*
X78389000Y-117348000D02*
X78389000Y-116489000D01*
X76066000Y-112289500D02*
X76066000Y-113792000D01*
X78253500Y-110602000D02*
X78253500Y-111102000D01*
D48*
%TO.N,Net-(U1-~{CHG})*%
X79756000Y-113104500D02*
X79756000Y-113284000D01*
D46*
X78253500Y-111602000D02*
X79756000Y-113104500D01*
%TO.N,Net-(U1-ISET)*%
X76066000Y-108474500D02*
X75184000Y-107592500D01*
X76066000Y-109414500D02*
X76066000Y-108474500D01*
X75184000Y-107592500D02*
X75184000Y-105965000D01*
%TO.N,Net-(U1-TMR)*%
X78232000Y-107592500D02*
X77065000Y-108759500D01*
X77065000Y-108759500D02*
X77065000Y-109414500D01*
X78232000Y-105965000D02*
X78232000Y-107592500D01*
%TO.N,Net-(U1-TS)*%
X73526000Y-110102000D02*
X72644000Y-109220000D01*
X75378500Y-110102000D02*
X73526000Y-110102000D01*
D48*
%TO.N,Net-(U1-ILIM)*%
X81280000Y-108712000D02*
X81513530Y-108945530D01*
D46*
X79756000Y-108712000D02*
X81280000Y-108712000D01*
D48*
X79277510Y-110102000D02*
X79329755Y-110154245D01*
D46*
X78253500Y-110102000D02*
X79277510Y-110102000D01*
%TO.N,Net-(D1-A)*%
X79756000Y-115109000D02*
X79756000Y-116840000D01*
X79756000Y-116840000D02*
X80264000Y-117348000D01*
%TD*%
M02*
